<svg xmlns="http://www.w3.org/2000/svg" viewBox="0 0 258.1 154.9"><path d="M180.833 0H77.5C34.583 0 0 34.583 0 77.5S34.583 155 77.5 155h103.333c42.917 0 77.5-34.583 77.5-77.5-.416-42.917-35-77.5-77.5-77.5z" fill="#fff"/><path d="M198.75 72.917l34.167 40.833c7.083-10.417 11.25-22.917 11.25-36.25 0-14.167-4.583-27.083-12.5-37.917L198.75 72.917zm-97.5-36.667c25.833 0 45 6.667 47.083 27.917l27.084-28.334h53.75c-11.667-13.75-29.167-22.5-48.334-22.5H77.5C57.917 13.75 40.833 22.5 29.167 36.25h72.083zM59.167 63.333l-9.167 25h37.083c10.834 0 14.167-4.583 16.667-13.333 2.5-8.75-3.75-12.083-11.25-12.083-6.25.416-33.333.416-33.333.416zm116.25 53.75l-28.334-36.25c-5.416 24.584-22.5 36.25-55 36.25H27.5c11.667 14.584 29.583 24.167 50 24.167h103.333c20 0 38.334-9.583 50-24.167h-55.416z" fill-rule="evenodd" clip-rule="evenodd" fill="#de0000"/></svg>