<svg version="1.1" id="Layer_1" xmlns="http://www.w3.org/2000/svg" x="0" y="0" viewBox="0 0 380 243.1" xml:space="preserve"><style>.st2{fill:#231f20}</style><path id="XMLID_428_" fill="#fff" d="M1.3 1.5h377.3v240.2H1.4z"/><path id="XMLID_427_" d="M377.3 135.1S274.2 207.8 85.4 240.4h291.9V135.1z" fill="#f48120"/><path id="XMLID_2_" class="st2" d="M378.6.1H0v243h380V0h-1.4v.1zm-1.3 2.7v237.5H2.8V2.8h374.5z"/><path class="st2" d="M33.2 74.4H17.5v55h15.7c8.3 0 14.3-2 19.6-6.3 6.3-5.2 10-13 10-21.1-.1-16.3-12.2-27.6-29.6-27.6zm12.6 41.4c-3.4 3-7.7 4.4-14.7 4.4h-2.9V83.8h2.9c6.9 0 11.1 1.2 14.7 4.4 3.7 3.3 5.9 8.4 5.9 13.7 0 5.3-2.2 10.6-5.9 13.9z"/><path id="XMLID_422_" class="st2" d="M67.7 74.4h10.7v55H67.7z"/><path id="XMLID_421_" class="st2" d="M104.6 95.5c-6.4-2.4-8.3-4-8.3-6.9 0-3.5 3.4-6.1 8-6.1 3.2 0 5.9 1.3 8.6 4.5l5.6-7.3c-4.6-4-10.1-6.1-16.2-6.1-9.7 0-17.2 6.8-17.2 15.8 0 7.6 3.5 11.5 13.5 15.1 4.2 1.5 6.3 2.5 7.4 3.1 2.1 1.4 3.2 3.4 3.2 5.7 0 4.5-3.5 7.8-8.3 7.8-5.1 0-9.2-2.6-11.7-7.3l-6.9 6.7c4.9 7.3 10.9 10.5 19 10.5 11.1 0 19-7.4 19-18.1.2-8.9-3.5-12.9-15.7-17.4z"/><path id="XMLID_420_" class="st2" d="M123.8 102c0 16.2 12.7 28.7 29 28.7 4.6 0 8.6-.9 13.4-3.2v-12.6c-4.3 4.3-8.1 6-12.9 6-10.8 0-18.5-7.8-18.5-19 0-10.6 7.9-18.9 18-18.9 5.1 0 9 1.8 13.4 6.2V76.6c-4.7-2.4-8.6-3.4-13.2-3.4-16.1 0-29.2 12.8-29.2 28.8z"/><path id="XMLID_419_" class="st2" d="M251.4 111.4l-14.7-37H225l23.3 56.4h5.8l23.7-56.4h-11.6z"/><path id="XMLID_418_" class="st2" d="M282.7 129.4h30.4v-9.3h-19.7v-14.8h19V96h-19V83.8h19.7v-9.4h-30.4z"/><path class="st2" d="M355.6 90.7c0-10.3-7.1-16.2-19.5-16.2h-15.9v55h10.7v-22.1h1.4l14.8 22.1h13.2L343 106.3c8.1-1.7 12.6-7.2 12.6-15.6zM334 99.8h-3.1V83.1h3.3c6.7 0 10.3 2.8 10.3 8.2 0 5.5-3.6 8.5-10.5 8.5z"/><linearGradient id="XMLID_3_" gradientUnits="userSpaceOnUse" x1="214.075" y1="-74.453" x2="193.821" y2="-106.165" gradientTransform="translate(0 200)"><stop offset="0" stop-color="#f89f20"/><stop offset=".25" stop-color="#f79a20"/><stop offset=".533" stop-color="#f68d20"/><stop offset=".62" stop-color="#f58720"/><stop offset=".723" stop-color="#f48120"/><stop offset="1" stop-color="#f37521"/></linearGradient><circle id="XMLID_415_" cx="199.1" cy="102.1" r="29.3" fill="url(#XMLID_3_)"/><linearGradient id="XMLID_4_" gradientUnits="userSpaceOnUse" x1="210.878" y1="-74.88" x2="181.276" y2="-132.738" gradientTransform="translate(0 200)"><stop offset="0" stop-color="#f58720"/><stop offset=".359" stop-color="#e16f27"/><stop offset=".703" stop-color="#d4602c"/><stop offset=".982" stop-color="#d05b2e"/></linearGradient><circle id="XMLID_414_" cx="199.1" cy="102.1" r="29.3" opacity=".65" fill="url(#XMLID_4_)"/><g id="XMLID_436_"><path class="st2" d="M362.4 76.5c0-1-.7-1.5-1.8-1.5H359v4.8h1.2v-1.9l1.4 1.9h1.4l-1.6-2c.6-.1 1-.6 1-1.3zm-2 .7h-.2v-1.3h.2c.6 0 .9.2.9.6 0 .5-.3.7-.9.7z"/><path class="st2" d="M360.8 73.2c-2.3 0-4.2 1.9-4.2 4.2s1.9 4.2 4.2 4.2c2.3 0 4.2-1.9 4.2-4.2s-1.9-4.2-4.2-4.2zm0 7.7c-1.8 0-3.4-1.5-3.4-3.5 0-1.9 1.5-3.5 3.4-3.5 1.8 0 3.3 1.6 3.3 3.5s-1.5 3.5-3.3 3.5z"/></g></svg>