<svg version="1.1" id="Layer_1" xmlns="http://www.w3.org/2000/svg" x="0" y="0" viewBox="0 0 365 365" xml:space="preserve"><style>.st1{fill:#fff}</style><g id="XMLID_1_"><path id="XMLID_2_" d="M182.5 0C283.3 0 365 81.7 365 182.5S283.3 365 182.5 365 0 283.3 0 182.5 81.7 0 182.5 0" fill="#0e0e11"/><path id="XMLID_3_" class="st1" d="M104.3 134.5c-30.9 0-56 25.1-56 56 0 11.5 3.5 22.2 9.4 31.1l55.4-24.2 23.1-10.2 22.6-9.9c-5.9-24.5-28.1-42.8-54.5-42.8zm-31.9 59c-.1-1-.1-1.9-.1-2.9 0-17.7 14.4-32.1 32.1-32.1 9.6 0 18.2 4.2 24.1 10.9l-56.1 24.1z"/><path id="XMLID_6_" class="st1" d="M143.5 230.7c-20.1 19-46.6 20.9-69.9 6.8l13.2-20c13.3 7.9 26.6 6.6 40-3.9l16.7 17.1z"/><path id="XMLID_7_" class="st1" d="M166.3 216.8l-.1-106h20.1v103.1c0 1 .1 1.9 1.4 2.4l17.5 6.8-7.9 20.5-20.5-8.7c-7.8-3.3-10.5-8.1-10.5-18.1z"/><path id="XMLID_8_" d="M241.9 215c-7.5-5.9-12.4-15-12.4-25.3 0-9.1 3.8-17.4 10-23.2l-13-21c-13 10.3-21.4 26.3-21.4 44.2 0 19.3 9.7 36.4 24.5 46.5l12.3-21.2" fill="#2091c3"/><path id="XMLID_9_" d="M250.7 159.6c3.4-1.2 7-1.9 10.8-1.9 13.7 0 25.4 8.6 29.9 20.7l24.8-2.1c-6-24.7-28.2-43-54.8-43-7.5 0-14.6 1.5-21.2 4.1l10.5 22.2" fill="#faec32"/><path id="XMLID_10_" d="M293.4 191.3c-.8 16.9-14.8 30.4-31.9 30.4-2.7 0-5.3-.3-7.8-1l-9.7 22.6c5.5 1.8 11.4 2.8 17.5 2.8 30.4 0 55.1-24 56.3-54.1l-24.4-.7" fill="#d0352a"/></g></svg>