<svg xmlns="http://www.w3.org/2000/svg" viewBox="0 0 1978 861"><path d="M826.3 860.7L0 861v-2c0-1.1 1.3-8.2 2.9-15.8 1.6-7.6 4.1-19.6 5.6-26.8 1.4-7.2 3.9-19.3 5.5-27 1.6-7.7 4.2-20.5 5.8-28.5 1.6-8 4.2-20.6 5.7-28s4-19.6 5.5-27c1.5-7.4 4.2-20.3 5.9-28.5 1.7-8.3 4.2-20.8 5.7-28 1.4-7.2 3.7-18.2 5.1-24.5s3.1-14.9 3.8-19c.8-4.1 3.2-16.3 5.4-27s4.7-22.9 5.5-27 3.3-16.3 5.5-27c2.3-10.7 4.7-22.9 5.5-27 .8-4.1 3.3-16.3 5.5-27s4.7-22.6 5.4-26.5 2.7-13.8 4.4-22c1.7-8.3 4.9-23.8 7.2-34.5 2.2-10.7 6.1-29.4 8.5-41.5s5.3-26.5 6.5-32c1.1-5.5 3.1-15.4 4.5-22s3.8-18.5 5.5-26.5c1.7-8 4.3-21 6-29s4.2-20.4 5.6-27.5c1.4-7.1 3.9-19.1 5.5-26.5 1.6-7.4 4.3-20.5 6-29 1.7-8.5 4.6-21.6 6.4-29 1.8-7.4 4.4-16.4 5.7-20 1.3-3.6 5-11.3 8.1-17.2l5.7-10.7 5.2-6.8c2.8-3.7 7.9-9.6 11.3-13.1 3.4-3.5 9-8.7 12.6-11.6 3.6-2.9 8.8-6.8 11.5-8.7 2.8-1.9 8.1-5.2 12-7.4 3.9-2.2 9.3-5 12-6.3 2.8-1.3 8.4-3.7 12.5-5.3 4.1-1.6 12-4.3 17.5-5.9s15.8-4.2 22.9-5.6c7.1-1.4 18.4-3.3 25-4.2L324.5.5l826.8-.3L1978 0v2c0 1.1-1.3 8.2-2.9 15.8-1.6 7.6-4.3 20.5-6 28.8-1.7 8.3-4.2 20.2-5.5 26.5-1.3 6.3-3.8 18.5-5.6 27s-4.4 21.6-6 29c-1.5 7.4-4 19.6-5.5 27-1.5 7.4-4 19.6-5.5 27s-4 19.1-5.3 26c-1.4 6.9-3.9 19.3-5.6 27.5s-4.4 21.3-6 29-4.1 19.6-5.5 26.5c-1.4 6.9-3.9 19.3-5.6 27.5s-4.4 21.3-6 29c-1.6 7.7-4 19.4-5.4 26-1.3 6.6-3.8 19-5.6 27.5s-4.3 20.9-5.6 27.5-3.8 18.3-5.4 26-4.3 21-6.1 29.5-4.2 20.7-5.5 27-3.8 18.3-5.4 26.5c-1.7 8.3-4.4 21.3-5.9 29-1.6 7.7-4.1 19.8-5.5 27-1.5 7.2-4 19.5-5.6 27.5s-4.3 21-5.9 29c-1.6 8-4.1 19.9-5.4 26.5-1.4 6.6-3.8 18.8-5.5 27-1.7 8.3-4.4 21.3-6.1 28.9l-3 13.9-3.6 9.6c-2 5.3-4.9 12.3-6.6 15.6-1.7 3.3-5 9.1-7.5 12.9-2.5 3.8-5.9 8.7-7.6 10.9-1.7 2.2-6.9 7.7-11.6 12.4l-8.4 8.5-8.1 5.8c-4.5 3.2-9.3 6.4-10.7 7.2-1.4.8-6.8 3.5-12 6.1s-12.4 5.9-16.2 7.3-11.2 3.9-16.5 5.4-11 3.1-12.7 3.4-7.4 1.5-12.7 2.6-16.2 2.8-24 3.8l-14.3 1.7-826.3.1zM532.3 647h21.5l.6-1.6c.3-.9.6-2.9.6-4.5s.7-7.6 1.6-13.2c.9-5.6 2.9-18.5 4.5-28.7s4-25.5 5.4-34 3-19.4 3.6-24.3 1.5-8.8 1.8-8.8 1.7 2.1 3.1 4.7l2.5 4.7 5.5 5.6 5.5 5.6 6.8 2.7 6.8 2.7 8.1 1.1 8.1 1.1 10.3-.6 10.3-.6 11.2-2.9 11.2-2.9 6-2.7c3.3-1.5 9.2-4.8 13-7.3l7-4.6 6.5-6.5c3.6-3.6 8.7-9.3 11.3-12.8s4.7-6.5 4.7-6.8c0-.3 1.3-2.4 2.8-4.7 1.6-2.3 4.8-8.7 7.1-14.2s6-15.4 8.1-22l3.9-12 2-10.4c1.1-5.7 2.5-15.2 3.1-21l1.1-10.6-.7-9-.7-9-2.1-9-2.1-9-3.4-6.7-2.9-6.8-6.5-6.9-6.5-6.9-7.7-4-7.7-4-8.5-2-8.5-2-8.5-.6-8.5-.6-9.6 1-9.5 1.1-7.7 2-7.7 2-6.7 3.1c-3.7 1.7-9.1 4.6-11.9 6.5s-5.8 4-6.6 4.7c-.7.7-2.5 2.1-4 3.1l-2.6 1.7 1.8-8.8c1-4.8 1.9-9.3 1.9-10v-1.3h-36.6l-3.2 20.3c-1.8 11.1-4.6 28.4-6.2 38.3s-4.1 24.8-5.5 33c-1.4 8.3-3.9 22.9-5.5 32.5-1.6 9.6-4.3 24.9-6 34-1.7 9.1-4.1 22.3-5.4 29.5s-3.8 20.7-5.5 30-4.5 24.2-6.1 33-4.3 22.8-6 31-3.2 16-3.5 17.3l-.5 2.3h21.3v-.3zm92.5-115.6l-8.3.5-5.5-1-5.5-1-5.5-2.5-5.5-2.5-3.9-3.7-3.9-3.7-2.2-5c-1.2-2.8-2.8-7.4-3.5-10.4l-1.3-5.4.5-8.6.5-8.6 2.6-13.5c1.4-7.4 4-21.4 5.7-31s4.3-23.7 5.7-31.3l2.6-13.8 5.7-4.8c3.2-2.6 8.1-6.1 11.1-7.8l5.4-3 7-2.2 7-2.2 9-.5 9-.5 7.3 1.6 7.3 1.6 5.2 2.4 5.2 2.4 4.3 4.4 4.3 4.4 2.3 4.6c1.3 2.5 3.1 7.5 4 11l1.7 6.4-.5 19-.5 19-2.6 11.2c-1.4 6.2-4.1 15.6-6 21l-3.4 9.8-4.2 7.9c-2.3 4.3-5.8 10.2-7.9 13.1-2 2.8-5.3 6.5-7.2 8.2-1.9 1.7-5.1 4.2-7.2 5.7l-3.7 2.7-8.5 2.9-8.5 2.9-8.1.3zm207.7 27.5l11 .1 11-1c6-.6 16-1.7 22-2.6 6-.9 16.5-2.8 23.2-4.2l12.2-2.7.6-4.5c.3-2.5 1.7-9.9 3.1-16.4l2.4-11.9-.5-.5-.5-.5-3.7 1.8c-2.1 1-8.5 3.4-14.2 5.3l-10.5 3.5-11 2.1-11 2.1h-35l-6-1.9c-3.3-1.1-8.2-3-10.8-4.3l-4.8-2.4-4-3.6-4-3.6-3.1-5.4-3.1-5.4-1.9-6.8-1.9-6.8v-25l1.7-11.2 1.7-11.2 15-.7 15-.7 55.6.4 55.6.4 1.7-7.1c.9-3.9 2.3-12 3.1-18l1.5-10.9v-18.2l-1.6-6.8-1.6-6.8-2.6-4.5c-1.4-2.5-4-6.1-5.6-8-1.7-1.9-4.6-4.6-6.6-6s-5.8-3.7-8.6-5.2l-5-2.7-8.7-2.1-8.6-2-10.8-1-10.8-1-10 .7-10 .7-12 2.3-12 2.3-7.5 3c-4.1 1.6-10.4 4.7-14 6.7s-8.5 5.3-11 7.3-6.8 5.9-9.5 8.7c-2.8 2.8-6.8 7.7-9.1 11s-5.7 9.1-7.6 13c-1.9 3.9-4.5 9.3-5.6 12s-3.3 8.4-4.7 12.5-3.6 12-4.9 17.5-3.1 14.6-4 20.1l-1.6 10.1v29.8l1.5 6.5c.8 3.6 2.4 9 3.6 12 1.1 3 3.2 7.5 4.6 10s4.4 6.5 6.7 8.9 6.4 6 9.1 8.1 7.6 4.9 10.9 6.4l5.9 2.7 8.2 2c4.5 1.1 11.3 2.4 15.1 2.9 3.9.2 12 .6 18 .7zM851.3 418c-27.7 0-50.3-.2-50.3-.4s1.2-3.7 2.6-7.8 4-10 5.6-13.3l3-6 6.6-6.6 6.6-6.6 6.5-3.1c3.6-1.7 8.3-3.6 10.5-4.1s8.5-1.3 14-1.7l10-.6 7.7 1 7.7 1 5.6 2.6 5.6 2.6 3.1 3.3c1.7 1.8 3.7 4.5 4.5 5.9l1.4 2.6.9 5.9.9 5.9-1.1 9.8-1.1 9.8-50.3-.2zm299.2 140.9l11 .1 12.5-1.5c6.9-.8 16-2.2 20.3-3 4.3-.8 11.3-2.5 15.5-3.7 4.2-1.2 8-2.5 8.5-2.9.4-.4 1.6-4.9 2.6-10.1 1-5.2 2.3-12.1 2.8-15.4.5-3.3.8-6.2.6-6.4-.2-.2-.9.1-1.6.6s-5.6 2.6-10.9 4.6l-9.6 3.6-13.7 2.7-13.7 2.7-11.7-.4-11.7-.4-6.6-2.3-6.6-2.3-5.1-4.5-5.1-4.5-3.4-6.2-3.4-6.2-1.6-8.3-1.6-8.3v-21.4l2-13 2-13 2.1-7c1.1-3.9 2.4-8.4 2.9-10 .4-1.6 2.3-6.4 4.1-10.5s5-10.5 7.2-14.2l3.9-6.7 4.8-4.9 4.8-4.9 5-3.1 5-3.1 6.5-2c3.6-1.1 9.8-2.5 14-3.2l7.5-1.2 11 .6 11 .6 13 2.6 13 2.6 5.3 2c2.9 1.1 5.4 2 5.6 2s.9-3.7 1.5-8.3 1.9-12 2.8-16.6c.8-4.6 1.3-8.5 1.1-8.8-.2-.2-4.1-.9-8.7-1.4-4.5-.5-16.9-1.4-27.4-2l-19.1-1.1-13.5 1-13.5 1-10 2.1-10 2.1-6.4 2.6c-3.5 1.4-8.7 4-11.5 5.7-2.8 1.7-6.4 4-7.9 5.1s-6.3 5.4-10.5 9.5l-7.7 7.5-4.3 6.3c-2.4 3.4-6.4 10.6-9 16l-4.8 9.7-3.7 10.5c-2 5.8-4.8 15.2-6.2 21l-2.6 10.5-.9 9.5-.9 9.5v25l.9 7.3.9 7.3 3 7.5 3 7.5 3.5 5.4 3.5 5.4 5.5 5.4 5.5 5.4 5.8 3.1 5.8 3.1 7.6 2.1c4.2 1.2 10.3 2.5 13.5 3 2.9.5 10.5.9 16.5 1zm164.5-.4l13.5-.4 8.5-2.2 8.5-2.2 5.5-2.6c3-1.4 8-4.3 11-6.3s7.7-5.9 10.4-8.5c2.7-2.7 6.7-7.2 8.9-10.1 2.2-2.9 4.1-5.1 4.3-5 .2.2-.3 4.8-1.1 10.3-.8 5.5-1.4 12.8-1.4 16.2v6.3h36.8l.6-14.3.6-14.3 2.6-18.5c1.4-10.2 3.8-25.3 5.2-33.5s3.8-22.2 5.4-31 4.1-22.5 5.6-30.5l2.7-14.5.1-12.5.1-12.5-2.8-5.8-2.8-5.8-3.8-3.7-3.8-3.7-6.3-3.2-6.3-3.2-9.4-2.1-9.4-2.1-12.9-1-12.9-1-16.7 1c-9.2.6-22.1 1.7-28.7 2.5l-12 1.5h-16.4l-1.2 5.8c-.7 3.2-2.5 10.7-4 16.7-1.6 6-2.7 11.1-2.5 11.3s4.6-.8 9.7-2.2c5.2-1.4 16.1-3.7 24.4-5.1l15-2.6 13.5-.6 13.5-.6 8.7 1.5 8.7 1.5 5.8 2.9 5.8 2.9 3.3 4.8 3.3 4.8v15.2l-1.7 8.4-1.7 8.4-36 .1-36 .1-11.8 3.2c-6.5 1.8-13.6 4.1-15.9 5.2-2.3 1.1-4.6 2-5.1 2s-4.4 2.1-8.6 4.7l-7.6 4.7-6 6c-3.3 3.3-7.5 8.3-9.4 11-1.9 2.8-4.9 8.5-6.7 12.8l-3.3 7.8-1.5 8.7-1.5 8.7v18.4l1.5 7.6 1.5 7.6 2.7 5c1.5 2.7 4.2 6.7 6.1 8.9l3.4 3.9 6 3.6 6 3.6 6.8 1.9c3.8 1.1 9.5 2.4 12.7 2.9l5.9.9 12.6.3zm12.5-27.9l-8 .4-5.3-1.3c-2.9-.7-7.3-2.4-9.8-3.7l-4.5-2.3-2.5-2.9c-1.4-1.6-3.4-4.8-4.6-7.1l-2.1-4.1-.4-9.6-.4-9.6 1.7-5.8c.9-3.2 3.1-8.8 4.9-12.4l3.2-6.5 6.1-6 6.1-6 6.4-3.1 6.4-3.1 8-1.9 8-1.9h50l1.6.7 1.6.7-1.3 7.8c-.7 4.3-2.5 12.1-3.9 17.3s-3.9 12.9-5.5 17.1c-1.6 4.2-3 7.8-3 8.2 0 .3-1.6 3.4-3.7 6.7l-3.7 6.1-6 5.9c-3.3 3.3-6.4 5.9-6.8 5.9s-2.5 1.1-4.5 2.5l-3.7 2.5-8.1 2.6-8.1 2.6-8.1.3zm325.5 28.3l9.5.1 9-1.5c4.9-.8 11.3-2.1 14-2.9 2.8-.8 7.7-2.8 11-4.5l6-3.1 5.2-4.5 5.2-4.5 5.4-7.2c3-4 5.7-7.9 6-8.7l.6-1.5-.5 5c-.3 2.8-.9 7.3-1.4 10-.5 2.8-1.2 8-1.5 11.8l-.7 6.8h39.2v-13.6l3-25.5c1.6-14 4.1-32.7 5.4-41.5s3.4-21.4 4.6-28c1.2-6.6 3.3-18.5 4.6-26.5s3.8-21.9 5.5-31c1.7-9.1 4.3-23.5 5.9-32 1.6-8.5 4-21.8 5.5-29.5 1.4-7.7 4-21.2 5.7-30 1.7-8.8 4.2-21.2 5.5-27.5 1.3-6.3 2.4-11.8 2.4-12.3v-.8h-42.8l-.6 6.3c-.3 3.4-2 14.8-3.6 25.3-1.7 10.5-4.4 27.1-6 37-1.6 9.9-3.2 19.5-3.5 21.3l-.5 3.3-1.7-.7c-.9-.4-6-1.8-11.2-3.1l-9.5-2.4-13-1-13-1-11 1-11 1-10 2.5-10 2.5-9.5 4.6-9.5 4.6-7 5.2-7 5.2-6 6.5c-3.3 3.6-8.1 9.5-10.7 13.1l-4.6 6.6-5.4 11.3c-3 6.2-6.6 14.5-8.1 18.3-1.5 3.9-4 12.4-5.7 19l-3.1 12-1.5 15.5-1.5 15.5 1.1 12.5 1.1 12.5 1.3 4.5c.7 2.5 2.3 6.9 3.5 9.8l2.1 5.3 3.8 5.2 3.8 5.2 4.4 3.6 4.4 3.6 6 3c3.3 1.6 8.8 3.8 12.3 4.7s9.1 2.1 12.5 2.5 10.4 1 15.6 1.1zm17.1-28.4l-7.6.4-5.1-.9c-2.8-.5-7.3-1.9-10-3l-4.9-2.1-4.1-3.4-4.1-3.4-3-5.8-3-5.8-1.4-6.5-1.4-6.5.1-13 .1-13 1.6-11.5 1.6-11.5 2.5-8c1.4-4.4 2.5-8.6 2.5-9.2 0-.7 1.4-4.3 3-8s4.4-9.5 6.1-12.8c1.7-3.3 4.9-8.4 7.2-11.4 2.2-3 6.2-7.5 8.8-10s6.8-5.8 9.2-7.3l4.5-2.8 7.9-2.7 7.9-2.7h33l9.5 2.6c5.2 1.4 10.8 3.1 12.3 3.7l2.8 1.1-.6 2.7c-.3 1.5-1.5 8.1-2.6 14.7s-3.4 19.2-5 28-4.1 22.1-5.5 29.5c-1.4 7.4-3.5 16.9-4.6 21-1.1 4.1-2.6 9.8-3.4 12.7-.8 2.9-2.7 7.8-4.2 11s-4.2 7.8-5.9 10.3c-1.7 2.5-4.6 5.9-6.5 7.6-1.8 1.7-5.8 4.8-8.8 6.8l-5.5 3.7-7.9 2.5-7.9 2.5-7.6.5zM198.3 554h24.3l1.7-10.8c1-5.9 2.8-17.3 4.2-25.3s3.8-22.8 5.5-33c1.7-10.2 4.2-25.3 5.6-33.5s3.7-21 5-28.4c1.3-7.4 2.7-13.7 3-14l.6-.6h130.6l.7.7.7.7-1.1 5.8c-.6 3.2-2.5 13-4.1 21.8-1.6 8.8-4.4 23.6-6.1 33s-4.2 22.6-5.5 29.5c-1.3 6.9-4 21.3-5.9 32-1.9 10.7-3.5 20.1-3.5 20.8v1.3h48.8l1.1-6.3c.6-3.4 1.5-9.6 2.1-13.8.6-4.1 2-12.9 3.1-19.5s3.3-19.6 5-29 4.3-25.3 6-35.5c1.7-10.2 4.2-25 5.6-33s3.8-21.5 5.4-30 4.3-22.9 6-32c1.7-9.1 4.2-22.8 5.6-30.5 1.4-7.7 3.9-21.6 5.6-31s3.9-20.3 4.8-24.3l1.7-7.3h-49.4l-.7 4.8c-.4 2.6-1.6 9.9-2.7 16.3-1.1 6.3-3.1 17.6-4.4 25-1.3 7.4-3.8 21.6-5.4 31.5-1.6 9.9-3.7 23-4.7 29.1l-1.7 11.1-36.3.7-36.3.7-30.4-.7c-16.7-.4-30.5-.8-30.6-.9-.1-.1.5-4 1.3-8.6.8-4.7 2.3-12.7 3.4-18s3.1-15.6 4.5-23 3-16.6 3.5-20.5 1.7-10.3 2.5-14.3 2.4-12.4 3.5-18.7c1.1-6.3 2.3-12.1 2.6-13l.6-1.6h-49l-1.6 8.8c-.9 4.8-2 11.7-2.6 15.3-.5 3.6-2.4 15-4.1 25.5-1.7 10.5-4.2 26-5.5 34.5-1.4 8.5-3.8 24-5.5 34.5s-4.4 26.6-6.1 36-4.1 22.6-5.4 29.5c-1.3 6.9-3.8 19.9-5.5 29-1.7 9.1-4.3 21.9-5.6 28.5-1.4 6.6-2.9 14.3-3.3 17-.5 2.8-2 10.7-3.4 17.6-1.4 6.9-2.6 13.4-2.6 14.3v1.6l24.4.2zm269 0h21.5l.6-1.6c.3-.9.6-3.2.6-5.1 0-1.9 1.4-11.9 3-22.2 1.7-10.3 4.4-27 6.1-37.2 1.7-10.2 4.2-25 5.5-33s3.8-21.3 5.4-29.5c1.6-8.3 4-21.1 5.4-28.5 1.4-7.4 4.1-21.6 6.1-31.4s3.8-18.3 4.1-18.8l.5-.9-21.8.3-21.8.3-1.8 13c-1 7.1-3.2 21.3-4.8 31.5s-4.2 25.7-5.6 34.5-3.9 23-5.5 31.5-4.1 21.6-5.4 29-3.9 20.5-5.6 29-3.9 19.8-5 25c-1.1 5.2-2.2 10.5-2.5 11.8l-.6 2.3h21.6zm503.1 0h21.4l.6-9c.4-5 1.6-15 2.7-22.3 1.1-7.3 3.4-21.8 5.1-32.2 1.7-10.5 4.8-27.8 7-38.7 2.1-10.8 4.6-21.6 5.4-23.9.8-2.3 1.5-4.8 1.5-5.6 0-.8 1.6-4.9 3.6-9.1 2-4.3 5.6-10.8 8.1-14.5l4.6-6.8 6.1-5.6 6.1-5.6 7.5-3.6 7.5-3.6 11.5.1 11.5.1 5.7 1.7c3.1.9 5.9 1.7 6.3 1.7.3 0 .6-1.1.6-2.4 0-1.3 1.1-7.9 2.5-14.6 1.4-6.8 2.5-12.6 2.5-12.9 0-.3-3.3-1.6-7.3-2.8s-9.5-2.5-12.3-2.8l-5-.6-6.5 1.1c-3.6.6-8.9 2-11.8 3.1-2.9 1.1-7.7 3.5-10.7 5.4-3 1.9-7.6 5.6-10.3 8.2s-7.2 7.9-10 11.8-5.8 7.9-6.6 9l-1.4 2 .9-4c.5-2.2 1.8-9.4 3-16 1.1-6.6 2.3-12.8 2.6-13.8l.5-1.8H985v2.4c0 1.3-1.1 9.3-2.5 17.8-1.4 8.4-3.6 22.5-5 31.3s-3.9 24.1-5.5 34-4.1 24.1-5.5 31.5-3.9 20.5-5.5 29-4.4 22.5-6 31c-1.7 8.5-3.7 18.6-4.5 22.4-.8 3.8-1.4 7.3-1.4 7.8v.9l21.3-.1zm506.8 0h21.8v-13.4l2.5-16.6c1.4-9.1 3.7-23.5 5.1-32.1 1.4-8.5 3.2-19.3 3.9-24 .7-4.7 2.7-14.8 4.3-22.5 1.6-7.7 3.7-16 4.6-18.5.9-2.5 1.6-5.1 1.6-5.8 0-.7 1.9-5.2 4.1-10l4.1-8.7 5.4-7.2 5.4-7.2 5.9-4.5c3.3-2.5 8.5-5.7 11.7-7.3l5.7-2.8 12.5.1 12.5.1 4.9 1.6 4.9 1.6.8-.5.8-.5v-3.2c0-1.8 1.1-8.3 2.4-14.5l2.3-11.3-2.6-1c-1.4-.6-4.9-1.7-7.6-2.6l-5-1.6h-18l-7.3 2.6-7.3 2.6-5.5 3.3-5.5 3.3-7.2 7.5-7.2 7.5-3.8 5.8c-2.1 3.2-4 5.7-4.1 5.5-.2-.2 1-6.8 2.6-14.8s2.9-15.5 2.9-16.8v-2.2H1492v.6c0 .4-.9 6.8-2 14.3-1.1 7.5-3.4 21.9-5 32.1-1.6 10.2-4.3 26.6-6 36.5s-4.1 24.1-5.5 31.5-3.9 20.5-5.5 29-4.3 22.2-5.9 30.5-3.8 19.2-4.8 24.3l-1.8 9.3h21.7zM509.6 310h6.1l4.8-1.6 4.8-1.6 4.3-4.3 4.3-4.3 2.2-5.8 2.2-5.8.1-8.5.1-8.5-2-3.3-2-3.3-3.5-2.2-3.5-2.2h-15l-5.1 2.3-5.1 2.3-3 3.2-3 3.2-2.3 5.4-2.3 5.5-.4 8.6-.4 8.6 2.2 4.3 2.2 4.3 4.2 1.9 4.2 1.9 5.9-.1z" fill="#b3131b"/></svg>