<svg xmlns="http://www.w3.org/2000/svg" viewBox="0 0 1000.008 618.031"><path fill="#ff5f00" d="M364.81 66.095h270.388v485.841H364.81z"/><path d="M381.977 309.015c0-98.713 46.353-186.267 117.598-242.92A307.12 307.12 0 0 0 309.015 0C138.2 0 0 138.199 0 309.015s138.199 309.016 309.015 309.016a307.12 307.12 0 0 0 190.56-66.095c-71.245-55.795-117.598-144.207-117.598-242.92z" fill="#eb001b"/><path d="M1000.008 309.015c0 170.817-138.198 309.016-309.015 309.016a307.12 307.12 0 0 1-190.56-66.095c72.104-56.653 117.598-144.207 117.598-242.92s-46.352-186.268-117.598-242.92A307.12 307.12 0 0 1 690.993 0c170.817 0 309.015 139.057 309.015 309.015z" fill="#f79e1b"/></svg>