<svg data-name="Layer 1" xmlns="http://www.w3.org/2000/svg" width="250cm" height="4351.125" viewBox="0 0 7086.614 3263.344"><path d="M6495.236 524.763c-98.811 0-207.795 55.097-251.268 154.085l-461.89 1058.773L5615.71 678.848c-19.566-98.988-86.824-154.085-193.28-154.085h-585.144l500.486 1758.382c9.213 33.72 10.959 71.111 4.215 110.43-26.192 146.737-166.367 265.778-313.164 265.778h-327.677c-83.214 0-138.006 51.541-164.8 168.234l-72.797 435.757h577.075c301.062 0 654.63-151.255 890.48-569.49L7086.58 524.764zM814.855 0c172.81 0 256.322 68.944 225.914 242.176l-49.793 282.216h397.04l-87.49 495.79h-397.22l-108.2 613.861C757.71 1847.918 969.417 1876.4 1090.867 1876.4c24.204 0 44.314-.543 58.705-1.386l-97.12 552.87c-29.986 3.19-60.875 7.345-126.265 7.345-301.426 0-871.635-80.743-759.52-716.828l122.773-698.22H0l87.125-495.789h286.611L465.984 0z" fill="#323e48" fill-rule="evenodd"/><path d="M4151.254 547.112l-102.002 578.039c125.783 64.247 211.949 194.727 211.949 345.438 0 198.702-148.965 361.515-340.742 384.938l-101.939 577.918a861.95 861.95 0 0 0 54.55 1.747c533.061 0 964.783-432.025 964.783-964.603 0-435.454-289.14-803.894-686.6-923.477M3697.22 1816.136c-125.664-63.884-212.01-194.967-212.01-345.497 0-197.438 149.266-361.515 340.984-384.518l101.818-577.976c-18.122-1.143-36.549-1.988-54.67-1.988-532.64 0-964.604 432.324-964.604 964.482 0 435.635 289.261 804.316 686.724 923.898z" fill="#00adbb" fill-rule="evenodd"/><path d="M1617.862 524.763h341.16c172.872 0 256.024 69.066 225.558 242.357l-37.331 209.659c127.106-258.009 402.82-470.861 685.636-470.861 37.092 0 72.8 7.346 72.8 7.346l-110.253 625.124s-49.492-11.5-126.746-11.5c-150.71 0-405.592 47.808-547.45 330.987-33.84 69.786-59.852 154.686-77.856 256.987l-123.435 702.317h-635.54zm5313.039 1935.521c0-11.2-3.73-20.593-11.8-28.24-7.887-7.587-17.942-11.2-30.345-11.2h-41.61v78.458h41.61c12.403 0 22.458-3.914 30.345-10.96 8.07-7.465 11.8-16.557 11.8-28.058m37.453 156.732h-36.247l-51.242-91.281h-33.718v91.281h-30.89v-223.688h75.931c19.566 0 36.247 6.683 49.915 19.329 13.546 12.824 20.771 28.781 20.771 47.627 0 31.069-16.254 51.662-48.228 61.416zm86.225-111.694q0 72.347-50.577 123.015c-33.358 34.019-74.244 50.939-121.45 50.939q-70.629 0-121.145-50.939-49.856-50.669-49.797-123.015 0-72.072 49.797-122.893c33.656-34.14 74.06-51.06 121.145-51.06 47.206 0 88.092 16.92 121.45 51.06q50.578 50.94 50.577 122.893m32.035 0c0 56.42-19.992 104.65-59.852 144.21-39.44 39.68-87.489 60.032-144.21 60.032-56.118 0-104.166-20.353-144.21-60.032-39.738-39.56-59.79-87.79-59.79-144.21 0-56.238 20.052-104.347 59.79-144.328 40.044-39.62 88.092-59.611 144.21-59.611 56.721 0 104.77 19.99 144.21 59.611q59.79 59.972 59.852 144.328" fill="#323e48" fill-rule="evenodd"/></svg>