<svg xmlns="http://www.w3.org/2000/svg" height="127.046" width="200"><defs><clipPath clipPathUnits="userSpaceOnUse" id="a"><path d="M0 792h612V0H0v792z"/></clipPath></defs><path d="M200 127.046H0V0h200v127.046z" fill="#fff"/><path d="M3.33 106.401h193.333v17.335H3.33v-17.335z" fill="#f7b600"/><path d="M3.33 20.666h193.333V3.332H3.33v17.334z" fill="#1a1f71"/><g clip-path="url(#a)" transform="matrix(.92593 0 0 -.92593 -183.892 429.475)"><path d="M302.448 424.608l-10.464-48.917h-12.656l10.464 48.917h12.656zm53.24-31.586l6.664 18.37 3.828-18.37h-10.492zm14.127-17.33h11.7l-10.222 48.916h-10.796c-2.435 0-4.481-1.413-5.39-3.586l-18.99-45.33h13.29l2.637 7.306h16.237l1.534-7.307zm-33.037 15.97c.053 12.908-17.848 13.624-17.731 19.392.043 1.753 1.713 3.62 5.369 4.097 1.81.234 6.814.421 12.48-2.19l2.218 10.38c-3.045 1.1-6.963 2.16-11.837 2.16-12.511 0-21.312-6.645-21.382-16.168-.082-7.044 6.286-10.97 11.075-13.316 4.933-2.396 6.587-3.936 6.564-6.077-.035-3.282-3.94-4.735-7.57-4.789-6.364-.1-10.054 1.72-12.997 3.091l-2.297-10.723c2.96-1.357 8.418-2.536 14.07-2.596 13.3 0 21.999 6.57 22.038 16.74m-52.415 32.945l-20.504-48.917H250.48l-10.091 39.04c-.611 2.4-1.143 3.282-3.005 4.296-3.043 1.653-8.068 3.2-12.485 4.161l.298 1.42h21.537c2.74 0 5.209-1.825 5.836-4.985l5.332-28.309 13.163 33.294h13.297zm34.281-62.381h-5.142v-4.786h5.752V356h-7.485v13.279h7.19v-1.44h-5.457v-4.194h5.142v-1.42zm3.267 7.761h1.733v-13.986h-1.733v13.986zm11.187-8.293c.02 1.083-.453 2.797-2.403 2.797-1.773 0-2.522-1.596-2.66-2.797h5.063zm-5.082-1.24c.039-2.346 1.517-3.31 3.269-3.31 1.242 0 2.01.216 2.64.491l.316-1.24c-.611-.276-1.674-.61-3.192-.61-2.934 0-4.687 1.95-4.687 4.825 0 2.876 1.693 5.122 4.47 5.122 3.133 0 3.94-2.719 3.94-4.472 0-.354-.02-.61-.06-.807h-6.696zm16.188-4.118c-.453-.217-1.458-.552-2.738-.552-2.876 0-4.747 1.95-4.747 4.866 0 2.935 2.008 5.082 5.121 5.082 1.024 0 1.93-.255 2.403-.512l-.393-1.32c-.415.217-1.065.454-2.01.454-2.187 0-3.368-1.635-3.368-3.606 0-2.206 1.418-3.565 3.31-3.565.984 0 1.634.236 2.126.453l.296-1.3zm4.862 11.484v-2.285h2.481v-1.319h-2.48v-5.142c0-1.183.334-1.852 1.3-1.852.471 0 .748.04 1.004.12l.08-1.322a4.736 4.736 0 0 0-1.538-.236c-.808 0-1.458.276-1.87.728-.474.533-.67 1.38-.67 2.502v5.202h-1.479v1.32h1.478v1.772l1.694.512zm4.903-5.259c0 1.123-.021 2.088-.08 2.975h1.518l.079-1.891h.058c.434 1.28 1.497 2.088 2.659 2.088.178 0 .316-.02.474-.04v-1.635c-.178.04-.354.04-.592.04-1.22 0-2.088-.906-2.324-2.207a5.225 5.225 0 0 1-.06-.808v-5.082h-1.732v6.56zm7.817-1.813c0-2.088 1.182-3.664 2.876-3.664 1.655 0 2.895 1.557 2.895 3.704 0 1.615-.807 3.645-2.856 3.645-2.028 0-2.915-1.892-2.915-3.685m7.545.099c0-3.526-2.463-5.063-4.748-5.063-2.56 0-4.569 1.892-4.569 4.905 0 3.172 2.107 5.043 4.727 5.043 2.738 0 4.59-1.989 4.59-4.885m2.656 2.108c0 1.004-.02 1.792-.079 2.58h1.536l.1-1.576h.038c.473.887 1.576 1.773 3.152 1.773 1.32 0 3.368-.788 3.368-4.057v-5.674h-1.733v5.496c0 1.536-.57 2.817-2.206 2.817-1.123 0-2.01-.808-2.324-1.773a2.46 2.46 0 0 1-.119-.808v-5.732h-1.733v6.954z" fill="#1a1f71"/></g></svg>