<svg viewBox="0 0 16 16" fill="none" xmlns="http://www.w3.org/2000/svg"><path d="M10.667 4.498v7.054c0 1.393-1.02 2.633-2.407 2.766a2.662 2.662 0 0 1-2.927-2.653v-8.24c0-.873.627-1.667 1.494-1.753 1-.1 1.84.68 1.84 1.66v7c0 .366-.3.666-.667.666a.669.669 0 0 1-.667-.666V4.498c0-.273-.226-.5-.5-.5-.273 0-.5.227-.5.5v5.74c0 .874.627 1.667 1.494 1.754 1 .1 1.84-.68 1.84-1.66V3.445c0-1.393-1.02-2.633-2.407-2.767a2.666 2.666 0 0 0-2.927 2.654v8.18c0 1.913 1.4 3.626 3.307 3.806a3.67 3.67 0 0 0 4.027-3.653V4.498c0-.273-.227-.5-.5-.5-.274 0-.5.227-.5.5z" fill="#252728"/></svg>