<svg xmlns="http://www.w3.org/2000/svg" viewBox="0 0 233 200"><g data-name="Слой 1"><rect x="33.75" y="76.75" width="198.5" height="122.5" rx="7.25" fill="#f5f6f7" stroke="#e1e3e6" stroke-width="1.5"/><rect x=".75" y=".75" width="198.5" height="122.5" rx="7.25" fill="#f5f6f7" stroke="#e1e3e6" stroke-width="1.5"/><circle cx="95" cy="87" r="3" fill="#e1e3e6"/><circle cx="103" cy="87" r="3" fill="#e1e3e6"/><path d="M108.25 90.6l2.04-8.4h.9l-2.04 8.4z" fill="#e1e3e6"/><circle cx="117" cy="87" r="3" fill="#e1e3e6"/><circle cx="125" cy="87" r="3" fill="#e1e3e6"/><path fill="#e1e3e6" d="M200 86h33v28h-33z"/><circle cx="19" cy="67" r="3" fill="#e1e3e6"/><circle cx="27" cy="67" r="3" fill="#e1e3e6"/><circle cx="35" cy="67" r="3" fill="#e1e3e6"/><circle cx="43" cy="67" r="3" fill="#e1e3e6"/><circle cx="65" cy="67" r="3" fill="#e1e3e6"/><circle cx="73" cy="67" r="3" fill="#e1e3e6"/><circle cx="81" cy="67" r="3" fill="#e1e3e6"/><circle cx="89" cy="67" r="3" fill="#e1e3e6"/><circle cx="111" cy="67" r="3" fill="#e1e3e6"/><circle cx="119" cy="67" r="3" fill="#e1e3e6"/><circle cx="127" cy="67" r="3" fill="#e1e3e6"/><circle cx="135" cy="67" r="3" fill="#e1e3e6"/><circle cx="157" cy="67" r="3" fill="#e1e3e6"/><circle cx="165" cy="67" r="3" fill="#e1e3e6"/><circle cx="173" cy="67" r="3" fill="#e1e3e6"/><circle cx="181" cy="67" r="3" fill="#e1e3e6"/><rect x="66" y="132" width="134" height="20" rx="4" fill="#fff"/><circle cx="178" cy="142" r="2" fill="#e1e3e6"/><circle cx="184" cy="142" r="2" fill="#e1e3e6"/><circle cx="190" cy="142" r="2" fill="#e1e3e6"/><path d="M16.98 111v-7.3h1.96l3.39 6.27h.33l-.2.18v-6.45h1.14v7.3h-1.98l-3.39-6.27h-.33l.2-.18V111zm7.834 0l2.56-7.3h1.99l2.64 7.3h-1.24l-2.31-6.5.49.23h-1.21l.52-.23-2.24 6.5zm1.66-2.06l.38-1.04h3.06l.39 1.04zm6.737 2.06v-7.3h1.62l2 4.61H37l1.98-4.61h1.64v7.3h-1.19v-6.23l.12.02-2.02 4.71h-1.32l-2.04-4.71.14-.02V111zm9.365 0v-7.3h1.19v7.3zm.99 0v-1.04h3.42V111zm0-3.19v-1.04h3.14v1.04zm0-3.07v-1.04h3.33v1.04zm10.553 6.44a3.967 3.967 0 0 1-1.71-.34 3.52 3.52 0 0 1-1.18-.92 3.878 3.878 0 0 1-.92-2.48v-.22a3.987 3.987 0 0 1 .23-1.32 3.783 3.783 0 0 1 .71-1.2 3.525 3.525 0 0 1 1.19-.88 3.997 3.997 0 0 1 1.68-.33 3.929 3.929 0 0 1 1.67.33 3.619 3.619 0 0 1 1.9 2.08 3.84 3.84 0 0 1 .24 1.32v.22a3.829 3.829 0 0 1-.23 1.26 4.025 4.025 0 0 1-.7 1.22 3.394 3.394 0 0 1-1.18.92 3.942 3.942 0 0 1-1.7.34zm0-1.11a2.558 2.558 0 0 0 1.08-.22 2.473 2.473 0 0 0 .82-.6 2.535 2.535 0 0 0 .51-.87 2.992 2.992 0 0 0 .18-1.04 3.08 3.08 0 0 0-.18-1.07 2.55 2.55 0 0 0-.52-.87 2.256 2.256 0 0 0-.81-.59 2.882 2.882 0 0 0-2.16 0 2.353 2.353 0 0 0-.82.59 2.548 2.548 0 0 0-.52.87 3.243 3.243 0 0 0-.17 1.07 3.149 3.149 0 0 0 .17 1.04 2.667 2.667 0 0 0 .52.87 2.472 2.472 0 0 0 .82.6 2.558 2.558 0 0 0 1.08.22zm5.302.93v-7.3h1.96l3.39 6.27h.33l-.2.18v-6.45h1.14v7.3h-1.98l-3.39-6.27h-.33l.2-.18V111zm14.031.18a3.926 3.926 0 0 1-1.71-.34 3.298 3.298 0 0 1-1.14-.91 4.123 4.123 0 0 1-.64-1.22 4.374 4.374 0 0 1-.2-1.27v-.22a4.362 4.362 0 0 1 .21-1.33 3.721 3.721 0 0 1 .64-1.2 3.226 3.226 0 0 1 1.13-.87 3.835 3.835 0 0 1 1.65-.33 3.88 3.88 0 0 1 1.71.35 2.818 2.818 0 0 1 1.14.98 3.026 3.026 0 0 1 .51 1.47h-1.21a1.865 1.865 0 0 0-.38-.93 1.782 1.782 0 0 0-.75-.57 2.594 2.594 0 0 0-1.02-.19 2.503 2.503 0 0 0-1.05.21 2.082 2.082 0 0 0-.75.58 2.653 2.653 0 0 0-.46.87 3.891 3.891 0 0 0 0 2.14 2.67 2.67 0 0 0 .47.87 2.112 2.112 0 0 0 .77.59 2.623 2.623 0 0 0 1.08.21 2.472 2.472 0 0 0 1.48-.43 1.84 1.84 0 0 0 .73-1.25h1.22a3.318 3.318 0 0 1-.52 1.41 3.03 3.03 0 0 1-1.15 1.01 3.851 3.851 0 0 1-1.76.37zm3.93-.18l2.56-7.3h1.99l2.64 7.3h-1.24l-2.31-6.5.49.23h-1.21l.52-.23-2.24 6.5zm1.66-2.06l.38-1.04h3.06l.39 1.04zM85.78 111v-7.35h1.2V111zm4.48 0l-2.32-3.21h1.36l2.39 3.21zm-3.67-2.54v-1.01h1.9a1.52 1.52 0 0 0 .74-.17 1.185 1.185 0 0 0 .47-.49 1.475 1.475 0 0 0 .17-.72 1.452 1.452 0 0 0-.17-.71 1.185 1.185 0 0 0-.47-.49 1.449 1.449 0 0 0-.74-.18h-1.9v-1.04h1.74a3.764 3.764 0 0 1 1.46.26 2.032 2.032 0 0 1 .96.76 2.318 2.318 0 0 1 .34 1.31v.16a2.267 2.267 0 0 1-.35 1.31 2.032 2.032 0 0 1-.96.76 3.807 3.807 0 0 1-1.45.25zm7.29 2.58v-1.11h1.67a2.936 2.936 0 0 0 1.09-.19 2.43 2.43 0 0 0 .82-.55 2.27 2.27 0 0 0 .51-.82 2.908 2.908 0 0 0 .18-1.03 2.946 2.946 0 0 0-.18-1.06 2.18 2.18 0 0 0-.51-.81 2.264 2.264 0 0 0-.82-.52 2.936 2.936 0 0 0-1.09-.19h-1.67v-1.11h1.57a4.507 4.507 0 0 1 1.72.3 3.5 3.5 0 0 1 1.23.81 3.336 3.336 0 0 1 .73 1.15 3.732 3.732 0 0 1 .24 1.32v.22a3.702 3.702 0 0 1-.24 1.29 3.443 3.443 0 0 1-.73 1.16 3.73 3.73 0 0 1-1.23.83 4.372 4.372 0 0 1-1.72.31zm-1 0v-7.39h1.2v7.39zM68 84h16v1H68zm0 4h10v1H68z" fill="#e1e3e6"/></g><g data-name="Слой 2"><path d="M174.306 101.42h6.1v10.96h-6.1z" fill="#ff5f00"/><path d="M174.694 106.9a6.989 6.989 0 0 1 2.652-5.48 6.97 6.97 0 1 0 0 10.96 6.96 6.96 0 0 1-2.652-5.48z" fill="#eb001b"/><path d="M188.634 106.9a6.963 6.963 0 0 1-11.268 5.48 6.986 6.986 0 0 0 0-10.96 6.963 6.963 0 0 1 11.268 5.48z" fill="#f79e1b"/></g></svg>