<svg viewBox="0 0 24 24" fill="none" xmlns="http://www.w3.org/2000/svg"><mask id="a" fill="#fff"><path d="M12 22c6.075 0 11-4.253 11-9.5S18.075 3 12 3 1 7.253 1 12.5c0 2.658 1.264 5.06 3.3 6.785C3.415 21.115 2 23 2 23s4.059-.507 6.394-1.522c1.13.338 2.343.522 3.606.522z"/></mask><path d="M4.3 19.285l1.8.872.677-1.396-1.184-1.002L4.3 19.285zM2 23L.4 21.8a2 2 0 0 0 1.848 3.185L2 23zm6.394-1.522l.574-1.916-.7-.21-.67.292.796 1.834zM21 12.5c0 3.877-3.744 7.5-9 7.5v4c6.894 0 13-4.884 13-11.5h-4zM12 5c5.256 0 9 3.623 9 7.5h4C25 5.884 18.894 1 12 1v4zm-9 7.5C3 8.623 6.744 5 12 5V1C5.106 1-1 5.884-1 12.5h4zm2.593 5.259C3.943 16.362 3 14.493 3 12.5h-4c0 3.323 1.585 6.26 4.009 8.311l2.584-3.052zM2 23l1.6 1.2.001-.001.002-.003.004-.006.015-.02a18.89 18.89 0 0 0 .241-.332c.157-.22.375-.532.622-.904.486-.733 1.116-1.747 1.616-2.777l-3.6-1.744c-.387.799-.907 1.643-1.35 2.31a28.768 28.768 0 0 1-.702 1.01c-.018.025-.03.043-.04.054l-.008.012-.002.002S.4 21.8 2 23zm5.597-3.356c-.956.415-2.373.763-3.657 1.012a39.492 39.492 0 0 1-2.153.355l-.029.004h-.006L2 23l.248 1.985h.002l.004-.001.011-.002c.01 0 .023-.003.04-.005a27.185 27.185 0 0 0 .666-.095 43.555 43.555 0 0 0 1.732-.3c1.33-.257 3.109-.67 4.488-1.27l-1.594-3.668zM12 20a10.55 10.55 0 0 1-3.032-.438l-1.147 3.832A14.56 14.56 0 0 0 12 24v-4z" fill="#87898C" mask="url(#a)"/></svg>