<svg viewBox="0 0 24 24" fill="none" xmlns="http://www.w3.org/2000/svg"><g clip-path="url(#clip0)" fill="#252728"><path d="M22.611 6.396a.75.75 0 0 0-.667-.398H19.5v-1.5a.75.75 0 0 0-.75-.75h-1.5V1.695a.75.75 0 0 0-.45-.69c-6.072-2.65-13.144.125-15.794 6.197-2.65 6.073.124 13.144 6.197 15.794 6.072 2.65 13.144-.124 15.794-6.196a11.998 11.998 0 0 0-.386-10.403zm-10.61 16.098c-5.797.007-10.503-4.687-10.51-10.484C1.484 6.212 6.178 1.507 11.975 1.5a10.49 10.49 0 0 1 3.776.697v1.552a1.5 1.5 0 0 0 1.5 1.5H18v.75a1.5 1.5 0 0 0 1.5 1.499h1.987a10.357 10.357 0 0 1 1.012 4.499c0 5.797-4.7 10.497-10.497 10.497z"/><path d="M10.502 6.748a2.25 2.25 0 1 0-4.499 0 2.25 2.25 0 0 0 4.499 0zm-2.25.75a.75.75 0 1 1 0-1.5.75.75 0 0 1 0 1.5zm3 7.498a2.25 2.25 0 1 0 0 4.499 2.25 2.25 0 0 0 0-4.499zm0 3a.75.75 0 1 1 0-1.5.75.75 0 0 1 0 1.5zm7.498-2.25a1.5 1.5 0 1 0 0-2.999 1.5 1.5 0 0 0 0 3zm-13.497-.75a1.5 1.5 0 1 0 0-2.999 1.5 1.5 0 0 0 0 3zm8.997-7.498a3 3 0 1 0 .001 5.999 3 3 0 0 0 0-5.999zm0 4.499a1.5 1.5 0 1 1 0-3 1.5 1.5 0 0 1 0 3z"/></g><defs><clipPath id="clip0"><path fill="#fff" d="M0 0h24v24H0z"/></clipPath></defs></svg>