<svg viewBox="0 0 40 40" fill="none" xmlns="http://www.w3.org/2000/svg"><path fill-rule="evenodd" clip-rule="evenodd" d="M18.8 13.693H6.718a.417.417 0 0 0-.416.416v3.334c0 .23.186.416.416.416h12.084v-4.166zm0 6.666H9.635v13.75c0 .23.187.417.417.417h8.75V20.359zm2.5 0h9.167v13.75c0 .23-.186.417-.416.417H21.3V20.359zm0-2.5v-4.166h12.084c.23 0 .417.186.417.416v3.334c0 .23-.187.416-.417.416H21.301z" fill="#CDF7CA"/><path fill-rule="evenodd" clip-rule="evenodd" d="M8.412 10.078c-.182-1.498.294-3.191.974-4.369a5.417 5.417 0 0 1 7.4-1.982c.885.511 1.656 1.548 2.251 2.493.323.512.633 1.062.92 1.606a24.01 24.01 0 0 1 .918-1.606c.596-.945 1.366-1.982 2.252-2.493a5.417 5.417 0 0 1 7.4 1.982c.68 1.178 1.156 2.871.974 4.37a4.346 4.346 0 0 1-.282 1.114h2.165a2.917 2.917 0 0 1 2.917 2.916v3.334a2.917 2.917 0 0 1-2.917 2.916h-.417v13.75a2.917 2.917 0 0 1-2.916 2.917h-20a2.917 2.917 0 0 1-2.917-2.917V20.36h-.417a2.917 2.917 0 0 1-2.916-2.916V14.11a2.917 2.917 0 0 1 2.916-2.916h1.977a4.345 4.345 0 0 1-.282-1.115zm2.777.457c.1.1.307.241.805.241 1.733 0 4.242.045 6.099.084a.376.376 0 0 0 .33-.16.285.285 0 0 0 .02-.3c-.434-.925-.966-1.967-1.52-2.847-.594-.941-1.086-1.487-1.388-1.661a2.917 2.917 0 0 0-3.984 1.067c-.47.815-.76 1.968-.657 2.817.05.407.175.638.295.759zm7.612 3.158H6.717a.417.417 0 0 0-.416.416v3.334c0 .23.186.416.416.416h12.084v-4.166zm0 6.666H9.634v13.75c0 .23.187.417.417.417h8.75V20.359zm2.5 0h9.166v13.75c0 .23-.186.417-.416.417H21.3V20.359zm0-2.5v-4.166h12.083c.23 0 .417.186.417.416v3.334c0 .23-.187.416-.417.416H21.301zm6.618-7.083c.498 0 .705-.142.804-.241.121-.121.247-.352.296-.759.103-.85-.187-2.002-.657-2.817a2.917 2.917 0 0 0-3.985-1.067c-.301.174-.794.72-1.386 1.66-.555.881-1.087 1.923-1.521 2.848a.285.285 0 0 0 .02.3.376.376 0 0 0 .33.16c1.857-.039 4.365-.084 6.099-.084z" fill="#34A34F"/></svg>