<svg viewBox="0 0 40 40" fill="none" xmlns="http://www.w3.org/2000/svg"><path fill-rule="evenodd" clip-rule="evenodd" d="M7.945 10.412c-.182-1.498.294-3.192.974-4.37a5.417 5.417 0 0 1 7.4-1.982c.886.511 1.656 1.548 2.251 2.493.324.513.633 1.062.92 1.606a24.01 24.01 0 0 1 .919-1.606c.595-.945 1.366-1.982 2.252-2.493a5.417 5.417 0 0 1 7.399 1.983c.68 1.177 1.156 2.87.974 4.369a4.343 4.343 0 0 1-.282 1.114h2.165a2.917 2.917 0 0 1 2.917 2.917v3.333a2.917 2.917 0 0 1-2.917 2.917h-.416v13.75a2.917 2.917 0 0 1-2.917 2.916h-20a2.917 2.917 0 0 1-2.917-2.916v-13.75h-.416a2.917 2.917 0 0 1-2.917-2.917v-3.333a2.917 2.917 0 0 1 2.917-2.917h1.976a4.346 4.346 0 0 1-.282-1.114zm2.778.456c.099.1.306.241.804.241 1.734 0 4.242.045 6.1.085a.376.376 0 0 0 .33-.16.285.285 0 0 0 .02-.3c-.435-.926-.967-1.968-1.521-2.848-.593-.94-1.086-1.487-1.387-1.661a2.917 2.917 0 0 0-3.985 1.068c-.47.815-.76 1.967-.657 2.817.05.407.175.637.296.758zm7.611 3.158H6.251a.417.417 0 0 0-.417.417v3.333c0 .23.187.417.417.417h12.083v-4.167zm0 6.667H9.167v13.75c0 .23.187.416.417.416h8.75V20.693zm2.5 0h9.167v13.75c0 .23-.187.416-.417.416h-8.75V20.693zm0-2.5v-4.167h12.083c.23 0 .417.187.417.417v3.333c0 .23-.187.417-.417.417H20.834zm6.618-7.084c.498 0 .705-.141.805-.24.12-.122.246-.352.295-.76.104-.849-.187-2.001-.657-2.816a2.917 2.917 0 0 0-3.985-1.068c-.301.174-.793.72-1.386 1.66-.555.881-1.087 1.923-1.521 2.848a.285.285 0 0 0 .02.3.376.376 0 0 0 .33.16c1.857-.039 4.366-.084 6.1-.084z" fill="#34A34F"/></svg>