<svg width="56" height="101" fill="none" xmlns="http://www.w3.org/2000/svg"><path d="M36.285 30.875l-.196 2.122a3.698 3.698 0 0 1-.197.877c-.225.793-.892 1.46-1.841 1.46H11.958c-.744 0-1.759-.756-2.01-1.47a3.499 3.499 0 0 1-.197-.877l-.738-7.894c-1.085-.113-1.942-1.217-1.942-2.546C7.08 21.14 8.031 20 9.201 20H36.64c1.171 0 2.13 1.141 2.13 2.556 0 1.32-.857 2.433-1.941 2.546l-.543 5.773z" fill="#34A34F"/><path fill-rule="evenodd" clip-rule="evenodd" d="M34.84 30.224l.478-5.112h-8.43v1.555c0 1.84-1.243 3.333-2.777 3.333h-2.222c-1.534 0-2.778-1.492-2.778-3.333v-1.555h-8.59l.724 7.687c.055.613.487 1.075.998 1.075h21.354c.511 0 .943-.462.998-1.075l.197-2.122.047-.453zM9.2 21.792c-.354 0-.637.34-.637.764s.283.764.637.764h27.44c.354 0 .637-.34.637-.764 0-.425-.283-.764-.637-.764H9.201zM25.222 26h-4.444v.667c0 .736.497 1.333 1.11 1.333h2.223c.614 0 1.111-.597 1.111-1.333V26z" fill="#CDF7CA"/><circle cx="44" cy="12" r="12" fill="#34A34F"/><path d="M39.95 15V8.38l.44.34h-2V7.7h2.74V15h-1.18zm2.418 0l2.64-3.9.01.18-2.42-3.58h1.34l1.74 2.63h.19l1.76-2.63h1.29l-2.47 3.61-.02-.17 2.7 3.86h-1.35l-2-2.91h-.19L43.659 15h-1.29z" fill="#fff"/><path d="M15.63 52.25L20 47.152l4.37 5.098h-1.12a1 1 0 0 0-1 1v1.25a.75.75 0 1 0 1.5 0v-.75h1.706a1 1 0 0 0 .76-1.651l-5.457-6.366a1 1 0 0 0-1.518 0l-5.457 6.366a1 1 0 0 0 .76 1.65h1.706V63a.75.75 0 1 0 1.5 0v-9.75a1 1 0 0 0-1-1h-1.12z" fill="#34A34F"/><path d="M30.37 59.75L26 64.847l-4.37-5.097h1.12a1 1 0 0 0 1-1V57.5a.75.75 0 0 0-1.5 0v.75h-1.707a1 1 0 0 0-.759 1.65l5.457 6.366a1 1 0 0 0 1.518 0l5.457-6.366a1 1 0 0 0-.76-1.65H29.75V49a.75.75 0 0 0-1.5 0v9.75a1 1 0 0 0 1 1h1.12zM2.874 77.522h40.069c1.59 0 2.873 1.55 2.873 3.449 0 1.626-.985 3.351-2.82 3.449l-1.093 11.703c-.2 2.071-1.654 3.644-3.399 3.644H7.321c-1.744 0-3.2-1.562-3.398-3.644L2.82 84.42C.985 84.322 0 82.597 0 80.97c0-1.908 1.293-3.448 2.874-3.448z" fill="#34A34F"/><path fill-rule="evenodd" clip-rule="evenodd" d="M38.504 97.706c.868 0 1.591-.78 1.69-1.811L41.27 84.42h-8.687v1.547c0 2.117-1.43 3.834-3.194 3.834H16.61c-1.764 0-3.194-1.717-3.194-3.834V84.42H4.555l1.076 11.475c.1 1.03.823 1.811 1.69 1.811h31.183zM2.874 79.582c-.641 0-1.157.63-1.157 1.389 0 .77.525 1.388 1.157 1.388h40.068c.642 0 1.157-.63 1.157-1.388 0-.77-.524-1.389-1.157-1.389H2.874zm12.46 5.619h15.333v.766c0 .847-.572 1.534-1.278 1.534H16.61c-.706 0-1.278-.687-1.278-1.534v-.766z" fill="#CDF7CA"/><circle cx="44" cy="78" r="12" fill="#34A34F"/><path d="M40.03 81.18c-.553 0-1.027-.103-1.42-.31a2.264 2.264 0 0 1-.9-.85c-.2-.36-.3-.753-.3-1.18h1.15c0 .407.13.73.39.97.267.24.627.36 1.08.36.3 0 .557-.053.77-.16.22-.113.39-.27.51-.47.12-.207.18-.447.18-.72 0-.407-.13-.737-.39-.99-.26-.26-.617-.39-1.07-.39-.2 0-.377.027-.53.08-.147.053-.277.12-.39.2l-.57-.99 2.6-1.84-.1-.18H37.7V73.7h4.61v1.39l-2.39 1.66-.74-.05a2.722 2.722 0 0 1 .88-.14c.547 0 1.01.1 1.39.3.387.193.683.457.89.79.207.333.31.707.31 1.12v.13c0 .407-.103.783-.31 1.13a2.304 2.304 0 0 1-.89.84c-.387.207-.86.31-1.42.31zm3.311-.18l2.64-3.9.01.18-2.42-3.58h1.34l1.74 2.63h.19l1.76-2.63h1.29l-2.47 3.61-.02-.17 2.7 3.86h-1.35l-2-2.91h-.19L44.631 81h-1.29z" fill="#fff"/></svg>