<svg viewBox="0 0 24 24" fill="none" xmlns="http://www.w3.org/2000/svg"><path fill-rule="evenodd" clip-rule="evenodd" d="M16.965 15.507C18.069 13.68 18.5 11.95 18.5 10a6.5 6.5 0 1 0-13 0c0 1.949.432 3.679 1.534 5.507 1 1.656 2.572 3.432 4.966 5.522 2.394-2.09 3.967-3.866 4.965-5.522zM12 23c6-5 8-8.582 8-13a8 8 0 1 0-16 0c0 4.418 2 8 8 13z" fill="#87898C"/><path fill-rule="evenodd" clip-rule="evenodd" d="M9.47 7.47a.75.75 0 0 1 1.06 0L12 8.94l1.47-1.47a.75.75 0 1 1 1.06 1.06L13.06 10l1.47 1.47a.75.75 0 1 1-1.06 1.06L12 11.06l-1.47 1.47a.75.75 0 1 1-1.06-1.06L10.94 10 9.47 8.53a.75.75 0 0 1 0-1.06z" fill="#87898C"/></svg>