<svg viewBox="0 0 24 24" fill="none" xmlns="http://www.w3.org/2000/svg"><path fill-rule="evenodd" clip-rule="evenodd" d="M1.142 6.916c-.123-.765-.053-1.6.528-2.18L4.755 1.65a1.91 1.91 0 0 1 2.7 0l3.086 3.086a1.91 1.91 0 0 1 0 2.7L8.018 9.958c.024.14.103.374.28.703.357.662.988 1.482 1.769 2.262.78.78 1.6 1.413 2.262 1.77.329.176.563.255.703.279l2.523-2.522a1.909 1.909 0 0 1 2.7 0l3.085 3.085a1.909 1.909 0 0 1 0 2.7l-3.085 3.085c-.582.582-1.415.65-2.181.528-.788-.126-1.7-.48-2.682-1.009-1.97-1.06-4.239-2.835-6.323-4.918-2.083-2.084-3.857-4.353-4.918-6.323-.529-.982-.883-1.894-1.01-2.682zm1.616-.258c.085.536.35 1.265.834 2.164.964 1.79 2.626 3.934 4.634 5.942 2.008 2.008 4.151 3.67 5.942 4.635.899.484 1.628.748 2.164.834.559.089.733-.037.765-.07l3.086-3.085a.273.273 0 0 0 0-.386l-3.086-3.085a.273.273 0 0 0-.385 0l-2.634 2.633c-.397.397-.928.408-1.297.35-.39-.063-.81-.232-1.228-.457-.842-.453-1.787-1.196-2.643-2.053-.856-.856-1.6-1.801-2.053-2.643-.225-.418-.393-.837-.456-1.228-.059-.368-.048-.9.349-1.297l2.634-2.634a.273.273 0 0 0 0-.385L6.298 2.807a.273.273 0 0 0-.386 0L2.827 5.893c-.033.032-.159.206-.07.765z" fill="#87898C"/></svg>