<svg viewBox="0 0 64 52" fill="none" xmlns="http://www.w3.org/2000/svg"><path d="M50.516 52c-5.478 0-9.621-2.201-12.43-6.603-2.388-3.715-3.582-8.254-3.582-13.62 0-6.878 1.756-13.068 5.267-18.57C43.423 7.703 48.901 3.301 56.205 0L58.1 3.714c-4.354 1.789-8.147 4.609-11.377 8.46-3.09 3.852-4.635 7.773-4.635 11.762 0 1.651.21 3.096.632 4.334 2.247-1.788 4.846-2.683 7.795-2.683 3.793 0 6.953 1.238 9.481 3.715C62.666 31.64 64 34.804 64 38.794c0 3.714-1.334 6.878-4.003 9.492C57.469 50.762 54.309 52 50.517 52zm-34.504 0c-5.478 0-9.621-2.201-12.43-6.603C1.194 41.682 0 37.143 0 31.777 0 24.9 1.756 18.71 5.267 13.208 8.92 7.703 14.397 3.301 21.701 0l1.896 3.714c-4.355 1.789-8.147 4.609-11.377 8.46-3.09 3.852-4.635 7.773-4.635 11.762 0 1.651.21 3.096.632 4.334 2.247-1.788 4.845-2.683 7.795-2.683 3.792 0 6.953 1.238 9.48 3.715 2.67 2.338 4.004 5.502 4.004 9.492 0 3.714-1.335 6.878-4.003 9.492C22.965 50.762 19.804 52 16.012 52z" fill="#F5F6F7"/></svg>