<svg viewBox="0 0 80 80" fill="none" xmlns="http://www.w3.org/2000/svg"><path d="M42 6l32 32v4L40 66 6 42v-4L38 6h4z" fill="#5FD16F"/><path d="M68 74.5H12A6.5 6.5 0 0 1 5.5 68V38.621L36.818 7.303a4.5 4.5 0 0 1 6.364 0L74.5 38.621V68a6.5 6.5 0 0 1-6.5 6.5z" stroke="#34A34F" stroke-width="3"/><rect x="19.5" y="19.5" width="41" height="55" rx="4.5" fill="#fff" stroke="#34A34F" stroke-width="3"/><path d="M4 66V38l36 28 36-28v28c0 5.523-4.477 10-10 10H14C8.477 76 4 71.523 4 66z" fill="#CDF7CA"/><path d="M68 74.5H12A6.5 6.5 0 0 1 5.5 68V41l30 22.5a7.5 7.5 0 0 0 9 0l30-22.5v27a6.5 6.5 0 0 1-6.5 6.5z" stroke="#34A34F" stroke-width="3"/><circle cx="33.5" cy="31.5" r="3" stroke="#34A34F"/><path d="M52.132 30.817a5.5 5.5 0 0 1-3.374-2.518m-17.022-.179a5.501 5.501 0 0 1-3.76 3.66m9.262 15.47a5.498 5.498 0 0 1 7.513-2.013" stroke="#34A34F"/><circle cx="47.5" cy="31.5" r="3" stroke="#34A34F"/><circle cx="34" cy="32" r="1" fill="#0A6629"/><circle cx="48" cy="32" r="1" fill="#0A6629"/></svg>