<svg viewBox="0 0 33 32" fill="none" xmlns="http://www.w3.org/2000/svg"><path d="M6.5 6.5A2.507 2.507 0 0 0 4 9v13c0 1.375 1.125 2.5 2.5 2.5h20c1.375 0 2.5-1.125 2.5-2.5V9c0-1.375-1.125-2.5-2.5-2.5h-20zm0 1h20c.834 0 1.5.666 1.5 1.5v13c0 .834-.666 1.5-1.5 1.5h-20c-.834 0-1.5-.666-1.5-1.5V9c0-.834.666-1.5 1.5-1.5z" fill="#DB4827"/><path d="M8.158 17.581c-.282 0-.522-.045-.72-.135a1.05 1.05 0 0 1-.446-.378 1.009 1.009 0 0 1-.153-.549h.531a.556.556 0 0 0 .324.499c.114.058.269.086.464.086.177 0 .322-.026.436-.076a.558.558 0 0 0 .257-.203.486.486 0 0 0 .085-.279.36.36 0 0 0-.162-.306c-.108-.081-.27-.13-.486-.148l-.328-.032c-.303-.024-.545-.117-.725-.279a.838.838 0 0 1-.27-.648c0-.204.048-.381.144-.531a.993.993 0 0 1 .414-.351c.177-.087.383-.13.617-.13.24 0 .448.043.625.13a.941.941 0 0 1 .41.36.988.988 0 0 1 .148.549h-.53a.535.535 0 0 0-.073-.27.513.513 0 0 0-.211-.212.747.747 0 0 0-.37-.08.761.761 0 0 0-.36.076.54.54 0 0 0-.21.198.503.503 0 0 0-.073.261c0 .111.042.21.126.297.084.084.213.133.387.149l.324.026c.231.018.43.068.599.149a.955.955 0 0 1 .396.315.789.789 0 0 1 .144.477.908.908 0 0 1-.167.54 1.06 1.06 0 0 1-.459.365c-.195.087-.424.13-.688.13zm4.075-.081l-1.269-1.534h-.472l1.476-1.751h.616l-1.336 1.58-.032-.316 1.679 2.021h-.662zm-2.101 0v-3.285h.54V17.5h-.54zm3.173 0v-3.285h.54V17.5h-.54zm1.882-1.076v-.472h.684a.7.7 0 0 0 .356-.081.579.579 0 0 0 .22-.23.716.716 0 0 0 .077-.332.7.7 0 0 0-.077-.333.543.543 0 0 0-.22-.23.7.7 0 0 0-.356-.081h-.684v-.472h.621c.273 0 .503.045.689.135a.934.934 0 0 1 .427.373c.1.159.149.35.149.572v.072c0 .218-.05.409-.149.571a.96.96 0 0 1-.427.378 1.62 1.62 0 0 1-.689.13h-.62zm-.45 1.076v-3.307h.54V17.5h-.54zm3.373-1.076v-.472h.684a.7.7 0 0 0 .355-.081.579.579 0 0 0 .22-.23.716.716 0 0 0 .077-.332.7.7 0 0 0-.077-.333.543.543 0 0 0-.22-.23.7.7 0 0 0-.355-.081h-.684v-.472h.62c.273 0 .503.045.689.135a.934.934 0 0 1 .427.373c.1.159.149.35.149.572v.072c0 .218-.05.409-.149.571a.96.96 0 0 1-.427.378 1.62 1.62 0 0 1-.689.13h-.62zm-.45 1.076v-3.307h.54V17.5h-.54zm2.922 0v-3.285h.535V17.5h-.535zm.445 0v-.468h1.54v.468h-1.54zm0-1.436v-.467h1.413v.467h-1.413zm0-1.381v-.468h1.499v.468h-1.499zm2.694 2.835v-.5h.752c.183 0 .346-.028.49-.085a1.038 1.038 0 0 0 .599-.617 1.31 1.31 0 0 0 .08-.463c0-.177-.026-.336-.08-.477a.98.98 0 0 0-.599-.598 1.324 1.324 0 0 0-.49-.086h-.752v-.5h.707c.297 0 .555.046.774.136.222.09.406.211.553.364.147.153.257.325.329.518.072.191.108.39.108.593v.1c0 .191-.036.385-.108.58a1.55 1.55 0 0 1-.882.895 1.97 1.97 0 0 1-.774.14h-.707zm-.45 0v-3.325h.54v3.325h-.54z" fill="#DB4827"/></svg>