<svg viewBox="0 0 1179 1209" fill="none" xmlns="http://www.w3.org/2000/svg">
<path d="M279.694 1C108.614 257.442 1148.89 -197.535 1148.89 257.442C1148.89 691.5 1 155.417 1 604.879C1 1206 1177.56 407 1177.56 954C1177.56 1501 299.009 954 299.009 1206" stroke="#E1E3E6" stroke-width="2" stroke-dasharray="2 2"/>
<rect width="24" height="24" transform="translate(579 417)" fill="white"/>
<circle cx="590" cy="428" r="6.25" stroke="#E1E3E6" stroke-width="1.5"/>
<path d="M594.5 432.5L598.5 436.5" stroke="#E1E3E6" stroke-width="1.5" stroke-linecap="round"/>
<rect width="24" height="24" transform="translate(579 785)" fill="white"/>
<path d="M594 794C594.552 794 595 793.552 595 793C595 792.448 594.552 792 594 792C593.448 792 593 792.448 593 793C593 793.552 593.448 794 594 794Z" fill="#E1E3E6"/>
<path d="M585.5 798.75C585.086 798.75 584.75 799.086 584.75 799.5C584.75 799.914 585.086 800.25 585.5 800.25H597C597.414 800.25 597.75 799.914 597.75 799.5C597.75 799.086 597.414 798.75 597 798.75H585.5Z" fill="#E1E3E6"/>
<path fill-rule="evenodd" clip-rule="evenodd" d="M585.671 785.665C585.486 785.294 585.035 785.144 584.665 785.329C584.294 785.514 584.144 785.965 584.329 786.335L586.117 789.912C585.205 790.332 584.458 791.049 583.999 791.938L581.53 789.47C581.237 789.177 580.763 789.177 580.47 789.47C580.177 789.762 580.177 790.237 580.47 790.53L583.04 793.1C582.378 793.548 581.878 794.217 581.645 795H581C580.448 795 580 795.448 580 796V798C580 798.378 580.21 798.708 580.521 798.878C580.763 799.01 580.998 799.224 581.018 799.5C581.226 802.45 583.262 804.895 586 805.71V806C586 806.552 586.448 807 587 807H595C595.552 807 596 806.552 596 806V805.71C598.738 804.895 600.774 802.45 600.982 799.5C601.002 799.224 601.237 799.01 601.479 798.878C601.79 798.708 602 798.378 602 798V796C602 795.448 601.552 795 601 795H600.389C600.098 793.72 599.263 792.649 598.14 792.041C597.351 789.971 595.349 788.5 593 788.5C591.67 788.5 590.451 788.973 589.501 789.757C589.031 789.59 588.525 789.5 588 789.5C587.864 789.5 587.73 789.506 587.597 789.518L585.671 785.665ZM584.135 794.196C583.772 794.371 583.469 794.652 583.268 795H584.939L584.135 794.196ZM587.059 795H589C589 794.448 589.448 794 590 794C590.552 794 591 794.448 591 795H598.829C598.517 794.117 597.803 793.423 596.907 793.14C596.514 791.344 594.914 790 593 790C591.691 790 590.53 790.628 589.8 791.6C589.299 791.223 588.675 791 588 791C586.663 791 585.531 791.874 585.143 793.082L587.03 794.97C587.04 794.979 587.05 794.99 587.059 795ZM595.572 804.272L594.5 804.591V805.5H587.5V804.591L586.428 804.272C584.276 803.632 582.677 801.708 582.514 799.394C582.453 798.532 581.899 798 581.5 797.722V796.5H600.5V797.722C600.101 798 599.547 798.532 599.486 799.394C599.323 801.708 597.724 803.632 595.572 804.272Z" fill="#E1E3E6"/>
<rect width="24" height="24" transform="translate(579 1153)" fill="white"/>
<path fill-rule="evenodd" clip-rule="evenodd" d="M590.5 1158.5H603V1157H589V1161H584.031C582.804 1161 581.701 1161.75 581.246 1162.89L580.572 1164.57C580.194 1165.51 580 1166.52 580 1167.54V1171H582.05C582.282 1172.14 583.291 1173 584.5 1173C585.709 1173 586.718 1172.14 586.95 1171H595.05C595.282 1172.14 596.291 1173 597.5 1173C598.709 1173 599.718 1172.14 599.95 1171H602V1166H600.5V1169.5H599.792C599.406 1168.62 598.525 1168 597.5 1168C596.475 1168 595.594 1168.62 595.208 1169.5H590.5V1158.5ZM581.5 1169.5H582.208C582.594 1168.62 583.475 1168 584.5 1168C585.525 1168 586.406 1168.62 586.792 1169.5H589V1162.5H584.031C583.418 1162.5 582.866 1162.87 582.638 1163.44L581.965 1165.13C581.658 1165.89 581.5 1166.71 581.5 1167.54V1169.5ZM596.5 1170.5C596.5 1171.05 596.948 1171.5 597.5 1171.5C598.052 1171.5 598.5 1171.05 598.5 1170.5C598.5 1169.95 598.052 1169.5 597.5 1169.5C596.948 1169.5 596.5 1169.95 596.5 1170.5ZM584.5 1171.5C583.948 1171.5 583.5 1171.05 583.5 1170.5C583.5 1169.95 583.948 1169.5 584.5 1169.5C585.052 1169.5 585.5 1169.95 585.5 1170.5C585.5 1171.05 585.052 1171.5 584.5 1171.5Z" fill="#E1E3E6"/>
<path d="M602 1160H592V1161.5H602V1160Z" fill="#E1E3E6"/>
<path d="M592 1163H600V1164.5H592V1163Z" fill="#E1E3E6"/>
<path d="M598 1166H592V1167.5H598V1166Z" fill="#E1E3E6"/>
<rect width="24" height="24" transform="translate(579 49)" fill="white"/>
<path d="M589.948 56.9593C590.45 56.7512 591.003 56.6967 591.536 56.8028C592.07 56.909 592.56 57.1709 592.945 57.5555C593.329 57.9401 593.591 58.4301 593.697 58.9635C593.803 59.497 593.749 60.0499 593.541 60.5524C593.333 61.0549 592.98 61.4844 592.528 61.7865C592.263 61.9637 592.057 62.1251 591.919 62.2881C591.79 62.4399 591.75 62.5574 591.75 62.6678V63.5C591.75 63.9142 591.414 64.25 591 64.25C590.586 64.25 590.25 63.9142 590.25 63.5V62.6678C590.25 62.1065 590.487 61.658 590.774 61.3189C591.052 60.9906 591.401 60.7352 591.694 60.5393C591.9 60.402 592.06 60.2068 592.155 59.9784C592.249 59.7499 592.274 59.4986 592.226 59.2561C592.178 59.0137 592.059 58.7909 591.884 58.6161C591.709 58.4413 591.486 58.3223 591.244 58.274C591.001 58.2258 590.75 58.2505 590.522 58.3452C590.293 58.4398 590.098 58.6 589.961 58.8055C589.823 59.0111 589.75 59.2528 589.75 59.5C589.75 59.9142 589.414 60.25 589 60.25C588.586 60.25 588.25 59.9142 588.25 59.5C588.25 58.9561 588.411 58.4244 588.713 57.9722C589.016 57.5199 589.445 57.1675 589.948 56.9593Z" fill="#E1E3E6"/>
<path d="M590.15 65.5C590.15 65.0306 590.531 64.65 591 64.65C591.469 64.65 591.85 65.0306 591.85 65.5C591.85 65.9695 591.469 66.35 591 66.35C590.531 66.35 590.15 65.9695 590.15 65.5Z" fill="#E1E3E6"/>
<path fill-rule="evenodd" clip-rule="evenodd" d="M601 61C601 66.5228 596.523 71 591 71C585.477 71 581 66.5228 581 61C581 55.4772 585.477 51 591 51C596.523 51 601 55.4772 601 61ZM599.5 61C599.5 65.6944 595.694 69.5 591 69.5C586.306 69.5 582.5 65.6944 582.5 61C582.5 56.3056 586.306 52.5 591 52.5C595.694 52.5 599.5 56.3056 599.5 61Z" fill="#E1E3E6"/>
</svg>
