<svg version="1.1" id="Слой_1" xmlns="http://www.w3.org/2000/svg" x="0" y="0" viewBox="0 0 430 437.6" xml:space="preserve"><style>.st1{fill:#fff}.st4,.st5{fill:#e1e3e6}.st5{fill-rule:evenodd;clip-rule:evenodd}</style><path d="M102 .6c-62 93 315-72 315 93 0 150-416-37-416 126 0 156 428-75 428 125 0 159-320-27-320 93" fill="none" stroke="#e1e3e6" stroke-width="2" stroke-dasharray="2,2"/><path class="st1" d="M297 144.6h24v24h-24z"/><circle cx="308" cy="155.6" r="6.3" fill="none" stroke="#e1e3e6" stroke-width="1.5"/><path d="M312.5 160.1l4 4" fill="none" stroke="#e1e3e6" stroke-width="1.5" stroke-linecap="round"/><path class="st1" d="M184 254.6h24v24h-24z"/><path class="st4" d="M199 263.6c.6 0 1-.4 1-1s-.4-1-1-1-1 .4-1 1 .4 1 1 1zm-8.5 4.7c-.4 0-.8.3-.8.8s.3.8.8.8H202c.4 0 .8-.3.8-.8s-.3-.8-.8-.8h-11.5z"/><path class="st5" d="M190.7 255.2c-.2-.4-.6-.5-1-.3s-.5.6-.3 1l1.8 3.6c-.9.4-1.7 1.1-2.1 2l-2.5-2.5c-.3-.3-.8-.3-1.1 0s-.3.8 0 1.1l2.6 2.6c-.7.4-1.2 1.1-1.4 1.9h-.7c-.6 0-1 .4-1 1v2c0 .4.2.7.5.9.2.1.5.3.5.6.2 3 2.2 5.4 5 6.2v.3c0 .6.4 1 1 1h8c.6 0 1-.4 1-1v-.3c2.7-.8 4.8-3.3 5-6.2 0-.3.3-.5.5-.6.3-.2.5-.5.5-.9v-2c0-.6-.4-1-1-1h-.6c-.3-1.3-1.1-2.4-2.2-3-.8-2.1-2.8-3.5-5.1-3.5-1.3 0-2.5.5-3.5 1.3-.5-.2-1-.3-1.5-.3h-.4l-2-3.9zm-1.6 8.6c-.4.2-.7.5-.9.8h1.7l-.8-.8zm3 .8h1.9c0-.6.4-1 1-1s1 .4 1 1h7.8c-.3-.9-1-1.6-1.9-1.9-.4-1.8-2-3.1-3.9-3.1-1.3 0-2.5.6-3.2 1.6-.5-.4-1.1-.6-1.8-.6-1.3 0-2.5.9-2.9 2.1l2 1.9c-.1-.1-.1-.1 0 0zm8.5 9.2l-1.1.3v.9h-7v-.9l-1.1-.3c-2.2-.6-3.8-2.6-3.9-4.9-.1-.9-.6-1.4-1-1.7V266h19v1.2c-.4.3-1 .8-1 1.7-.2 2.4-1.8 4.3-3.9 4.9z"/><path class="st1" d="M251 389.6h24v24h-24z"/><path class="st5" d="M262.5 395.1H275v-1.5h-14v4h-5c-1.2 0-2.3.7-2.8 1.9l-.7 1.7c-.4.9-.6 2-.6 3v3.5h2c.2 1.1 1.2 2 2.5 2s2.2-.9 2.5-2h8.1c.2 1.1 1.2 2 2.5 2s2.2-.9 2.5-2h2v-5h-1.5v3.5h-.7c-.4-.9-1.3-1.5-2.3-1.5s-1.9.6-2.3 1.5h-4.7v-11.1zm-9 11h.7c.4-.9 1.3-1.5 2.3-1.5s1.9.6 2.3 1.5h2.2v-7h-5c-.6 0-1.2.4-1.4.9l-.7 1.7c-.3.8-.5 1.6-.5 2.4v2zm15 1c0 .6.4 1 1 1s1-.4 1-1-.4-1-1-1-1 .4-1 1zm-12 1c-.6 0-1-.4-1-1s.4-1 1-1 1 .4 1 1-.4 1-1 1z"/><path class="st4" d="M274 396.6h-10v1.5h10v-1.5zm-10 3h8v1.5h-8v-1.5zm6 3h-6v1.5h6v-1.5z"/><path class="st1" d="M157 16.6h24v24h-24z"/><path class="st4" d="M167.9 24.5c.5-.2 1.1-.3 1.6-.2.5.1 1 .4 1.4.8.4.4.6.9.8 1.4.1.5.1 1.1-.2 1.6-.2.5-.6.9-1 1.2-.3.2-.5.3-.6.5-.1.2-.2.3-.2.4v.8c0 .4-.3.8-.8.8s-.8-.3-.8-.8v-.8c0-.6.2-1 .5-1.3.3-.3.6-.6.9-.8.2-.1.4-.3.5-.6.1-.2.1-.5.1-.7 0-.2-.2-.5-.3-.6-.2-.2-.4-.3-.6-.3-.2 0-.5 0-.7.1-.2.1-.4.3-.6.5-.1.2-.2.4-.2.7 0 .4-.3.8-.8.8s-.8-.3-.8-.8.2-1.1.5-1.5c.4-.6.8-1 1.3-1.2zm.2 8.6c0-.5.4-.9.9-.9s.9.4.9.9-.4.9-.9.9-.9-.5-.9-.9z"/><path class="st5" d="M179 28.6c0 5.5-4.5 10-10 10s-10-4.5-10-10 4.5-10 10-10 10 4.4 10 10zm-1.5 0c0 4.7-3.8 8.5-8.5 8.5s-8.5-3.8-8.5-8.5 3.8-8.5 8.5-8.5 8.5 3.8 8.5 8.5z"/></svg>