<svg viewBox="0 0 36 36" fill="none" xmlns="http://www.w3.org/2000/svg"><circle cx="18" cy="18" r="3.5" fill="#E1E3E6" stroke="#87898C"/><path d="M33.5 18a15.5 15.5 0 1 1-31 0" stroke="#87898C"/><path d="M5.35 14.74a1.68 1.68 0 0 0 .39-.69 1.77 1.77 0 0 0 .06-.75 1.94 1.94 0 0 0-.24-.66 1.86 1.86 0 0 0-.49-.52 2.34 2.34 0 0 0-.69-.34h-.13a2.238 2.238 0 0 0-.76-.1 1.84 1.84 0 0 0-.69.17 1.65 1.65 0 0 0-.91 1.09 1.56 1.56 0 0 0 0 .8c.055.272.187.522.38.72l.28.21-.93-.28-.22.61 5 1.47.23-.79-1.87-.55a1.39 1.39 0 0 0 .59-.39zm-2 0a1.11 1.11 0 0 1-.82-.86 1.18 1.18 0 0 1 0-.59 1 1 0 0 1 .33-.53 1 1 0 0 1 .55-.26 1.68 1.68 0 0 1 .69.06c.23.061.442.174.62.33.14.141.236.318.28.51a1 1 0 0 1 0 .6 1.3 1.3 0 0 1-.29.51 1.12 1.12 0 0 1-1.13.3l-.23-.07zm.15-5.18l-.29.47.54.33.29-.48 2.68 1.64.43-.7-3.22-1.96-.43.7zm-.97-.33a.52.52 0 0 0 .35.08.48.48 0 0 0 .31-.26.49.49 0 0 0 .09-.39.49.49 0 0 0-.23-.28.51.51 0 0 0-.35-.08.5.5 0 0 0-.32.26.44.44 0 0 0 .15.67zm6.64-2.72l-.56.57a.79.79 0 0 1 .18.38.93.93 0 0 1 0 .43c-.06.157-.152.3-.27.42a1.05 1.05 0 0 1-.56.31 1 1 0 0 1-.58-.07 1.76 1.76 0 0 1-.54-.39 1.64 1.64 0 0 1-.39-.55 1 1 0 0 1 .23-1.12 1 1 0 0 1 .63-.32.85.85 0 0 1 .57.18l.56-.56a1.46 1.46 0 0 0-.73-.37 1.69 1.69 0 0 0-.8.07 2.12 2.12 0 0 0-.79.51 2 2 0 0 0-.47.7 1.84 1.84 0 0 0 .09 1.43c.11.216.252.415.42.59l.09.09c.17.168.366.306.58.41.219.112.457.18.7.2a1.68 1.68 0 0 0 .73-.1 2.17 2.17 0 0 0 1.21-1.26 1.61 1.61 0 0 0 .08-.81 1.46 1.46 0 0 0-.38-.74zm2.64-4.2l-.77.4-.5 2.35-1.47-2.83-.73.38 2.36 4.53.73-.38-.82-1.56.41-.21 2 .94.83-.43-2.49-1.14.45-2.05zm6.51-.57a1.09 1.09 0 0 0-.59-.43 2.8 2.8 0 0 0-1-.09h-.76l-.34.05v.7l.4-.05h.9a.72.72 0 0 1 .55.14.71.71 0 0 1 .21.52v.07l-.85.06a2.5 2.5 0 0 0-.85.18 1.12 1.12 0 0 0-.52.43 1.15 1.15 0 0 0-.16.68c.01.232.082.457.21.65a1 1 0 0 0 .5.39c.232.092.482.126.73.1A1.35 1.35 0 0 0 17.5 5a1.06 1.06 0 0 0 .4-.44.85.85 0 0 0 .1-.28l.05.73h.65l-.14-2.35a1.74 1.74 0 0 0-.24-.92zm-.6 2.38a.72.72 0 0 1-.31.29 1.13 1.13 0 0 1-.41.11.82.82 0 0 1-.57-.14.589.589 0 0 1-.23-.45.6.6 0 0 1 .17-.47.8.8 0 0 1 .56-.21l.88-.06v.4a1 1 0 0 1-.09.53zM27.33 4a1.34 1.34 0 0 0-.57-.5 1.28 1.28 0 0 0-.76-.17 1.23 1.23 0 0 0-.65.33l-.09.11v-.14a1.26 1.26 0 0 0-.13-.71 1.3 1.3 0 0 0-.57-.51 1.18 1.18 0 0 0-.74-.13 1.12 1.12 0 0 0-.64.34.94.94 0 0 0-.18.21l.38-.83-.58-.28-1.65 3.35.74.36 1-2a1 1 0 0 1 .5-.5A.79.79 0 0 1 24 3a.72.72 0 0 1 .41.45 1 1 0 0 1-.1.67l-1 2 .74.36 1-2a1 1 0 0 1 .49-.5.79.79 0 0 1 .65.05.72.72 0 0 1 .41.45.92.92 0 0 1-.1.67l-1 2 .74.36.94-1.93a2.65 2.65 0 0 0 .28-.92 1.23 1.23 0 0 0-.13-.66zm2.01 5.48a.67.67 0 0 1-.51 0 1.36 1.36 0 0 1-.85-1c0-.165.038-.33.11-.48.08-.15.184-.285.31-.4l1.91 2.18.24-.21a2.17 2.17 0 0 0 .56-.76c.12-.287.162-.6.12-.91a1.821 1.821 0 0 0-.47-.94 1.841 1.841 0 0 0-.67-.51 1.49 1.49 0 0 0-.71-.15c-.24 0-.48.051-.7.15a2.349 2.349 0 0 0-.62.38l-.1.09a2.36 2.36 0 0 0-.46.56 1.719 1.719 0 0 0-.18 1.41 2.1 2.1 0 0 0 .44.75c.178.216.4.39.65.51.225.108.471.163.72.16.25-.01.494-.082.71-.21l-.5-.62zM29.71 7a1 1 0 0 1 .53.35c.138.149.232.332.27.53a1.07 1.07 0 0 1-.09.55c-.06.113-.134.217-.22.31L28.82 7.2c.094-.058.195-.105.3-.14a1 1 0 0 1 .59-.06zm3.66 5.68a1 1 0 0 0 .2-.7 2.489 2.489 0 0 0-.25-.93 3.336 3.336 0 0 0-.16-.35 3.58 3.58 0 0 0-.17-.34c-.05-.11-.11-.21-.16-.3l-.64.28.18.36c.07.14.14.28.2.42l.19.39a.78.78 0 0 1 .05.57.718.718 0 0 1-.42.38h-.06L32 11.7a2.54 2.54 0 0 0-.46-.73 1.23 1.23 0 0 0-.59-.34 1.141 1.141 0 0 0-.69.09c-.213.09-.4.235-.54.42a1.08 1.08 0 0 0-.19.61c-.005.25.05.497.16.72.086.217.223.41.4.56.159.127.35.207.55.23.1.016.201.016.3 0l-.67.3.26.59 2.16-.94c.268-.116.502-.298.68-.53zm-2.82.08a1.21 1.21 0 0 1-.24-.35.85.85 0 0 1-.07-.59.6.6 0 0 1 .34-.36.61.61 0 0 1 .51 0 .81.81 0 0 1 .39.45l.35.81-.35.15a1.05 1.05 0 0 1-.55.09.799.799 0 0 1-.38-.2zm5.08 1l-.62.12.09.49-4.4.82.16.82 5.02-.95-.25-1.3z" fill="#87898C"/></svg>