<svg width="16" height="16" viewBox="0 0 16 16" fill="none"
     xmlns="http://www.w3.org/2000/svg">
    <mask id="path-1-inside-1" fill="white">
        <path d="M7.41761 1.69316C7.65584 1.21339 8.34418 1.21339 8.58241 1.69315L10.1394 4.82868C10.234 5.0192 10.4169 5.15125 10.6284 5.1818L14.1099 5.6846C14.6426 5.76154 14.8553 6.41219 14.4698 6.78564L11.9506 9.2263C11.7975 9.3746 11.7277 9.58826 11.7638 9.79766L12.3585 13.2439C12.4495 13.7713 11.8926 14.1734 11.4162 13.9244L8.30224 12.2973C8.11303 12.1984 7.88699 12.1984 7.69779 12.2973L4.58384 13.9244C4.10737 14.1734 3.5505 13.7713 3.64149 13.2439L4.23621 9.79766C4.27234 9.58826 4.20249 9.3746 4.04942 9.2263L1.53019 6.78564C1.14471 6.41219 1.35742 5.76154 1.89013 5.6846L5.37163 5.1818C5.58316 5.15125 5.76603 5.0192 5.86064 4.82868L7.41761 1.69316Z"/>
    </mask>
    <path d="M7.41761 1.69316C7.65584 1.21339 8.34418 1.21339 8.58241 1.69315L10.1394 4.82868C10.234 5.0192 10.4169 5.15125 10.6284 5.1818L14.1099 5.6846C14.6426 5.76154 14.8553 6.41219 14.4698 6.78564L11.9506 9.2263C11.7975 9.3746 11.7277 9.58826 11.7638 9.79766L12.3585 13.2439C12.4495 13.7713 11.8926 14.1734 11.4162 13.9244L8.30224 12.2973C8.11303 12.1984 7.88699 12.1984 7.69779 12.2973L4.58384 13.9244C4.10737 14.1734 3.5505 13.7713 3.64149 13.2439L4.23621 9.79766C4.27234 9.58826 4.20249 9.3746 4.04942 9.2263L1.53019 6.78564C1.14471 6.41219 1.35742 5.76154 1.89013 5.6846L5.37163 5.1818C5.58316 5.15125 5.76603 5.0192 5.86064 4.82868L7.41761 1.69316Z"
          fill="#F2AE04"/>
    <path d="M5.37163 5.1818L5.4431 5.67666L5.37163 5.1818ZM5.86064 4.82868L6.30846 5.05105L5.86064 4.82868ZM1.53019 6.78564L1.18228 7.14475H1.18228L1.53019 6.78564ZM1.89013 5.6846L1.81866 5.18974H1.81866L1.89013 5.6846ZM4.23621 9.79766L4.72892 9.88269L4.23621 9.79766ZM4.04942 9.2263L4.39733 8.8672L4.04942 9.2263ZM4.58384 13.9244L4.8154 14.3676H4.8154L4.58384 13.9244ZM3.64149 13.2439L3.14878 13.1589L3.64149 13.2439ZM8.30224 12.2973L8.53379 11.8542L8.30224 12.2973ZM7.69779 12.2973L7.46623 11.8542L7.69779 12.2973ZM12.3585 13.2439L11.8658 13.329L12.3585 13.2439ZM11.4162 13.9244L11.1846 14.3676L11.4162 13.9244ZM11.9506 9.2263L11.6027 8.8672L11.9506 9.2263ZM11.7638 9.79766L12.2565 9.71264L11.7638 9.79766ZM14.1099 5.6846L14.1814 5.18974L14.1099 5.6846ZM14.4698 6.78564L14.8177 7.14475L14.4698 6.78564ZM10.1394 4.82868L9.69156 5.05105L10.1394 4.82868ZM10.6284 5.1818L10.5569 5.67666L10.6284 5.1818ZM8.58241 1.69315L9.03024 1.47078V1.47078L8.58241 1.69315ZM7.41761 1.69316L6.96978 1.47078V1.47078L7.41761 1.69316ZM8.13458 1.91553L9.69156 5.05105L10.5872 4.60631L9.03024 1.47078L8.13458 1.91553ZM10.5569 5.67666L14.0384 6.17947L14.1814 5.18974L10.6999 4.68693L10.5569 5.67666ZM14.1219 6.42653L11.6027 8.8672L12.2985 9.58541L14.8177 7.14475L14.1219 6.42653ZM11.2711 9.88269L11.8658 13.329L12.8512 13.1589L12.2565 9.71264L11.2711 9.88269ZM11.6477 13.4813L8.53379 11.8542L8.07068 12.7405L11.1846 14.3676L11.6477 13.4813ZM7.46623 11.8542L4.35228 13.4813L4.8154 14.3676L7.92934 12.7405L7.46623 11.8542ZM4.13421 13.329L4.72892 9.88269L3.74349 9.71264L3.14878 13.1589L4.13421 13.329ZM4.39733 8.8672L1.87809 6.42653L1.18228 7.14475L3.70151 9.58541L4.39733 8.8672ZM1.9616 6.17947L5.4431 5.67666L5.30016 4.68693L1.81866 5.18974L1.9616 6.17947ZM6.30846 5.05105L7.86544 1.91553L6.96978 1.47078L5.41281 4.60631L6.30846 5.05105ZM5.4431 5.67666C5.8163 5.62277 6.14037 5.38956 6.30846 5.05105L5.41281 4.60631C5.39169 4.64883 5.35003 4.67973 5.30016 4.68693L5.4431 5.67666ZM1.87809 6.42653C1.79406 6.34512 1.83561 6.19766 1.9616 6.17947L1.81866 5.18974C0.879231 5.32541 0.495367 6.47926 1.18228 7.14475L1.87809 6.42653ZM4.72892 9.88269C4.79327 9.50983 4.66869 9.13009 4.39733 8.8672L3.70151 9.58541C3.73629 9.61911 3.75141 9.6667 3.74349 9.71264L4.72892 9.88269ZM4.35228 13.4813C4.23657 13.5417 4.11482 13.4413 4.13421 13.329L3.14878 13.1589C2.98617 14.1012 3.97818 14.805 4.8154 14.3676L4.35228 13.4813ZM8.53379 11.8542C8.19952 11.6795 7.8005 11.6795 7.46623 11.8542L7.92934 12.7405C7.97348 12.7174 8.02654 12.7174 8.07068 12.7405L8.53379 11.8542ZM11.8658 13.329C11.8852 13.4413 11.7635 13.5417 11.6477 13.4813L11.1846 14.3676C12.0218 14.805 13.0139 14.1012 12.8512 13.1589L11.8658 13.329ZM11.6027 8.8672C11.3313 9.13009 11.2068 9.50983 11.2711 9.88269L12.2565 9.71264C12.2486 9.6667 12.2637 9.61911 12.2985 9.58541L11.6027 8.8672ZM14.0384 6.17947C14.1644 6.19766 14.206 6.34512 14.1219 6.42653L14.8177 7.14475C15.5047 6.47926 15.1208 5.32541 14.1814 5.18974L14.0384 6.17947ZM9.69156 5.05105C9.85965 5.38956 10.1837 5.62277 10.5569 5.67666L10.6999 4.68693C10.65 4.67973 10.6083 4.64883 10.5872 4.60631L9.69156 5.05105ZM9.03024 1.47078C8.6082 0.620842 7.39182 0.620845 6.96978 1.47078L7.86544 1.91553C7.91986 1.80593 8.08016 1.80593 8.13458 1.91553L9.03024 1.47078Z"
          fill="#D08F02" fill-opacity="0.5" mask="url(#path-1-inside-1)"/>
</svg>
