<svg width="24" height="24" fill="none" xmlns="http://www.w3.org/2000/svg"><mask id="a" fill="#fff"><path d="M11.126 2.54a.977.977 0 0 1 1.748 0l2.335 4.703a.974.974 0 0 0 .734.53l5.222.754a.966.966 0 0 1 .54 1.651l-3.78 3.661a.965.965 0 0 0-.28.857l.893 5.17c.136.79-.699 1.394-1.414 1.02l-4.67-2.44a.98.98 0 0 0-.907 0l-4.671 2.44c-.715.374-1.55-.23-1.414-1.02l.892-5.17a.965.965 0 0 0-.28-.857l-3.779-3.66a.967.967 0 0 1 .54-1.652l5.222-.754a.974.974 0 0 0 .734-.53l2.335-4.703z"/></mask><path d="M8.057 7.773l.143.99-.143-.99zm.734-.53l.896.445-.896-.445zm-6.496 2.935l-.696.719.696-.719zm.54-1.651l-.143-.99.143.99zm3.52 6.17l.985.17-.986-.17zm-.28-.858l.695-.718-.696.718zm.8 7.048l.464.886-.463-.886zm-1.413-1.021l-.985-.17.985.17zm6.991-1.42l.463-.886-.463.886zm-.906 0l-.463-.886.463.886zm6.99 1.42l-.985.17.986-.17zm-1.413 1.02l-.463.887.463-.886zm.802-7.047l-.696-.718.696.718zm-.28.857l.985-.17-.985.17zm3.519-6.17l.143-.989-.143.99zm.54 1.652l.696.719-.696-.719zm-6.496-2.935l-.896.445.896-.445zm.734.53l-.143.99.143-.99zm-3.07-5.233l.896-.445-.895.445zm-1.747 0l-.895-.445.895.445zm.852.444l2.335 4.704 1.792-.89-2.336-4.703-1.791.89zM15.8 8.762l5.222.755.286-1.98-5.223-.754-.285 1.98zm5.209.698l-3.779 3.661 1.392 1.437 3.779-3.661-1.392-1.437zm-4.349 5.406l.892 5.17 1.971-.34-.892-5.17-1.97.34zM17.587 20l-4.67-2.44-.927 1.772 4.671 2.44.926-1.772zm-6.503-2.44L6.413 20l.926 1.773 4.67-2.44-.925-1.773zm-4.636 2.476l.892-5.17-1.971-.34-.892 5.17 1.97.34zm.322-6.915l-3.78-3.66-1.39 1.435 3.78 3.66 1.39-1.436zM2.978 9.517L8.2 8.762l-.286-1.98-5.222.755.286 1.98zm6.709-1.83l2.335-4.703-1.791-.889-2.336 4.703 1.792.89zM8.2 8.763a1.974 1.974 0 0 0 1.487-1.074l-1.792-.89a.026.026 0 0 1 .02-.015l.285 1.98zm-5.209.698c-.003-.003-.001-.002.001.003L3 9.48a.033.033 0 0 1 0 .017s-.001.004-.008.01a.053.053 0 0 1-.013.009c-.004.002-.005.001 0 0l-.286-1.979C1.08 7.77.418 9.752 1.6 10.897L2.991 9.46zm4.349 5.406a1.965 1.965 0 0 0-.57-1.745l-1.392 1.437a.036.036 0 0 1-.01-.032l1.972.34zM6.413 20c-.005.003-.004.002 0 0a.05.05 0 0 1 .014 0c.007 0 .01.003.008.002-.001 0 .003.002.007.012a.063.063 0 0 1 .005.017v.005l-1.97-.34c-.28 1.62 1.426 2.827 2.862 2.077L6.413 20zm6.503-2.44a1.98 1.98 0 0 0-1.832 0l.926 1.772a.02.02 0 0 1-.02 0l.926-1.772zm4.636 2.476v-.005c.002-.006.003-.012.006-.017.004-.01.008-.013.007-.012l.008-.002h.014c.004.002.005.003 0 0l-.926 1.773c1.436.75 3.142-.456 2.862-2.077l-1.97.34zm-.322-6.915a1.965 1.965 0 0 0-.57 1.745l1.971-.34a.035.035 0 0 1-.01.032l-1.39-1.437zm3.792-3.604c.005 0 .004 0 0-.001a.054.054 0 0 1-.013-.008c-.007-.007-.008-.011-.008-.011s-.002-.006 0-.017a.064.064 0 0 1 .007-.017c.003-.005.004-.006 0-.003l1.393 1.437c1.18-1.145.52-3.127-1.093-3.36l-.286 1.98zm-6.709-1.83c.29.583.846.983 1.487 1.075l.285-1.98a.033.033 0 0 1 .02.016l-1.792.89zm-.544-5.592c-.725-1.46-2.813-1.46-3.538 0l1.791.89c.002-.004.001-.002-.002.002a.055.055 0 0 1-.012.01L12 3c.003 0 0 0-.008-.004a.055.055 0 0 1-.012-.01l-.002-.002 1.791-.889z" fill="#F2AE04" mask="url(#a)"/></svg>