<svg width="16" height="16" viewBox="0 0 16 16" fill="none" xmlns="http://www.w3.org/2000/svg"><path d="M8 6c-.29 0-.52.262-.499.57l.211 3.645c.011.16.137.285.288.285a.296.296 0 0 0 .288-.285l.21-3.645C8.52 6.262 8.29 6 8 6zM5.26 7.178c-.073-.3.107-.597.393-.648.285-.05.557.168.59.475l.338 3.134a.296.296 0 0 1-.234.33.296.296 0 0 1-.332-.23l-.754-3.06zm5.087-.648c-.285-.05-.557.168-.59.475L9.42 10.14a.296.296 0 0 0 .234.33.296.296 0 0 0 .332-.23l.755-3.06c.073-.3-.107-.598-.393-.649z" fill="#34A34F"/><path fill-rule="evenodd" clip-rule="evenodd" d="M12.414 9.971l-.333 3.665A1.5 1.5 0 0 1 10.587 15H5.413a1.5 1.5 0 0 1-1.494-1.364L3.586 9.97a3 3 0 0 1 .54-5.968 4 4 0 0 1 7.748 0 3 3 0 0 1 .54 5.968zM5.879 2.88A3 3 0 0 1 11 5a.5.5 0 0 0 1 0 2 2 0 0 1 0 4l-.498-.045-.269 2.956a13.24 13.24 0 0 0-6.466 0l-.269-2.956L4 9a2 2 0 0 1 0-4 .5.5 0 0 0 1 0 3 3 0 0 1 .879-2.121zm-1.02 10.04a12.24 12.24 0 0 1 6.283 0l-.057.626a.5.5 0 0 1-.498.455H5.413a.5.5 0 0 1-.498-.455l-.057-.625z" fill="#34A34F"/></svg>