<?xml version="1.0" standalone="no"?>
<!DOCTYPE svg PUBLIC "-//W3C//DTD SVG 20010904//EN"
 "http://www.w3.org/TR/2001/REC-SVG-20010904/DTD/svg10.dtd">
<svg version="1.0" xmlns="http://www.w3.org/2000/svg"
 width="1117.000000pt" height="1117.000000pt" viewBox="0 0 1117.000000 1117.000000"
 preserveAspectRatio="xMidYMid meet">
<metadata>
Created by potrace 1.11, written by Peter Selinger 2001-2013
</metadata>
<g transform="translate(0.000000,1117.000000) scale(0.100000,-0.100000)"
fill="#000000" stroke="none">
<path d="M8389 10626 c-2 -2 -51 -6 -109 -10 -156 -9 -380 -34 -470 -51 -13
-3 -42 -7 -65 -10 -58 -9 -230 -44 -300 -62 -33 -8 -67 -16 -75 -18 -38 -8
-151 -38 -205 -55 -208 -66 -379 -126 -430 -150 -11 -5 -58 -25 -105 -43 -248
-101 -629 -299 -850 -442 -172 -111 -233 -152 -355 -239 -77 -55 -144 -104
-150 -108 -5 -5 -48 -38 -95 -74 -85 -67 -153 -120 -174 -139 -6 -6 -45 -39
-86 -74 -225 -191 -515 -477 -689 -679 -29 -35 -52 -65 -50 -67 3 -2 43 -18
89 -35 47 -17 94 -35 105 -40 49 -22 438 -141 525 -160 19 -5 69 -17 110 -28
72 -19 295 -68 410 -91 231 -45 557 -87 840 -108 199 -14 827 -7 940 11 14 3
56 7 93 11 37 3 76 8 85 10 9 1 46 6 82 11 36 4 67 8 70 9 7 2 87 15 124 21
16 3 32 6 35 8 3 2 27 7 53 10 86 12 402 95 568 150 193 63 253 86 415 154
356 151 706 342 1042 568 268 182 575 422 808 634 92 83 450 444 511 514 32
37 65 75 73 83 7 7 12 16 10 18 -28 27 -643 227 -799 259 -14 3 -34 7 -45 10
-98 26 -301 69 -425 92 -14 2 -47 9 -75 14 -27 5 -68 12 -90 15 -23 3 -50 7
-61 9 -12 2 -45 7 -74 11 -29 4 -60 8 -69 10 -9 1 -45 6 -81 10 -36 3 -76 8
-90 10 -14 2 -63 7 -110 11 -47 4 -103 9 -125 11 -58 5 -730 14 -736 9z"/>
<path d="M1824 7877 c-241 -246 -414 -451 -617 -727 -59 -80 -111 -150 -115
-155 -23 -28 -208 -315 -274 -425 -334 -556 -581 -1162 -703 -1724 -24 -113
-28 -136 -40 -208 -3 -18 -10 -58 -15 -88 -15 -92 -21 -133 -26 -190 -2 -30
-6 -66 -9 -80 -13 -85 -20 -265 -20 -550 1 -344 9 -499 40 -725 2 -16 6 -52 9
-80 21 -220 122 -699 217 -1030 40 -136 121 -390 138 -430 5 -11 28 -72 51
-135 39 -105 139 -341 159 -377 11 -21 212 180 427 427 101 116 285 346 324
402 13 20 35 38 47 41 13 2 23 3 23 1 0 -2 -33 -72 -74 -156 -101 -209 -191
-419 -269 -628 -61 -163 -157 -457 -157 -481 0 -10 180 -5 237 5 10 2 54 7 98
10 44 4 87 9 95 11 8 2 38 6 65 10 103 13 157 21 238 35 31 5 81 14 110 19
161 29 501 108 651 152 38 12 76 22 86 24 9 2 104 32 211 68 694 231 1265 530
1774 931 154 122 223 184 425 384 163 161 240 245 377 412 70 85 195 247 223
290 8 13 24 35 36 49 25 32 193 288 256 391 164 270 340 615 468 920 28 69 56
134 61 145 40 91 142 382 184 524 l34 113 -109 -6 c-97 -5 -264 -21 -330 -31
-14 -2 -50 -7 -80 -10 -30 -4 -104 -15 -165 -26 -60 -11 -128 -22 -151 -25
l-41 -6 51 104 c96 196 164 348 228 508 50 126 108 276 112 295 2 6 6 17 9 25
11 29 86 265 96 302 10 42 8 46 -29 43 -14 -1 -71 -5 -127 -9 -55 -4 -112 -9
-125 -11 -12 -2 -56 -6 -97 -10 -41 -3 -77 -8 -80 -9 -3 -2 -31 -7 -61 -10
-71 -8 -315 -50 -415 -70 -148 -31 -198 -42 -300 -67 -66 -17 -127 -32 -135
-34 -123 -26 -614 -184 -705 -225 -11 -5 -65 -27 -120 -49 -441 -173 -885
-420 -1265 -706 l-135 -101 0 291 c0 256 -8 485 -20 556 -2 13 -6 51 -9 84
-12 127 -16 161 -21 185 -2 14 -7 45 -10 70 -3 25 -14 95 -25 155 -10 61 -22
126 -25 145 -17 98 -101 463 -126 545 -5 17 -21 71 -35 120 -90 317 -326 945
-355 945 -3 0 -68 -64 -145 -143z"/>
</g>
</svg>
