<svg xmlns="http://www.w3.org/2000/svg" viewBox="0 0 59.992 24"><path d="M10.962 3.094a3.73 3.73 0 0 1-2.954 1.359 4.01 4.01 0 0 1 1.055-2.98A4.445 4.445 0 0 1 11.993 0a4.265 4.265 0 0 1-1.03 3.094zm1.02 1.576c-1.63-.091-3.024.902-3.798.902-.785 0-1.969-.856-3.258-.834a4.836 4.836 0 0 0-4.09 2.42C-.92 10.105.38 14.466 2.08 16.864c.832 1.187 1.828 2.489 3.14 2.443 1.243-.045 1.735-.787 3.235-.787 1.511 0 1.945.787 3.258.765 1.36-.023 2.214-1.188 3.046-2.375a10.284 10.284 0 0 0 1.36-2.73 4.317 4.317 0 0 1-2.649-3.915 4.388 4.388 0 0 1 2.145-3.677 4.687 4.687 0 0 0-3.633-1.918zm9.41-3.311v17.8h2.835v-6.086h3.926c3.586 0 6.105-2.398 6.105-5.868a5.658 5.658 0 0 0-6.01-5.846h-6.856zm2.835 2.329h3.27c2.46 0 3.867 1.279 3.867 3.528 0 2.25-1.406 3.54-3.879 3.54h-3.258zm15.211 15.608a4.721 4.721 0 0 0 4.184-2.272h.058v2.135h2.625v-8.86c0-2.57-2.11-4.225-5.355-4.225-3.012 0-5.238 1.679-5.32 3.985h2.554a2.484 2.484 0 0 1 2.684-1.815c1.734 0 2.707.787 2.707 2.237v.982l-3.54.206c-3.292.194-5.073 1.507-5.073 3.79 0 2.307 1.84 3.837 4.476 3.837zm.762-2.112c-1.512 0-2.473-.708-2.473-1.793 0-1.119.926-1.77 2.696-1.872l3.152-.194v1.004c0 1.667-1.453 2.855-3.375 2.855zM49.81 24c2.765 0 4.066-1.028 5.202-4.145l4.98-13.61H57.11l-3.34 10.516h-.058l-3.34-10.516h-2.965l4.805 12.96-.258.787a2.244 2.244 0 0 1-2.39 1.85c-.224 0-.657-.023-.833-.046v2.136A8.126 8.126 0 0 0 49.81 24z"/></svg>