<svg viewBox="0 0 61 24" xmlns="http://www.w3.org/2000/svg"><g clip-path="url(#clip0)"><g clip-path="url(#clip1)"><path d="M11.47 3.094c-.704.81-1.829 1.45-2.954 1.359-.14-1.096.41-2.26 1.055-2.98C10.274.639 11.505.046 12.501 0c.117 1.142-.34 2.26-1.031 3.094zm1.02 1.576c-1.63-.091-3.024.902-3.798.902-.785 0-1.969-.856-3.258-.834-1.675.023-3.234.948-4.09 2.42-1.757 2.947-.456 7.308 1.243 9.706.832 1.187 1.828 2.489 3.14 2.443 1.243-.045 1.735-.787 3.235-.787 1.511 0 1.945.787 3.258.765 1.359-.023 2.214-1.188 3.046-2.375.95-1.348 1.336-2.66 1.36-2.73-.024-.022-2.625-.993-2.649-3.915-.023-2.444 2.051-3.608 2.145-3.677-1.172-1.69-3-1.872-3.633-1.918zm9.41-3.311v17.8h2.835v-6.086h3.926c3.586 0 6.105-2.398 6.105-5.868 0-3.471-2.472-5.846-6.011-5.846h-6.856zm2.835 2.329h3.27c2.46 0 3.867 1.279 3.867 3.528 0 2.25-1.406 3.54-3.879 3.54h-3.258V3.688zm15.211 15.608c1.781 0 3.434-.88 4.184-2.272h.058v2.135h2.625v-8.86c0-2.57-2.11-4.225-5.355-4.225-3.012 0-5.238 1.679-5.32 3.985h2.554c.211-1.096 1.254-1.815 2.684-1.815 1.734 0 2.707.787 2.707 2.237v.982l-3.54.206c-3.292.194-5.073 1.507-5.073 3.79 0 2.307 1.84 3.837 4.476 3.837zm.762-2.112c-1.512 0-2.473-.708-2.473-1.793 0-1.119.926-1.77 2.696-1.872l3.152-.194v1.004c0 1.667-1.453 2.855-3.375 2.855zM50.318 24c2.765 0 4.066-1.028 5.202-4.145l4.98-13.61h-2.882l-3.34 10.516h-.058L50.88 6.245h-2.965l4.805 12.96-.258.787c-.434 1.336-1.137 1.85-2.39 1.85-.224 0-.657-.023-.833-.046v2.136c.164.045.867.068 1.078.068z" fill="#fff"/></g></g><defs><clipPath id="clip0"><path fill="#fff" transform="translate(.5)" d="M0 0h60v24H0z"/></clipPath><clipPath id="clip1"><path fill="#fff" transform="translate(.5)" d="M0 0h60v24H0z"/></clipPath></defs></svg>