<svg viewBox="0 0 96 96" fill="none" xmlns="http://www.w3.org/2000/svg"><path fill-rule="evenodd" clip-rule="evenodd" d="M52.52 20.824H21.716c-2.656 0-4.362 2.12-4.362 4.427l-.322 44.91H9.561c-2.5 0-3.561 1.284-3.561 3.302v4.08a10.744 10.744 0 0 0 2.975 7.392 10.684 10.684 0 0 0 7.24 3.292v.03h42.049v-.04c.163.007.28.016.383.024.11.01.2.017.313.017h.03a10.683 10.683 0 0 0 7.552-3.148 10.743 10.743 0 0 0 3.128-7.58V44c-3.286 0-5.44-.89-8.173-2.72a16.65 16.65 0 0 1-6.118-7.476 16.702 16.702 0 0 1-.945-9.625l-1.915-3.355zM31.427 32.38c-2.404 0-4.36 1.899-4.36 4.233 0 2.334 1.956 4.233 4.36 4.233 2.404 0 4.36-1.899 4.36-4.233 0-2.334-1.956-4.233-4.36-4.233zm0 11.872c-2.404 0-4.36 1.899-4.36 4.233 0 2.334 1.956 4.233 4.36 4.233 2.404 0 4.36-1.9 4.36-4.233 0-2.334-1.956-4.233-4.36-4.233zm-4.36 16.104c0-2.334 1.956-4.233 4.36-4.233 2.404 0 4.36 1.899 4.36 4.233 0 2.334-1.956 4.233-4.36 4.233-2.404 0-4.36-1.899-4.36-4.233z" fill="#CDF7CA"/><path fill-rule="evenodd" clip-rule="evenodd" d="M27.069 48.486c0-2.334 1.955-4.233 4.36-4.233 2.403 0 4.359 1.899 4.359 4.233 0 2.334-1.956 4.233-4.36 4.233-2.404 0-4.36-1.9-4.36-4.233zm2.724 0c0 .828.733 1.501 1.635 1.501s1.636-.674 1.636-1.501c0-.828-.734-1.501-1.636-1.501-.902 0-1.635.673-1.635 1.5z" fill="#34A34F"/><path d="M38.808 48.48a1.368 1.368 0 0 0 1.362 1.366h18.157a1.36 1.36 0 0 0 1.362-1.366 1.368 1.368 0 0 0-1.361-1.366H40.17a1.36 1.36 0 0 0-1.362 1.366z" fill="#34A34F"/><path fill-rule="evenodd" clip-rule="evenodd" d="M27.069 36.614c0-2.334 1.955-4.233 4.36-4.233 2.403 0 4.359 1.9 4.359 4.233 0 2.334-1.956 4.233-4.36 4.233-2.404 0-4.36-1.899-4.36-4.233zm2.724 0c0 .828.733 1.501 1.635 1.501s1.636-.673 1.636-1.5c0-.829-.734-1.502-1.636-1.502-.902 0-1.635.673-1.635 1.501zm1.635 19.51c-2.404 0-4.36 1.9-4.36 4.233 0 2.334 1.956 4.233 4.36 4.233 2.404 0 4.36-1.899 4.36-4.233 0-2.334-1.956-4.233-4.36-4.233zm0 5.734c-.902 0-1.635-.673-1.635-1.5 0-.829.733-1.502 1.635-1.502s1.636.673 1.636 1.501c0 .828-.734 1.501-1.636 1.501z" fill="#34A34F"/><path d="M40.17 59.065h18.157a1.368 1.368 0 0 1 0 2.731H40.17a1.36 1.36 0 0 1-1.362-1.365 1.368 1.368 0 0 1 1.362-1.366zm30.24-39.101c.037.003.074.006.11.006.064 0 .127-.005.19-.014a3.04 3.04 0 0 1 2.11.914c.557.57.87 1.335.871 2.133a1.368 1.368 0 0 0 1.362 1.366 1.368 1.368 0 0 0 1.362-1.366 5.801 5.801 0 0 0-1.276-3.622 5.774 5.774 0 0 0-3.256-2.025v-1.313a1.368 1.368 0 0 0-1.362-1.365 1.36 1.36 0 0 0-1.362 1.365v1.375a5.766 5.766 0 0 0-3.303 2.371 5.795 5.795 0 0 0 .99 7.562 5.756 5.756 0 0 0 3.803 1.435 3.037 3.037 0 0 1 2.81 1.884 3.059 3.059 0 0 1-.66 3.325 3.04 3.04 0 0 1-5.193-2.158 1.367 1.367 0 0 0-1.362-1.366 1.36 1.36 0 0 0-1.362 1.366 5.803 5.803 0 0 0 1.195 3.52 5.775 5.775 0 0 0 3.082 2.066v1.497a1.368 1.368 0 0 0 1.362 1.366 1.36 1.36 0 0 0 1.362-1.366v-1.434a5.764 5.764 0 0 0 3.447-2.272 5.794 5.794 0 0 0-.83-7.68 5.757 5.757 0 0 0-3.851-1.479 3.037 3.037 0 0 1-2.11-.85 3.053 3.053 0 0 1 1.872-5.24z" fill="#34A34F"/><path fill-rule="evenodd" clip-rule="evenodd" d="M70.727 8c-8.379 0-15.53 5.483-18.208 12.824H21.717c-2.656 0-4.362 2.12-4.362 4.427l-.322 44.91H9.561c-2.5 0-3.561 1.284-3.561 3.302v4.08a10.744 10.744 0 0 0 2.975 7.392 10.684 10.684 0 0 0 7.24 3.292v.03h42.049v-.04c.163.007.28.016.382.024.11.01.202.017.314.017h.03a10.682 10.682 0 0 0 7.552-3.148 10.743 10.743 0 0 0 3.128-7.58V46.79c.34.019.7.029 1.053.029 10.662 0 19.338-8.718 19.338-19.41S81.389 8 70.726 8zM16.724 85.526a8 8 0 0 1-5.645-2.344 8.045 8.045 0 0 1-2.355-5.653v-3.044c0-1.022.837-1.54 1.837-1.54h36c1 0 1.658.5 1.658 1.518v3.047a10.737 10.737 0 0 0 3.154 7.591c.06.061.128.116.196.172.093.077.188.155.274.253h-35.12zm50.222-7.997c0 2.118-.838 4.15-2.33 5.65a7.963 7.963 0 0 1-5.628 2.347h-.026a8.022 8.022 0 0 1-5.657-2.35 8.067 8.067 0 0 1-2.362-5.665v-3.048c0-2.518-1.382-4.301-3.882-4.301H19.757l.304-45.217c0-1 .5-1.39 1.5-1.39h30.203a20.533 20.533 0 0 0-.374 3.793 19.292 19.292 0 0 0 1.644 7.816H40.17a1.36 1.36 0 0 0-1.362 1.366 1.368 1.368 0 0 0 1.362 1.365h14.341a19.25 19.25 0 0 0 5.346 5.55 19.195 19.195 0 0 0 7.089 3.004v31.08zm3.78-33.441c-3.285 0-6.497-.977-9.229-2.808a16.649 16.649 0 0 1-6.118-7.476 16.702 16.702 0 0 1-.945-9.625 16.674 16.674 0 0 1 4.546-8.53 16.598 16.598 0 0 1 8.506-4.56 16.57 16.57 0 0 1 9.598.949 16.623 16.623 0 0 1 7.455 6.136c1.826 2.74 2.8 5.96 2.8 9.255a16.702 16.702 0 0 1-4.871 11.774 16.607 16.607 0 0 1-11.742 4.885z" fill="#34A34F"/></svg>