<svg viewBox="0 0 96 96" fill="none" xmlns="http://www.w3.org/2000/svg"><path d="M48 79.5c21.54 0 39-14.886 39-33.25C87 27.887 69.54 13 48 13S9 27.887 9 46.25c0 9.303 4.48 17.713 11.703 23.747C17.56 76.4 12.546 83 12.546 83s14.39-1.776 22.67-5.327A45.082 45.082 0 0 0 48 79.5z" fill="#CDF7CA"/><path fill-rule="evenodd" clip-rule="evenodd" d="M24.433 69.205l-1.037 2.114c-1.32 2.69-2.937 5.38-4.389 7.628.392-.072.794-.147 1.204-.225 4.599-.881 9.998-2.166 13.823-3.806l.995-.427 1.038.307A42.08 42.08 0 0 0 48 76.5c20.349 0 36-13.974 36-30.25S68.349 16 48 16 12 29.974 12 46.25c0 8.29 3.986 15.896 10.626 21.445l1.807 1.51zm-7.745 13.186c-2.498.406-4.142.609-4.142.609s1.009-1.329 2.406-3.372c1.716-2.51 4.018-6.1 5.75-9.63C13.482 63.962 9 55.551 9 46.25 9 27.887 26.46 13 48 13s39 14.887 39 33.25C87 64.614 69.54 79.5 48 79.5c-4.477 0-8.779-.643-12.783-1.827-5.481 2.35-13.64 3.923-18.53 4.718z" fill="#34A34F"/></svg>