<svg viewBox="0 0 41 40" fill="none" xmlns="http://www.w3.org/2000/svg"><path fill-rule="evenodd" clip-rule="evenodd" d="M31.312 25.993l-.974 7.868c-2.473-2.46-17.203-2.46-19.677 0l-.973-7.868a7.7 7.7 0 0 1-5.25-2.59 7.622 7.622 0 0 1-.75-9.097A7.68 7.68 0 0 1 5.95 11.98a7.726 7.726 0 0 1 4.604-1.284 10.201 10.201 0 0 1 2.684-4.676A10.298 10.298 0 0 1 20.5 3.028c2.724 0 5.336 1.076 7.262 2.992a10.201 10.201 0 0 1 2.684 4.676 7.736 7.736 0 0 1 4.604 1.284 7.68 7.68 0 0 1 2.261 2.325 7.635 7.635 0 0 1 .83 6.27 7.648 7.648 0 0 1-1.58 2.827 7.7 7.7 0 0 1-5.249 2.591z" fill="#CDF7CA"/><path d="M20.5 15.048c-.557 0-.998.732-.958 1.592l.405 10.177c.021.449.262.796.553.796.29 0 .532-.347.552-.796l.406-10.177c.04-.86-.4-1.592-.958-1.592zm-6.526 1.847c-.61.108-.97.886-.784 1.693l1.9 8.236c.098.421.42.703.738.647.317-.057.524-.433.472-.861l-1.013-8.394c-.1-.822-.703-1.43-1.313-1.321zm11.753 1.227c.1-.822.702-1.429 1.312-1.32.61.108.97.886.784 1.692l-1.9 8.237c-.097.42-.419.703-.737.646-.318-.056-.524-.432-.472-.86l1.013-8.395z" fill="#34A34F"/><path fill-rule="evenodd" clip-rule="evenodd" d="M27.971 5.114a10.649 10.649 0 0 1 2.771 4.907.744.744 0 0 1 .3-.074 8.17 8.17 0 0 1 4.81 1.386 8.23 8.23 0 0 1 2.41 2.502 8.271 8.271 0 0 1-.8 9.792A8.212 8.212 0 0 1 34.68 25.7a8.177 8.177 0 0 1-2.93.722l-.94 10.068A2.758 2.758 0 0 1 28.07 39H12.93a2.758 2.758 0 0 1-2.74-2.51l-.94-10.07a8.225 8.225 0 0 1-5.705-2.792 8.25 8.25 0 0 1-.802-9.794 8.24 8.24 0 0 1 5.65-3.78 8.224 8.224 0 0 1 1.88-.093 10.649 10.649 0 0 1 2.756-4.847A10.532 10.532 0 0 1 20.5 2c2.802 0 5.49 1.12 7.471 3.114zm-13.88 1.068A9.036 9.036 0 0 1 20.5 3.51c2.404 0 4.71.961 6.41 2.672a9.151 9.151 0 0 1 2.655 6.45c0 .417.336.755.75.755.415 0 .75-.338.75-.755 0-.395-.021-.788-.064-1.177a.773.773 0 0 0 .087.002 6.678 6.678 0 0 1 3.93 1.132 6.752 6.752 0 0 1 2.692 7.555 6.744 6.744 0 0 1-1.375 2.486 6.709 6.709 0 0 1-5.043 2.295.757.757 0 0 0-.109.008l-.794-.075-.66 7.053a36.004 36.004 0 0 0-18.457.016l-.66-7.07-.78.074a.77.77 0 0 0-.098-.006 6.733 6.733 0 0 1-6.676-7.614 6.737 6.737 0 0 1 6.94-5.852c-.042.388-.064.78-.064 1.173 0 .417.336.755.75.755a.753.753 0 0 0 .751-.755c0-2.42.955-4.74 2.655-6.45zm-2.71 26.923l.304 3.244c.06.647.6 1.14 1.245 1.14h15.14c.645 0 1.185-.493 1.245-1.14l.272-2.913a34.513 34.513 0 0 0-18.116 0l-.09-.331z" fill="#34A34F"/></svg>