<svg xmlns="http://www.w3.org/2000/svg" viewBox="0 0 36.667 26.667"><path d="M5.417 19.167a1.25 1.25 0 0 1 1.25-1.25H15a1.25 1.25 0 1 1 0 2.5H6.667a1.25 1.25 0 0 1-1.25-1.25z" fill="#252728"/><path d="M3.333 0A3.333 3.333 0 0 0 0 3.333v20a3.333 3.333 0 0 0 3.333 3.334h30a3.333 3.333 0 0 0 3.334-3.334v-20A3.333 3.333 0 0 0 33.333 0zm30 2.5h-30a.833.833 0 0 0-.833.833v4.584h31.667V3.333a.833.833 0 0 0-.834-.833zm.834 7.917H2.5v12.916a.833.833 0 0 0 .833.834h30a.833.833 0 0 0 .834-.834z" fill="#252728" fill-rule="evenodd"/></svg>