<svg xmlns="http://www.w3.org/2000/svg" viewBox="0 0 32 9.56"><path d="M29.3 6.2l2.665-2.995h-3.12l-1.085 1.24-1.125-1.24H20.7v-.8h2.805V0h-7.56v3.775h-.025a2.189 2.189 0 0 0-1.77-.74 2.988 2.988 0 0 0-2.865 2.245c-.9-2.97-4.87-2.88-6.095-.7V3.37H2.45V2.06h3V.005H0v9.22h2.45V5.35h2.445a3.572 3.572 0 0 0-.115.91c0 3.655 5.13 4.57 6.51 1.185h-2.1a1.262 1.262 0 0 1-2.29-.73h4.275A3.107 3.107 0 0 0 14.18 9.56a2.093 2.093 0 0 0 1.745-.93h.025v.595h10.61l1.105-1.25 1.115 1.25H32zM6.965 5.37a1.18 1.18 0 0 1 2.325 0zm7.67 2.445c-1.73 0-1.7-3.14 0-3.14 1.63 0 1.725 3.14 0 3.14zm8.39.955h-4.72V.445h4.75v1.51H20.25V3.65h2.775v1.405H20.22V7.29h2.805zM20.73 6.78V5.56h2.805v-2.2l2.535 2.85-2.535 2.85V6.78zm6.93.515L26.355 8.77H24.45l2.28-2.56-2.28-2.56h1.985l1.33 1.465 1.28-1.465h1.925L28.7 6.2 31 8.77h-2.025z"/></svg>