<svg xmlns="http://www.w3.org/2000/svg" viewBox="0 0 60.005 24.003"><defs><clipPath id="a" transform="translate(0 .002)"><path fill="none" d="M0 0h60v24H0z"/></clipPath></defs><g clip-path="url(#a)"><path d="M28.377 11.726v7.035H26.16V1.387h5.876a5.293 5.293 0 0 1 3.806 1.504 4.851 4.851 0 0 1 1.59 3.667 4.83 4.83 0 0 1-1.59 3.688 5.277 5.277 0 0 1-3.806 1.479h-3.66zm0-8.2v6.065h3.716a2.918 2.918 0 0 0 2.192-.898 2.975 2.975 0 0 0 0-4.246 2.88 2.88 0 0 0-2.192-.922h-3.716zM42.54 6.487a5.47 5.47 0 0 1 3.878 1.322 4.706 4.706 0 0 1 1.42 3.626v7.327h-2.12v-1.65h-.096a4.225 4.225 0 0 1-3.66 2.038 4.738 4.738 0 0 1-3.264-1.165 3.73 3.73 0 0 1-1.313-2.91 3.54 3.54 0 0 1 1.385-2.935 5.824 5.824 0 0 1 3.696-1.093 6.504 6.504 0 0 1 3.251.728v-.51a2.549 2.549 0 0 0-.915-1.975 3.125 3.125 0 0 0-2.139-.814 3.386 3.386 0 0 0-2.938 1.577l-1.952-1.238a5.418 5.418 0 0 1 4.766-2.328zm-2.867 8.636a1.787 1.787 0 0 0 .735 1.455 2.69 2.69 0 0 0 1.721.583 3.52 3.52 0 0 0 2.493-1.043 3.271 3.271 0 0 0 1.1-2.45 4.503 4.503 0 0 0-2.89-.831 3.727 3.727 0 0 0-2.251.656 1.959 1.959 0 0 0-.908 1.63zm20.332-8.248l-7.4 17.127H50.32l2.745-5.992L48.2 6.875h2.409l3.516 8.54h.048l3.42-8.54z" fill="#5f6368"/><path d="M19.424 10.21a11.97 11.97 0 0 0-.17-2.03H9.907v3.845h5.353a4.622 4.622 0 0 1-1.98 3.033v2.495h3.195a9.796 9.796 0 0 0 2.948-7.343z" fill="#4285f4"/><path d="M9.907 19.962a9.443 9.443 0 0 0 6.568-2.409l-3.194-2.495a5.99 5.99 0 0 1-8.936-3.166h-3.29v2.571a9.901 9.901 0 0 0 8.852 5.5z" fill="#34a853"/><path d="M4.346 11.892a6.021 6.021 0 0 1 0-3.82V5.5h-3.29a10.046 10.046 0 0 0 0 8.963z" fill="#fbbc04"/><path d="M9.907 3.951A5.359 5.359 0 0 1 13.71 5.45l2.828-2.85A9.483 9.483 0 0 0 9.907.002 9.902 9.902 0 0 0 1.054 5.5l3.29 2.571a5.932 5.932 0 0 1 5.563-4.12z" fill="#ea4335"/></g></svg>