<svg viewBox="0 0 61 24" xmlns="http://www.w3.org/2000/svg"><g clip-path="url(#clip0)"><path d="M28.877 11.724v7.035h-2.216V1.386h5.877a5.28 5.28 0 0 1 3.805 1.504 4.83 4.83 0 0 1 1.19 1.66c.273.632.41 1.316.4 2.006a4.843 4.843 0 0 1-1.59 3.688c-1.028.987-2.296 1.48-3.805 1.479h-3.661v.001zm0-8.2V9.59h3.716a2.91 2.91 0 0 0 2.192-.898 2.96 2.96 0 0 0 .89-2.123 2.979 2.979 0 0 0-.89-2.123 2.89 2.89 0 0 0-2.192-.922h-3.716v.002zM43.04 6.485c1.638 0 2.93.44 3.878 1.322.948.882 1.421 2.09 1.42 3.627v7.326h-2.12v-1.65h-.096c-.917 1.359-2.137 2.038-3.66 2.038-1.3 0-2.388-.388-3.263-1.164a3.74 3.74 0 0 1-1.313-2.911c0-1.23.461-2.209 1.384-2.935.923-.726 2.155-1.09 3.697-1.092 1.316 0 2.4.242 3.25.727v-.51a2.556 2.556 0 0 0-.915-1.975 3.125 3.125 0 0 0-2.138-.814c-1.238 0-2.218.526-2.939 1.578l-1.951-1.238c1.073-1.553 2.662-2.33 4.766-2.33zm-2.867 8.636a1.795 1.795 0 0 0 .735 1.456 2.69 2.69 0 0 0 1.722.582 3.52 3.52 0 0 0 2.492-1.043c.734-.695 1.101-1.512 1.101-2.449-.69-.554-1.654-.832-2.89-.832-.9 0-1.65.219-2.252.656-.607.444-.908.983-.908 1.63zm20.332-8.247L53.106 24H50.82l2.745-5.993L48.7 6.874h2.408l3.516 8.539h.048l3.42-8.54h2.413z" fill="#fff"/><path d="M19.924 10.208c.001-.68-.056-1.359-.17-2.03h-9.345v3.845h5.352a4.64 4.64 0 0 1-.681 1.72 4.6 4.6 0 0 1-1.298 1.313v2.495h3.194c1.87-1.737 2.948-4.305 2.948-7.343z" fill="#4285F4"/><path d="M10.408 19.96c2.674 0 4.925-.884 6.567-2.409l-3.194-2.495c-.89.607-2.034.954-3.373.954-2.585 0-4.779-1.755-5.563-4.12h-3.29v2.571a9.954 9.954 0 0 0 3.652 4.014 9.857 9.857 0 0 0 5.2 1.486z" fill="#34A853"/><path d="M4.846 11.89a6.021 6.021 0 0 1 0-3.82V5.498h-3.29a10.04 10.04 0 0 0 0 8.964l3.29-2.572z" fill="#FBBC04"/><path d="M10.408 3.95a5.359 5.359 0 0 1 3.801 1.497l2.828-2.849a9.483 9.483 0 0 0-6.63-2.6 9.856 9.856 0 0 0-5.2 1.486 9.954 9.954 0 0 0-3.653 4.014L4.845 8.07c.784-2.365 2.978-4.12 5.563-4.12z" fill="#EA4335"/></g><defs><clipPath id="clip0"><path fill="#fff" transform="translate(.5)" d="M0 0h60v24H0z"/></clipPath></defs></svg>