<svg viewBox="0 0 40 40" fill="none" xmlns="http://www.w3.org/2000/svg"><path fill-rule="evenodd" clip-rule="evenodd" d="M34.4 20.34c0-1.063-.096-2.085-.273-3.067H20v5.802h8.073c-.348 1.875-1.405 3.464-2.994 4.527v3.764h4.848c2.837-2.611 4.473-6.457 4.473-11.025z" fill="#4285F4"/><path fill-rule="evenodd" clip-rule="evenodd" d="M20 35c4.05 0 7.445-1.343 9.927-3.634l-4.848-3.764c-1.343.9-3.06 1.432-5.079 1.432-3.907 0-7.214-2.639-8.393-6.184H6.595v3.886C9.064 31.64 14.136 35 20 35z" fill="#34A853"/><path fill-rule="evenodd" clip-rule="evenodd" d="M11.607 22.85c-.3-.9-.47-1.861-.47-2.85 0-.989.17-1.95.47-2.85v-3.886H6.595A14.995 14.995 0 0 0 5 20c0 2.42.58 4.711 1.595 6.736l5.012-3.886z" fill="#FBBC05"/><path fill-rule="evenodd" clip-rule="evenodd" d="M20 10.966c2.202 0 4.18.757 5.734 2.243l4.302-4.302C27.44 6.487 24.043 5 20 5 14.136 5 9.064 8.361 6.595 13.264l5.012 3.886c1.18-3.545 4.486-6.184 8.393-6.184z" fill="#EA4335"/></svg>