<svg viewBox="0 0 24 24" xmlns="http://www.w3.org/2000/svg" fill="#fff"><path d="M5.75 5a.75.75 0 0 0-.75.75v1.5a.75.75 0 0 0 1.5 0v-1.5A.75.75 0 0 0 5.75 5zm2.5 0a.75.75 0 0 0-.75.75v1.5a.75.75 0 0 0 1.5 0v-1.5A.75.75 0 0 0 8.25 5zm1.75.75a.75.75 0 0 1 1.5 0v1.5a.75.75 0 0 1-1.5 0v-1.5zM13.25 5a.75.75 0 0 0-.75.75v1.5a.75.75 0 0 0 1.5 0v-1.5a.75.75 0 0 0-.75-.75zm1.75.75a.75.75 0 0 1 1.5 0v1.5a.75.75 0 0 1-1.5 0v-1.5zM18.25 5a.75.75 0 0 0-.75.75v1.5a.75.75 0 0 0 1.5 0v-1.5a.75.75 0 0 0-.75-.75zM13 10.25a.75.75 0 0 1-.75.75h-4.5a.75.75 0 0 1 0-1.5h4.5a.75.75 0 0 1 .75.75zM8.5 14.8v3.45a.75.75 0 0 1-1.5 0V14a1 1 0 0 1 1-1h1.25a.75.75 0 0 1 0 1.5H8.8a.3.3 0 0 0-.3.3zm11.03.73a.75.75 0 0 0-1.06-1.06l-4 4a.75.75 0 0 0 1.06 1.06l4-4z"/><path fill-rule="evenodd" clip-rule="evenodd" d="M4 3V2a1 1 0 0 1 1-1h14a1 1 0 0 1 1 1v1a2 2 0 0 1 2 2v3a2 2 0 0 1-2 2v1.803A6 6 0 1 1 13.682 22H5a1 1 0 0 1-1-1V10a2 2 0 0 1-2-2V5a2 2 0 0 1 2-2zm0 5.5h1.25a.75.75 0 0 1 0 1.5h.25v10.5h6.626a6 6 0 0 1 6.374-9.311V10h.25a.75.75 0 0 1 0-1.5H20a.5.5 0 0 0 .5-.5V5a.5.5 0 0 0-.5-.5h-1.25a.75.75 0 0 1-.25-1.457V2.5h-13v.543A.75.75 0 0 1 5.25 4.5H4a.5.5 0 0 0-.5.5v3a.5.5 0 0 0 .5.5zM21.5 17a4.5 4.5 0 1 1-9 0 4.5 4.5 0 0 1 9 0z"/></svg>