<svg viewBox="0 0 64 64" fill="none" xmlns="http://www.w3.org/2000/svg"><path d="M32 .121a9.99 9.99 0 0 0-5.883 1.918L23.426 4H9C7.348 4 6 5.348 6 7v52c0 1.652 1.348 3 3 3h46c1.652 0 3-1.348 3-3V7c0-1.652-1.348-3-3-3H40.574L37.88 2.04A9.991 9.991 0 0 0 32 .12zm0 2.004c1.648 0 3.297.512 4.703 1.531l4.063 2.953A3.014 3.014 0 0 1 42 9.04V11c0 .55-.45 1-1 1H23c-.55 0-1-.45-1-1V9.04c0-.958.46-1.868 1.234-2.43l4.063-2.954A8.002 8.002 0 0 1 32 2.125zM32 4a1.999 1.999 0 1 0 .003 3.998A1.999 1.999 0 0 0 32 4zM9 6h12.04A5.014 5.014 0 0 0 20 9.04V10h-6c-1.102 0-2 .898-2 2v42c0 1.102.898 2 2 2h28.172c.8 0 1.555-.313 2.121-.879l6.828-6.828c.566-.566.879-1.32.879-2.121V12c0-1.102-.898-2-2-2h-6v-.96A5.01 5.01 0 0 0 42.96 6H55c.55 0 1 .45 1 1v52c0 .55-.45 1-1 1H9c-.55 0-1-.45-1-1V7c0-.55.45-1 1-1zm5 6h6.184c.414 1.16 1.515 2 2.816 2h18a3 3 0 0 0 2.816-2H50v34h-6c-1.102 0-2 .898-2 2v6H14V12zm3 4c-.55 0-1 .45-1 1v2c0 .55.45 1 1 1s1-.45 1-1v-2c0-.55-.45-1-1-1zm5 0c-.55 0-1 .45-1 1v2c0 .55.45 1 1 1s1-.45 1-1v-2c0-.55-.45-1-1-1zm5 0c-.55 0-1 .45-1 1v2c0 .55.45 1 1 1s1-.45 1-1v-2c0-.55-.45-1-1-1zm5 0c-.55 0-1 .45-1 1v2c0 .55.45 1 1 1s1-.45 1-1v-2c0-.55-.45-1-1-1zm5 0c-.55 0-1 .45-1 1v2c0 .55.45 1 1 1s1-.45 1-1v-2c0-.55-.45-1-1-1zm5 0c-.55 0-1 .45-1 1v2c0 .55.45 1 1 1s1-.45 1-1v-2c0-.55-.45-1-1-1zm5 0c-.55 0-1 .45-1 1v2c0 .55.45 1 1 1s1-.45 1-1v-2c0-.55-.45-1-1-1zM20 26c-1.102 0-2 .898-2 2v2c0 1.102.898 2 2 2h2c1.102 0 2-.898 2-2v-2c0-1.102-.898-2-2-2h-2zm7 0c-.55 0-1 .45-1 1s.45 1 1 1h10c.55 0 1-.45 1-1s-.45-1-1-1H27zm14 0c-.55 0-1 .45-1 1s.45 1 1 1h4c.55 0 1-.45 1-1s-.45-1-1-1h-4zm-21.375 1.625h2.75v2.75h-2.75v-2.75zM27 30c-.55 0-1 .45-1 1s.45 1 1 1h12c.55 0 1-.45 1-1s-.45-1-1-1H27zm-4 6a1 1 0 0 0-.707.293L20 38.586l-.293-.293a1 1 0 1 0-1.414 1.414l1 1c.195.195.45.293.707.293a.993.993 0 0 0 .707-.293l3-3A1 1 0 0 0 23 36zm4 0c-.55 0-1 .45-1 1s.45 1 1 1h16c.55 0 1-.45 1-1s-.45-1-1-1H27zm0 4c-.55 0-1 .45-1 1s.45 1 1 1h12c.55 0 1-.45 1-1s-.45-1-1-1H27zm17 8h4.586L44 52.586V48z" fill="#252728"/></svg>