<svg viewBox="0 0 24 24" xmlns="http://www.w3.org/2000/svg" fill="#fff"><path d="M15 9a1 1 0 1 0 0-2 1 1 0 0 0 0 2zm-8.5 4.75a.75.75 0 1 0 0 1.5H18a.75.75 0 0 0 0-1.5H6.5z"/><path fill-rule="evenodd" clip-rule="evenodd" d="M6.67.665a.75.75 0 0 0-1.34.67l1.787 3.577A4.518 4.518 0 0 0 5 6.939l-2.47-2.47A.75.75 0 0 0 1.47 5.53L4.04 8.1A3.507 3.507 0 0 0 2.645 10H2a1 1 0 0 0-1 1v2a1 1 0 0 0 .52.878c.243.133.478.347.498.622A7.005 7.005 0 0 0 7 20.71V21a1 1 0 0 0 1 1h8a1 1 0 0 0 1-1v-.29a7.005 7.005 0 0 0 4.982-6.21c.02-.275.255-.49.498-.622A1 1 0 0 0 23 13v-2a1 1 0 0 0-1-1h-.611a4.507 4.507 0 0 0-2.248-2.959 5.5 5.5 0 0 0-8.64-2.284 4.493 4.493 0 0 0-1.904-.24L6.671.666zM5.136 9.196a2.009 2.009 0 0 0-.867.804H5.94l-.804-.804zM8.06 10H10a1 1 0 1 1 2 0h7.83a3.008 3.008 0 0 0-1.923-1.86A4.001 4.001 0 0 0 10.8 6.6a3.001 3.001 0 0 0-4.657 1.483L8.03 9.97l.029.03zm8.513 9.273l-1.072.319v.908h-7v-.908l-1.072-.32a5.505 5.505 0 0 1-3.914-4.877c-.06-.862-.615-1.395-1.014-1.672V11.5h19v1.223c-.4.277-.953.81-1.014 1.671a5.505 5.505 0 0 1-3.914 4.879z"/></svg>