<svg viewBox="0 0 72 72" fill="none" xmlns="http://www.w3.org/2000/svg"><path d="M36 1.121a9.99 9.99 0 0 0-5.883 1.918L27.426 5H13c-1.652 0-3 1.348-3 3v52c0 1.652 1.348 3 3 3h46c1.652 0 3-1.348 3-3V8c0-1.652-1.348-3-3-3H44.574L41.88 3.04A9.991 9.991 0 0 0 36 1.12zm0 2.004c1.648 0 3.297.512 4.703 1.531l4.063 2.953A3.014 3.014 0 0 1 46 10.04V12c0 .55-.45 1-1 1H27c-.55 0-1-.45-1-1v-1.96c0-.958.46-1.868 1.234-2.43l4.063-2.954A8.002 8.002 0 0 1 36 3.125zM36 5a1.999 1.999 0 1 0 .003 3.998A1.999 1.999 0 0 0 36 5zM13 7h12.04A5.014 5.014 0 0 0 24 10.04V11h-6c-1.102 0-2 .898-2 2v42c0 1.102.898 2 2 2h28.172c.8 0 1.555-.313 2.121-.879l6.828-6.828c.566-.566.879-1.32.879-2.121V13c0-1.102-.898-2-2-2h-6v-.96A5.01 5.01 0 0 0 46.96 7H59c.55 0 1 .45 1 1v52c0 .55-.45 1-1 1H13c-.55 0-1-.45-1-1V8c0-.55.45-1 1-1zm5 6h6.184c.414 1.16 1.515 2 2.816 2h18a3 3 0 0 0 2.816-2H54v34h-6c-1.102 0-2 .898-2 2v6H18V13zm3 4c-.55 0-1 .45-1 1v2c0 .55.45 1 1 1s1-.45 1-1v-2c0-.55-.45-1-1-1zm5 0c-.55 0-1 .45-1 1v2c0 .55.45 1 1 1s1-.45 1-1v-2c0-.55-.45-1-1-1zm5 0c-.55 0-1 .45-1 1v2c0 .55.45 1 1 1s1-.45 1-1v-2c0-.55-.45-1-1-1zm5 0c-.55 0-1 .45-1 1v2c0 .55.45 1 1 1s1-.45 1-1v-2c0-.55-.45-1-1-1zm5 0c-.55 0-1 .45-1 1v2c0 .55.45 1 1 1s1-.45 1-1v-2c0-.55-.45-1-1-1zm5 0c-.55 0-1 .45-1 1v2c0 .55.45 1 1 1s1-.45 1-1v-2c0-.55-.45-1-1-1zm5 0c-.55 0-1 .45-1 1v2c0 .55.45 1 1 1s1-.45 1-1v-2c0-.55-.45-1-1-1zM24 27c-1.102 0-2 .898-2 2v2c0 1.102.898 2 2 2h2c1.102 0 2-.898 2-2v-2c0-1.102-.898-2-2-2h-2zm7 0c-.55 0-1 .45-1 1s.45 1 1 1h10c.55 0 1-.45 1-1s-.45-1-1-1H31zm14 0c-.55 0-1 .45-1 1s.45 1 1 1h4c.55 0 1-.45 1-1s-.45-1-1-1h-4zm-21.375 1.625h2.75v2.75h-2.75v-2.75zM31 31c-.55 0-1 .45-1 1s.45 1 1 1h12c.55 0 1-.45 1-1s-.45-1-1-1H31zm-4 6a1 1 0 0 0-.707.293L24 39.586l-.293-.293a1 1 0 1 0-1.414 1.414l1 1c.195.195.45.293.707.293a.993.993 0 0 0 .707-.293l3-3A1 1 0 0 0 27 37zm4 0c-.55 0-1 .45-1 1s.45 1 1 1h16c.55 0 1-.45 1-1s-.45-1-1-1H31zm0 4c-.55 0-1 .45-1 1s.45 1 1 1h12c.55 0 1-.45 1-1s-.45-1-1-1H31zm17 8h4.586L48 53.586V49z" fill="#252728"/><rect x="20.577" y="53.782" width="35" height="15.652" rx="7.826" fill="#34A34F"/><path d="M25.637 65.108v-7.3h1.6l3.71 6.42h.32l-.2.18v-6.6h.94v7.3h-1.62l-3.71-6.42h-.32l.2-.18v6.6h-.92zm10.617.18c-.467 0-.87-.08-1.21-.24-.34-.16-.617-.37-.83-.63a2.806 2.806 0 0 1-.48-.89c-.1-.326-.15-.66-.15-1v-.18c0-.346.05-.683.15-1.01.106-.326.266-.62.48-.88.213-.266.483-.476.81-.63.333-.16.723-.24 1.17-.24.58 0 1.056.127 1.43.38.38.247.66.567.84.96.186.394.28.814.28 1.26v.43h-4.74v-.72h4.04l-.22.39c0-.38-.06-.706-.18-.98a1.41 1.41 0 0 0-.54-.65c-.24-.153-.544-.23-.91-.23-.38 0-.697.087-.95.26a1.61 1.61 0 0 0-.56.71c-.12.3-.18.647-.18 1.04 0 .38.06.724.18 1.03.126.3.32.54.58.72.26.174.59.26.99.26.42 0 .76-.093 1.02-.28.266-.186.426-.403.48-.65h.9a2.12 2.12 0 0 1-.44.95c-.22.267-.497.47-.83.61-.334.14-.71.21-1.13.21zm5.373-.18l1.08-5.16h1.3l1.26 5.16h-.82l-1.26-5.14h.32l-1.09 5.14h-.79zm-.49 0v-.76h1.11v.76h-1.11zm-.22 0l-1.51-5.34h.92l1.47 5.34h-.88zm3.73 0v-.76h1.11v.76h-1.11zm.45 0l1.28-5.34h.87l-1.31 5.34h-.84zm3.517-2.18v-5.12h.98v5.12h-.98zm-.09 2.18v-1.22h1.16v1.22h-1.16z" fill="#fff"/></svg>