<svg xmlns="http://www.w3.org/2000/svg" viewBox="0 0 40 40"><path d="M40 20.42l-.045.768-.085 1.408-.048-.018a19.957 19.957 0 0 1-12.35 15.975v.018l-.733.26-1.316.473-.003-.055A19.98 19.98 0 0 1 .166 22.493l-.048.019-.076-1.396L0 20.338l.015-.007c-.003-.109-.003-.224-.003-.333a19.988 19.988 0 1 1 39.976 0c0 .137-.003.279-.006.418zm-2.282-.773l.185.052A17.904 17.904 0 0 0 2.1 19.64c.052-.015.106-.027.16-.042.085-.024.17-.046.258-.067q.263-.068.526-.127c.082-.018.164-.04.248-.058.218-.045.44-.09.657-.13.036-.006.073-.015.112-.02.257-.043.512-.083.772-.116l.224-.027c.187-.024.375-.043.563-.06.09-.01.178-.019.266-.025.185-.015.37-.024.554-.036.081-.003.163-.01.242-.012a17.169 17.169 0 0 1 1.661.003c.097.003.194.012.29.018.194.012.388.024.582.04.118.008.23.023.345.036.172.018.345.036.52.057l.366.055c.164.024.33.048.494.075l.378.073c.157.03.315.064.472.097l.381.09c.152.037.306.076.46.119a21.313 21.313 0 0 1 .829.239c.125.04.252.082.376.124.148.049.296.103.442.154.124.046.248.091.372.14q.218.081.436.172c.124.052.245.1.366.152.142.063.287.13.43.196.117.055.238.11.353.167.143.07.285.142.427.215.115.06.23.118.342.179.145.078.285.16.427.242.109.063.218.124.327.188.145.087.29.178.432.269.1.064.203.127.303.19l.37.255v-3.82a5.455 5.455 0 0 1-3.662-5.43V8.69h2.085v4.526a3.66 3.66 0 0 0 1.576 3.195V8.69h2.085v7.72a3.653 3.653 0 0 0 1.577-3.194V8.69h2.085v4.526a5.455 5.455 0 0 1-3.662 5.43v3.82c.124-.085.245-.173.372-.254l.303-.191c.145-.09.285-.182.433-.27l.327-.187c.142-.082.284-.164.426-.242.115-.06.23-.118.345-.179a18.792 18.792 0 0 1 .78-.381l.434-.197c.118-.052.242-.103.363-.152q.218-.09.436-.172c.124-.049.248-.094.372-.14l.445-.154c.124-.042.251-.085.375-.124.151-.045.3-.091.451-.133.127-.037.251-.073.378-.106.152-.043.306-.079.46-.118l.378-.091.473-.097c.124-.024.25-.052.375-.073.163-.03.327-.051.493-.075l.366-.055c.173-.024.345-.042.52-.057.119-.013.234-.028.346-.037.193-.018.384-.027.578-.04.097-.002.193-.011.29-.017a18.17 18.17 0 0 1 1.689-.003c.085.003.17.009.251.012l.572.036c.094.01.185.018.278.024q.286.027.572.064a22.881 22.881 0 0 1 1.041.154c.021.003.043.01.064.012.242.043.484.094.726.149.085.018.17.04.251.057.182.043.363.088.542.137.082.03.172.054.266.081zm-.112 3.612l-11.738 7.79c.063.152.127.304.187.455l.03.082a16.443 16.443 0 0 1 .276.75c.079.228.151.458.224.688a18.383 18.383 0 0 1 .239.845c.01.03.015.06.024.09.058.225.11.452.158.682.006.033.015.066.02.1.05.239.098.478.137.72.009.049.018.097.024.146.04.242.076.487.106.73a.104.104 0 0 1 .003.03 17.88 17.88 0 0 0 10.31-13.108zm-12.664 5.902l11.563-7.673-.142-.036-.285-.064c-.151-.03-.3-.063-.448-.09-.1-.019-.2-.037-.3-.052-.148-.024-.296-.049-.444-.07-.1-.015-.2-.027-.3-.04a11.803 11.803 0 0 0-.46-.05l-.287-.028c-.17-.015-.34-.024-.506-.033-.081-.003-.163-.01-.245-.015q-.377-.018-.753-.018c-.257 0-.515.006-.775.018-.085.003-.17.012-.254.018-.17.009-.345.021-.515.036l-.3.03c-.157.016-.31.03-.465.052-.106.012-.212.03-.318.045-.148.022-.297.043-.442.07-.109.018-.215.04-.324.06a21.824 21.824 0 0 0-.753.161c-.142.036-.285.07-.427.11-.106.026-.212.057-.318.084-.142.04-.284.085-.426.127-.103.03-.203.064-.306.097-.145.048-.287.1-.433.151-.096.034-.19.067-.287.103-.157.06-.312.124-.466.185-.079.033-.16.064-.24.1-.22.094-.438.19-.653.294l-.04.018c-.23.112-.456.224-.68.345-.073.04-.145.082-.218.121-.151.085-.3.167-.45.254-.086.052-.17.103-.252.155-.133.085-.266.163-.4.251-.087.058-.172.118-.26.176-.124.085-.251.17-.375.257-.088.064-.173.124-.26.19l-.2.152c.018.018.033.036.051.052.179.178.355.357.527.539a.546.546 0 0 0 .04.042c.163.179.326.354.48.536.025.03.052.057.076.085a16.463 16.463 0 0 1 .557.678 17.717 17.717 0 0 1 .487.645c.136.19.27.381.4.575a1.057 1.057 0 0 1 .063.097 15.774 15.774 0 0 1 .46.736c.1.172.203.348.303.524zm.151 6.576c-.024-.14-.048-.279-.076-.418-.024-.124-.054-.251-.081-.372-.037-.16-.073-.318-.112-.479q-.046-.186-.1-.372a12.802 12.802 0 0 0-.133-.463 8.583 8.583 0 0 0-.118-.37c-.049-.151-.1-.303-.155-.45a18.928 18.928 0 0 0-.312-.805c-.05-.122-.102-.24-.154-.362a11.15 11.15 0 0 0-.2-.433c-.057-.118-.111-.233-.169-.35-.07-.143-.142-.282-.218-.422-.063-.115-.124-.227-.187-.339a18.512 18.512 0 0 0-.445-.742c-.085-.136-.176-.27-.266-.405-.07-.103-.143-.212-.215-.315-.094-.133-.194-.267-.29-.4-.077-.1-.15-.203-.225-.3a13.24 13.24 0 0 0-.32-.396c-.076-.094-.152-.188-.234-.279a22.65 22.65 0 0 0-.357-.4c-.075-.084-.151-.17-.23-.254-.136-.145-.278-.281-.417-.42-.067-.07-.133-.137-.203-.207a15.418 15.418 0 0 0-.657-.6 17.894 17.894 0 0 0-4.76-2.972v6.267zm-1.153 1.738l-4.612-3.058H9.366a18.092 18.092 0 0 0 4.41 2.383A17.835 17.835 0 0 0 20 37.914a18.067 18.067 0 0 0 3.94-.44zM7.01 32.33h9.178L2.379 23.169a17.873 17.873 0 0 0 4.63 9.162zm5.362-5.036V21.68a17.832 17.832 0 0 0-4.9-.687c-.241 0-.487.006-.726.018-.078.003-.157.009-.236.012-.163.009-.326.018-.493.03-.09.006-.185.018-.278.024-.149.015-.297.03-.448.049l-.285.036c-.145.021-.29.042-.438.067-.094.015-.191.03-.285.048-.151.028-.3.058-.445.088l-.263.055-.036.009z" fill="#fff"/></svg>