<svg viewBox="0 0 29 32" fill="none" xmlns="http://www.w3.org/2000/svg"><path d="M16.08 11.888s-1.27 5.32-5.31 8.675c-4.04 3.355-9.302 3.49-9.302 3.49s1.27-5.32 5.31-8.675c4.04-3.371 9.303-3.49 9.303-3.49z" fill="#34A34F"/><path d="M17.042 15.057s-.912.017-2.28.288c-.832 1.677-2.102 3.66-3.976 5.218-2.362 1.966-5.131 2.813-7.021 3.186-.961 1.931-1.32 3.456-1.32 3.456s5.262-.118 9.303-3.49c4.023-3.338 5.294-8.658 5.294-8.658z" fill="#5FD16F"/><path d="M14.762 15.345c-1.906.372-4.676 1.236-7.022 3.185-1.254 1.034-2.232 2.253-2.997 3.456-.18.34-.375.644-.57.95-.147.27-.294.541-.424.813 1.906-.373 4.676-1.237 7.021-3.186 1.89-1.559 3.16-3.541 3.992-5.218z" fill="#138622"/><path d="M5.117 7.042S1.191 10.702.23 15.99c-.961 5.286 1.401 10.183 1.401 10.183s.929-.865 2.004-2.373c-1.287.238-2.134.271-2.134.271s1.254-5.252 5.245-8.607c.212-4.574-1.629-8.42-1.629-8.42z" fill="#9DE48D"/><path d="M6.713 15.43c-3.975 3.354-5.245 8.623-5.245 8.623s.847-.017 2.134-.27c.18-.255.375-.543.57-.83.18-.306.358-.628.57-.95.75-1.355 1.434-2.965 1.76-4.778.114-.61.179-1.203.211-1.796z" fill="#20922C"/><path d="M4.743 22.003a78.44 78.44 0 0 0-.57.95 19.4 19.4 0 0 0 .57-.95z" fill="#0C7813"/><path d="M29 1.282s-3.291 4.286-8.292 5.591c-5.002 1.305-9.856-.864-9.856-.864s3.29-4.287 8.308-5.591c5.018-1.305 9.84.864 9.84.864zm-3.633 26.567c-.081.085-.163.152-.244.237a12.48 12.48 0 0 1-1.76 1.305c.62-.102 1.271-.17 1.939-.17h.081v-.034l-.016-1.338z" fill="#34A34F"/><path d="M22.337 29.933c-.75.373-1.499.66-2.183.88-.147.255-.228.441-.228.594v.102c0 .322.195.49.57.49h5.376c.065 0 .13.001.195-.016-1.498-.542-2.769-1.338-3.73-2.05z" fill="#5FD16F"/><path d="M25.302 29.204c-.668 0-1.32.068-1.939.17-.342.203-.684.39-1.026.559a15.706 15.706 0 0 0 3.73 2.05.437.437 0 0 0 .31-.17c-.065.018-.098.018-.098.018s.033-.255.13-.678c-.08-.186-.244-.407-.488-.695-.358-.406-.538-.83-.554-1.254h-.065zm1.108 1.949c-.098.423-.13.678-.13.678s.032 0 .097-.017a.485.485 0 0 0 .098-.305v-.102a.732.732 0 0 0-.065-.254z" fill="#138622"/><path d="M20.886 28.747v.424c0 .322-.097.643-.277.965.44-.17.896-.322 1.385-.457a18.45 18.45 0 0 1-1.108-.932zm4.48-5.744c-1.531.881-3.144 1.356-4.48 1.593v3.253c.848-.373 2.493-1.017 4.48-1.27v-3.576z" fill="#34A34F"/><path d="M25.367 26.578a15.983 15.983 0 0 0-4.48 1.27v.899c.277.254.651.576 1.107.932.44-.119.896-.237 1.369-.305a11.62 11.62 0 0 0 1.76-1.305 3.57 3.57 0 0 0 .244-.237v-1.254z" fill="#0B6818"/><path d="M21.994 29.679c-.489.135-.945.288-1.385.457-.065.102-.13.204-.212.305-.097.136-.179.254-.26.356.684-.22 1.417-.508 2.183-.881-.114-.068-.212-.152-.326-.237z" fill="#138622"/><path d="M23.363 29.374a16.25 16.25 0 0 0-1.369.305l.342.254c.342-.17.684-.356 1.027-.56z" fill="#04560B"/><path d="M25.366 16.412c-.163.22-.342.44-.52.644-1.206 1.406-2.656 2.423-3.976 3.118v3.829c.163-.153.326-.322.505-.475 1.27-1.118 2.688-1.88 3.975-2.389v-2.761c-.049-.017-.081-.017-.081-.017s.032-.051.081-.153l.016-1.796z" fill="#5FD16F"/><path d="M25.366 18.225c-.048.102-.08.153-.08.153s.032 0 .08.017v-.17zm.001 2.931c-1.303.509-2.72 1.271-3.975 2.39-.18.152-.342.304-.505.474v.593c1.336-.238 2.948-.712 4.48-1.593v-1.864z" fill="#138622"/><path d="M24.731 12.397c-.146 0-.31.034-.505.135l-3.763 1.915c-.358.203-.554.406-.554.593v.101c0 .17.163.475.489.898.326.424.489.864.489 1.305v2.118a12.565 12.565 0 0 1 2.183-1.982c.749-.526 1.531-.95 2.297-1.271v-3.152c0-.254-.098-.457-.31-.576a.623.623 0 0 0-.326-.084z" fill="#34A34F"/><path d="M25.367 16.209c-.766.322-1.548.745-2.297 1.27a12.63 12.63 0 0 0-2.183 1.983v.712c1.32-.695 2.753-1.712 3.975-3.118.179-.203.358-.424.521-.644l-.016-.203z" fill="#138622"/></svg>