<svg viewBox="0 0 138.575 35.8395" xmlns="http://www.w3.org/2000/svg"><path d="M74.977 35.84a7.202 7.202 0 0 1-5.38-2.145 7.008 7.008 0 0 1-2.1-5.076 6.682 6.682 0 0 1 2.128-5.192 8.159 8.159 0 0 1 9.523-.805 3.59 3.59 0 0 1 1.784 3.092 1.618 1.618 0 0 1-.502 1.209 2.134 2.134 0 0 1-1.597.46 2.485 2.485 0 0 1-1.682-.778 4.504 4.504 0 0 1-1.022-1.553 5.487 5.487 0 0 0-.863-1.51 1.58 1.58 0 0 0-1.236-.676 1.734 1.734 0 0 0-1.453.95 4.29 4.29 0 0 0-.561 2.271 7.317 7.317 0 0 0 1.28 4.516 4.058 4.058 0 0 0 3.409 1.698 3.855 3.855 0 0 0 3.192-1.668.645.645 0 0 1 .69-.245.51.51 0 0 1 .404.561 4.704 4.704 0 0 1-1.64 3.452 6.276 6.276 0 0 1-4.374 1.438zm23.214-3.453a2.884 2.884 0 0 0 .546 1.423 2.221 2.221 0 0 1 .49 1.079v.115c0 .365-.23.546-.691.546h-5.724q-.692 0-.691-.546v-.115a2.203 2.203 0 0 1 .533-1.066 2.254 2.254 0 0 0 .502-1.438l-.288-5.351a7.239 7.239 0 0 0-.576-2.833 1.53 1.53 0 0 0-1.438-.849 1.551 1.551 0 0 0-1.395.747 3.792 3.792 0 0 0-.474 2.043v6.272a2.122 2.122 0 0 0 .648 1.425c.43.47.647.818.647 1.05v.115c0 .365-.23.546-.69.546h-6.243q-.66 0-.66-.546v-.115a2.024 2.024 0 0 1 .632-1.05 2.142 2.142 0 0 0 .633-1.425V19.066a1.763 1.763 0 0 0-.704-1.352c-.471-.402-.704-.719-.704-.948v-.087q0-.517.66-.806l4.546-2.014a.849.849 0 0 1 .79-.058.694.694 0 0 1 .302.663v8.342a4.627 4.627 0 0 1 3.509-1.351 5.39 5.39 0 0 1 3.682 1.366 6.237 6.237 0 0 1 1.784 4.388zm14.498-1.381a.646.646 0 0 1 .704-.187.516.516 0 0 1 .36.59 4.425 4.425 0 0 1-1.668 2.934 5.886 5.886 0 0 1-4.171 1.497 6.876 6.876 0 0 1-5.12-2.015 7.177 7.177 0 0 1-1.986-5.264 6.768 6.768 0 0 1 2.086-5.107 6.96 6.96 0 0 1 4.992-2 6.132 6.132 0 0 1 4.056 1.21 3.526 3.526 0 0 1 1.438 2.732 1.883 1.883 0 0 1-1.122 1.783l-5.724 3.222a3.685 3.685 0 0 0 3.279 1.87 3.999 3.999 0 0 0 1.683-.36 2.953 2.953 0 0 0 1.193-.905zm-5.321-8.141a1.592 1.592 0 0 0-1.395.862 4.035 4.035 0 0 0-.533 2.157 9.563 9.563 0 0 0 .432 3.021l2.674-1.611a1.678 1.678 0 0 0 .748-1.467 4.576 4.576 0 0 0-.475-1.955 1.535 1.535 0 0 0-1.451-1.008zm14.959-6.961c-.651 0-1.022.402-1.107 1.208a6.777 6.777 0 0 0 .23 2.517 9.105 9.105 0 0 0 .821 2.114h3.25a.637.637 0 0 1 .661.66v.633a.637.637 0 0 1-.661.66h-3.136v8.688a1.997 1.997 0 0 0 .778 1.453c.517.47.777.819.777 1.05v.115c0 .365-.22.546-.661.546h-6.328c-.442 0-.661-.183-.661-.546v-.115a2.08 2.08 0 0 1 .576-1.05 2.28 2.28 0 0 0 .576-1.453v-8.687h-1.869a.639.639 0 0 1-.661-.661v-.633a.639.639 0 0 1 .661-.66h1.869v-1.438a5.885 5.885 0 0 1 1.497-4.172 5.797 5.797 0 0 1 4.459-1.611 5.013 5.013 0 0 1 3.251 1.094 3.22 3.22 0 0 1 1.351 2.56 1.716 1.716 0 0 1-.489 1.193 1.78 1.78 0 0 1-1.382.533 2.41 2.41 0 0 1-1.496-.418 2.02 2.02 0 0 1-.734-1.007 10.719 10.719 0 0 1-.301-1.165 2.654 2.654 0 0 0-.403-.992.997.997 0 0 0-.868-.416z" fill="#fff"/><path d="M18.594 13.216a19.898 19.898 0 0 1-6.13 9.635A19.904 19.904 0 0 1 1.716 26.72a19.909 19.909 0 0 1 6.13-9.638 19.912 19.912 0 0 1 10.747-3.866z" fill="#34a34f"/><path d="M19.695 16.736a17.804 17.804 0 0 0-2.631.323 17.954 17.954 0 0 1-4.6 5.794 18.707 18.707 0 0 1-8.117 3.545 19.674 19.674 0 0 0-1.53 3.843 19.905 19.905 0 0 0 10.746-3.868 19.894 19.894 0 0 0 6.132-9.637z" fill="#5fd16f"/><path d="M17.065 17.06a18.738 18.738 0 0 0-8.117 3.544 16.805 16.805 0 0 0-3.458 3.842 20.68 20.68 0 0 1-.651 1.05c-.177.307-.34.608-.493.9a18.738 18.738 0 0 0 8.116-3.545 17.932 17.932 0 0 0 4.603-5.792z" fill="#138622"/><path d="M5.915 7.826a19.9 19.9 0 0 0-5.647 9.93 19.903 19.903 0 0 0 1.61 11.307 19.114 19.114 0 0 0 2.312-2.635 17.482 17.482 0 0 1-2.473.293A19.937 19.937 0 0 1 7.77 17.15a20.584 20.584 0 0 0-1.854-9.324z" fill="#9de48d"/><path d="M7.767 17.148a19.954 19.954 0 0 0-6.052 9.572 17.482 17.482 0 0 0 2.473-.294c.215-.29.433-.6.652-.93.2-.344.416-.696.65-1.05a16.998 16.998 0 0 0 2.036-5.312 15.603 15.603 0 0 0 .24-1.986z" fill="#20922c"/><path d="M5.491 24.446c-.235.354-.452.706-.651 1.05.218-.33.437-.681.651-1.05z" fill="#0c7813"/><path d="M33.508 1.426a19.902 19.902 0 0 1-9.59 6.205 19.894 19.894 0 0 1-11.38-.964 19.902 19.902 0 0 1 9.59-6.204 19.893 19.893 0 0 1 11.38.963zm2.776 12.866a3.451 3.451 0 0 0-2.387.82 2.617 2.617 0 0 0-.915 1.864 18.917 18.917 0 0 1 3.159-.284c.262 0 .407.008.407.008a17.458 17.458 0 0 1-1.529 3.162 4.137 4.137 0 0 0 1.267.185 3.409 3.409 0 0 0 2.358-.821 2.76 2.76 0 0 0 0-4.115 3.425 3.425 0 0 0-2.36-.819zm2.532 12.688a16.743 16.743 0 0 1-5.15.965v1.68a15.668 15.668 0 0 1 5.15 1.959zm.001 4.653a15.84 15.84 0 0 1-3.42 2.162 18.969 18.969 0 0 1 3.236 1.755h.76q.72 0 .72-.546v-.115a2.075 2.075 0 0 0-.648-1.066 2.166 2.166 0 0 1-.648-1.438zm-9.492-.695a17.67 17.67 0 0 1-.29.256 14.066 14.066 0 0 1-2.037 1.444 13.972 13.972 0 0 1 2.238-.187h.089v-1.513z" fill="#34a34f"/><path d="M33.666 29.624v2.761a1.935 1.935 0 0 1-.146.729 18.662 18.662 0 0 1 1.876.681 15.84 15.84 0 0 0 3.42-2.163v-.05a15.669 15.669 0 0 0-5.15-1.958z" fill="#0b6818"/><path d="M25.81 33.266a18.182 18.182 0 0 1-2.517.973 1.342 1.342 0 0 0-.27.652v.115c0 .365.22.546.661.546h6.214a1.309 1.309 0 0 0 .22-.017 17.783 17.783 0 0 1-4.309-2.269z" fill="#5fd16f"/><path d="M35.395 33.797a19.433 19.433 0 0 1-2.88 1.084v.123c0 .365.23.546.691.546h5.425a19.289 19.289 0 0 0-3.236-1.753zm-6.162-1.346a13.755 13.755 0 0 0-2.238.187c-.396.231-.793.44-1.186.628a17.783 17.783 0 0 0 4.308 2.269.558.558 0 0 0 .367-.19l-.118.016s.04-.278.145-.753a3.406 3.406 0 0 0-.557-.767 2.168 2.168 0 0 1-.633-1.388c-.028-.002-.058-.002-.088-.002zm1.28 2.157c-.106.475-.145.753-.145.753l.118-.017a.536.536 0 0 0 .104-.34v-.115a.711.711 0 0 0-.077-.28z" fill="#138622"/><path d="M33.519 33.116a2.867 2.867 0 0 1-.427.71 2.204 2.204 0 0 0-.576 1.055 19.512 19.512 0 0 0 2.88-1.084 17.928 17.928 0 0 0-1.877-.681z" fill="#04550a"/><path d="M24.146 31.945v.47a2.08 2.08 0 0 1-.322 1.081 17.79 17.79 0 0 1 1.595-.516 18.01 18.01 0 0 1-1.273-1.035zm5.178-6.383a16.885 16.885 0 0 1-5.178 1.775v3.612a19.3 19.3 0 0 1 5.178-1.408z" fill="#34a34f"/><path d="M29.323 29.541a19.322 19.322 0 0 0-5.178 1.408v.996c.323.288.753.647 1.272 1.035a15.37 15.37 0 0 1 1.58-.342 14.028 14.028 0 0 0 2.036-1.444c.098-.085.196-.17.29-.256z" fill="#0b6818"/><path d="M25.418 32.98c-.56.153-1.094.328-1.594.516a3.449 3.449 0 0 1-.24.344 5.217 5.217 0 0 0-.291.4 18.187 18.187 0 0 0 2.517-.974 19.543 19.543 0 0 1-.392-.286z" fill="#138622"/><path d="M26.997 32.638a15.974 15.974 0 0 0-1.579.342c.126.094.256.189.392.285a15.08 15.08 0 0 0 1.187-.627z" fill="#04560b"/><path d="M29.323 18.24q-.283.367-.595.72a15.635 15.635 0 0 1-4.583 3.468v4.254a12.1 12.1 0 0 1 .576-.523 15.38 15.38 0 0 1 4.602-2.658v-3.074l-.089-.017.089-.166z" fill="#5fd16f"/><path d="M29.323 20.246l-.089.166.089.017zm6.816-3.554a18.933 18.933 0 0 0-3.159.285q-.005.093-.005.192a2.642 2.642 0 0 0 .92 2.057 3.068 3.068 0 0 0 1.122.636 17.45 17.45 0 0 0 1.528-3.162s-.145-.008-.406-.008zm-6.816 6.811a15.38 15.38 0 0 0-4.603 2.658c-.199.169-.39.344-.575.523v.655a16.785 16.785 0 0 0 5.178-1.775z" fill="#138622"/><path d="M28.586 13.777a1.507 1.507 0 0 0-.586.14l-4.344 2.13q-.632.344-.633.66v.115a2.143 2.143 0 0 0 .561.992 2.31 2.31 0 0 1 .561 1.453v2.36a13.846 13.846 0 0 1 5.179-3.619v-3.486a.709.709 0 0 0-.36-.648.735.735 0 0 0-.378-.097z" fill="#34a34f"/><path d="M29.323 18.01a13.848 13.848 0 0 0-5.178 3.62v.798a15.66 15.66 0 0 0 4.583-3.467q.314-.353.595-.721z" fill="#138622"/><path d="M65.422 24.66a16.722 16.722 0 0 1-6.362 4.473 13.182 13.182 0 0 1-1.464.448 19.64 19.64 0 0 1 2.004.292l4.787-2.694a1.888 1.888 0 0 0 1.122-1.783 2.99 2.99 0 0 0-.087-.736zm-5.406-3.205a6.963 6.963 0 0 0-4.992 1.999 7.234 7.234 0 0 0-.497.527 14.026 14.026 0 0 1 2.23-1.066 15.476 15.476 0 0 1 5.352-.9c.34 0 .667.01.983.027a7.213 7.213 0 0 0-3.076-.587z" fill="#34a34f"/><path d="M48.77 29.455a15.623 15.623 0 0 1-4.948 2.283v.65a2.28 2.28 0 0 1-.576 1.452 2.072 2.072 0 0 0-.576 1.05v.116c0 .365.22.546.662.546h.192a18.217 18.217 0 0 1 5.245-4.377v-1.72" fill="#99ef9c"/><path d="M48.771 23.92a15.57 15.57 0 0 1-4.949 1.542v5.278a16.39 16.39 0 0 1 4.949-4.348zm3.134-2.177h-.062a14.54 14.54 0 0 1-2.665 1.955h2.727a.638.638 0 0 0 .66-.66v-.633a.64.64 0 0 0-.66-.662z" fill="#5fd16f"/><path d="M48.771 26.392a16.433 16.433 0 0 0-4.949 4.348v.998a15.643 15.643 0 0 0 4.949-2.283z" fill="#39c444"/><path d="M48.376 21.187a17.478 17.478 0 0 1-3.509 1.529c-.318.356-.666.719-1.045 1.078v1.171a13.51 13.51 0 0 1 1.164-.954 15.336 15.336 0 0 1 4.696-2.266h-1.026a6.15 6.15 0 0 1-.28-.558zm5.197-5.056c-.036 0-.072 0-.107.002a15.31 15.31 0 0 1-2.604 3.225c.05.043.1.086.153.126a2.404 2.404 0 0 0 1.496.418 1.775 1.775 0 0 0 1.38-.533 1.721 1.721 0 0 0 .49-1.193 3.006 3.006 0 0 0-.808-2.045z" fill="#34a34f"/><path d="M51.843 21.743H49.68a15.38 15.38 0 0 0-4.696 2.266 13.563 13.563 0 0 0-1.164.954v.497a15.57 15.57 0 0 0 4.949-1.541v-.222h.409a14.388 14.388 0 0 0 2.665-1.954z" fill="#138622"/><path d="M38.12 21.453a1.581 1.581 0 0 0-.6.145l-3.544 1.737a19.556 19.556 0 0 1-.837 2.193 2.242 2.242 0 0 1 .527 1.393v.736a13.648 13.648 0 0 1 1.285-1.463 15.12 15.12 0 0 1 3.865-2.712v-1.278a.71.71 0 0 0-.345-.663.693.693 0 0 0-.352-.088z" fill="#5fd16f"/><path d="M38.816 23.482a15.12 15.12 0 0 0-3.864 2.712 13.825 13.825 0 0 0-1.286 1.463v.288a16.743 16.743 0 0 0 5.15-.966zm-4.84-.147l-.8.392q-.66.316-.66.662v.115a2.197 2.197 0 0 0 .576.964l.049.06a19.723 19.723 0 0 0 .835-2.193zm10.889-.619c-.325.101-.64.192-.939.269a14.82 14.82 0 0 1-.196.713h.09v.096c.38-.36.727-.722 1.045-1.078z" fill="#138622"/><path d="M43.928 22.985a18.53 18.53 0 0 1-2.496.476c.013.017.03.034.045.051a.643.643 0 0 0 .474.186h1.78c.078-.258.142-.497.197-.713z" fill="#04550a"/><path d="M65.307 30.782a.685.685 0 0 0-.485.224 2.955 2.955 0 0 1-1.194.905 3.999 3.999 0 0 1-1.683.36 3.63 3.63 0 0 1-2.208-.687l-.026.005a19.02 19.02 0 0 1-3.527 3.238 7.23 7.23 0 0 0 3.864 1.01 5.886 5.886 0 0 0 4.171-1.496 4.407 4.407 0 0 0 1.668-2.934.518.518 0 0 0-.36-.59.71.71 0 0 0-.22-.035z" fill="#0a6629"/><path d="M59.724 31.574l-.013.015.026-.005a.033.033 0 0 1-.013-.01z" fill="#02410d"/><path d="M57.608 25.248a18.814 18.814 0 0 1-2.641.182c-.497 0-.95-.019-1.35-.045a7.26 7.26 0 0 0-.676 3.157 17.013 17.013 0 0 1 4.648-3.1c.006-.068.011-.132.019-.194zm6.501-2.555a14.056 14.056 0 0 1-2.112 1.261c-.282.136-.568.26-.852.373l.037.104a16.296 16.296 0 0 1 2.28-.157c.662 0 1.293.038 1.877.096a4.028 4.028 0 0 0-1.23-1.677z" fill="#5fd16f"/><path d="M63.46 24.274a16.295 16.295 0 0 0-2.28.157 4.279 4.279 0 0 1 .247 1.396 1.682 1.682 0 0 1-.747 1.467l-2.675 1.611a9.564 9.564 0 0 1-.431-3.021q0-.229.017-.446a17 17 0 0 0-4.648 3.1v.02a9.364 9.364 0 0 0 .07 1.168 16.839 16.839 0 0 1 2.809-.23c.634 0 1.232.032 1.78.085a13.567 13.567 0 0 0 1.465-.448 16.742 16.742 0 0 0 6.362-4.473 3.197 3.197 0 0 0-.087-.29 19.2 19.2 0 0 0-1.882-.096zm-1.35-2.257a15.468 15.468 0 0 0-5.351.9 14.01 14.01 0 0 0-2.23 1.066 6.488 6.488 0 0 0-.914 1.4c.4.028.855.045 1.35.045a18.816 18.816 0 0 0 2.64-.182 3.658 3.658 0 0 1 .498-1.52 1.587 1.587 0 0 1 1.395-.862 1.539 1.539 0 0 1 1.453 1.008 6.5 6.5 0 0 1 .192.455q.429-.17.852-.373a14.037 14.037 0 0 0 2.112-1.26l-.035-.03a4.385 4.385 0 0 0-.981-.622 18.276 18.276 0 0 0-.98-.025z" fill="#138622"/><path d="M49.776 14.522a5.79 5.79 0 0 0-4.46 1.611 5.504 5.504 0 0 0-1.392 2.897l.233-.002h.027a13.833 13.833 0 0 1 1.63-1.044 13.395 13.395 0 0 1 1.784-.808l.006-.064q.13-1.208 1.107-1.208a.977.977 0 0 1 .862.416 2.138 2.138 0 0 1 .143.237 18.939 18.939 0 0 1 3.746-.424l.043-.071a4.579 4.579 0 0 0-.48-.446 5 5 0 0 0-3.249-1.094z" fill="#5fd16f"/><path d="M47.598 17.176a14.016 14.016 0 0 0-1.784.808 13.78 13.78 0 0 0-1.63 1.044 16.963 16.963 0 0 1 3.12.266 18.064 18.064 0 0 1-2.437 3.422 17.264 17.264 0 0 0 3.509-1.529 11.029 11.029 0 0 1-.54-1.558 6.773 6.773 0 0 1-.238-2.453zm5.867-1.043a18.938 18.938 0 0 0-3.745.424 2.852 2.852 0 0 1 .26.755 11.195 11.195 0 0 0 .3 1.165 1.968 1.968 0 0 0 .58.88 15.385 15.385 0 0 0 2.605-3.224z" fill="#138622"/><path d="M44.156 19.03c-.077 0-.154 0-.233.002a4.166 4.166 0 0 0-.034.222c.096-.075.194-.15.293-.224z" fill="#23ab30"/><path d="M44.182 19.03c-.1.074-.197.149-.293.224a7.874 7.874 0 0 0-.068 1.05v1.439h-1.87a.638.638 0 0 0-.66.66v.059a16.811 16.811 0 0 1 2.897-.714s-.068.473-.26 1.237c.3-.077.614-.168.94-.27a18.064 18.064 0 0 0 2.437-3.421 17.107 17.107 0 0 0-3.123-.264z" fill="#076e0f"/><path d="M44.186 21.748a16.988 16.988 0 0 0-2.897.714v.574a.646.646 0 0 0 .141.423 18.828 18.828 0 0 0 2.496-.476c.194-.762.26-1.235.26-1.235z" fill="#04550a"/><path d="M49.635 33.921q-.254.43-.544.85c-.188.27-.386.53-.589.78h1.16q.66 0 .66-.545v-.115c.002-.218-.228-.54-.687-.97zm9.704-2.253a15.862 15.862 0 0 1-3.053.286 18.998 18.998 0 0 1-2.75-.205 6.71 6.71 0 0 0 2.53 3.006 20.278 20.278 0 0 1 3.273-3.087z" fill="#34a34f"/><path d="M57.599 29.583a16.25 16.25 0 0 1-3.887.451c-.224 0-.445-.003-.66-.01a7.41 7.41 0 0 0 .486 1.725 18.997 18.997 0 0 0 2.75.205 15.871 15.871 0 0 0 3.054-.286c.086-.064.173-.128.261-.19a4.38 4.38 0 0 1-.933-1.077l.937-.527a19.896 19.896 0 0 0-2.008-.291z" fill="#0b6818"/><path d="M48.77 31.173a18.247 18.247 0 0 0-5.245 4.377h4.977q.305-.376.59-.781c.193-.28.374-.563.543-.85l-.088-.08a1.998 1.998 0 0 1-.777-1.454z" fill="#1f9930"/><path d="M59.709 31.591a9.21 9.21 0 0 1-.371.077 20.178 20.178 0 0 0-3.272 3.087l.115.074a19.025 19.025 0 0 0 3.528-3.238z" fill="#0a6629"/><path d="M59.6 31.478a10.33 10.33 0 0 0-.262.19c.124-.024.248-.05.37-.077l.014-.015c-.041-.032-.083-.064-.123-.098z" fill="#0a6629"/><path d="M55.818 29.498a16.838 16.838 0 0 0-2.808.23c.011.1.026.197.041.293.215.008.435.012.659.012a16.24 16.24 0 0 0 3.887-.452 19.94 19.94 0 0 0-1.779-.083z" fill="#04560b"/><path d="M133.655 18.944V14.24h.984l1.428 3.276h.096l1.428-3.276h.984v4.704h-.744v-4.032l.156.012-1.404 3.18h-.984l-1.404-3.18.156-.012v4.032zm-2.916 0v-4.176h.768v4.176zm-1.452-4.056v-.648h3.672v.648z" fill="#fff"/></svg>