<svg viewBox="0 0 730.37189 190.39806" xmlns="http://www.w3.org/2000/svg"><defs><clipPath id="a"><path d="M125.822 188.868q-3.51 0-3.51-2.9v-.61q0-1.83 2.98-5.58a12.104 12.104 0 0 0 2.98-7.57v-69.84a12.275 12.275 0 0 0-2.98-7.72c-1.99-2.5-2.98-4.25-2.98-5.27v-.61q0-1.68 3.36-3.51l23.08-11.31c2.14-.92 3.84-.99 5.12-.23a3.755 3.755 0 0 1 1.91 3.44v95.06q0 3.825 3.36 7.57c2.24 2.5 3.36 4.35 3.36 5.58v.61c0 1.94-1.22 2.9-3.67 2.9l-33.01-.01m50.59 0q-3.675 0-3.67-2.9v-.61q0-1.83 3.06-5.66a12.202 12.202 0 0 0 3.06-7.64v-29.04a12.11 12.11 0 0 0-3.06-7.72c-2.04-2.5-3.06-4.2-3.06-5.12v-.61q0-1.83 3.51-3.52l23.08-11.31q3.21-1.38 5.04-.31a3.757 3.757 0 0 1 1.83 3.52v54.1q0 3.825 3.44 7.64c2.29 2.55 3.44 4.43 3.44 5.66v.61c0 1.94-1.28 2.9-3.82 2.9l-32.85.01m16.35-82.38q-7.8 0-12.68-4.36a14.66 14.66 0 0 1 0-21.86q4.89-4.35 12.68-4.35 7.635 0 12.53 4.35a14.66 14.66 0 0 1 0 21.86q-4.89 4.365-12.53 4.36m66.02-22q-5.205 0-5.88 6.42a35.82 35.82 0 0 0 1.22 13.37 48.953 48.953 0 0 0 4.35 11.23h17.27a3.388 3.388 0 0 1 3.51 3.51v3.36a3.388 3.388 0 0 1-3.51 3.51h-16.66v46.15c0 2.65 1.37 5.22 4.13 7.72 2.75 2.5 4.13 4.35 4.13 5.58v.61c0 1.94-1.17 2.9-3.51 2.9h-33.62q-3.525 0-3.52-2.9v-.61q0-1.83 3.06-5.58a12.11 12.11 0 0 0 3.06-7.72v-46.15h-9.93a3.388 3.388 0 0 1-3.51-3.51v-3.36a3.388 3.388 0 0 1 3.51-3.51h9.93v-7.64q0-13.605 7.95-22.16 7.95-8.55 23.69-8.56a26.625 26.625 0 0 1 17.27 5.81q7.185 5.805 7.18 13.6a9.127 9.127 0 0 1-2.6 6.34 9.443 9.443 0 0 1-7.33 2.83q-5.04 0-7.95-2.22a10.736 10.736 0 0 1-3.9-5.35 56.991 56.991 0 0 1-1.6-6.19 13.957 13.957 0 0 0-2.14-5.27 5.261 5.261 0 0 0-4.6-2.21m85.58 80.23a3.442 3.442 0 0 1 3.75-.99 2.74 2.74 0 0 1 1.91 3.13q-.315 7.65-8.86 15.59-8.565 7.95-22.16 7.95-16.665 0-27.2-10.7-10.545-10.695-10.54-27.97 0-16.5 11.08-27.13a36.974 36.974 0 0 1 26.52-10.62q13.905 0 21.55 6.42 7.635 6.42 7.64 14.52 0 6.42-5.96 9.47l-30.41 17.12q6.27 9.93 17.42 9.93a21.395 21.395 0 0 0 8.94-1.91 15.76 15.76 0 0 0 6.32-4.81m-28.27-43.25q-4.59 0-7.41 4.58a21.446 21.446 0 0 0-2.83 11.46 50.81 50.81 0 0 0 2.29 16.05l14.21-8.56a8.91 8.91 0 0 0 3.97-7.79 24.288 24.288 0 0 0-2.52-10.39q-2.52-5.355-7.71-5.35" fill="none"/></clipPath></defs><path d="M699.642 79.128v18.42h-2.56v-18.42h-7.31v-2.08h17.18v2.08zm30.73 18.43h-2.56v-10.55c0-2.56 0-5.41.06-7.64-.68 2.23-1.63 5.11-2.5 7.61l-3.63 10.58h-3.21l-3.68-10.64c-.83-2.44-1.78-5.29-2.44-7.49.06 2.23.06 5.05.06 7.58v10.55h-2.56v-20.5h4.22l6.06 18.33 6.03-18.33h4.13v20.5zm-332.06 92.84q-17.415 0-28.58-11.39a37.23 37.23 0 0 1-11.16-26.97q0-17.265 11.31-27.58 11.31-10.32 27.51-10.47 13.605-.15 23.08 6.19 9.48 6.345 9.48 16.43a8.595 8.595 0 0 1-2.67 6.42c-1.78 1.73-4.61 2.55-8.48 2.44a13.202 13.202 0 0 1-8.94-4.13 23.922 23.922 0 0 1-5.43-8.25 29.163 29.163 0 0 0-4.58-8.02q-2.91-3.585-6.57-3.59-4.74.15-7.72 5.04a22.789 22.789 0 0 0-2.98 12.07q0 14.985 6.8 23.99a21.56 21.56 0 0 0 18.11 9.02q10.23 0 16.96-8.86a3.427 3.427 0 0 1 3.67-1.3 2.712 2.712 0 0 1 2.14 2.98 24.992 24.992 0 0 1-8.71 18.34q-8.43 7.635-23.24 7.64zm123.33-18.34a15.314 15.314 0 0 0 2.9 7.56q2.595 3.75 2.6 5.73v.61c0 1.94-1.22 2.9-3.67 2.9h-30.41q-3.675 0-3.67-2.9v-.61q0-1.83 2.83-5.66a11.972 11.972 0 0 0 2.67-7.64l-1.53-28.43q-.615-10.545-3.06-15.05a8.126 8.126 0 0 0-7.64-4.51 8.24 8.24 0 0 0-7.41 3.97q-2.52 3.975-2.52 10.85v33.32q0 3.825 3.44 7.57c2.29 2.5 3.44 4.35 3.44 5.58v.61c0 1.94-1.22 2.9-3.67 2.9h-33.16q-3.51 0-3.51-2.9v-.61q0-1.83 3.36-5.58t3.36-7.57v-70.91q0-3.975-3.74-7.18c-2.5-2.14-3.74-3.82-3.74-5.04v-.46q0-2.745 3.51-4.28l24.15-10.7c1.73-.81 3.13-.92 4.2-.31s1.6 1.78 1.6 3.52v44.32q6.87-7.185 18.64-7.18a28.634 28.634 0 0 1 19.56 7.26q8.25 7.26 9.48 23.31zm77.02-7.34a3.431 3.431 0 0 1 3.74-.99 2.74 2.74 0 0 1 1.91 3.13q-.315 7.65-8.86 15.59-8.565 7.95-22.16 7.95-16.665 0-27.2-10.7-10.545-10.695-10.55-27.97 0-16.5 11.08-27.13a36.974 36.974 0 0 1 26.52-10.62q13.905 0 21.55 6.42 7.635 6.42 7.64 14.52 0 6.42-5.96 9.47l-30.41 17.12q6.27 9.93 17.42 9.93a21.241 21.241 0 0 0 8.94-1.91 15.694 15.694 0 0 0 6.34-4.81zm-28.27-43.25q-4.59 0-7.41 4.58a21.445 21.445 0 0 0-2.83 11.46 50.811 50.811 0 0 0 2.29 16.05l14.21-8.56a8.91 8.91 0 0 0 3.97-7.79 24.288 24.288 0 0 0-2.52-10.39c-1.67-3.57-4.25-5.35-7.71-5.35zm79.47-36.98c-3.46 0-5.43 2.14-5.88 6.42a36.028 36.028 0 0 0 1.22 13.37 48.472 48.472 0 0 0 4.36 11.23h17.27a3.388 3.388 0 0 1 3.51 3.51v3.36a3.388 3.388 0 0 1-3.51 3.51h-16.66v46.15q0 3.975 4.13 7.72c2.75 2.5 4.13 4.35 4.13 5.58v.61c0 1.94-1.17 2.9-3.51 2.9h-33.62c-2.35 0-3.51-.97-3.51-2.9v-.61q0-1.83 3.06-5.58a12.11 12.11 0 0 0 3.06-7.72v-46.15h-9.93a3.388 3.388 0 0 1-3.51-3.51v-3.36a3.388 3.388 0 0 1 3.51-3.51h9.93v-7.64q0-13.605 7.95-22.16 7.95-8.55 23.69-8.56a26.626 26.626 0 0 1 17.27 5.81q7.185 5.805 7.18 13.6a9.127 9.127 0 0 1-2.6 6.34 9.45 9.45 0 0 1-7.34 2.83q-5.04 0-7.95-2.22a10.736 10.736 0 0 1-3.9-5.35 56.992 56.992 0 0 1-1.6-6.19 14.024 14.024 0 0 0-2.14-5.27 5.291 5.291 0 0 0-4.61-2.21z" fill="#343434"/><path d="M98.782 70.208s-7.81 31.38-32.57 51.19-57.09 20.55-57.09 20.55 7.81-31.38 32.57-51.2c24.76-19.8 57.09-20.54 57.09-20.54" fill="#36a34f"/><path d="M104.632 88.908a94.574 94.574 0 0 0-13.98 1.72c-5.1 9.89-12.95 21.58-24.44 30.78-14.43 11.55-31.44 16.62-43.12 18.83a104.527 104.527 0 0 0-8.13 20.42s32.33-.74 57.09-20.55c24.77-19.81 32.58-51.2 32.58-51.2" fill="#6fba6d"/><path d="M90.652 90.628c-11.68 2.22-28.68 7.28-43.12 18.83a89.27 89.27 0 0 0-18.37 20.41c-1.13 1.96-2.3 3.82-3.46 5.58-.94 1.63-1.81 3.23-2.62 4.78 11.68-2.22 28.68-7.28 43.12-18.83 11.5-9.19 19.35-20.89 24.45-30.77" fill="#188737"/><path d="M31.422 41.578s-24.08 21.59-30 52.75c-5.92 31.15 8.56 60.07 8.56 60.07a101.565 101.565 0 0 0 12.28-14 92.884 92.884 0 0 1-13.14 1.56s7.72-31.02 32.15-50.85c1.51-26.84-9.85-49.53-9.85-49.53" fill="#a1cd89"/><path d="M41.262 91.098c-24.42 19.83-32.15 50.85-32.15 50.85a92.884 92.884 0 0 0 13.14-1.56c1.14-1.54 2.3-3.19 3.46-4.94 1.06-1.83 2.21-3.7 3.46-5.58a90.3 90.3 0 0 0 10.81-28.22 82.902 82.902 0 0 0 1.28-10.55" fill="#249338"/><path d="M29.172 129.868c-1.25 1.88-2.4 3.75-3.46 5.58 1.16-1.75 2.32-3.62 3.46-5.58" fill="#157934"/><path d="M178.012 7.578s-20.18 25.27-50.95 32.96-60.46-5.12-60.46-5.12 20.18-25.27 50.95-32.96 60.46 5.12 60.46 5.12z" fill="#36a34f"/><g clip-path="url(#a)"><path d="M192.762 75.928q-7.8 0-12.68 4.35a13.9 13.9 0 0 0-4.86 9.91 100.506 100.506 0 0 1 16.78-1.51c1.39 0 2.16.04 2.16.04a92.725 92.725 0 0 1-8.12 16.8 21.967 21.967 0 0 0 6.73.98q7.635 0 12.53-4.36a14.66 14.66 0 0 0 0-21.86q-4.905-4.35-12.54-4.35" fill="#36a34f"/></g><g clip-path="url(#a)"><path d="M206.212 143.328a88.954 88.954 0 0 1-27.36 5.13v8.93a83.23 83.23 0 0 1 27.36 10.4v-24.46" fill="#36a34f"/></g><g clip-path="url(#a)"><path d="M206.212 168.048a84.153 84.153 0 0 1-18.17 11.49 100.74 100.74 0 0 1 17.19 9.32h4.04q3.825 0 3.82-2.9v-.61q0-1.83-3.44-5.66-3.435-3.81-3.44-7.64v-4m-50.43-3.69c-.51.46-1.02.91-1.54 1.36a74.757 74.757 0 0 1-10.82 7.67 74.219 74.219 0 0 1 11.89-.99h.47v-8.04" fill="#36a34f"/></g><g clip-path="url(#a)"><path d="M178.852 157.378v14.67a10.283 10.283 0 0 1-.78 3.87 99.12 99.12 0 0 1 9.97 3.62 84.154 84.154 0 0 0 18.17-11.49v-.27a83.23 83.23 0 0 0-27.36-10.4" fill="#12692f"/></g><g clip-path="url(#a)"><path d="M137.112 176.728a96.633 96.633 0 0 1-13.37 5.17 7.124 7.124 0 0 0-1.43 3.46v.61c0 1.94 1.17 2.9 3.51 2.9h33.01a6.955 6.955 0 0 0 1.17-.09 94.464 94.464 0 0 1-22.89-12.05" fill="#6fba6d"/></g><g clip-path="url(#a)"><path d="M188.042 179.548a103.27 103.27 0 0 1-15.3 5.76v.65c0 1.94 1.22 2.9 3.67 2.9h28.82a102.475 102.475 0 0 0-17.19-9.31m-32.74-7.15a73.082 73.082 0 0 0-11.89.99c-2.1 1.23-4.21 2.34-6.3 3.34a94.464 94.464 0 0 0 22.89 12.05 2.965 2.965 0 0 0 1.95-1.01c-.41.06-.63.09-.63.09s.21-1.48.77-4a18.096 18.096 0 0 0-2.96-4.08 11.52 11.52 0 0 1-3.36-7.37c-.15-.01-.31-.01-.47-.01m6.8 11.46c-.56 2.52-.77 4-.77 4s.22-.03.63-.09a2.85 2.85 0 0 0 .55-1.81v-.61a3.775 3.775 0 0 0-.41-1.49" fill="#188737"/></g><g clip-path="url(#a)"><path d="M178.072 175.928a15.245 15.245 0 0 1-2.27 3.77q-3.015 3.78-3.06 5.61a103.687 103.687 0 0 0 15.3-5.76 95.25 95.25 0 0 0-9.97-3.62" fill="#155628"/></g><g clip-path="url(#a)"><path d="M128.272 169.708v2.5a11.051 11.051 0 0 1-1.71 5.74c2.66-1 5.49-1.93 8.47-2.74a97.253 97.253 0 0 1-6.76-5.5m27.51-33.91a89.706 89.706 0 0 1-27.51 9.43v19.19a102.532 102.532 0 0 1 27.51-7.48v-21.14" fill="#36a34f"/></g><g clip-path="url(#a)"><path d="M155.782 156.938a102.646 102.646 0 0 0-27.51 7.48v5.29c1.72 1.53 4 3.44 6.76 5.5a81.736 81.736 0 0 1 8.39-1.82 74.533 74.533 0 0 0 10.82-7.67c.52-.45 1.04-.9 1.54-1.36v-7.42" fill="#12692f"/></g><g clip-path="url(#a)"><path d="M135.032 175.208c-2.98.81-5.81 1.74-8.47 2.74a18.309 18.309 0 0 1-1.27 1.83c-.61.77-1.13 1.47-1.55 2.12a96.633 96.633 0 0 0 13.37-5.17c-.72-.51-1.41-1.02-2.08-1.52" fill="#188737"/></g><g clip-path="url(#a)"><path d="M143.422 173.388a85.099 85.099 0 0 0-8.39 1.82c.67.5 1.36 1 2.08 1.51 2.1-.99 4.21-2.1 6.31-3.33" fill="#135728"/></g><g clip-path="url(#a)"><path d="M155.782 96.898q-1.5 1.95-3.16 3.83a83.068 83.068 0 0 1-24.35 18.42v22.6c.98-.95 2-1.87 3.06-2.78a81.704 81.704 0 0 1 24.45-14.12v-16.33l-.47-.09s.16-.31.47-.88v-10.65" fill="#6fba6d"/></g><g clip-path="url(#a)"><path d="M155.782 107.558c-.31.57-.47.88-.47.88l.47.09v-.97m36.21-18.88a100.587 100.587 0 0 0-16.78 1.51q-.03.495-.03 1.02a14.035 14.035 0 0 0 4.89 10.93 16.298 16.298 0 0 0 5.96 3.38 92.724 92.724 0 0 0 8.12-16.8s-.77-.04-2.16-.04" fill="#188737"/></g><g clip-path="url(#a)"><path d="M155.782 124.858a81.704 81.704 0 0 0-24.45 14.12c-1.06.9-2.07 1.83-3.06 2.78v3.48a89.175 89.175 0 0 0 27.51-9.43v-10.95" fill="#188737"/></g><g clip-path="url(#a)"><path d="M151.862 73.188a8.005 8.005 0 0 0-3.11.75l-23.08 11.31q-3.36 1.83-3.36 3.51v.61q0 1.53 2.98 5.27a12.275 12.275 0 0 1 2.98 7.72v12.54a73.56 73.56 0 0 1 27.51-19.23v-18.52a3.766 3.766 0 0 0-1.91-3.44 3.905 3.905 0 0 0-2.01-.52" fill="#36a34f"/></g><g clip-path="url(#a)"><path d="M155.782 95.678a73.56 73.56 0 0 0-27.51 19.23v4.24a83.198 83.198 0 0 0 24.35-18.42q1.665-1.875 3.16-3.83v-1.22" fill="#188737"/></g><g clip-path="url(#a)"><path d="M347.562 131.008c-7.16 7.87-18.69 18.17-33.8 23.76a69.972 69.972 0 0 1-7.78 2.38 104.356 104.356 0 0 1 10.65 1.55l25.43-14.31q5.955-3.06 5.96-9.47a15.91 15.91 0 0 0-.46-3.91" fill="#36a34f"/></g><g clip-path="url(#a)"><path d="M318.842 113.978a36.99 36.99 0 0 0-26.52 10.62 38.445 38.445 0 0 0-2.64 2.8 74.462 74.462 0 0 1 11.85-5.66 82.215 82.215 0 0 1 28.43-4.78c1.8 0 3.54.05 5.22.14q-6.645-3.12-16.34-3.12" fill="#36a34f"/></g><g clip-path="url(#a)"><path d="M259.092 156.478a82.995 82.995 0 0 1-26.29 12.13v3.45a12.11 12.11 0 0 1-3.06 7.72c-2.04 2.5-3.06 4.35-3.06 5.58v.61c0 1.94 1.17 2.9 3.52 2.9h1.02c5.38-6.48 14.9-16.31 27.86-23.25l.01-9.14" fill="#a3ce94"/></g><g clip-path="url(#a)"><path d="M259.092 127.078a82.714 82.714 0 0 1-26.29 8.19v28.04c7.76-10.63 17.84-18.14 26.29-23.1v-13.13m16.65-11.57h-.33a77.258 77.258 0 0 1-14.16 10.39h14.49a3.388 3.388 0 0 0 3.51-3.51v-3.36a3.404 3.404 0 0 0-3.51-3.52" fill="#6fba6d"/></g><g clip-path="url(#a)"><path d="M259.092 140.208c-8.44 4.96-18.52 12.47-26.29 23.1v5.3a83.095 83.095 0 0 0 26.29-12.13v-16.27" fill="#53b047"/></g><g clip-path="url(#a)"><path d="M256.992 112.558a92.838 92.838 0 0 1-18.64 8.12 98.221 98.221 0 0 1-5.55 5.73v6.22a71.923 71.923 0 0 1 6.18-5.07 81.48 81.48 0 0 1 24.95-12.04h-5.45a32.633 32.633 0 0 1-1.49-2.96m27.61-26.86c-.19 0-.38 0-.57.01a81.349 81.349 0 0 1-13.83 17.13c.26.23.53.46.81.67q2.895 2.22 7.95 2.22a9.428 9.428 0 0 0 7.33-2.83 9.145 9.145 0 0 0 2.6-6.34 15.97 15.97 0 0 0-4.29-10.86" fill="#36a34f"/></g><g clip-path="url(#a)"><path d="M275.412 115.508h-11.49a81.71 81.71 0 0 0-24.95 12.04 71.923 71.923 0 0 0-6.18 5.07v2.64a82.714 82.714 0 0 0 26.29-8.19v-1.18h2.17a76.425 76.425 0 0 0 14.16-10.38" fill="#188737"/></g><g clip-path="url(#a)"><path d="M202.512 113.968a8.401 8.401 0 0 0-3.18.77l-18.83 9.23a103.897 103.897 0 0 1-4.45 11.65 11.912 11.912 0 0 1 2.8 7.4v3.91a72.51 72.51 0 0 1 6.83-7.77 80.331 80.331 0 0 1 20.53-14.41v-6.79a3.768 3.768 0 0 0-1.83-3.52 3.683 3.683 0 0 0-1.87-.47" fill="#6fba6d"/></g><g clip-path="url(#a)"><path d="M206.212 124.748a80.33 80.33 0 0 0-20.53 14.41 73.487 73.487 0 0 0-6.83 7.77v1.53a88.954 88.954 0 0 0 27.36-5.13v-18.58" fill="#188737"/></g><g clip-path="url(#a)"><path d="M180.502 123.968l-4.25 2.08q-3.51 1.68-3.51 3.52v.61c0 .92 1.02 2.62 3.06 5.12l.26.32a104.79 104.79 0 0 0 4.44-11.65" fill="#188737"/></g><g clip-path="url(#a)"><path d="M238.352 120.678c-1.73.54-3.4 1.02-4.99 1.43a89.35 89.35 0 0 1-1.04 3.79h.48v.51c2.01-1.91 3.86-3.84 5.55-5.73" fill="#188737"/></g><g clip-path="url(#a)"><path d="M233.362 122.108a98.45 98.45 0 0 1-13.26 2.53c.07.09.16.18.24.27a3.414 3.414 0 0 0 2.52.99h9.46c.41-1.37.75-2.64 1.04-3.79" fill="#155628"/></g><g clip-path="url(#a)"><path d="M346.942 163.528a3.638 3.638 0 0 0-2.58 1.19 15.694 15.694 0 0 1-6.34 4.81 21.241 21.241 0 0 1-8.94 1.91 19.283 19.283 0 0 1-11.73-3.65c-.05.01-.1.02-.14.03a101.059 101.059 0 0 1-18.74 17.2 38.412 38.412 0 0 0 20.53 5.37q13.605 0 22.16-7.95 8.565-7.95 8.86-15.59a2.75 2.75 0 0 0-1.91-3.13 3.765 3.765 0 0 0-1.17-.19" fill="#10672f"/></g><g clip-path="url(#a)"><path d="M317.282 167.738a.57.57 0 0 1-.07.08c.05-.01.1-.02.14-.03a.18.18 0 0 1-.07-.05" fill="#18411e"/></g><g clip-path="url(#a)"><path d="M306.042 134.128a99.936 99.936 0 0 1-14.03.97c-2.64 0-5.05-.1-7.17-.24a38.57 38.57 0 0 0-3.59 16.77 90.39 90.39 0 0 1 24.69-16.47c.03-.36.06-.7.1-1.03m34.54-13.57a74.604 74.604 0 0 1-11.22 6.7c-1.5.72-3.02 1.38-4.53 1.98.07.18.13.37.2.55a86.522 86.522 0 0 1 12.11-.83c3.52 0 6.87.2 9.97.51a21.395 21.395 0 0 0-6.53-8.91" fill="#6fba6d"/></g><g clip-path="url(#a)"><path d="M337.132 128.958a86.521 86.521 0 0 0-12.11.83 22.735 22.735 0 0 1 1.31 7.42 8.933 8.933 0 0 1-3.97 7.79l-14.21 8.56a50.81 50.81 0 0 1-2.29-16.05q0-1.215.09-2.37a90.307 90.307 0 0 0-24.69 16.47v.11a49.781 49.781 0 0 0 .37 6.2 89.486 89.486 0 0 1 14.92-1.22c3.37 0 6.55.17 9.46.45a72.156 72.156 0 0 0 7.78-2.38c15.11-5.6 26.64-15.89 33.8-23.76-.13-.52-.28-1.03-.46-1.54-3.13-.31-6.48-.51-10-.51" fill="#188737"/></g><g clip-path="url(#a)"><path d="M329.962 116.968a82.178 82.178 0 0 0-28.43 4.78 74.462 74.462 0 0 0-11.85 5.66 34.456 34.456 0 0 0-4.85 7.44c2.12.15 4.54.24 7.17.24a99.934 99.934 0 0 0 14.03-.97 19.432 19.432 0 0 1 2.64-8.07c1.88-3.06 4.35-4.58 7.41-4.58q5.19 0 7.72 5.35c.38.81.72 1.62 1.02 2.42q2.28-.9 4.53-1.98a74.605 74.605 0 0 0 11.22-6.7l-.19-.16a23.293 23.293 0 0 0-5.21-3.3c-1.66-.09-3.41-.13-5.21-.13" fill="#188737"/></g><g clip-path="url(#a)"><path d="M264.432 77.148q-15.75 0-23.69 8.56a29.239 29.239 0 0 0-7.4 15.39c.42 0 .83-.01 1.24-.01h.14a73.574 73.574 0 0 1 8.66-5.55 71.188 71.188 0 0 1 9.48-4.29l.03-.34q.69-6.42 5.88-6.42a5.19 5.19 0 0 1 4.58 2.21 11.385 11.385 0 0 1 .76 1.26 100.615 100.615 0 0 1 19.9-2.25c.08-.13.16-.26.23-.38a24.285 24.285 0 0 0-2.55-2.37 26.56 26.56 0 0 0-17.26-5.81" fill="#6fba6d"/></g><g clip-path="url(#a)"><path d="M252.862 91.248a74.46 74.46 0 0 0-9.48 4.29 73.208 73.208 0 0 0-8.66 5.55 90.104 90.104 0 0 1 16.58 1.41 95.965 95.965 0 0 1-12.95 18.18 91.712 91.712 0 0 0 18.64-8.12 58.595 58.595 0 0 1-2.87-8.28 35.982 35.982 0 0 1-1.26-13.03m31.17-5.54a100.616 100.616 0 0 0-19.9 2.25 15.164 15.164 0 0 1 1.38 4.01 59.395 59.395 0 0 0 1.6 6.19 10.458 10.458 0 0 0 3.08 4.68 81.726 81.726 0 0 0 13.84-17.13" fill="#188737"/></g><g clip-path="url(#a)"><path d="M234.582 101.098c-.41 0-.82 0-1.24.01-.07.39-.13.78-.18 1.18.51-.4 1.03-.8 1.56-1.19h-.14" fill="#31a936"/></g><g clip-path="url(#a)"><path d="M234.722 101.098c-.53.39-1.05.79-1.56 1.19a41.864 41.864 0 0 0-.36 5.58v7.64h-9.93a3.388 3.388 0 0 0-3.51 3.51v.31a89.352 89.352 0 0 1 15.39-3.79s-.36 2.51-1.38 6.57c1.59-.41 3.26-.89 4.99-1.43a95.966 95.966 0 0 0 12.95-18.18 90.922 90.922 0 0 0-16.59-1.4" fill="#106f31"/></g><g clip-path="url(#a)"><path d="M234.742 115.538a90.282 90.282 0 0 0-15.39 3.79v3.05a3.433 3.433 0 0 0 .75 2.25 100.095 100.095 0 0 0 13.26-2.53c1.03-4.05 1.38-6.56 1.38-6.56" fill="#155628"/></g><g clip-path="url(#a)"><path d="M263.682 180.208q-1.35 2.28-2.89 4.51c-1 1.44-2.05 2.82-3.13 4.15h6.16q3.51 0 3.51-2.9v-.61c.01-1.16-1.21-2.87-3.65-5.15m51.55-11.97a84.284 84.284 0 0 1-16.22 1.52 100.933 100.933 0 0 1-14.61-1.09 35.64 35.64 0 0 0 13.44 15.97 107.72 107.72 0 0 1 17.39-16.4" fill="#36a34f"/></g><g clip-path="url(#a)"><path d="M305.992 157.158a86.342 86.342 0 0 1-20.65 2.4c-1.19 0-2.36-.02-3.5-.06a39.362 39.362 0 0 0 2.58 9.17 100.93 100.93 0 0 0 14.61 1.09 84.284 84.284 0 0 0 16.22-1.52c.46-.34.92-.68 1.39-1.01a23.277 23.277 0 0 1-4.96-5.72l4.98-2.8a105.705 105.705 0 0 0-10.67-1.55" fill="#12692f"/></g><g clip-path="url(#a)"><path d="M259.092 165.608c-12.96 6.94-22.48 16.78-27.86 23.25h26.44q1.62-1.995 3.13-4.15a73.01 73.01 0 0 0 2.89-4.51c-.15-.14-.31-.29-.47-.43q-4.125-3.75-4.13-7.72v-6.44" fill="#1e9938"/></g><g clip-path="url(#a)"><path d="M317.202 167.828c-.66.15-1.32.29-1.97.41a107.198 107.198 0 0 0-17.38 16.4c.2.13.41.26.61.39a101.056 101.056 0 0 0 18.74-17.2" fill="#10672f"/></g><g clip-path="url(#a)"><path d="M316.622 167.228c-.47.33-.93.67-1.39 1.01.66-.13 1.32-.27 1.97-.41a.57.57 0 0 1 .07-.08c-.22-.17-.44-.34-.65-.52" fill="#10672f"/></g><g clip-path="url(#a)"><path d="M296.532 156.708a89.486 89.486 0 0 0-14.92 1.22c.06.53.14 1.05.22 1.56 1.14.04 2.31.06 3.5.06a86.285 86.285 0 0 0 20.65-2.4c-2.9-.26-6.08-.44-9.45-.44" fill="#135728"/></g></svg>