<svg xmlns="http://www.w3.org/2000/svg" viewBox="0 0 730.31181 237.06488"><defs><clipPath id="a"><path d="M125.812 188.865c-2.3 0-3.5-1-3.5-2.9v-.6c0-1.2 1-3.1 3-5.6a12.048 12.048 0 0 0 3-7.6v-69.8a12.3 12.3 0 0 0-3-7.7c-2-2.5-3-4.3-3-5.3v-.6c0-1.1 1.1-2.3 3.4-3.5l23.1-11.3c2.1-.9 3.8-1 5.1-.2a3.702 3.702 0 0 1 1.9 3.4v95.1c0 2.6 1.1 5.1 3.4 7.6s3.4 4.4 3.4 5.6v.6c0 1.9-1.2 2.9-3.7 2.9zm50.6 0c-2.5 0-3.7-1-3.7-2.9v-.6c0-1.2 1-3.1 3.1-5.7a12.42 12.42 0 0 0 3.1-7.6v-29a11.898 11.898 0 0 0-3.1-7.7c-2.1-2.5-3.1-4.2-3.1-5.1v-.6c0-1.2 1.2-2.4 3.5-3.5l23.1-11.3c2.1-.9 3.8-1 5-.3a3.762 3.762 0 0 1 1.8 3.5v54.1c0 2.6 1.1 5.1 3.4 7.6 2.3 2.6 3.4 4.4 3.4 5.7v.6c0 1.9-1.3 2.9-3.8 2.9zm16.3-82.4c-5.2 0-9.4-1.4-12.7-4.4a14.573 14.573 0 0 1 0-21.8c3.3-2.9 7.5-4.3 12.7-4.3 5.1 0 9.3 1.4 12.5 4.3a14.135 14.135 0 0 1 4.9 10.9 13.813 13.813 0 0 1-4.9 10.9c-3.2 3-7.4 4.4-12.5 4.4m66-22c-3.5 0-5.4 2.1-5.9 6.4a36.676 36.676 0 0 0 1.2 13.4 46.61 46.61 0 0 0 4.4 11.2h17.3a3.174 3.174 0 0 1 2.5 1 3.74 3.74 0 0 1 1 2.5v3.4a3.174 3.174 0 0 1-1 2.5 3.74 3.74 0 0 1-2.5 1h-16.7v46.1c0 2.6 1.4 5.2 4.1 7.7 2.8 2.5 4.1 4.4 4.1 5.6v.6c0 1.9-1.2 2.9-3.5 2.9h-33.6c-2.4 0-3.5-1-3.5-2.9v-.5c0-1.2 1-3.1 3.1-5.6a11.898 11.898 0 0 0 3.1-7.7v-46.1h-9.9a3.174 3.174 0 0 1-2.5-1 3.74 3.74 0 0 1-1-2.5v-3.4a3.174 3.174 0 0 1 1-2.5 3.74 3.74 0 0 1 2.5-1h9.9v-7.6c0-9.1 2.6-16.4 8-22.2 5.3-5.7 13.2-8.6 23.7-8.6a26.592 26.592 0 0 1 17.3 5.8c4.8 3.9 7.2 8.4 7.2 13.6a8.937 8.937 0 0 1-2.6 6.3c-1.7 1.9-4.2 2.8-7.3 2.8-3.4 0-6-.7-8-2.2a10.78 10.78 0 0 1-3.9-5.4 47.1 47.1 0 0 1-1.6-6.2 14.725 14.725 0 0 0-2.1-5.3 6.178 6.178 0 0 0-4.8-2.1m85.6 80.3a3.656 3.656 0 0 1 3.8-1 2.723 2.723 0 0 1 1.9 3.1c-.2 5.1-3.2 10.3-8.9 15.6s-13.1 7.9-22.2 7.9c-11.1 0-20.2-3.6-27.2-10.7s-10.5-16.4-10.5-28c0-11 3.7-20 11.1-27.1a36.844 36.844 0 0 1 26.5-10.6c9.3 0 16.5 2.1 21.5 6.4 5.1 4.3 7.6 9.1 7.6 14.5 0 4.3-2 7.4-6 9.5l-30.4 17.1q6.3 9.9 17.4 9.9a20.628 20.628 0 0 0 8.9-1.9 14.44 14.44 0 0 0 6.5-4.7m-28.3-43.3c-3.1 0-5.5 1.5-7.4 4.6a21.546 21.546 0 0 0-2.8 11.5 52.094 52.094 0 0 0 2.3 16.1l14.2-8.6a8.983 8.983 0 0 0 4-7.8 24.005 24.005 0 0 0-2.5-10.4q-2.55-5.4-7.8-5.4" fill="none"/></clipPath></defs><path d="M699.612 79.165v18.4h-2.6v-18.4h-7.3v-2.1h17.2v2.1zm30.7 18.4h-2.6v-10.6c0-2.6 0-5.4.1-7.6-.7 2.2-1.6 5.1-2.5 7.6l-3.6 10.6h-3.2l-3.7-10.6c-.8-2.4-1.8-5.3-2.4-7.5.1 2.2.1 5 .1 7.6v10.6h-2.6v-20.5h4.2l6.1 18.3 6-18.3h4.1zm-332 92.9c-11.6 0-21.1-3.8-28.6-11.4a37.497 37.497 0 0 1-11.2-27c0-11.5 3.8-20.7 11.3-27.6s16.7-10.4 27.5-10.5c9.1-.1 16.8 2 23.1 6.2s9.5 9.7 9.5 16.4a8.384 8.384 0 0 1-2.7 6.4c-1.8 1.7-4.6 2.6-8.5 2.4a13.033 13.033 0 0 1-8.9-4.1 23.722 23.722 0 0 1-5.4-8.3 26.503 26.503 0 0 0-4.6-8q-2.85-3.6-6.6-3.6c-3.2.1-5.7 1.8-7.7 5a22.616 22.616 0 0 0-3 12.1c0 10 2.3 18 6.8 24a21.562 21.562 0 0 0 18.1 9c6.8 0 12.5-2.9 17-8.9a3.54 3.54 0 0 1 3.7-1.3 2.777 2.777 0 0 1 2.1 3 24.762 24.762 0 0 1-8.7 18.3c-5.6 5.3-13.4 7.9-23.2 7.9zm123.3-18.4a15.593 15.593 0 0 0 2.9 7.6c1.7 2.5 2.6 4.4 2.6 5.7v.6c0 1.9-1.2 2.9-3.7 2.9h-30.4c-2.5 0-3.7-1-3.7-2.9v-.6c0-1.2.9-3.1 2.8-5.7a11.817 11.817 0 0 0 2.7-7.6l-1.5-28.4c-.4-7-1.4-12.1-3.1-15.1a8.752 8.752 0 0 0-15-.5c-1.7 2.6-2.5 6.3-2.5 10.9v33.3c0 2.6 1.2 5.1 3.4 7.6s3.4 4.4 3.4 5.6v.6c0 1.9-1.2 2.9-3.7 2.9h-33.2c-2.3 0-3.5-1-3.5-2.9v-.7c0-1.2 1.1-3.1 3.4-5.6s3.4-5 3.4-7.6v-70.9c0-2.6-1.3-5-3.7-7.2-2.5-2.1-3.7-3.8-3.7-5v-.5c0-1.8 1.2-3.3 3.5-4.3l24.2-10.7q2.55-1.2 4.2-.3c1.1.6 1.6 1.8 1.6 3.5v44.3q6.9-7.2 18.6-7.2a28.556 28.556 0 0 1 19.6 7.3c5.5 4.9 8.7 12.6 9.5 23.3zm77-7.3a3.541 3.541 0 0 1 3.7-1 2.723 2.723 0 0 1 1.9 3.1c-.2 5.1-3.2 10.3-8.9 15.6s-13.1 7.9-22.2 7.9c-11.1 0-20.2-3.6-27.2-10.7s-10.5-16.4-10.5-28c0-11 3.7-20 11.1-27.1a36.844 36.844 0 0 1 26.5-10.6c9.3 0 16.5 2.1 21.5 6.4 5.1 4.3 7.6 9.1 7.6 14.5 0 4.3-2 7.4-6 9.5l-30.4 17.1q6.3 9.9 17.4 9.9a20.628 20.628 0 0 0 8.9-1.9 14.242 14.242 0 0 0 6.6-4.7zm-28.3-43.3c-3.1 0-5.5 1.5-7.4 4.6a21.546 21.546 0 0 0-2.8 11.5 52.094 52.094 0 0 0 2.3 16.1l14.2-8.6a8.762 8.762 0 0 0 4-7.8 24.005 24.005 0 0 0-2.5-10.4q-2.55-5.4-7.8-5.4zm79.5-37c-3.5 0-5.4 2.1-5.9 6.4a36.676 36.676 0 0 0 1.2 13.4 46.61 46.61 0 0 0 4.4 11.2h17.3a3.174 3.174 0 0 1 2.5 1 3.317 3.317 0 0 1 1 2.5v3.4a3.174 3.174 0 0 1-1 2.5 3.74 3.74 0 0 1-2.5 1h-16.7v46.1c0 2.6 1.4 5.2 4.1 7.7s4.1 4.4 4.1 5.6v.6c0 1.9-1.2 2.9-3.5 2.9h-33.6c-2.3 0-3.5-1-3.5-2.9v-.5c0-1.2 1-3.1 3.1-5.6a11.898 11.898 0 0 0 3.1-7.7v-46.1h-9.9a3.174 3.174 0 0 1-2.5-1 3.317 3.317 0 0 1-1-2.5v-3.4a3.174 3.174 0 0 1 1-2.5 3.74 3.74 0 0 1 2.5-1h9.9v-7.6c0-9.1 2.7-16.4 8-22.2 5.3-5.7 13.2-8.6 23.7-8.6a26.592 26.592 0 0 1 17.3 5.8c4.8 3.9 7.2 8.4 7.2 13.6a8.937 8.937 0 0 1-2.6 6.3c-1.7 1.9-4.2 2.8-7.3 2.8-3.4 0-6-.7-8-2.2a10.78 10.78 0 0 1-3.9-5.4 47.093 47.093 0 0 1-1.6-6.2 14.725 14.725 0 0 0-2.1-5.3 6.331 6.331 0 0 0-4.8-2.1z" fill="#343434"/><path d="M98.712 70.265s-7.8 31.4-32.6 51.2-57.1 20.6-57.1 20.6 7.8-31.4 32.6-51.2c24.8-19.9 57.1-20.6 57.1-20.6" fill="#36a34f"/><path d="M104.612 88.965a91.605 91.605 0 0 0-14 1.7c-5.1 9.9-12.9 21.6-24.4 30.8-14.4 11.6-31.4 16.6-43.1 18.8a102.186 102.186 0 0 0-8.1 20.4s32.3-.7 57.1-20.6c24.7-19.8 32.5-51.1 32.5-51.1" fill="#6fba6d"/><path d="M90.612 90.665c-11.7 2.2-28.7 7.3-43.1 18.8a89.292 89.292 0 0 0-18.4 20.4c-1.1 2-2.3 3.8-3.5 5.6-.9 1.6-1.8 3.2-2.6 4.8 11.7-2.2 28.7-7.3 43.1-18.8 11.5-9.2 19.4-20.9 24.5-30.8" fill="#188737"/><path d="M31.412 41.565s-24.1 21.6-30 52.8c-5.9 31.1 8.6 60.1 8.6 60.1a101.68 101.68 0 0 0 12.3-14 106.682 106.682 0 0 1-13.1 1.6s7.7-31 32.2-50.9c1.3-26.9-10-49.6-10-49.6" fill="#a1cd89"/><path d="M41.212 91.165c-24.4 19.8-32.2 50.9-32.2 50.9a85.343 85.343 0 0 0 13.1-1.6c1.1-1.5 2.3-3.2 3.5-4.9 1.1-1.8 2.2-3.7 3.5-5.6a90.065 90.065 0 0 0 10.8-28.2 82.72 82.72 0 0 0 1.3-10.6" fill="#249338"/><path d="M29.112 129.865c-1.3 1.9-2.4 3.8-3.5 5.6a59.64 59.64 0 0 0 3.5-5.6" fill="#157934"/><path d="M178.012 7.565s-20.2 25.3-50.9 33-60.5-5.1-60.5-5.1 20.2-25.3 50.9-33 60.5 5.1 60.5 5.1z" fill="#36a34f"/><g clip-path="url(#a)"><path d="M192.712 75.965c-5.2 0-9.4 1.4-12.7 4.3a14.33 14.33 0 0 0-4.9 9.9 101.748 101.748 0 0 1 16.8-1.5h2.2a97.653 97.653 0 0 1-8.1 16.8 23.54 23.54 0 0 0 6.7 1c5.1 0 9.3-1.4 12.5-4.4a14.573 14.573 0 0 0 0-21.8c-3.2-2.9-7.4-4.3-12.5-4.3" fill="#36a34f"/></g><g clip-path="url(#a)"><path d="M206.212 143.365a90.435 90.435 0 0 1-27.4 5.1v8.9a85.497 85.497 0 0 1 27.4 10.4z" fill="#36a34f"/></g><g clip-path="url(#a)"><path d="M206.212 168.065a84.718 84.718 0 0 1-18.2 11.5 100.841 100.841 0 0 1 17.2 9.3h4c2.5 0 3.8-1 3.8-2.9v-.6c0-1.2-1.1-3.1-3.4-5.7a11.326 11.326 0 0 1-3.4-7.6zm-50.5-3.7c-.5.5-1 .9-1.5 1.4a76.53 76.53 0 0 1-10.8 7.7 76.4 76.4 0 0 1 11.9-1h.5v-8.1" fill="#36a34f"/></g><g clip-path="url(#a)"><path d="M178.812 157.365v14.7a10.875 10.875 0 0 1-.8 3.9 105.297 105.297 0 0 1 10 3.6 84.718 84.718 0 0 0 18.2-11.5v-.3a85.497 85.497 0 0 0-27.4-10.4" fill="#12692f"/></g><g clip-path="url(#a)"><path d="M137.112 176.765a99.185 99.185 0 0 1-13.4 5.2 7.609 7.609 0 0 0-1.4 3.5v.6c0 1.9 1.2 2.9 3.5 2.9h33a4.869 4.869 0 0 0 1.2-.1 95.606 95.606 0 0 1-22.9-12.1" fill="#6fba6d"/></g><g clip-path="url(#a)"><path d="M188.012 179.565a112.49 112.49 0 0 1-15.3 5.8v.6c0 1.9 1.2 2.9 3.7 2.9h28.8a100.84 100.84 0 0 0-17.2-9.3m-32.7-7.1a76.4 76.4 0 0 0-11.9 1q-3.15 1.8-6.3 3.3a97.573 97.573 0 0 0 22.9 12.1 2.71 2.71 0 0 0 1.9-1 2.798 2.798 0 0 1-.6.1s.2-1.5.8-4a18.614 18.614 0 0 0-3-4.1 11.647 11.647 0 0 1-3.4-7.4h-.4m6.8 11.4c-.6 2.5-.8 4-.8 4a1.271 1.271 0 0 0 1.2-1.9v-.6c-.1-.4-.2-.9-.4-1.5" fill="#188737"/></g><g clip-path="url(#a)"><path d="M178.012 175.965a15.426 15.426 0 0 1-2.3 3.8c-2 2.5-3 4.4-3.1 5.6a100.597 100.597 0 0 0 15.3-5.8 75.966 75.966 0 0 0-9.9-3.6" fill="#155628"/></g><g clip-path="url(#a)"><path d="M128.212 169.765v2.5a11.369 11.369 0 0 1-1.7 5.7c2.7-1 5.5-1.9 8.5-2.7-2.8-2.1-5.1-4-6.8-5.5m27.5-34a88.05 88.05 0 0 1-27.5 9.4v19.2a104.881 104.881 0 0 1 27.5-7.5z" fill="#36a34f"/></g><g clip-path="url(#a)"><path d="M155.712 156.965a103.714 103.714 0 0 0-27.5 7.5v5.3c1.7 1.5 4 3.4 6.8 5.5a73.434 73.434 0 0 1 8.4-1.8 71.18 71.18 0 0 0 10.8-7.7 19.196 19.196 0 0 0 1.5-1.4z" fill="#12692f"/></g><g clip-path="url(#a)"><path d="M135.012 175.265c-3 .8-5.8 1.7-8.5 2.7a20.276 20.276 0 0 1-1.3 1.8c-.6.8-1.1 1.5-1.6 2.1a104.582 104.582 0 0 0 13.4-5.2 14.29 14.29 0 0 1-2-1.4" fill="#188737"/></g><g clip-path="url(#a)"><path d="M143.412 173.365q-4.35.75-8.4 1.8l2.1 1.5a47.63 47.63 0 0 0 6.3-3.3" fill="#135728"/></g><g clip-path="url(#a)"><path d="M155.712 96.965c-1 1.3-2.1 2.6-3.2 3.8a81.286 81.286 0 0 1-24.4 18.4v22.6c1-.9 2-1.9 3.1-2.8a84.01 84.01 0 0 1 24.4-14.1v-16.3a1.75 1.75 0 0 0-.5-.1 9.248 9.248 0 0 0 .5-.9z" fill="#6fba6d"/></g><g clip-path="url(#a)"><path d="M155.712 107.565a9.243 9.243 0 0 1-.5.9 1.75 1.75 0 0 1 .5.1zm36.2-18.9a101.748 101.748 0 0 0-16.8 1.5v1a13.813 13.813 0 0 0 4.9 10.9 16.167 16.167 0 0 0 6 3.4 89.17 89.17 0 0 0 8.1-16.8h-2.2" fill="#188737"/></g><g clip-path="url(#a)"><path d="M155.712 124.865a81.505 81.505 0 0 0-24.4 14.1 41.207 41.207 0 0 0-3.1 2.8v3.5a88.05 88.05 0 0 0 27.5-9.4z" fill="#188737"/></g><g clip-path="url(#a)"><path d="M151.812 73.165a8.35 8.35 0 0 0-3.1.8l-23.1 11.3c-2.2 1.2-3.4 2.4-3.4 3.5v.6c0 1 1 2.8 3 5.3a12.3 12.3 0 0 1 3 7.7v12.5a73.9 73.9 0 0 1 27.5-19.2v-18.5a3.601 3.601 0 0 0-1.9-3.4 3.379 3.379 0 0 0-2-.6" fill="#36a34f"/></g><g clip-path="url(#a)"><path d="M155.712 95.665a73.9 73.9 0 0 0-27.5 19.2v4.2a84.293 84.293 0 0 0 24.4-18.4c1.1-1.3 2.2-2.5 3.2-3.8z" fill="#188737"/></g><g clip-path="url(#a)"><path d="M347.512 131.065c-7.2 7.9-18.7 18.2-33.8 23.8a58.134 58.134 0 0 1-7.8 2.4 93.416 93.416 0 0 1 10.6 1.6l25.5-14.5a9.992 9.992 0 0 0 6-9.5 15.828 15.828 0 0 0-.5-3.8" fill="#36a34f"/></g><g clip-path="url(#a)"><path d="M318.812 113.965a36.844 36.844 0 0 0-26.5 10.6 34.468 34.468 0 0 0-2.6 2.8 81.826 81.826 0 0 1 11.9-5.7 83.008 83.008 0 0 1 28.4-4.8c1.8 0 3.5.1 5.2.1a41.77 41.77 0 0 0-16.4-3" fill="#36a34f"/></g><g clip-path="url(#a)"><path d="M259.012 156.465a81.23 81.23 0 0 1-26.3 12.1v3.4a11.898 11.898 0 0 1-3.1 7.7c-2.1 2.5-3.1 4.4-3.1 5.6v.6c0 1.9 1.2 2.9 3.5 2.9h1c5.4-6.5 14.9-16.3 27.9-23.3z" fill="#a3ce94"/></g><g clip-path="url(#a)"><path d="M259.012 127.065a82.9 82.9 0 0 1-26.3 8.2v28c7.8-10.6 17.8-18.1 26.3-23.1zm16.7-11.5h-.3a73.276 73.276 0 0 1-14.2 10.4h14.5a3.174 3.174 0 0 0 2.5-1 3.74 3.74 0 0 0 1-2.5v-3.4a3.174 3.174 0 0 0-1-2.5 3.317 3.317 0 0 0-2.5-1" fill="#6fba6d"/></g><g clip-path="url(#a)"><path d="M259.012 140.265c-8.4 5-18.5 12.5-26.3 23.1v5.3a83.393 83.393 0 0 0 26.3-12.1z" fill="#53b047"/></g><g clip-path="url(#a)"><path d="M256.912 112.565a91.381 91.381 0 0 1-18.6 8.1c-1.7 1.9-3.5 3.8-5.5 5.7v6.2a62.322 62.322 0 0 1 6.2-5.1 79.453 79.453 0 0 1 25-12h-5.5a15.736 15.736 0 0 1-1.6-2.9m27.6-26.8h-.6a82.897 82.897 0 0 1-13.8 17.1c.3.2.5.5.8.7 1.9 1.5 4.6 2.2 8 2.2 3.2 0 5.6-.9 7.3-2.8a9.296 9.296 0 0 0 2.6-6.3 15.68 15.68 0 0 0-4.3-10.9" fill="#36a34f"/></g><g clip-path="url(#a)"><path d="M275.412 115.565h-11.5a82.798 82.798 0 0 0-25 12 62.324 62.324 0 0 0-6.2 5.1v2.6a82.9 82.9 0 0 0 26.3-8.2v-1.2h2.2a80.885 80.885 0 0 0 14.2-10.3" fill="#188737"/></g><g clip-path="url(#a)"><path d="M202.512 113.965a8.797 8.797 0 0 0-3.2.8l-18.8 9.2a94.358 94.358 0 0 1-4.5 11.6 11.82 11.82 0 0 1 2.8 7.4v3.9a70.303 70.303 0 0 1 6.8-7.8 79.023 79.023 0 0 1 20.5-14.4v-6.8a3.762 3.762 0 0 0-1.8-3.5 4.776 4.776 0 0 0-1.8-.4" fill="#6fba6d"/></g><g clip-path="url(#a)"><path d="M206.212 124.765a79.023 79.023 0 0 0-20.5 14.4 70.304 70.304 0 0 0-6.8 7.8v1.5a90.981 90.981 0 0 0 27.4-5.1z" fill="#188737"/></g><g clip-path="url(#a)"><path d="M180.512 123.965l-4.3 2.1c-2.3 1.1-3.5 2.3-3.5 3.5v.6c0 .9 1 2.6 3.1 5.1l.3.3c2-4.5 3.4-8.6 4.4-11.6" fill="#188737"/></g><g clip-path="url(#a)"><path d="M238.312 120.665c-1.7.5-3.4 1-5 1.4-.3 1.1-.6 2.4-1 3.8h.5v.5c2-1.9 3.8-3.8 5.5-5.7" fill="#188737"/></g><g clip-path="url(#a)"><path d="M233.312 122.165a94.763 94.763 0 0 1-13.3 2.5c.1.1.2.2.2.3a3.317 3.317 0 0 0 2.5 1h9.5c.5-1.4.8-2.7 1.1-3.8" fill="#155628"/></g><g clip-path="url(#a)"><path d="M346.912 163.565a3.688 3.688 0 0 0-2.6 1.2 15.944 15.944 0 0 1-6.3 4.8 20.945 20.945 0 0 1-8.9 1.9 19.355 19.355 0 0 1-11.7-3.6h-.1a104.431 104.431 0 0 1-18.7 17.2 38.24 38.24 0 0 0 20.5 5.4c9.1 0 16.5-2.6 22.2-7.9s8.7-10.5 8.9-15.6c.1-1.6-.5-2.7-1.9-3.1a2.717 2.717 0 0 0-1.4-.3" fill="#10672f"/></g><g clip-path="url(#a)"><path d="M317.212 167.765c0 .1.1 0 0 0" fill="#18411e"/></g><g clip-path="url(#a)"><path d="M306.012 134.165a103.413 103.413 0 0 1-14 1c-2.6 0-5-.1-7.2-.2a38.329 38.329 0 0 0-3.6 16.8 91.544 91.544 0 0 1 24.7-16.5c0-.5.1-.8.1-1.1m34.5-13.6a69.138 69.138 0 0 1-11.2 6.7c-1.5.7-3 1.4-4.5 2 .1.2.1.4.2.6a84.744 84.744 0 0 1 12.1-.8c3.5 0 6.9.2 10 .5a21.426 21.426 0 0 0-6.6-9" fill="#6fba6d"/></g><g clip-path="url(#a)"><path d="M337.112 128.965a84.742 84.742 0 0 0-12.1.8 21.8 21.8 0 0 1 1.3 7.4 8.762 8.762 0 0 1-4 7.8l-14.2 8.6a51.64 51.64 0 0 1-2.3-16.1 19.267 19.267 0 0 1 .1-2.4 90.818 90.818 0 0 0-24.7 16.5v.1a42.128 42.128 0 0 0 .4 6.2 87.006 87.006 0 0 1 14.9-1.2c3.4 0 6.5.2 9.5.4a58.131 58.131 0 0 0 7.8-2.4c15.1-5.6 26.6-15.9 33.8-23.8a8.8 8.8 0 0 0-.5-1.5c-3.1-.2-6.5-.4-10-.4" fill="#188737"/></g><g clip-path="url(#a)"><path d="M329.912 116.965a80.304 80.304 0 0 0-28.4 4.8 76.782 76.782 0 0 0-11.9 5.7 35.178 35.178 0 0 0-4.9 7.4c2.1.1 4.5.2 7.2.2a102.319 102.319 0 0 0 14-1 20.352 20.352 0 0 1 2.6-8.1c1.9-3.1 4.4-4.6 7.4-4.6 3.5 0 6 1.8 7.7 5.4a24.427 24.427 0 0 1 1 2.4c1.5-.6 3-1.3 4.5-2a69.139 69.139 0 0 0 11.2-6.7l-.2-.2a23 23 0 0 0-5.2-3.3c-1.4.1-3.2 0-5 0" fill="#188737"/></g><g clip-path="url(#a)"><path d="M264.412 77.165c-10.5 0-18.4 2.8-23.7 8.6a29.304 29.304 0 0 0-7.4 15.4h1.3a76.2 76.2 0 0 1 8.7-5.6 73.054 73.054 0 0 1 9.5-4.3v-.3c.5-4.3 2.4-6.4 5.9-6.4a5.185 5.185 0 0 1 4.6 2.2 14.802 14.802 0 0 1 .8 1.3 103.908 103.908 0 0 1 19.9-2.3.758.758 0 0 0 .2-.4c-.8-.8-1.6-1.6-2.5-2.4a26.592 26.592 0 0 0-17.3-5.8" fill="#6fba6d"/></g><g clip-path="url(#a)"><path d="M252.812 91.265a73.055 73.055 0 0 0-9.5 4.3 76.2 76.2 0 0 0-8.7 5.6 89.488 89.488 0 0 1 16.6 1.4 96.263 96.263 0 0 1-13 18.2 89.06 89.06 0 0 0 18.6-8.1 65.609 65.609 0 0 1-2.9-8.3 39.662 39.662 0 0 1-1.1-13.1m31.2-5.5a96.475 96.475 0 0 0-19.9 2.3 15.716 15.716 0 0 1 1.4 4 51.503 51.503 0 0 0 1.6 6.2 11.054 11.054 0 0 0 3.1 4.7 86.095 86.095 0 0 0 13.8-17.2" fill="#188737"/></g><g clip-path="url(#a)"><path d="M234.512 101.165h-1.2c-.1.4-.1.8-.2 1.2.5-.4 1-.8 1.6-1.2h-.2" fill="#31a936"/></g><g clip-path="url(#a)"><path d="M234.712 101.165c-.5.4-1 .8-1.6 1.2a49.164 49.164 0 0 0-.4 5.6v7.6h-9.9a3.174 3.174 0 0 0-2.5 1 3.74 3.74 0 0 0-1 2.5v.3a88.906 88.906 0 0 1 15.4-3.8s-.4 2.5-1.4 6.6c1.6-.4 3.3-.9 5-1.4a96.264 96.264 0 0 0 13-18.2 90.84 90.84 0 0 0-16.6-1.4" fill="#106f31"/></g><g clip-path="url(#a)"><path d="M234.712 115.565a86.627 86.627 0 0 0-15.4 3.8v3.1a3.775 3.775 0 0 0 .8 2.3 94.763 94.763 0 0 0 13.3-2.5c.9-4.2 1.3-6.7 1.3-6.7" fill="#155628"/></g><g clip-path="url(#a)"><path d="M263.612 180.265c-.9 1.5-1.9 3-2.9 4.5-1 1.4-2 2.8-3.1 4.1h6.2c2.3 0 3.5-1 3.5-2.9v-.6c0-1.1-1.2-2.9-3.7-5.1m51.6-12a84.224 84.224 0 0 1-16.2 1.5 104.76 104.76 0 0 1-14.6-1.1 33.864 33.864 0 0 0 7.4 11 31.24 31.24 0 0 0 6.1 4.9 106.327 106.327 0 0 1 17.3-16.3" fill="#36a34f"/></g><g clip-path="url(#a)"><path d="M305.912 157.165a85.332 85.332 0 0 1-20.6 2.4c-1.2 0-2.4 0-3.5-.1a39.077 39.077 0 0 0 2.6 9.2 105.98 105.98 0 0 0 14.6 1.1 84.224 84.224 0 0 0 16.2-1.5c.5-.3.9-.7 1.4-1a23.267 23.267 0 0 1-5-5.7l5-2.8a95.6 95.6 0 0 0-10.7-1.6" fill="#12692f"/></g><g clip-path="url(#a)"><path d="M259.012 165.665c-13 6.9-22.5 16.8-27.9 23.3h26.4c1.1-1.3 2.1-2.7 3.1-4.1 1-1.5 2-3 2.9-4.5a2.18 2.18 0 0 0-.5-.4c-2.8-2.5-4.1-5.1-4.1-7.7v-6.6" fill="#1e9938"/></g><g clip-path="url(#a)"><path d="M317.112 167.865c-.7.1-1.3.3-2 .4a107.39 107.39 0 0 0-17.4 16.4c.2.1.4.3.6.4a98.919 98.919 0 0 0 18.8-17.2" fill="#10672f"/></g><g clip-path="url(#a)"><path d="M316.612 167.265c-.5.3-.9.7-1.4 1 .7-.1 1.3-.3 2-.4a.098.098 0 0 1 .1-.1 4.235 4.235 0 0 1-.7-.5" fill="#10672f"/></g><g clip-path="url(#a)"><path d="M296.512 156.765a87.006 87.006 0 0 0-14.9 1.2c.1.5.1 1.1.2 1.6 1.1 0 2.3.1 3.5.1a84.228 84.228 0 0 0 20.6-2.4 69.317 69.317 0 0 0-9.4-.5" fill="#135728"/></g><path d="M133.612 236.565h-4.1v-7.9l-7.3-12.6h4.6l4.8 8.9 4.6-8.9h4.5l-7.3 12.6zm28.9-10.2c0 6.4-3.8 10.7-10.1 10.7s-10.1-4.3-10.1-10.7c0-6.5 3.8-10.7 10.1-10.7 6.2 0 10.1 4.2 10.1 10.7zm-4.3 0c0-4.8-2.2-7.6-5.8-7.6-3.7 0-5.9 2.8-5.9 7.6s2.2 7.6 5.9 7.6c3.6 0 5.8-2.8 5.8-7.6zm24.8 1.9a19.269 19.269 0 0 1-.1 2.4c-.3 3.4-2.6 6.4-8.4 6.4s-8.1-2.9-8.4-6.4a20.082 20.082 0 0 1-.1-2.4v-12.1h4.1v12.6a7.083 7.083 0 0 0 .1 1.5c.2 2.4 1.6 3.8 4.3 3.8s4.1-1.5 4.3-3.8a7.082 7.082 0 0 0 .1-1.5v-12.6h4.1zm20.9 8.3h-4.5a17.52 17.52 0 0 1-1-4.6c-.3-2.2-1.1-3.5-2.8-3.6h-4v8.3h-4.1v-20.5h7.5a28.121 28.121 0 0 1 3 .1c3 .4 5.4 1.9 5.4 5.4a5.039 5.039 0 0 1-4 5c2 .8 2.8 2.5 3 4.8.2 2.4.6 4 1.5 5.1zm-9.4-11.3h1.7a2.782 2.782 0 0 0 2.9-2.9 2.682 2.682 0 0 0-2.7-2.9 8.621 8.621 0 0 0-1.7-.1h-3v6h2.8zm41.2 11.3h-4.5a17.52 17.52 0 0 1-1-4.6c-.3-2.2-1.1-3.5-2.8-3.6h-4v8.3h-4.1v-20.5h7.5a28.121 28.121 0 0 1 3 .1c3 .4 5.4 1.9 5.4 5.4a5.039 5.039 0 0 1-4 5c2 .8 2.8 2.5 3 4.8.3 2.4.7 4 1.5 5.1zm-9.4-11.3h1.7a2.782 2.782 0 0 0 2.9-2.9 2.682 2.682 0 0 0-2.7-2.9 8.621 8.621 0 0 0-1.7-.1h-3v6h2.8zm27.6 11.3h-14.8v-20.5h14.5v3.2h-10.4v5.4h9.7v3.2h-9.7v5.4h10.7zm21.5-13.8v.3h-4.1l-.1-.3a4.47 4.47 0 0 0-4.8-4c-3.3 0-5.5 2.8-5.5 7.5 0 5.1 2.4 7.7 5.5 7.7 2.7 0 4.2-1.6 4.8-4.2l.1-.3h4.1v.3c-.5 4.4-3.8 7.2-9 7.2-5.7 0-9.6-4-9.6-10.5 0-6.7 4.3-10.8 9.9-10.8 5.4 0 8.3 3 8.7 7.1zm4 13.8v-20.5h4.1v20.5zm24.5-14.1a5.925 5.925 0 0 1-5.5 6.2 28.121 28.121 0 0 1-3 .1h-3v7.7h-4.1v-20.5h7.1a28.124 28.124 0 0 1 3 .1 6.11 6.11 0 0 1 5.5 6.4zm-4.3 0a2.773 2.773 0 0 0-2.4-3.1 9.722 9.722 0 0 0-1.8-.1h-2.9v6.3h2.9a9.183 9.183 0 0 0 1.8-.1c1.4-.1 2.4-1.1 2.4-3zm22.4 14.1h-14.8v-20.5h14.5v3.2h-10.4v5.4h9.7v3.2h-9.7v5.4h10.7zm20-11.9h9.4v3.2h-9.4v8.6h-4.1v-20.5h14.5v3.2h-10.4zm32.9 1.7c0 6.4-3.8 10.7-10.1 10.7s-10.1-4.3-10.1-10.7c0-6.5 3.8-10.7 10.1-10.7s10.1 4.2 10.1 10.7zm-4.3 0c0-4.8-2.2-7.6-5.8-7.6-3.7 0-5.9 2.8-5.9 7.6s2.2 7.6 5.9 7.6c3.6 0 5.8-2.8 5.8-7.6zm24.6 10.2h-4.5a17.52 17.52 0 0 1-1-4.6c-.3-2.2-1.1-3.5-2.8-3.6h-4v8.3h-4.1v-20.5h7.5a28.121 28.121 0 0 1 3 .1c3 .4 5.4 1.9 5.4 5.4a5.039 5.039 0 0 1-4 5c2 .8 2.8 2.5 3 4.8.3 2.4.7 4 1.5 5.1zm-9.4-11.3h1.7a2.782 2.782 0 0 0 2.9-2.9 2.682 2.682 0 0 0-2.7-2.9 8.621 8.621 0 0 0-1.7-.1h-3v6h2.8zm29.1 5.1l-2 6.2h-4.4l7.4-20.5h5.1l7.3 20.5h-4.5l-2-6.2zm1.1-3.2h4.8l-2.4-7.6zm45 9.4h-4.1v-8.4h-9.6v8.4h-4.1v-20.5h4.1v8.8h9.6v-8.8h4.1zm19.7 0h-14.8v-20.5h14.5v3.2h-10.4v5.4h9.7v3.2h-9.7v5.4h10.7zm8-6.2l-2 6.2h-4.4l7.4-20.5h5.1l7.3 20.5h-4.5l-2-6.2zm1-3.2h4.8l-2.4-7.6zm29.9 9.4h-14.8v-20.5h4.1v17.1h10.7zm8.6-17.3v17.3h-4.1v-17.3h-7v-3.2h18v3.2zm27.5 17.3h-4.1v-8.4h-9.6v8.4h-4.1v-20.5h4.1v8.8h9.6v-8.8h4.1zm4.9 0v-20.5h4.1v20.5zm23.7 0h-14.8v-20.5h14.5v3.2h-10.4v5.4h9.7v3.2h-9.7v5.4h10.7zm20.2 0h-4.5a17.52 17.52 0 0 1-1-4.6c-.3-2.2-1.1-3.5-2.8-3.6h-4v8.3h-4.1v-20.5h7.5a28.121 28.121 0 0 1 3 .1c3 .4 5.4 1.9 5.4 5.4a5.039 5.039 0 0 1-4 5c2 .8 2.8 2.5 3 4.8.3 2.4.7 4 1.5 5.1zm-9.4-11.3h1.7a2.782 2.782 0 0 0 2.9-2.9 2.682 2.682 0 0 0-2.7-2.9 8.621 8.621 0 0 0-1.7-.1h-3v6h2.8zm39.7 11.3h-14.8v-20.5h4.1v17.1h10.7zm3.5 0v-20.5h4.1v20.5zm13-11.9h9.4v3.2h-9.4v8.6h-4.1v-20.5h14.5v3.2h-10.4zm28.7 11.9h-14.8v-20.5h14.5v3.2h-10.4v5.4h9.7v3.2h-9.7v5.4h10.7z" fill="#12692f"/></svg>