<svg viewBox="0 0 96 96" fill="none" xmlns="http://www.w3.org/2000/svg"><path fill-rule="evenodd" clip-rule="evenodd" d="M71.56 30.495l.354-3.183.976-8.658c1.952-.17 3.494-1.84 3.494-3.82A3.837 3.837 0 0 0 72.55 11H23.162a3.843 3.843 0 0 0-3.834 3.82 3.844 3.844 0 0 0 3.495 3.82l1.33 11.84c.056.468.17.906.353 1.317h-4.485a4.15 4.15 0 0 0-4.145 4.145 4.163 4.163 0 0 0 3.962 4.145l1.485 13.227a4.85 4.85 0 0 0 .495 1.67h-5.32A4.501 4.501 0 0 0 12 59.483c0 2.122 1.542 4.371 4.414 4.499l1.726 15.264A5.346 5.346 0 0 0 23.46 84h48.807a5.357 5.357 0 0 0 5.32-4.754l1.712-15.264c2.871-.128 4.414-2.377 4.414-4.5a4.501 4.501 0 0 0-4.5-4.498h-5.319a4.85 4.85 0 0 0 .495-1.67l1.486-13.213a4.153 4.153 0 0 0 3.961-4.145 4.15 4.15 0 0 0-4.145-4.145h-4.485a4.79 4.79 0 0 0 .354-1.316zM58 68a2 2 0 0 0 2-2v-1H36v1a2 2 0 0 0 2 2h20zm-6-48h-8v1a2 2 0 0 0 2 2h4a2 2 0 0 0 2-2v-1zm4 21H40v1a2 2 0 0 0 2 2h12a2 2 0 0 0 2-2v-1z" fill="#CDF7CA"/><path fill-rule="evenodd" clip-rule="evenodd" d="M71.914 27.312l-.354 3.183c-.056.453-.17.891-.354 1.316h4.485a4.15 4.15 0 0 1 4.145 4.145 4.153 4.153 0 0 1-3.961 4.145l-1.486 13.214a4.85 4.85 0 0 1-.495 1.669h5.32a4.501 4.501 0 0 1 4.499 4.499c0 2.122-1.542 4.371-4.414 4.499l-1.712 15.264A5.357 5.357 0 0 1 72.267 84H23.46a5.346 5.346 0 0 1-5.32-4.754l-1.725-15.264c-2.872-.128-4.414-2.377-4.414-4.5a4.501 4.501 0 0 1 4.499-4.498h5.32a4.85 4.85 0 0 1-.496-1.67l-1.485-13.227a4.163 4.163 0 0 1-3.962-4.145 4.15 4.15 0 0 1 4.146-4.145h4.484a4.52 4.52 0 0 1-.354-1.316l-1.33-11.841a3.844 3.844 0 0 1-3.494-3.82A3.843 3.843 0 0 1 23.162 11H72.55a3.837 3.837 0 0 1 3.834 3.834c0 1.98-1.542 3.65-3.494 3.82l-.976 8.658zm.353 54a2.663 2.663 0 0 0 2.646-2.363l1.684-14.967H63V66a5 5 0 0 1-5 5H38a5 5 0 0 1-5-5v-2.018H19.13l1.684 14.967a2.663 2.663 0 0 0 2.645 2.363h48.808zm-2.956-54.976l.863-7.668H55V21a5 5 0 0 1-5 5h-4a5 5 0 0 1-5-5v-2.332H25.539l1.301 11.53c.1.92.878 1.613 1.797 1.613h38.438c.92 0 1.698-.694 1.797-1.613l.354-3.183.085-.68zM16.499 57.672c-1.005 0-1.811.82-1.811 1.81 0 1.005.82 1.812 1.81 1.812h62.716c1.004 0 1.81-.82 1.81-1.811 0-1.005-.82-1.811-1.81-1.811H16.499zm7.512-4.655a2.217 2.217 0 0 0 2.193 1.967h43.319a2.206 2.206 0 0 0 2.193-1.967l1.457-12.916H59V42a5 5 0 0 1-5 5H42a5 5 0 0 1-5-5v-1.899H22.554l1.457 12.916zm-3.975-18.533c-.807 0-1.458.651-1.458 1.458 0 .396.156.75.425 1.032a1.42 1.42 0 0 0 1.033.425H75.69c.806 0 1.457-.65 1.457-1.457s-.65-1.458-1.457-1.458H20.036zm3.126-20.796c-.636 0-1.146.51-1.146 1.146 0 .636.51 1.146 1.146 1.146H72.55c.637 0 1.146-.51 1.146-1.146a1.14 1.14 0 0 0-1.146-1.146H23.162zM52 20h-8v1a2 2 0 0 0 2 2h4a2 2 0 0 0 2-2v-1zm4 21H40v1a2 2 0 0 0 2 2h12a2 2 0 0 0 2-2v-1zM36 65h24v1a2 2 0 0 1-2 2H38a2 2 0 0 1-2-2v-1z" fill="#34A34F"/></svg>