<svg viewBox="0 0 52 40" fill="none" xmlns="http://www.w3.org/2000/svg">
<rect width="52" height="40" fill="#F5F6F7"/>
<path d="M29 17.0002C29.5523 17.0002 30 16.5524 30 16.0002C30 15.4479 29.5523 15.0002 29 15.0002C28.4477 15.0002 28 15.4479 28 16.0002C28 16.5524 28.4477 17.0002 29 17.0002Z" fill="#E1E3E6"/>
<path d="M20.5 21.7502C20.0858 21.7502 19.75 22.0859 19.75 22.5002C19.75 22.9144 20.0858 23.2502 20.5 23.2502H32C32.4142 23.2502 32.75 22.9144 32.75 22.5002C32.75 22.0859 32.4142 21.7502 32 21.7502H20.5Z" fill="#E1E3E6"/>
<path fill-rule="evenodd" clip-rule="evenodd" d="M20.6708 8.66475C20.4856 8.29427 20.0351 8.1441 19.6646 8.32934C19.2941 8.51459 19.1439 8.96509 19.3292 9.33557L21.1173 12.9117C20.2054 13.3323 19.4583 14.049 18.999 14.9385L16.5303 12.4698C16.2374 12.1769 15.7626 12.1769 15.4697 12.4698C15.1768 12.7627 15.1768 13.2376 15.4697 13.5305L18.0395 16.1003C17.3781 16.5484 16.8781 17.2168 16.6449 18.0002H16C15.4477 18.0002 15 18.4479 15 19.0002V21.0002C15 21.3787 15.2103 21.7081 15.5205 21.8779C15.7627 22.0105 15.9981 22.2246 16.0176 22.5C16.2257 25.45 18.2618 27.8953 21 28.7103V29.0002C21 29.5524 21.4477 30.0002 22 30.0002H30C30.5523 30.0002 31 29.5524 31 29.0002V28.7103C33.7382 27.8953 35.7743 25.45 35.9824 22.5C36.0019 22.2246 36.2373 22.0105 36.4795 21.8779C36.7897 21.7081 37 21.3787 37 21.0002V19.0002C37 18.4479 36.5523 18.0002 36 18.0002H35.3885C35.0982 16.7205 34.2627 15.6493 33.1405 15.0413C32.3511 12.9712 30.3487 11.5002 28 11.5002C26.6703 11.5002 25.4508 11.9729 24.5008 12.7569C24.0309 12.5907 23.5254 12.5002 23 12.5002C22.8643 12.5002 22.73 12.5062 22.5974 12.5179L20.6708 8.66475ZM19.1354 17.1962C18.7715 17.3709 18.4687 17.6524 18.2676 18.0002H19.9393L19.1354 17.1962ZM22.059 18.0002H24C24 17.4479 24.4477 17.0002 25 17.0002C25.5523 17.0002 26 17.4479 26 18.0002H33.8293C33.5172 17.117 32.8033 16.4237 31.9072 16.1398C31.5136 14.3442 29.9138 13.0002 28 13.0002C26.6915 13.0002 25.5297 13.6285 24.7999 14.5999C24.2985 14.2233 23.6753 14.0002 23 14.0002C21.6632 14.0002 20.5307 14.8745 20.143 16.0825L22.0303 17.9698C22.0402 17.9797 22.0498 17.9898 22.059 18.0002ZM30.5721 27.2726L29.5 27.5917V28.5002H22.5V27.5917L21.4279 27.2726C19.2759 26.6321 17.6771 24.7083 17.5139 22.3945C17.453 21.5327 16.8992 20.9998 16.5 20.7226V19.5002H35.5V20.7226C35.1008 20.9998 34.547 21.5327 34.4861 22.3945C34.3229 24.7083 32.7241 26.6321 30.5721 27.2726Z" fill="#E1E3E6"/>
</svg>
