<svg viewBox="0 0 80 80" fill="none" xmlns="http://www.w3.org/2000/svg"><path d="M39.106 8.447a2 2 0 0 1 1.788 0L72 24 40 40 8 24 39.106 8.447z" fill="#CDF7CA"/><path d="M38.553 8.724A1 1 0 0 1 40 9.618V40L8 24 38.553 8.724z" fill="#5FD16F"/><path fill-rule="evenodd" clip-rule="evenodd" d="M8 24L38.211 8.894a4 4 0 0 1 3.578 0L72 24l4.211 8.422a4 4 0 0 1-1.789 5.367L72 39v16.528a4 4 0 0 1-2.211 3.578l-28 14a4 4 0 0 1-3.578 0l-28-14a4 4 0 0 1-2.21-3.578V39l-2.423-1.211a4 4 0 0 1-1.79-5.367L8 24zm31.553-12.422a1 1 0 0 1 .894 0l28.199 14.1L40 40 11.354 25.677l28.199-14.1zm1.775 31.077a4 4 0 0 1-2.656 0l-2.883 5.767a4 4 0 0 1-5.367 1.79L11 40.5v15.028a1 1 0 0 0 .553.894L38.5 69.896V56a1.5 1.5 0 1 1 3 0v13.896l26.947-13.474a1 1 0 0 0 .553-.894V40.5l-19.422 9.711a4 4 0 0 1-5.367-1.789l-2.883-5.767zm-5.353-1.313L9.342 28.025l-2.87 5.739a1 1 0 0 0 .447 1.342l24.845 12.422a1 1 0 0 0 1.342-.447l2.87-5.74zm8.05 0l2.87 5.739a1 1 0 0 0 1.341.447l24.845-12.422a1 1 0 0 0 .447-1.342l-2.87-5.74-26.633 13.318z" fill="#34A34F"/></svg>