<svg viewBox="0 0 80 80" fill="none" xmlns="http://www.w3.org/2000/svg"><path d="M12.8 16C9.044 16 6 18.97 6 22.632v22.736C6 49.031 9.044 52 12.8 52h15.54a12.016 12.016 0 0 1-.969-4.737c0-6.802 5.654-12.316 12.629-12.316s12.629 5.514 12.629 12.316c0 1.679-.345 3.279-.968 4.737H67.2c3.755 0 6.8-2.97 6.8-6.632V22.632C74 18.969 70.956 16 67.2 16H12.8z" fill="#CDF7CA"/><path d="M68 17H12a5 5 0 0 0-5 5v24a5 5 0 0 0 5 5h8.5a1.5 1.5 0 0 1 0 3H12a8 8 0 0 1-8-8V22a8 8 0 0 1 8-8h56a8 8 0 0 1 8 8v24a8 8 0 0 1-8 8h-8.5a1.5 1.5 0 0 1 0-3H68a5 5 0 0 0 5-5V22a5 5 0 0 0-5-5z" fill="#34A34F"/><path fill-rule="evenodd" clip-rule="evenodd" d="M40 62c3.326 0 6.38-1.16 8.782-3.096l7.157 7.157a1.5 1.5 0 0 0 2.122-2.122l-7.157-7.157A13.941 13.941 0 0 0 54 48c0-7.732-6.268-14-14-14s-14 6.268-14 14 6.268 14 14 14zm0-3c6.075 0 11-4.925 11-11s-4.925-11-11-11-11 4.925-11 11 4.925 11 11 11z" fill="#34A34F"/></svg>