<svg viewBox="0 0 96 96" fill="none" xmlns="http://www.w3.org/2000/svg"><path fill-rule="evenodd" clip-rule="evenodd" d="M68.963 59.78l-2.028 13.66c-5.153-5.119-35.837-5.119-40.99 0l-2.028-13.66a16.132 16.132 0 0 1-5.494-1.38 16.04 16.04 0 0 1-5.441-4.01 15.91 15.91 0 0 1-3.291-5.883 15.84 15.84 0 0 1 1.729-13.044 15.986 15.986 0 0 1 4.711-4.837 16.107 16.107 0 0 1 9.59-2.672 21.22 21.22 0 0 1 5.591-9.73A21.467 21.467 0 0 1 46.44 12a21.47 21.47 0 0 1 15.128 6.225 21.219 21.219 0 0 1 5.59 9.73 16.149 16.149 0 0 1 9.59 2.671c1.9 1.26 3.506 2.91 4.712 4.837a15.84 15.84 0 0 1 1.729 13.044 15.91 15.91 0 0 1-3.29 5.883 16.04 16.04 0 0 1-5.442 4.01 16.132 16.132 0 0 1-5.494 1.38z" fill="#CDF7CA"/><path d="M46.44 37.92c-1.114 0-1.994 1.453-1.915 3.161l.81 20.218c.042.89.524 1.581 1.105 1.581.58 0 1.063-.69 1.104-1.58l.811-20.218c.08-1.709-.8-3.162-1.915-3.162zm-13.045 3.668c-1.219.215-1.94 1.76-1.567 3.363l3.8 16.362c.194.836.836 1.396 1.472 1.284.636-.112 1.048-.858.944-1.71L36.02 44.212c-.199-1.633-1.404-2.84-2.624-2.624zm23.493 2.439c.199-1.633 1.404-2.84 2.624-2.624 1.219.215 1.94 1.76 1.567 3.363l-3.8 16.362c-.193.836-.836 1.396-1.472 1.284-.635-.112-1.048-.859-.944-1.71l2.025-16.675z" fill="#34A34F"/><path fill-rule="evenodd" clip-rule="evenodd" d="M61.374 18.186a21.12 21.12 0 0 1 5.54 9.747c.182-.087.385-.139.6-.145a16.44 16.44 0 0 1 9.613 2.752 16.394 16.394 0 0 1 4.818 4.97 16.36 16.36 0 0 1-1.598 19.451 16.405 16.405 0 0 1-11.419 5.553l-1.88 20a5.5 5.5 0 0 1-5.476 4.986H31.308a5.5 5.5 0 0 1-5.476-4.985l-1.88-20.003a16.525 16.525 0 0 1-5.822-1.43 16.455 16.455 0 0 1-5.583-4.119 16.358 16.358 0 0 1-3.378-6.046 16.304 16.304 0 0 1 1.775-13.41 16.416 16.416 0 0 1 4.834-4.968 16.505 16.505 0 0 1 10.219-2.724 21.12 21.12 0 0 1 35.377-9.63zm-27.747 2.121A18.12 18.12 0 0 1 64.56 33.12a1.5 1.5 0 1 0 3 0c0-.785-.044-1.566-.13-2.339.058.005.116.007.175.005a13.438 13.438 0 0 1 7.857 2.25 13.391 13.391 0 0 1 3.937 4.06 13.362 13.362 0 0 1-5.853 19.25 13.432 13.432 0 0 1-5.534 1.194c-.074 0-.146.005-.217.016l-1.588-.15-1.317 14.012a72.406 72.406 0 0 0-36.897.031l-1.32-14.043-1.558.147a1.517 1.517 0 0 0-.195-.013c-1.917 0-3.812-.407-5.558-1.194a13.451 13.451 0 0 1-4.564-3.367 13.356 13.356 0 0 1-2.76-4.937 13.303 13.303 0 0 1 1.45-10.945 13.415 13.415 0 0 1 3.95-4.06 13.507 13.507 0 0 1 8.01-2.247c-.085.77-.128 1.548-.128 2.33a1.5 1.5 0 1 0 3 0 18.12 18.12 0 0 1 5.307-12.813zM28.213 73.79l.606 6.445a2.5 2.5 0 0 0 2.49 2.266h30.263a2.5 2.5 0 0 0 2.489-2.266l.544-5.787a69.407 69.407 0 0 0-36.214.001l-.178-.659z" fill="#34A34F"/></svg>