<svg viewBox="0 0 36 36" fill="none" xmlns="http://www.w3.org/2000/svg"><path fill-rule="evenodd" clip-rule="evenodd" d="M30.893 9.383a.5.5 0 0 1 .69.16 16 16 0 1 1-27.186.034.5.5 0 0 1 .85.526 15 15 0 1 0 25.486-.032.5.5 0 0 1 .16-.688z" fill="#484A4D"/><path d="M10.441 9.782l-.522-.497.43-.451c.1-.105.171-.207.215-.307a.492.492 0 0 0 .042-.308 1.022 1.022 0 0 0-.137-.353l-2.101-3.52.545-.572 2.18 3.72c.138.234.22.457.245.667a1.12 1.12 0 0 1-.09.611 2.096 2.096 0 0 1-.42.605l-.387.405zm-.329-1.918l-.481-.458.56-.588.481.458-.56.588zm-.14.147L6.417 6.395l.575-.603 3.516 1.657-.536.562zm4.161-2.418c-.3.13-.583.192-.85.186a1.696 1.696 0 0 1-.721-.168 2.003 2.003 0 0 1-.57-.432 2.33 2.33 0 0 1-.387-.61l-.053-.122a2.284 2.284 0 0 1-.181-.7c-.02-.245.004-.482.072-.71.067-.233.186-.445.358-.636.173-.198.403-.359.69-.483.373-.162.718-.216 1.037-.16.32.054.597.185.835.392.236.203.418.454.549.754l.13.302-3.068 1.333-.22-.507 2.561-1.113-.094.346a1.622 1.622 0 0 0-.368-.55.912.912 0 0 0-.491-.252 1.026 1.026 0 0 0-.595.09 1.052 1.052 0 0 0-.491.397 1 1 0 0 0-.15.569c.005.211.06.439.167.683.1.231.227.423.38.575.15.148.326.243.527.283.198.035.418.001.657-.103.24-.104.415-.24.524-.41.108-.174.148-.34.12-.496l.7-.304a1.522 1.522 0 0 1-.384 1.381 2.032 2.032 0 0 1-.684.465zm5.018-.673l.013-1.128-.133-.001.014-1.274c.003-.233-.056-.411-.176-.534-.12-.123-.299-.186-.537-.188a14.9 14.9 0 0 0-.903.018c-.15.003-.282.008-.399.016l.008-.707c.103-.008.215-.014.336-.017a10.084 10.084 0 0 1 .77-.02c.383.005.7.057.95.158.252.101.436.26.555.476.124.211.184.494.18.849l-.027 2.359-.65-.008zm-1.226.083a1.729 1.729 0 0 1-.72-.148 1.1 1.1 0 0 1-.47-.425 1.268 1.268 0 0 1-.16-.667c.002-.27.068-.494.196-.67a1.17 1.17 0 0 1 .557-.393 2.45 2.45 0 0 1 .856-.123l.944.01-.006.54-.965-.011c-.248-.003-.438.056-.57.175a.59.59 0 0 0-.2.46.59.59 0 0 0 .19.464c.13.114.318.172.565.175a1.12 1.12 0 0 0 .414-.073.726.726 0 0 0 .325-.269c.09-.125.141-.302.153-.53l.207.275a1.582 1.582 0 0 1-.204.67c-.104.176-.25.312-.438.408a1.46 1.46 0 0 1-.674.132zm4.59 1.183c-.466-.203-.787-.46-.962-.77-.17-.31-.187-.64-.049-.992l.693.303c-.047.132-.032.278.045.44.077.16.257.302.54.426.24.104.448.14.626.105.178-.035.297-.122.359-.264a.381.381 0 0 0-.022-.368c-.065-.12-.212-.245-.44-.375l-.326-.18c-.338-.194-.575-.422-.71-.685-.13-.26-.133-.536-.006-.827.101-.23.244-.4.428-.508.185-.108.396-.161.635-.159.242.004.496.064.761.18.41.179.702.415.874.71.174.289.19.611.045.966l-.687-.3a.488.488 0 0 0-.04-.415c-.077-.14-.228-.26-.455-.358-.214-.094-.397-.123-.55-.087a.432.432 0 0 0-.31.254.373.373 0 0 0 .006.338c.056.106.175.212.358.317l.326.18c.37.213.631.456.781.73.157.272.168.562.033.87a1.04 1.04 0 0 1-.44.503 1.334 1.334 0 0 1-.69.165 2.177 2.177 0 0 1-.823-.199zm3.35 2.601a2.18 2.18 0 0 1-.467-.65.928.928 0 0 1-.037-.654c.07-.221.23-.455.479-.7l2.502-2.479.546.553-2.551 2.526c-.14.138-.211.282-.215.43.003.149.071.29.206.427l.443.447-.507.503-.4-.403zm.825-3.723l.432-.429 1.852 1.87-.432.429-1.852-1.87zM15.317 24A1.312 1.312 0 0 1 14 22.683v-6.146c0-.761.41-1.186.717-1.478.146-.147.263-.264.351-.425h-.629a.431.431 0 0 1-.439-.439V12.44a.43.43 0 0 1 .439-.439h7.61c.117 0 .234.044.307.132.088.073.132.19.132.307v1.756c0 .249-.19.44-.44.44h-.628c.087.145.204.277.35.424.308.292.718.717.718 1.478v6.146c0 .732-.586 1.317-1.317 1.317h-5.854zm-.439-1.317c0 .249.19.439.44.439h5.853c.248 0 .439-.19.439-.44v-2.194h-6.732v2.195zm6.732-3.073v-1.464h-6.732v1.464h6.732zm0-2.342v-.732c0-.41-.176-.585-.454-.863-.249-.249-.541-.541-.658-1.039h-4.493c-.117.498-.424.79-.659 1.04-.292.277-.468.453-.468.863v.731h6.732zm0-3.512v-.878h-6.732v.878h6.732z" fill="#484A4D"/></svg>