<svg viewBox="0 0 36 36" fill="none" xmlns="http://www.w3.org/2000/svg"><path fill-rule="evenodd" clip-rule="evenodd" d="M6.528 7.565a.5.5 0 0 1 .056.705 15 15 0 1 0 22.935.122.5.5 0 1 1 .768-.64 16 16 0 1 1-24.464-.13.5.5 0 0 1 .705-.057z" fill="#484A4D"/><path d="M10.566 6.104c-.474.183-.883.226-1.226.129-.338-.1-.582-.323-.732-.67l.705-.273c.06.127.173.22.342.28.168.06.396.035.683-.076.244-.094.417-.216.519-.366.102-.15.125-.296.07-.44a.381.381 0 0 0-.275-.246c-.13-.04-.323-.025-.577.043l-.359.101c-.376.1-.704.105-.985.013-.276-.093-.472-.287-.586-.583a1.051 1.051 0 0 1-.054-.663 1.22 1.22 0 0 1 .34-.559c.175-.168.397-.304.667-.408.418-.162.791-.199 1.12-.11.328.083.565.301.712.655l-.698.27a.488.488 0 0 0-.321-.266c-.153-.046-.345-.025-.575.065-.218.084-.369.192-.453.325a.432.432 0 0 0-.04.398.37.37 0 0 0 .241.237c.114.036.273.027.477-.027l.36-.101c.412-.11.768-.12 1.068-.03.302.082.514.28.635.594.088.226.101.449.04.667-.06.219-.185.42-.374.603a2.177 2.177 0 0 1-.724.438zm3.729-.949c-.435.087-.797.014-1.086-.218-.29-.237-.49-.63-.6-1.18l-.43-2.14.804-.162.45 2.252c.052.256.164.445.336.568.17.118.378.153.62.104a.833.833 0 0 0 .557-.354c.129-.192.165-.426.11-.7l-.44-2.197.803-.16.741 3.7-.638.127-.316-1.579.082-.016c.074.37.086.692.036.964a1.178 1.178 0 0 1-.32.649c-.162.166-.387.277-.675.335l-.034.007zm4.475 1.014a7.027 7.027 0 0 1-1.05-.06l-.013-.692c.169.02.346.036.533.047.192.015.37.022.533.019.326-.006.587-.052.781-.14.2-.087.342-.22.428-.399.09-.174.133-.401.128-.681l-.012-.728.208-.508c-.008.364-.08.671-.215.921-.132.25-.31.44-.537.57-.221.13-.477.196-.766.201a1.7 1.7 0 0 1-.717-.134 1.609 1.609 0 0 1-.56-.404 1.94 1.94 0 0 1-.367-.603 2.172 2.172 0 0 1-.139-.74l-.002-.132a2.134 2.134 0 0 1 .113-.744c.085-.23.205-.431.36-.602a1.64 1.64 0 0 1 .561-.408c.222-.097.467-.148.733-.153.308-.005.58.058.815.19.24.126.43.316.57.57.14.255.217.566.233.935l-.182.024-.028-1.624.651-.011.057 3.324c.008.458-.06.828-.205 1.11-.14.287-.367.499-.682.635-.31.136-.72.208-1.229.217zm.208-2.181c.205-.003.391-.051.558-.143.17-.096.304-.229.399-.398.1-.175.148-.381.143-.619l-.005-.287a1.026 1.026 0 0 0-.17-.585 1.002 1.002 0 0 0-.413-.364 1.204 1.204 0 0 0-.548-.117 1.103 1.103 0 0 0-.99.62c-.09.188-.134.408-.13.66.005.256.058.48.16.669.1.185.236.327.406.427.174.095.37.14.59.137zm5.29 1.218l.095-1.123-.132-.012.108-1.269c.02-.232-.026-.414-.136-.545-.11-.132-.285-.207-.522-.227a14.897 14.897 0 0 0-.902-.05 8.313 8.313 0 0 0-.4-.012l.06-.704c.104-.001.216.001.337.007a10.079 10.079 0 0 1 .77.037c.381.033.693.109.936.228.243.119.415.29.518.514.108.22.147.507.117.86l-.2 2.35-.649-.054zM23.039 5.2a1.728 1.728 0 0 1-.706-.201 1.1 1.1 0 0 1-.44-.459 1.269 1.269 0 0 1-.11-.677c.023-.27.104-.487.245-.653.145-.166.34-.283.585-.351a2.45 2.45 0 0 1 .862-.06l.942.08-.046.537-.962-.082c-.247-.02-.44.024-.58.133a.59.59 0 0 0-.235.444.59.59 0 0 0 .156.477c.12.123.304.195.55.216a1.12 1.12 0 0 0 .419-.042.727.727 0 0 0 .344-.245c.099-.118.162-.29.191-.518l.186.29c-.046.263-.13.481-.252.653a1.059 1.059 0 0 1-.467.375c-.19.078-.417.105-.682.083zm2.891.72l1.208-3.575.617.208-.504 1.492-.027-.009c.174-.512.416-.857.726-1.033.313-.18.69-.195 1.132-.046l.126.043-.231.683-.239-.081c-.336-.113-.625-.11-.868.01-.236.117-.41.341-.523.673l-.64 1.896-.776-.262z" fill="#484A4D"/><path fill-rule="evenodd" clip-rule="evenodd" d="M15 13.5l3-1.5 3 1.5V17l3 1.5v4L21 24l-3-1.5-3 1.5-3-1.5v-4l3-1.5v-3.5zm1.1.55l1.9-.95 1.9.95L18 15l-1.9-.95zM16 15.1l1.5.771v1.83l-1.5-.8v-1.8zm4 .01l-1.5.74v1.85l1.5-.8v-1.79zm-5 2.99l-1.9.95L15 20l1.9-.95-1.9-.95zm-.5 2.771l-1.5-.77v1.8l1.5.8v-1.83zm1-.02l1.5-.74v1.79l-1.5.8v-1.85zM21 18.1l-1.9.95L21 20l1.9-.95-1.9-.95zm-.5 2.77L19 20.1v1.8l1.5.8v-1.83zm1-.02l1.5-.74v1.79l-1.5.8v-1.85z" fill="#484A4D"/></svg>