<svg viewBox="0 0 36 36" fill="none" xmlns="http://www.w3.org/2000/svg"><g clip-path="url(#clip0)" fill="#484A4D"><path fill-rule="evenodd" clip-rule="evenodd" d="M28.434 29.474a.5.5 0 0 1-.057.705 16 16 0 0 1-20.654.084.5.5 0 0 1 .642-.766 15 15 0 0 0 19.364-.08.5.5 0 0 1 .705.057z"/><path fill-rule="evenodd" clip-rule="evenodd" d="M6.328 28.212a.5.5 0 0 1 .707.024 15 15 0 0 0 21.868.066.5.5 0 0 1 .727.686 16 16 0 0 1-23.326-.07.5.5 0 0 1 .024-.706z"/><path d="M5.88 22.02l-.954.6.071.113-1.078.678c-.198.124-.315.27-.354.438-.038.167.007.351.133.553a14.86 14.86 0 0 0 .505.75c.083.123.16.232.23.326l-.598.376a6.469 6.469 0 0 1-.197-.273 10.118 10.118 0 0 1-.434-.637c-.203-.324-.331-.619-.382-.884a1.058 1.058 0 0 1 .099-.724c.11-.218.316-.422.616-.61l1.997-1.257.346.551zm.736.985c.146.233.235.461.265.685a1.1 1.1 0 0 1-.102.626 1.26 1.26 0 0 1-.474.497c-.229.144-.452.21-.669.198a1.174 1.174 0 0 1-.632-.256 2.449 2.449 0 0 1-.567-.652l-.504-.8.457-.287.514.818c.132.209.284.337.456.383a.59.59 0 0 0 .495-.08.59.59 0 0 0 .287-.412c.025-.17-.028-.36-.16-.57a1.12 1.12 0 0 0-.285-.308.727.727 0 0 0-.402-.128c-.154-.008-.33.045-.529.16l.12-.324c.237-.122.461-.186.673-.192a1.06 1.06 0 0 1 .58.148c.176.104.335.269.477.494zm-1.045-2.378l-3.59 1.163-.2-.62 1.498-.485.009.027c-.515.167-.936.178-1.262.033-.33-.143-.568-.436-.712-.88l-.04-.127.685-.222.078.24c.109.337.284.568.525.69.235.12.52.127.852.019l1.905-.617.252.78zm-.375-4.421a2.18 2.18 0 0 1-.063.799.929.929 0 0 1-.395.522c-.196.124-.468.199-.817.226l-3.51.277-.062-.774 3.58-.283c.196-.015.343-.078.442-.189.094-.115.133-.268.118-.459l-.05-.628.712-.056.045.565zm-3.034 2.311l-.607.048-.207-2.624.607-.048.207 2.624zm3.258-3.939l-3.728-.586.127-.809 3.728.586-.127.809zm-3.191.059l-.622-.098.212-1.356.623.098-.213 1.355zm-1.014-.989c-.026.166-.09.284-.19.353a.495.495 0 0 1-.357.064.485.485 0 0 1-.314-.17c-.079-.097-.105-.229-.08-.394.027-.171.093-.288.198-.352.1-.07.217-.094.351-.073a.479.479 0 0 1 .32.178c.075.092.099.224.072.394zm5.07-.956l-3.633-1.436c-.395-.156-.644-.377-.746-.664-.105-.292-.076-.645.087-1.057l.175-.442.605.239-.208.527a.492.492 0 0 0-.01.388c.051.11.148.194.292.25L6.57 11.97l-.285.722zm-3.074-.68l-.566-.224.88-2.226.567.223-.88 2.227zM6.77 9.97L3.65 7.85l.46-.678 3.12 2.122-.46.677zM3.86 8.66l-.521-.353.771-1.135.521.354-.771 1.135zm-.495-1.326c-.094.14-.202.218-.322.238a.495.495 0 0 1-.351-.095.485.485 0 0 1-.21-.287c-.03-.122.001-.252.096-.391.097-.143.206-.22.328-.234a.47.47 0 0 1 .349.085.478.478 0 0 1 .213.297c.028.115-.006.244-.103.387zm5.585.576c-.24.214-.488.361-.74.442-.253.074-.5.094-.743.06a2.091 2.091 0 0 1-.68-.24 2.307 2.307 0 0 1-.553-.454l-.083-.095a2.163 2.163 0 0 1-.385-.613 1.917 1.917 0 0 1-.15-.708 1.683 1.683 0 0 1 .147-.72c.104-.242.274-.468.512-.678a1.96 1.96 0 0 1 .765-.435c.272-.08.54-.087.804-.021.26.061.496.196.705.404l-.592.525a.84.84 0 0 0-.568-.208c-.214-.003-.427.088-.636.274a1.02 1.02 0 0 0-.34.525c-.044.19-.03.383.04.583.068.195.185.388.352.576.161.182.335.321.52.418.19.094.381.13.574.11a1.07 1.07 0 0 0 .573-.284c.143-.127.243-.26.301-.398a.932.932 0 0 0 .07-.427.797.797 0 0 0-.154-.396l.597-.53c.19.236.301.491.331.764a1.64 1.64 0 0 1-.128.805 2.07 2.07 0 0 1-.539.722zm2.056-1.403L9.274 3.155 10 2.779l1.733 3.352-.728.376zM9.072 3.969l-.29-.56 1.22-.63.288.56-1.218.63zm.197-1.403c-.15.078-.282.096-.397.056a.495.495 0 0 1-.263-.25.485.485 0 0 1-.049-.353c.032-.122.122-.221.272-.298.153-.08.286-.096.4-.05a.47.47 0 0 1 .266.241.48.48 0 0 1 .046.363c-.03.115-.122.212-.275.291zm5.439 2.392l-.256-1.098-.13.03-.288-1.24c-.053-.228-.153-.387-.298-.477-.146-.091-.335-.11-.567-.055a14.757 14.757 0 0 0-.873.232 8.347 8.347 0 0 0-.384.11l-.16-.688c.098-.032.205-.064.322-.097a10.08 10.08 0 0 1 .744-.201c.373-.087.693-.111.96-.073.268.038.486.148.652.33.17.175.296.436.377.782l.535 2.297-.634.148zm-1.171.373a1.728 1.728 0 0 1-.734.027 1.1 1.1 0 0 1-.559-.3 1.268 1.268 0 0 1-.314-.61c-.062-.264-.051-.496.031-.698.087-.202.237-.373.448-.514.212-.14.48-.248.802-.323l.92-.214.123.525-.941.219c-.241.056-.412.158-.511.306a.59.59 0 0 0-.086.494.59.59 0 0 0 .295.405c.153.08.35.092.59.036.141-.033.27-.09.385-.17a.727.727 0 0 0 .252-.338c.058-.143.065-.327.023-.552l.266.219c.038.264.025.497-.038.699-.06.196-.17.363-.33.5a1.46 1.46 0 0 1-.622.29zm2.789-.364l.099-5.109.826.016-.1 5.11-.825-.017zM15.916.48l.012-.63 1.323.025-.012.63L15.916.48zm3.946 2.235l.18-.691 2.628.682-.18.691-2.628-.682zm4.039 3.864l1.833-3.45c.2-.374.447-.597.743-.667.302-.072.65-.003 1.04.205l.421.223-.305.575-.5-.266a.492.492 0 0 0-.385-.054.507.507 0 0 0-.282.263l-1.879 3.536-.686-.365zm1.02-2.978l.285-.538 2.114 1.124-.285.538L24.92 3.6zm1.491 4.673l3.328-3.879.627.538-3.328 3.878-.627-.537zm2.54-3.724l.41-.478 1.005.861-.41.478-1.005-.861zm.718 6.377l.922-.649-.077-.108 1.042-.734c.19-.134.301-.286.33-.455.03-.169-.024-.35-.161-.545a14.975 14.975 0 0 0-.543-.723 8.226 8.226 0 0 0-.247-.314l.579-.407c.066.079.136.166.21.263a10.301 10.301 0 0 1 .466.613c.22.313.363.601.428.863.065.263.045.506-.061.728-.1.224-.294.438-.584.642l-1.929 1.358-.375-.532zm-.785-.945a1.727 1.727 0 0 1-.3-.67 1.1 1.1 0 0 1 .069-.631c.088-.2.237-.373.447-.52.221-.156.44-.234.658-.233.22.005.435.08.645.223.21.143.41.35.6.621l.544.773-.44.31-.556-.79c-.143-.202-.301-.321-.476-.358a.59.59 0 0 0-.49.105.59.59 0 0 0-.265.427c-.017.17.046.358.189.56.083.118.183.216.3.293.121.075.258.11.409.106.154 0 .327-.062.52-.186l-.103.33c-.23.133-.451.209-.662.226a1.06 1.06 0 0 1-.588-.117 1.461 1.461 0 0 1-.5-.47zm1.692 2.902l3.152-2.412.283.806-3.166 2.372-.27-.766zm.076.218l.628-.22.303.865-.627.22-.304-.865zm.116.33l3.903-.271.265.753-3.915.238-.253-.72zm.454 3.802c-.02-.33.015-.625.107-.883.096-.258.23-.48.4-.663a1.87 1.87 0 0 1 .592-.43 2.02 2.02 0 0 1 .711-.176l.14-.009c.247-.015.49.014.728.088a1.906 1.906 0 0 1 1.126.976c.123.245.194.528.214.85.02.32-.017.608-.108.862a1.906 1.906 0 0 1-.998 1.106 1.925 1.925 0 0 1-.711.184l-.14.009a2.013 2.013 0 0 1-.728-.088 1.87 1.87 0 0 1-.639-.354 1.966 1.966 0 0 1-.48-.608 2.216 2.216 0 0 1-.214-.864zm.713-.044c.016.257.085.472.208.647.128.174.292.302.494.383.201.086.423.121.666.106.246-.015.465-.078.654-.187.19-.11.335-.26.435-.448.106-.189.15-.41.135-.66a1.182 1.182 0 0 0-.215-.64 1.118 1.118 0 0 0-.487-.39 1.467 1.467 0 0 0-.673-.106 1.51 1.51 0 0 0-.648.18c-.19.11-.337.26-.442.448-.1.189-.143.411-.127.667zm-.839 2.535l3.707.7-.12.64-1.548-.293.005-.027c.532.1.907.292 1.124.575.222.284.29.655.203 1.114l-.025.13-.708-.133.046-.248c.066-.348.023-.634-.13-.858-.149-.218-.395-.36-.739-.424l-1.967-.372.152-.804zm-1.494 3.572c.208-.464.468-.782.78-.954.31-.168.64-.181.992-.04l-.31.69c-.131-.048-.278-.034-.44.041-.161.076-.305.255-.431.536-.107.238-.144.447-.111.625.032.178.119.299.26.362.127.057.25.05.369-.02.12-.063.246-.208.379-.435l.183-.325c.197-.336.427-.57.691-.703.262-.128.538-.127.827.003.23.103.398.247.505.433.106.185.156.397.152.635a1.988 1.988 0 0 1-.187.76c-.183.41-.422.698-.718.868-.292.17-.614.183-.967.035l.306-.684a.49.49 0 0 0 .415-.037c.141-.074.262-.225.363-.45.096-.213.127-.396.093-.55a.432.432 0 0 0-.251-.312.373.373 0 0 0-.339.002c-.106.055-.213.173-.32.355l-.184.325c-.216.368-.462.626-.737.774-.274.153-.564.162-.87.024a1.038 1.038 0 0 1-.499-.445 1.334 1.334 0 0 1-.158-.692c.008-.258.077-.531.207-.82zM15.043 22a.522.522 0 0 1-.37-.15l-.522-.523a.522.522 0 0 1-.062-.657l.38-.58.715-2.149a.58.58 0 0 1 .126-.203l6.641-6.642a2.087 2.087 0 1 1 2.953 2.953l-6.642 6.642a.522.522 0 0 1-.203.125l-2.15.715-.579.38a.49.49 0 0 1-.287.09zm1.096-3.61l-.7 2.087a.47.47 0 0 1-.062.125l-.026.042.042-.026a.47.47 0 0 1 .125-.063l2.087-.699 6.564-6.548c.194-.195.302-.46.302-.735a1.042 1.042 0 0 0-.302-.741 1.075 1.075 0 0 0-1.477 0L16.14 18.39z"/><path d="M23.057 17.154a.522.522 0 0 1-.365-.157l-3.689-3.689a.522.522 0 0 1 .736-.735l3.689 3.688a.522.522 0 0 1-.17.851.522.522 0 0 1-.2.042z"/><path fill-rule="evenodd" clip-rule="evenodd" d="M13 25a1 1 0 0 0 1-1c0 .001 0 0 0 0s-.002-.036-.03-.118a2.08 2.08 0 0 0-.154-.326 6.18 6.18 0 0 0-.59-.837 10.641 10.641 0 0 0-.226-.267c-.074.085-.15.174-.226.267a6.18 6.18 0 0 0-.59.837 2.08 2.08 0 0 0-.153.326c-.029.082-.03.12-.031.12A1 1 0 0 0 13 25zm0 1a2 2 0 0 0 2-2c0-1.104-2-3-2-3s-2 1.896-2 3a2 2 0 0 0 2 2z"/></g><defs><clipPath id="clip0"><path fill="#fff" d="M0 0h36v36H0z"/></clipPath></defs></svg>