<svg viewBox="0 0 96 96" fill="none" xmlns="http://www.w3.org/2000/svg"><rect x="28" y="28" width="54" height="54" rx="5" fill="#CDF7CA"/><path d="M19.568 15c-1.269 0-2.354.57-3.164 1.38-.81.81-1.404 1.92-1.404 3.188v44.897c0 1.266.57 2.374 1.38 3.188.81.814 1.918 1.403 3.188 1.404h8.375v8.351c0 1.266.57 2.374 1.38 3.188.81.814 1.918 1.403 3.188 1.404h44.92c1.264 0 2.351-.594 3.165-1.404.81-.804 1.402-1.898 1.404-3.164V32.51c0-1.269-.594-2.378-1.404-3.188-.81-.81-1.895-1.38-3.164-1.38h-8.375v-8.375c0-1.269-.594-2.378-1.404-3.188-.81-.81-1.895-1.38-3.164-1.38h-44.92zm0 3.046h44.92c.254 0 .692.167 1.024.5.332.33.5.768.5 1.022v8.375h-33.5c-1.27 0-2.355.57-3.165 1.38-.81.81-1.404 1.92-1.404 3.188v33.5h-8.375c-.266 0-.694-.193-1.023-.523-.329-.33-.5-.756-.5-1.023V19.568c0-.254.168-.691.5-1.023.332-.332.77-.5 1.023-.5zm12.943 12.943h44.92c.255 0 .692.168 1.024.5.332.331.5.769.5 1.022v44.92c0 .266-.17.696-.5 1.024-.33.328-.763.5-1.023.5h-44.92c-.267 0-.695-.194-1.024-.524-.328-.33-.5-.756-.5-1.023V32.511c0-.253.169-.691.5-1.023.332-.331.77-.5 1.023-.5zm20.557 11.42c-7.55 0-13.704 6.154-13.704 13.705 0 5.087 2.69 9.605 6.876 11.967a1.522 1.522 0 1 0 1.475-2.64c-3.22-1.818-5.306-5.304-5.306-9.327 0-5.905 4.754-10.66 10.66-10.66 5.24 0 9.56 3.76 10.468 8.732l-4.402-2.45A1.522 1.522 0 1 0 57.66 54.4l6.852 3.806a1.524 1.524 0 0 0 2.07-.594l3.807-6.853a1.524 1.524 0 1 0-2.665-1.475l-1.57 2.808c-1.725-5.596-6.935-9.684-13.086-9.684z" fill="#34A34F"/></svg>