<svg width="36" height="36" fill="none" xmlns="http://www.w3.org/2000/svg"><g clip-path="url(#clip0)"><path fill-rule="evenodd" clip-rule="evenodd" d="M20.945.625l-.71 4.423.816.13.71-4.423.099-.622-.816-.13-.49-.08-.1.623.49.079zM12.719 2.74l1.093 2.947.768-.285-1.094-2.947-.219-.59-.768.284-.518.193.22.59.518-.192zm-.553-1.169c.11.054.243.052.4-.006.162-.06.265-.146.308-.257a.478.478 0 0 0-.001-.365.47.47 0 0 0-.235-.271c-.107-.06-.241-.06-.403 0-.158.059-.26.146-.306.263a.485.485 0 0 0 .006.356.495.495 0 0 0 .23.28zm-.434 5.192a2.078 2.078 0 0 1-.785.355c-.26.045-.507.037-.745-.024a2.091 2.091 0 0 1-.648-.315 2.307 2.307 0 0 1-.498-.514l-.073-.103a2.163 2.163 0 0 1-.313-.652 1.916 1.916 0 0 1-.07-.721 1.68 1.68 0 0 1 .228-.699 1.93 1.93 0 0 1 .585-.616c.263-.185.533-.3.809-.346a1.52 1.52 0 0 1 .802.07c.252.09.47.25.654.48l-.647.455a.84.84 0 0 0-.54-.27c-.214-.027-.435.04-.664.2-.198.14-.33.301-.396.484a1.017 1.017 0 0 0-.026.583c.045.203.14.407.285.613.14.198.296.356.47.474.177.115.363.172.557.173.198-.003.399-.075.6-.217.157-.11.272-.23.345-.362a.931.931 0 0 0 .118-.416.797.797 0 0 0-.109-.411l.653-.46c.163.257.244.522.243.797a1.64 1.64 0 0 1-.218.786 2.07 2.07 0 0 1-.617.656zm-5.731.66l2.402 2.028.528-.626-2.402-2.027-.481-.407-.528.626-.357.423.481.406.357-.423zm-1.056-.745c.121-.007.237-.075.345-.203.111-.132.159-.257.142-.375a.478.478 0 0 0-.18-.317.47.47 0 0 0-.339-.12c-.122 0-.24.066-.35.198-.109.128-.154.255-.137.38a.48.48 0 0 0 .18.307c.107.09.22.134.339.13zm1.768 5.307L3.946 10.57l-.226.443-.542-.277.226-.443-.168-.086c-.379-.193-.605-.437-.68-.732-.076-.301-.014-.65.188-1.044l.217-.424.58.296-.259.505a.492.492 0 0 0-.047.385c.04.115.13.208.267.278l.255.13.51-.997.543.277-.51.998 2.767 1.414-.354.692zm-4.057 1.923l3.05.759.198-.795-3.05-.76-.611-.151-.198.794-.134.537.611.152.134-.536zm-1.277-.203c.106-.06.18-.171.22-.335.042-.167.03-.3-.037-.398a.479.479 0 0 0-.303-.206.47.47 0 0 0-.356.041c-.11.055-.186.166-.227.333-.04.163-.026.297.044.401a.485.485 0 0 0 .298.197.495.495 0 0 0 .361-.033zm3.972 2.952c0 .313-.042.577-.127.791a.929.929 0 0 1-.434.49c-.206.107-.483.16-.833.16l-1.813-.002-.001.623-.61-.001.002-.623-1.1-.001.001-.777 1.1.001v-1.232h.61l-.002 1.233 1.883.002c.196 0 .348-.051.456-.154.102-.107.154-.256.154-.448v-.63l.715.001v.567zm-3.3 5.322l3.663-.904-.196-.795-1.944.48c-.34.083-.623.057-.849-.08-.231-.14-.39-.382-.474-.726l-.06-.245-.7.173.031.129c.112.453.328.763.647.929.227.12.509.164.845.13l-1.12.276.157.633zm3.4.956l.637-.347-.311-.572-2.072 1.129c-.311.17-.529.36-.653.571-.13.21-.178.448-.144.716.035.269.143.57.327.907a11.133 11.133 0 0 0 .393.662c.062.105.121.2.179.285l.62-.338a8.256 8.256 0 0 1-.209-.34 15.147 15.147 0 0 1-.456-.78c-.114-.209-.147-.395-.098-.56.048-.165.175-.303.38-.415l.061-.033.412.756c.159.291.334.52.525.686.192.167.397.265.615.295.216.026.443-.026.68-.155.226-.123.394-.278.504-.466a1.1 1.1 0 0 0 .142-.619 1.728 1.728 0 0 0-.222-.7 1.46 1.46 0 0 0-.445-.523 1.058 1.058 0 0 0-.57-.184 1.308 1.308 0 0 0-.294.025zm-.528.44l-.345.187.422.775c.119.217.262.354.432.41a.59.59 0 0 0 .499-.048.59.59 0 0 0 .312-.394c.036-.168-.006-.36-.124-.578a1.119 1.119 0 0 0-.265-.326.727.727 0 0 0-.394-.152c-.153-.017-.332.024-.537.126zM18.655 4.796l-.07-.721a1.31 1.31 0 0 1-.093.28 1.058 1.058 0 0 1-.391.454c-.172.11-.39.179-.655.205a1.729 1.729 0 0 1-.732-.069 1.1 1.1 0 0 1-.514-.37 1.27 1.27 0 0 1-.233-.646c-.026-.27.014-.499.122-.687.113-.19.283-.34.512-.452a2.45 2.45 0 0 1 .836-.216l.857-.084-.007-.07c-.022-.232-.1-.403-.233-.512-.133-.108-.317-.151-.554-.128a14.829 14.829 0 0 0-.896.117c-.148.019-.28.039-.395.06l-.07-.704c.102-.02.213-.037.333-.054a10.1 10.1 0 0 1 .763-.103c.381-.038.702-.02.962.053s.462.21.604.412c.146.196.236.471.27.824l.232 2.348-.648.063zm-.308-1.77l.038.39c.014.229-.018.41-.094.544a.726.726 0 0 1-.293.303 1.12 1.12 0 0 1-.404.117c-.246.025-.44-.013-.58-.111a.59.59 0 0 1-.24-.44.59.59 0 0 1 .149-.48c.118-.133.3-.212.546-.236l.878-.087zm5.102 1.212l.28-.658 2.5 1.063-.28.657-2.5-1.062zm3.061 3.574c.123.236.31.454.562.654.255.204.523.34.803.408.283.064.555.06.815-.012.264-.076.496-.229.696-.457l-.624-.498a.798.798 0 0 1-.364.22.932.932 0 0 1-.433.005 1.12 1.12 0 0 1-.444-.23 1.065 1.065 0 0 1-.377-.515 1.017 1.017 0 0 1 .01-.583c.063-.2.17-.395.322-.585.157-.197.326-.345.508-.445.184-.104.373-.15.567-.14.194.012.386.094.575.245.22.174.346.368.38.58a.84.84 0 0 1-.108.595l.619.493c.168-.242.26-.496.277-.764a1.52 1.52 0 0 0-.158-.789 1.96 1.96 0 0 0-.56-.679 1.937 1.937 0 0 0-.756-.388 1.683 1.683 0 0 0-.735-.022c-.24.047-.464.137-.672.27a2.19 2.19 0 0 0-.538.484l-.078.099a2.307 2.307 0 0 0-.354.622 2.09 2.09 0 0 0-.119.711c.008.245.07.485.186.721zm2.927 3.626a2.218 2.218 0 0 1-.37-.809 1.965 1.965 0 0 1-.006-.774c.05-.246.143-.471.28-.675.14-.207.31-.381.513-.523l.115-.08c.202-.143.425-.244.666-.306a1.906 1.906 0 0 1 1.47.243c.233.144.442.348.627.612s.304.527.359.792c.057.268.06.528.009.78-.047.25-.141.478-.281.684a1.951 1.951 0 0 1-.51.53l-.114.08a2.015 2.015 0 0 1-.667.305c-.238.059-.481.07-.73.033a1.965 1.965 0 0 1-.726-.268 2.216 2.216 0 0 1-.635-.624zm.585-.41c.147.21.319.357.515.442.2.082.407.105.621.069a1.45 1.45 0 0 0 .623-.258c.203-.142.356-.31.46-.502a1.12 1.12 0 0 0 .137-.61 1.18 1.18 0 0 0-.23-.633 1.18 1.18 0 0 0-.518-.432 1.117 1.117 0 0 0-.62-.079 1.48 1.48 0 0 0-.628.262c-.199.14-.351.304-.458.493a1.165 1.165 0 0 0-.143.613c.013.213.093.425.24.635zm4.908 2.071l-4.35 1.07.197.803 4.35-1.07.612-.151-.197-.802-.12-.483-.61.15.118.483zm-3.782 4.665a2.217 2.217 0 0 1 .075-.887c.087-.261.213-.487.377-.677.165-.19.356-.34.575-.45.224-.11.459-.178.705-.202l.14-.014c.245-.024.489-.003.73.062a1.905 1.905 0 0 1 1.16.934c.131.24.213.521.244.842.032.32.006.609-.077.865a1.905 1.905 0 0 1-.957 1.142 1.925 1.925 0 0 1-.704.21l-.14.013a2.004 2.004 0 0 1-.73-.062 1.869 1.869 0 0 1-.651-.33 1.965 1.965 0 0 1-.501-.591 2.217 2.217 0 0 1-.246-.855zm.711-.07c.025.256.102.469.231.639.134.17.303.291.507.365.205.079.428.106.67.082.246-.024.461-.094.647-.21.186-.117.325-.272.419-.464a1.18 1.18 0 0 0 .11-.665 1.181 1.181 0 0 0-.237-.63 1.117 1.117 0 0 0-.5-.374 1.467 1.467 0 0 0-.677-.081 1.51 1.51 0 0 0-.641.203 1.164 1.164 0 0 0-.426.464 1.232 1.232 0 0 0-.103.671zm2.943 3.26l-3.725-.6-.13.809 1.976.318c.346.055.596.19.75.404.16.22.21.504.154.854l-.04.249.712.114.02-.13c.075-.462-.003-.83-.232-1.109-.162-.2-.404-.35-.726-.45l1.138.183.103-.643zm-5.085 2.794c.199-.468.453-.791.762-.969.307-.174.637-.193.99-.058l-.295.696c-.133-.046-.28-.03-.44.049-.16.079-.3.26-.421.543-.102.24-.136.45-.1.627.036.178.125.297.267.357a.381.381 0 0 0 .369-.025c.119-.066.242-.214.37-.444l.178-.327c.19-.34.416-.579.678-.716.26-.133.535-.137.827-.013.232.099.402.24.512.423.11.184.164.395.164.633-.002.243-.06.497-.173.764-.175.412-.409.705-.702.88-.288.177-.61.194-.965.053l.293-.69a.488.488 0 0 0 .414-.043c.14-.078.258-.23.355-.458.091-.215.119-.399.082-.55a.432.432 0 0 0-.257-.308.373.373 0 0 0-.338.008c-.105.057-.21.177-.314.361l-.177.328c-.21.372-.45.635-.723.787-.27.16-.56.173-.87.041a1.038 1.038 0 0 1-.506-.436 1.334 1.334 0 0 1-.171-.689 2.2 2.2 0 0 1 .19-.824zm-23.03 4.859a.5.5 0 0 1 .706 0 15 15 0 0 0 21.214 0 .5.5 0 0 1 .707.707 16 16 0 0 1-22.628 0 .5.5 0 0 1 0-.707zM21.76 18.49c0 .071-.002.143-.006.215h-3.338v-1h3.268c.017.083.033.166.046.25.018.177.03.355.03.535zm-3.344 1.215h3.147c-.03.09-.061.18-.096.267-.113.257-.25.502-.409.733h-2.642v-1zm0 2v.599l.014-.002c.33-.05.653-.137.963-.26a4.42 4.42 0 0 0 .629-.337h-1.606zm2.908-5a4.46 4.46 0 0 0-.367-.576 6.69 6.69 0 0 0-.375-.424h-2.166v1h2.908zm-1.768-2h-1.14v-1.029l.074.066c.359.317.716.637 1.066.963zm-.076 7.302zm-2.064-8.322v8.618l-.01-.001a4.43 4.43 0 0 1-.97-.263 4.466 4.466 0 0 1-.882-.516 4.456 4.456 0 0 1-.674-.675 4.407 4.407 0 0 1-.514-.882 4.38 4.38 0 0 1-.26-.964 4.532 4.532 0 0 1 0-1.024 4.46 4.46 0 0 1 .262-.97 4.48 4.48 0 0 1 .514-.88 8.56 8.56 0 0 1 .627-.678c.281-.282.57-.554.861-.823.345-.318.694-.632 1.046-.942zm-3.014 6.368a4.377 4.377 0 0 1-.021-.05l.02.05zm-.295-1.04zm8.687.051c.023-.19.037-.382.037-.574v-.006a4.981 4.981 0 0 0-.61-2.368c-.278-.507-.66-.944-1.066-1.354-.375-.38-.765-.744-1.16-1.104a62.119 62.119 0 0 0-1.118-.997l-.018-.016a49.011 49.011 0 0 0-.564-.487c-.106-.09-.235-.164-.38-.157a.6.6 0 0 0-.378.157c-.236.2-.469.404-.702.608-.492.43-.978.866-1.455 1.313l-.064.06c-.408.383-.822.77-1.174 1.205a5.25 5.25 0 0 0-.462.65c-.136.23-.245.47-.345.717-.19.472-.29.975-.325 1.481-.058.872.135 1.75.526 2.529.371.738.94 1.363 1.617 1.832a4.92 4.92 0 0 0 4.852.383c.754-.344 1.389-.897 1.883-1.558a4.862 4.862 0 0 0 .905-2.314zm-4.282 3.228a3.53 3.53 0 0 0-.027.003l.027-.003z" fill="#484A4D"/></g><defs><clipPath id="clip0"><path fill="#fff" d="M0 0h36v36H0z"/></clipPath></defs></svg>