<svg viewBox="0 0 36 36" fill="none" xmlns="http://www.w3.org/2000/svg"><path fill-rule="evenodd" clip-rule="evenodd" d="M9.74 4.875a.5.5 0 0 1-.135.694 15 15 0 1 0 16.926.093.5.5 0 0 1 .568-.823A16 16 0 1 1 9.046 4.74a.5.5 0 0 1 .694.135z" fill="#484A4D"/><path d="M21.784 4.88L21.703.973l.798.256.017 3.188.112.038 1.76-2.605.755.247-2.413 3.567a1.69 1.69 0 0 1-.488.509 1.22 1.22 0 0 1-.595.188 2.26 2.26 0 0 1-.73-.13l-.53-.163.221-.687.597.19c.118.04.24.062.365.065a.56.56 0 0 0 .295-.09c.09-.09.167-.192.23-.302l.147-.218-.46-.146z" fill="#484A4D"/><path fill-rule="evenodd" clip-rule="evenodd" d="M17.486 4.45a2.2 2.2 0 0 0 .873.174c.296.005.59-.055.861-.174a1.92 1.92 0 0 0 .642-.43 1.78 1.78 0 0 0 .394-.617c.092-.229.141-.473.145-.72l-.005-.141a2.15 2.15 0 0 0-.127-.725A1.94 1.94 0 0 0 18.382.582a2.28 2.28 0 0 0-.872.154c-.242.101-.462.25-.647.437a2 2 0 0 0-.523 1.348l-.025.132c.002.245.047.488.133.717.098.232.243.44.426.613a2 2 0 0 0 .612.467zm1.503-.688a1.1 1.1 0 0 1-.62.14 1.15 1.15 0 0 1-.66-.175 1.1 1.1 0 0 1-.412-.465 1.619 1.619 0 0 1-.14-.659c0-.23.052-.456.153-.663a1.15 1.15 0 0 1 1.052-.606 1.13 1.13 0 0 1 1.072.64c.1.21.148.44.141.672a1.41 1.41 0 0 1-.146.655 1.1 1.1 0 0 1-.44.46z" fill="#484A4D"/><path d="M13.151 5.21c.412.136.86.131 1.268-.016a2 2 0 0 0 .737-.407 1.22 1.22 0 0 0 .43-.565 1 1 0 0 0 .003-.664.89.89 0 0 0-.586-.634 2 2 0 0 0-1.076-.04l-.273.145a.82.82 0 0 1-.48-.014.34.34 0 0 1-.226-.247.4.4 0 0 1 .075-.396.88.88 0 0 1 .466-.298 1 1 0 0 1 .582-.022.49.49 0 0 1 .296.288l.72-.22a1 1 0 0 0-.7-.732 1.85 1.85 0 0 0-1.122.038 1.89 1.89 0 0 0-.692.365 1.19 1.19 0 0 0-.394.517 1.1 1.1 0 0 0 .006.67.93.93 0 0 0 .547.618c.316.115.659.136.986.06l.313-.115a1.11 1.11 0 0 1 .584-.008.39.39 0 0 1 .25.266.45.45 0 0 1-.051.464 1.07 1.07 0 0 1-.549.324 1 1 0 0 1-.688-.02.54.54 0 0 1-.35-.267l-.775.176a1.121 1.121 0 0 0 .699.733z" fill="#484A4D"/><path fill-rule="evenodd" clip-rule="evenodd" d="M22.55 12.502A.5.5 0 0 0 22 13c0 .376-.145.468-1.033.656h-.002c-.628.133-1.406.298-1.934.893a3.535 3.535 0 0 0-.97 1.771.334.334 0 0 0-.006.055l-.004.043c-1.157.682-1.665 1.573-1.715 2.216-.822.064-1.55.24-2.031.635-.559.458-.882 1.064-1.104 1.66a12.74 12.74 0 0 0-.35 1.151 18.6 18.6 0 0 1-.15.533c-.148.49-.32.847-.508 1.01a.5.5 0 0 0 .325.877s2.523.015 3.093.015c.834 0 1.688-.357 2.36-1.029v-.002c.272-.273.426-.59.58-.908l.031-.063.014.001.015.001c.687 0 1.382-.253 1.983-.715.34-.108.95-1.128 1.213-1.625.12-.33.165-.673.17-1.013a3.52 3.52 0 0 0 .994-.676c.615-.617.978-1.394 1.025-2.219 0-2.669-1.068-3.57-1.19-3.664a.5.5 0 0 0-.255-.101zm-3.63 4.597c.028-.075-.009.123.035-.238.045-.361.084-.344.084-.344s.342-.902.72-1.283c.33-.37.88-.486 1.415-.6l.01-.002c.472-.1 1.048-.223 1.423-.59.197.446.39 1.148.391 2.196-.032.552-.291 1.1-.732 1.541a2.57 2.57 0 0 1-.951.6l.003.01a.492.492 0 0 0-.332.52c.018.145.013.292-.004.44-.119.423-.505 1.363-1.097 1.742a2.27 2.27 0 0 1-1.274.424c-.038 0-.095-.007-.176-.016l-.038-.005a.5.5 0 0 0-.532.33 2.54 2.54 0 0 1-.601.955c-.498.498-1.108.736-1.653.736a494.488 494.488 0 0 1-2.283-.012c.04-.09.095-.174.15-.256.07-.109.142-.217.18-.343.06-.2.116-.403.171-.606.095-.351.19-.7.31-1.02.188-.508.43-.934.799-1.235.367-.301.876-.508 1.72-.508a.5.5 0 0 0 .47-.33c.284-.663.357-.911 1.148-1.554.529-.43.578-.367.623-.494l.021-.058z" fill="#484A4D"/><path d="M21.4 15.5a1.123 1.123 0 0 0-.488.114 1.703 1.703 0 0 0-.743.692 1.323 1.323 0 0 0-.15.39.852.852 0 0 0 0 .36.566.566 0 0 0 .149.276.565.565 0 0 0 .275.149c.11.025.232.025.36 0 .13-.026.262-.077.39-.15a1.7 1.7 0 0 0 .638-.637 1.33 1.33 0 0 0 .15-.39.854.854 0 0 0 0-.36.565.565 0 0 0-.149-.276.611.611 0 0 0-.432-.168zm-5 5a1.123 1.123 0 0 0-.488.114 1.703 1.703 0 0 0-.743.692 1.323 1.323 0 0 0-.15.39.852.852 0 0 0 0 .36.566.566 0 0 0 .149.276.565.565 0 0 0 .275.149c.11.025.232.025.36 0 .13-.026.262-.077.39-.15a1.7 1.7 0 0 0 .638-.637 1.33 1.33 0 0 0 .15-.39.854.854 0 0 0 0-.36.565.565 0 0 0-.149-.276.611.611 0 0 0-.432-.168zm2.358-2.156c.167-.078.335-.117.489-.114a.611.611 0 0 1 .431.168.566.566 0 0 1 .15.275.852.852 0 0 1-.001.36 1.323 1.323 0 0 1-.15.39 1.7 1.7 0 0 1-.637.638 1.324 1.324 0 0 1-.39.15.852.852 0 0 1-.36 0 .565.565 0 0 1-.276-.15.566.566 0 0 1-.149-.275.854.854 0 0 1 0-.36c.026-.129.077-.261.15-.39a1.7 1.7 0 0 1 .743-.692z" fill="#484A4D"/></svg>