<svg viewBox="0 0 36 36" fill="none" xmlns="http://www.w3.org/2000/svg"><path fill-rule="evenodd" clip-rule="evenodd" d="M32.305 23.99a.5.5 0 0 1 .246.663 16 16 0 0 1-29.088.03.5.5 0 1 1 .908-.417 15 15 0 0 0 27.27-.03.5.5 0 0 1 .664-.246z" fill="#484A4D"/><path d="M6.302 20.2L1.25 21.305l-.14-.636 1.594-.349.02.124c-.392.063-.73.05-1.011-.036a1.417 1.417 0 0 1-.684-.438 1.65 1.65 0 0 1-.352-.725 1.713 1.713 0 0 1-.007-.751c.05-.236.143-.45.282-.643a1.78 1.78 0 0 1 .526-.48c.21-.132.447-.227.711-.285l.13-.028c.26-.057.515-.07.766-.039.246.032.472.107.68.224a1.713 1.713 0 0 1 .84 1.15 1.75 1.75 0 0 1-.008.789 1.408 1.408 0 0 1-.421.694c-.218.205-.525.36-.922.467l.44-.412 2.434-.533.175.8zM3.95 18.714a1.117 1.117 0 0 0-.286-.553 1.103 1.103 0 0 0-.536-.291 1.544 1.544 0 0 0-.702.003c-.25.055-.461.15-.632.289a1.055 1.055 0 0 0-.359.487 1.06 1.06 0 0 0-.035.624c.044.2.13.377.26.53.128.154.291.264.487.33.192.069.408.076.65.023l.294-.064a1.13 1.13 0 0 0 .567-.29c.14-.145.235-.313.284-.505a1.25 1.25 0 0 0 .008-.583zm.518-2.2l-3.762-.295.051-.65 1.57.124-.002.028c-.54-.043-.933-.193-1.18-.45-.25-.26-.358-.621-.321-1.086l.01-.133.72.056-.02.252c-.028.353.046.633.221.839.172.2.432.314.781.342l1.996.156-.064.817zm1.302-3.482a2.02 2.02 0 0 1-.468.735 1.697 1.697 0 0 1-.627.394c-.23.075-.466.108-.708.1a2.33 2.33 0 0 1-.706-.156l-.123-.049a2.287 2.287 0 0 1-.625-.364 1.904 1.904 0 0 1-.453-.552 1.616 1.616 0 0 1-.2-.702 1.92 1.92 0 0 1 .145-.83c.147-.379.353-.662.617-.85.263-.187.552-.292.867-.314.31-.025.617.023.921.141l.307.12L3.5 13.822l-.516-.201L4 11.019l.18.31a1.621 1.621 0 0 0-.65-.125.913.913 0 0 0-.525.17c-.152.107-.27.268-.355.486-.088.226-.11.435-.065.628a1 1 0 0 0 .298.507c.154.145.355.266.602.363.235.092.46.137.676.136.212-.002.402-.06.572-.175.165-.116.296-.295.39-.539.096-.243.122-.463.078-.66-.047-.2-.136-.344-.266-.435l.278-.711c.22.141.39.32.511.538.122.213.188.449.197.708.01.259-.041.53-.152.812zm2.272-3.426c-.321.394-.655.635-1 .72-.344.082-.667.01-.969-.218l.477-.587a.56.56 0 0 0 .436.074c.176-.031.36-.166.555-.405.165-.203.254-.395.269-.576.014-.18-.038-.32-.158-.416a.381.381 0 0 0-.36-.077c-.134.03-.293.138-.48.323l-.261.266c-.277.274-.56.44-.849.5-.286.057-.552-.015-.799-.216a1.051 1.051 0 0 1-.375-.548 1.211 1.211 0 0 1 .017-.654c.07-.232.195-.461.377-.686.283-.347.589-.565.918-.652.326-.09.64-.018.943.216l-.472.582a.488.488 0 0 0-.41-.072c-.156.036-.312.15-.468.341-.147.182-.224.35-.231.507a.432.432 0 0 0 .162.366c.101.083.21.111.327.086.117-.025.25-.112.401-.26l.261-.266c.304-.3.609-.486.913-.557.304-.078.586-.011.847.2.188.154.31.34.366.56.056.22.047.456-.026.71a2.177 2.177 0 0 1-.411.739zm3.322-2.634a2.02 2.02 0 0 1-.807.326c-.264.039-.51.024-.74-.044a2.003 2.003 0 0 1-.633-.33 2.329 2.329 0 0 1-.484-.537l-.072-.112a2.285 2.285 0 0 1-.297-.659 1.903 1.903 0 0 1-.047-.713c.027-.24.109-.47.245-.687a1.92 1.92 0 0 1 .6-.592c.34-.222.672-.332.996-.332.323 0 .62.083.889.248.266.16.488.377.667.651l.18.276-2.803 1.828-.302-.463 2.34-1.526-.035.357a1.622 1.622 0 0 0-.456-.48.912.912 0 0 0-.526-.167 1.026 1.026 0 0 0-.57.189 1.05 1.05 0 0 0-.42.473 1 1 0 0 0-.051.586c.04.207.133.423.279.645.137.211.294.38.47.504.174.12.363.184.567.19.202.002.413-.068.632-.211.218-.143.367-.307.447-.493.077-.19.089-.359.036-.508l.639-.417c.097.243.132.488.103.735a1.506 1.506 0 0 1-.251.69 2.032 2.032 0 0 1-.596.573zm2.613-1.24l-1.059-3.621.625-.183.442 1.512-.027.008c-.152-.52-.15-.94.003-1.263.153-.326.453-.555.901-.686l.128-.037.202.692-.242.07c-.34.1-.576.268-.706.506-.127.231-.14.515-.043.851l.562 1.922-.786.23zm4.157-.612l-1.196-3.784.854.008 1.154 3.784-.812-.007zm.23.003l.007-.665.917.009-.006.665-.917-.01zm.35.003l1.073-3.763.798.008-1.107 3.762-.763-.007zm5.193 1.244l.372-1.064-.126-.043.42-1.203c.077-.22.079-.408.004-.562-.074-.155-.224-.271-.449-.35a14.881 14.881 0 0 0-.861-.271 8.315 8.315 0 0 0-.384-.112l.233-.668c.1.025.208.056.324.091a10.114 10.114 0 0 1 .736.228c.362.126.645.277.85.453.206.175.33.384.375.627.05.24.016.527-.101.862l-.778 2.227-.615-.215zm-1.189-.311a1.728 1.728 0 0 1-.634-.37 1.1 1.1 0 0 1-.311-.554 1.269 1.269 0 0 1 .06-.683c.09-.255.223-.446.4-.572.183-.124.4-.189.654-.194a2.45 2.45 0 0 1 .85.156l.893.312-.178.508-.912-.318c-.234-.082-.432-.087-.595-.015a.59.59 0 0 0-.338.371.59.59 0 0 0 .033.501c.086.149.246.264.48.346.136.047.275.068.415.063a.726.726 0 0 0 .394-.151c.125-.09.23-.241.314-.454l.109.327a1.6 1.6 0 0 1-.407.57 1.059 1.059 0 0 1-.546.246 1.46 1.46 0 0 1-.68-.09zm4.297 2.461a2.178 2.178 0 0 1-.556-.576.928.928 0 0 1-.13-.642c.039-.228.163-.482.374-.762l2.12-2.81.62.467-2.162 2.867c-.118.156-.168.308-.151.456.024.147.112.278.265.393l.503.38-.43.57-.453-.342zm.282-3.802l.367-.487 2.101 1.586-.367.486-2.1-1.585zm1.12 4.822l2.823-2.504.544.613-2.823 2.503-.544-.612zm1.985-2.5l.471-.417.91 1.026-.47.418-.911-1.026zm1.407-.153c-.11-.126-.161-.25-.15-.371a.495.495 0 0 1 .177-.317.485.485 0 0 1 .33-.134c.126.001.244.065.356.19.114.13.163.255.146.376a.47.47 0 0 1-.168.317.479.479 0 0 1-.34.134c-.12 0-.236-.066-.35-.195zm-1.605 4.279l3.114-2.46.296.801-3.13 2.421-.28-.762zm.08.217l.624-.23.317.86-.624.23-.317-.86zm.12.328l3.9-.332.275.749-3.91.3-.264-.717zm.908 3.592a2.02 2.02 0 0 1 .085-.866c.088-.253.216-.464.382-.635a2.01 2.01 0 0 1 .587-.408c.225-.097.458-.157.7-.18l.132-.013c.246-.024.486-.01.721.043.24.056.458.152.654.288.2.135.366.314.495.536.134.226.217.495.247.806.039.404-.017.75-.168 1.036-.15.286-.36.51-.63.673a2.064 2.064 0 0 1-.887.29l-.328.03-.321-3.33.55-.053.269 2.78-.3-.196a1.63 1.63 0 0 0 .636-.18.913.913 0 0 0 .391-.39c.088-.163.12-.361.098-.593a1.052 1.052 0 0 0-.226-.59 1 1 0 0 0-.495-.318 1.84 1.84 0 0 0-.701-.052c-.25.024-.472.085-.665.184a1.026 1.026 0 0 0-.43.414c-.096.178-.131.397-.106.657.025.26.102.469.23.625.132.156.276.245.433.268l.073.759a1.492 1.492 0 0 1-.699-.249 1.507 1.507 0 0 1-.495-.543 2.033 2.033 0 0 1-.232-.793zm-.386 3.86c.1-.498.282-.867.548-1.104.265-.233.585-.319.958-.259l-.147.742c-.14-.019-.28.027-.42.137-.141.11-.241.316-.302.618-.05.257-.04.468.031.634.072.167.183.265.334.295a.381.381 0 0 0 .355-.1c.104-.09.195-.259.273-.51l.107-.357c.117-.372.289-.651.517-.84.227-.182.495-.243.807-.181.247.05.443.152.588.31.144.157.241.352.29.586a1.99 1.99 0 0 1-.013.782c-.088.44-.257.774-.507 1.005-.246.232-.558.315-.935.25l.146-.735a.487.487 0 0 0 .397-.128c.12-.104.205-.278.253-.52.046-.23.035-.415-.032-.556a.432.432 0 0 0-.314-.248.373.373 0 0 0-.33.077c-.091.077-.169.216-.233.417l-.106.357c-.129.408-.311.714-.547.92-.233.21-.513.283-.843.217a1.04 1.04 0 0 1-.585-.324 1.336 1.336 0 0 1-.308-.639 2.179 2.179 0 0 1 .018-.846zM14.733 25.25c.963 0 1.867-.39 2.538-1.08l6.766-6.93a.6.6 0 0 0 .175-.42.6.6 0 0 0-.175-.42l-4.287-4.41a.553.553 0 0 0-.817 0l-6.737 6.93c-1.4 1.44-1.4 3.78 0 5.22.67.72 1.575 1.11 2.537 1.11zm8.08-8.43l-6.33 6.51c-.466.48-1.079.75-1.75.75-.641 0-1.283-.27-1.75-.75a2.568 2.568 0 0 1 0-3.57l6.359-6.51 3.47 3.57z" fill="#484A4D"/><path d="M24.27 18.08c.147 0 .292-.06.41-.18a.592.592 0 0 0 0-.84l-5.572-5.73a.553.553 0 0 0-.816 0 .592.592 0 0 0 0 .84l5.6 5.73c.087.12.233.18.379.18zM12.604 20.6h7.904c.321 0 .584-.27.584-.6 0-.33-.263-.6-.584-.6h-7.904c-.32 0-.583.27-.583.6 0 .33.262.6.583.6z" fill="#484A4D"/></svg>