<svg viewBox="0 0 36 36" fill="none" xmlns="http://www.w3.org/2000/svg"><g clip-path="url(#clip0)" fill="#484A4D"><path d="M20.152 5.094l.292-4.47-.496-.032.04-.63 1.32.087-.332 5.1-.824-.055z"/><path fill-rule="evenodd" clip-rule="evenodd" d="M17.838 4.07l.067.723.648-.06-.216-2.349c-.032-.353-.12-.628-.265-.826a1.058 1.058 0 0 0-.6-.416c-.26-.074-.581-.094-.962-.06a11.183 11.183 0 0 0-.765.099c-.12.016-.23.033-.332.052l.064.704c.116-.02.248-.04.396-.058a15.104 15.104 0 0 1 .897-.11c.236-.022.421.022.553.132.132.11.208.28.23.513l.006.07-.857.078c-.33.03-.61.1-.839.21-.228.11-.4.26-.514.449-.109.188-.151.417-.127.686.024.256.1.471.229.647a1.1 1.1 0 0 0 .512.375c.213.074.457.098.73.073.266-.024.484-.09.657-.2.177-.115.308-.265.394-.451.041-.086.072-.18.094-.28zm-.194-.66l-.036-.39-.878.081c-.246.023-.429.1-.548.233a.59.59 0 0 0-.153.478.59.59 0 0 0 .238.442c.14.1.333.138.58.116a1.12 1.12 0 0 0 .404-.115.727.727 0 0 0 .296-.301c.076-.134.109-.315.097-.543z"/><path d="M12.81 5.623c-.474.185-.883.23-1.226.133-.339-.098-.584-.32-.734-.667l.704-.275c.06.127.174.22.342.28.169.059.396.032.683-.08.244-.095.416-.217.518-.367.102-.15.125-.297.069-.44a.381.381 0 0 0-.277-.246c-.13-.039-.322-.024-.576.045l-.358.103c-.376.101-.705.107-.986.016-.276-.092-.472-.286-.588-.582a1.05 1.05 0 0 1-.055-.662 1.21 1.21 0 0 1 .337-.56c.175-.168.397-.305.666-.41.418-.164.791-.202 1.12-.115.328.082.566.3.714.653l-.698.273a.488.488 0 0 0-.321-.265c-.153-.046-.345-.024-.575.066-.218.085-.368.194-.451.327a.432.432 0 0 0-.04.399c.048.121.128.2.242.236.114.035.274.026.478-.029l.358-.102c.412-.111.769-.123 1.069-.035.302.083.515.28.637.593.088.226.103.449.043.667-.06.22-.184.42-.373.604a2.176 2.176 0 0 1-.722.44zm-4.687.421a.5.5 0 0 1-.044.706 15 15 0 1 0 19.85.007.5.5 0 1 1 .662-.75A16 16 0 1 1 7.417 6a.5.5 0 0 1 .706.044z"/><path fill-rule="evenodd" clip-rule="evenodd" d="M15.952 23c-.117 0-.234 0-.39-.039a3.971 3.971 0 0 1-1.557-.94 4 4 0 0 1-.935-1.566c-.156-.391-.04-.861.233-1.174l1.247-1.214 3.193-6.085c.117-.196.234-.392.39-.549.467-.47 1.09-.744 1.713-.744h1.948c.117 0 .233.04.311.157l3.116 3.133a.685.685 0 0 1 .156.195l.078.118v1.958c0 .626-.273 1.292-.74 1.723-.156.156-.35.274-.546.391l-6.192 3.07-1.246 1.253a1.085 1.085 0 0 1-.78.313zm-2.025-2.936l.078.195c.155.431.389.784.7 1.097.39.352.74.548 1.091.705l.195.078 1.09-1.018-2.064-2.075-1.09 1.018zm5.958-8.435c-.311 0-.7.078-1.012.43-.117.118-.195.236-.273.353l-1.947 3.775-.857 1.566-.273.47 2.22 2.232 6.232-3.226.039-.04c.272-.274.39-.626.39-1.018v-1.723L21.56 11.59h-1.675v.04z"/><path d="M10.13 21.958a.5.5 0 0 0 .612.353l.966-.259a.5.5 0 1 0-.26-.966l-.965.26a.5.5 0 0 0-.354.612zm2.095 2.672a.5.5 0 1 1-.707-.707l.707-.707a.5.5 0 0 1 .707.707l-.707.707zm1.965 1.388a.5.5 0 0 0 .612-.353l.26-.966a.5.5 0 0 0-.967-.259l-.259.966a.5.5 0 0 0 .354.612zM23.537 5.4c.184.138.427.248.729.331l.547.15.19-.688-.608-.167c-.185-.05-.315-.14-.391-.267-.07-.131-.08-.291-.028-.48l.5-1.815 1.188.327.162-.587-1.188-.328.292-1.059-.75-.206-.291 1.06-.6-.166-.163.587.601.165-.481 1.748c-.093.338-.115.62-.066.846.053.228.172.41.357.549z"/></g><defs><clipPath id="clip0"><path fill="#fff" d="M0 0h36v36H0z"/></clipPath></defs></svg>