<svg viewBox="0 0 36 36" fill="none" xmlns="http://www.w3.org/2000/svg"><g clip-path="url(#clip0)" fill="#484A4D"><path fill-rule="evenodd" clip-rule="evenodd" d="M5.565 8.733a.5.5 0 0 1 .125.696 15 15 0 1 0 24.71.131.5.5 0 1 1 .827-.562 16.001 16.001 0 1 1-26.358-.14.5.5 0 0 1 .696-.125z"/><path d="M25.239 6.842l2.512-2.827.5.416-.602.679c.066-.045.134-.086.205-.124a1.18 1.18 0 0 1 .733-.13c.266.044.512.167.707.354a1.259 1.259 0 0 1 .46 1.009 2 2 0 0 1-.601 1.19l-1.43 1.607-.63-.525L28.608 6.8a.9.9 0 0 0 .248-.626.77.77 0 0 0-.302-.59.869.869 0 0 0-.647-.24.88.88 0 0 0-.616.333l-1.421 1.69-.63-.525z"/><path fill-rule="evenodd" clip-rule="evenodd" d="M22.319 5.332a2 2 0 0 0 .72.496c.258.121.54.188.826.194a1.69 1.69 0 0 0 .716-.171 1.49 1.49 0 0 0 .544-.497l-.695-.306a.69.69 0 0 1-.492.215 1.15 1.15 0 0 1-.655-.104 1.07 1.07 0 0 1-.507-.422 1 1 0 0 1-.16-.575c.008-.137.029-.272.064-.404l2.692 1.112.136-.303a2.13 2.13 0 0 0 .18-.918 1.66 1.66 0 0 0-.293-.868 1.72 1.72 0 0 0-.806-.673 1.93 1.93 0 0 0-.818-.174 1.66 1.66 0 0 0-.716.172 1.83 1.83 0 0 0-.563.441 2.23 2.23 0 0 0-.392.611l-.077.092c-.088.234-.135.48-.14.73-.022.24.003.48.072.71.074.238.198.457.364.642zm.58-2.087a2 2 0 0 1 .264-.347.93.93 0 0 1 .514-.274 1 1 0 0 1 .625.079c.186.084.345.216.46.384a1 1 0 0 1 .186.558 1.69 1.69 0 0 1-.06.398L22.9 3.245z"/><path d="M20.317 4.875a2.17 2.17 0 0 1-.79-.19 1 1 0 0 1-.422-.495 1.89 1.89 0 0 1-.042-.855l.263-1.837-.601-.085.11-.585.575.078.152-1.06.77.107-.15 1.057 1.227.166-.088.604-1.222-.173-.268 1.9a.64.64 0 0 0 .086.474.58.58 0 0 0 .423.21l.627.093-.107.705-.543-.114zm-5.023-.012c.184.05.378.057.565.02l-.004-.043a1.19 1.19 0 0 0 .698-.29 1.13 1.13 0 0 0 .363-.623 2.62 2.62 0 0 0 .053-.38l.142 1.051.646-.087L17.26.78l-.814.102.294 2.224a.921.921 0 0 1-.157.69.84.84 0 0 1-.581.322.77.77 0 0 1-.82-.419.81.81 0 0 1-.086-.323l-.305-2.272-.807.108.29 2.168a2 2 0 0 0 .521 1.217c.144.126.314.218.498.267zm-4.579-3.227l-.23-.582 1.234-.482.009.025.014-.005 1.846 4.767-.766.247-1.628-4.155-.48.185z"/><path fill-rule="evenodd" clip-rule="evenodd" d="M10.885 8.43c-.142.106-.29.205-.442.296a5.344 5.344 0 0 1-.453.247l-.406-.56c.107-.054.214-.114.326-.177l.154-.087c.169-.093.302-.19.435-.288a1.94 1.94 0 0 0 .567-.555.8.8 0 0 0 .126-.573 1.44 1.44 0 0 0-.278-.635l-.196-.27.003.018a1.34 1.34 0 0 1-.122.77 1.45 1.45 0 0 1-.512.615 1.59 1.59 0 0 1-.662.295 1.49 1.49 0 0 1-.69-.016 2 2 0 0 1-.65-.281 2.13 2.13 0 0 1-.532-.534l-.1-.083a2.22 2.22 0 0 1-.324-.674 2.15 2.15 0 0 1-.05-.705 1.82 1.82 0 0 1 .232-.653 1.93 1.93 0 0 1 .505-.543 1.72 1.72 0 0 1 .78-.313c.275-.025.551.03.796.155a2.3 2.3 0 0 1 .161.091l-.452-.632.487-.428 1.928 2.7c.228.3.384.648.454 1.017a1.34 1.34 0 0 1-.2.913 3.44 3.44 0 0 1-.885.89zm-1.03-1.887a1.27 1.27 0 0 0 .37-.446 1.05 1.05 0 0 0 .099-.556 1.17 1.17 0 0 0-.23-.582l-.17-.233a1.05 1.05 0 0 0-.47-.39 1 1 0 0 0-.545-.065 1.26 1.26 0 0 0-.52.218 1.08 1.08 0 0 0-.464 1.072 1.49 1.49 0 0 0 .799 1.056 1.1 1.1 0 0 0 .58.118 1.19 1.19 0 0 0 .52-.218l.03.026zm13.608 5.458a.492.492 0 0 0-.069.008s-1.316.195-2.415.967V12.5a.501.501 0 0 0-.622-.486c-.09.023-2.029.544-2.32 2.103a4.117 4.117 0 0 0-1.193.665l-1.316 1.555c-.102.052-.208.11-.315.177-.576.36-1.234 1.014-1.234 1.986v2.793L12 23.273l.707.707L14.686 22h2.793c.972 0 1.626-.658 1.986-1.234.079-.126.145-.25.203-.37l1.527-1.259c.343-.417.555-.891.664-1.195 1.558-.291 2.08-2.23 2.104-2.32a.501.501 0 0 0-.09-.43.502.502 0 0 0-.395-.192h-.48c.74-1.073.97-2.402.97-2.402a.5.5 0 0 0-.505-.598zm-3.485 1.229v1.27c0 .407-.465 1.075-1 1.674V14.5c0-.632.542-1.04 1-1.271zm2.752.006c-.19.546-.468 1.188-.877 1.597-.2.2-.506.2-.705 0h-.002a.49.49 0 0 1 0-.705v-.002c.437-.436 1.06-.711 1.584-.89zM21.479 16h1.272c-.231.458-.64 1-1.271 1h-1.674c.598-.535 1.265-1 1.674-1zm-5.5 1.258V18.5c0 .266-.405.986-.878 1.534a.676.676 0 0 1-.065.066.949.949 0 0 0-.056.056V18.5c0-.527.341-.873.765-1.138.07-.044.102-.054.14-.067a.859.859 0 0 0 .095-.037zm1.5 2.742h1.243a.606.606 0 0 0-.037.095.527.527 0 0 1-.067.14c-.265.423-.61.765-1.139.765h-1.656a.775.775 0 0 0 .057-.056.676.676 0 0 1 .066-.065c.548-.474 1.267-.879 1.534-.879zM18 16.468v-1.242a.753.753 0 0 1-.095.037.525.525 0 0 0-.139.066c-.424.265-.766.611-.766 1.14v1.655c.028-.03.043-.043.057-.056A.633.633 0 0 0 17.12 18c.474-.548.88-1.267.88-1.533zM19.5 18h1.242a.753.753 0 0 0-.037.095.525.525 0 0 1-.066.14c-.265.423-.611.765-1.139.765h-1.656c.03-.028.043-.043.056-.057a.633.633 0 0 1 .067-.064c.548-.474 1.267-.88 1.533-.88z"/></g><defs><clipPath id="clip0"><path fill="#fff" d="M0 0h36v36H0z"/></clipPath></defs></svg>