<svg viewBox="0 0 36 36" fill="none" xmlns="http://www.w3.org/2000/svg"><path d="M15.235 31.297l-.742 3.148-.683-.161.742-3.148.683.161zm-.157 2.731l-.124.526-1.144-.27.123-.526 1.145.27zm-.91.803c.14.033.236.094.289.185.049.09.06.193.032.31a.416.416 0 0 1-.166.257c-.088.06-.202.075-.343.042-.144-.034-.24-.098-.287-.191a.402.402 0 0 1-.04-.305.41.41 0 0 1 .173-.262c.084-.058.198-.07.342-.036zm-.663-3.4l-1.161 3.018-.521-.2.498-1.294.061.024a2.284 2.284 0 0 1-.408.71 1.016 1.016 0 0 1-.549.323c-.206.045-.43.021-.673-.072l-.027-.011c-.374-.144-.607-.369-.699-.674-.092-.306-.052-.684.122-1.136l.664-1.725.655.253-.698 1.814c-.08.209-.086.4-.015.573.07.176.208.305.417.385.213.082.41.081.593-.003.181-.08.314-.23.399-.45l.687-1.787.655.252zm-3.207-3.111a6.047 6.047 0 0 1 .667.608l-.367.467c-.1-.104-.21-.21-.329-.32a4.712 4.712 0 0 0-.343-.3c-.22-.173-.419-.283-.596-.33a.7.7 0 0 0-.5.035c-.154.067-.305.194-.453.383l-.386.49-.413.226c.202-.238.416-.404.641-.496.222-.095.444-.125.665-.088.217.033.424.127.619.28.176.138.31.297.403.477.093.18.144.37.154.571.01.201-.017.401-.082.6a1.89 1.89 0 0 1-.307.567l-.07.09a1.876 1.876 0 0 1-.479.433 1.55 1.55 0 0 1-.565.204 1.394 1.394 0 0 1-.593-.031c-.2-.056-.39-.154-.57-.295a1.362 1.362 0 0 1-.44-.567 1.178 1.178 0 0 1-.07-.688c.045-.244.162-.494.35-.747l.135.082-.86 1.095-.439-.345 1.76-2.241c.243-.308.488-.517.737-.627.248-.115.514-.133.797-.053.28.078.591.251.934.52zM8.98 29.658a1.013 1.013 0 0 0-.447-.207.879.879 0 0 0-.482.05c-.16.061-.304.173-.43.333l-.152.194a.88.88 0 0 0-.202.481.858.858 0 0 0 .077.465c.069.146.17.27.301.374a.946.946 0 0 0 .994.124c.161-.076.309-.2.442-.369.136-.173.222-.35.257-.53a.933.933 0 0 0-.039-.505 1.003 1.003 0 0 0-.319-.41zM7.572 27.46L5.17 29.626l-.374-.414 1.002-.904.016.017c-.344.311-.67.467-.975.469-.31.004-.598-.143-.866-.44l-.076-.084.459-.415.144.16c.204.226.422.345.653.357.226.012.45-.083.673-.284l1.274-1.15.47.522zm-1.344-2.768c.132.246.206.484.22.713.014.228-.017.438-.091.628a1.716 1.716 0 0 1-.329.517 1.97 1.97 0 0 1-.493.374l-.1.055a1.96 1.96 0 0 1-.585.205 1.631 1.631 0 0 1-.612-.011 1.384 1.384 0 0 1-.57-.26 1.646 1.646 0 0 1-.461-.555c-.165-.307-.236-.598-.212-.874.024-.277.116-.524.276-.742.156-.215.358-.39.605-.522l.248-.134 1.359 2.526-.418.225-1.134-2.109.302.056a1.39 1.39 0 0 0-.443.354.782.782 0 0 0-.18.437.879.879 0 0 0 .12.501.901.901 0 0 0 .374.392.85.85 0 0 0 .496.087c.18-.02.371-.084.572-.192a1.57 1.57 0 0 0 .464-.365.88.88 0 0 0 .203-.47.976.976 0 0 0-.134-.555.976.976 0 0 0-.389-.418.603.603 0 0 0-.431-.067l-.31-.576a1.28 1.28 0 0 1 .635-.035c.207.038.398.126.572.264.174.138.323.322.446.55zm-.91-2.85c.06.224.076.44.045.646a1.553 1.553 0 0 1-.211.574 1.62 1.62 0 0 1-.425.45 1.81 1.81 0 0 1-.601.282l-.11.03c-.224.06-.442.082-.654.065a1.66 1.66 0 0 1-.599-.167 1.424 1.424 0 0 1-.469-.376 1.509 1.509 0 0 1-.294-.58 1.357 1.357 0 0 1-.018-.684 1.15 1.15 0 0 1 .344-.591c.176-.176.424-.314.745-.414l-.255.318-2.114.574-.184-.678 4.228-1.147.146.539-1.355.368-.041-.151c.339-.08.634-.085.884-.016.25.065.454.181.611.35.154.17.263.372.327.608zm-.62.031a.984.984 0 0 0-.243-.438.896.896 0 0 0-.428-.25 1.054 1.054 0 0 0-.563.01l-.25.067a.95.95 0 0 0-.467.27.92.92 0 0 0-.224.434c-.035.163-.029.329.017.499a.944.944 0 0 0 .743.7 1.3 1.3 0 0 0 .6-.033c.22-.06.401-.152.541-.277a.97.97 0 0 0 .282-.45c.045-.17.043-.347-.007-.532zm.247-2.733l-3.229.192-.041-.7 3.228-.192.042.7zm-2.662.633l-.539.032-.07-1.174.54-.032.07 1.174zm-1.03-.642c.01.144-.022.254-.094.33a.424.424 0 0 1-.287.12.416.416 0 0 1-.294-.085c-.084-.067-.13-.173-.139-.316-.009-.148.025-.258.1-.331a.402.402 0 0 1 .282-.125.41.41 0 0 1 .3.09c.08.064.124.17.133.317zm3.911-3.204a1.71 1.71 0 0 1-.25.703 1.454 1.454 0 0 1-.448.45 1.7 1.7 0 0 1-.572.218 1.996 1.996 0 0 1-.62.006l-.112-.017a1.961 1.961 0 0 1-.591-.184 1.633 1.633 0 0 1-.485-.375 1.386 1.386 0 0 1-.301-.548 1.645 1.645 0 0 1-.04-.721c.052-.345.17-.62.353-.828.185-.207.406-.35.664-.43.255-.08.52-.099.797-.058l.28.041-.42 2.838-.468-.07.35-2.368.208.225a1.39 1.39 0 0 0-.566.02.782.782 0 0 0-.406.243.879.879 0 0 0-.204.474.902.902 0 0 0 .067.537c.074.152.19.275.346.366.156.092.347.155.573.188.213.032.41.026.59-.016a.879.879 0 0 0 .444-.256.976.976 0 0 0 .223-.525.976.976 0 0 0-.061-.567.604.604 0 0 0-.306-.312l.095-.647c.212.076.388.193.53.351.144.155.244.34.301.554.057.215.067.45.03.708zm.24-2.306l-3.009-1.184.204-.52 1.29.508-.024.061a2.282 2.282 0 0 1-.708-.414 1.016 1.016 0 0 1-.318-.55 1.163 1.163 0 0 1 .078-.673l.01-.028c.147-.372.374-.603.68-.693.306-.09.685-.046 1.135.13l1.72.678-.258.653-1.809-.712a.76.76 0 0 0-.572-.02c-.178.069-.307.207-.39.415a.735.735 0 0 0 0 .593c.079.181.228.315.447.402l1.781.701-.257.653zm2.097-3.956c-.15.222-.305.39-.468.502a.796.796 0 0 1-.543.14c-.197-.021-.42-.116-.67-.283L3.317 8.339l.372-.552 2.554 1.718c.14.094.272.13.397.108a.533.533 0 0 0 .324-.245l.302-.448.507.342-.27.403zM4.233 9.6L3.8 9.308l1.26-1.872.432.292L4.233 9.6zm4.448-1.54c-.312.305-.62.476-.923.515-.3.036-.567-.058-.802-.282l.464-.452c.09.08.21.116.363.106.153-.01.324-.106.513-.29.16-.157.256-.311.286-.463.03-.153 0-.276-.093-.37a.327.327 0 0 0-.3-.102c-.116.013-.263.089-.44.228l-.248.2c-.263.206-.52.32-.773.343a.8.8 0 0 1-.658-.263.901.901 0 0 1-.266-.504c-.026-.181 0-.366.08-.555.081-.191.21-.373.388-.547.275-.268.557-.422.846-.464.286-.045.547.048.782.277l-.46.448a.418.418 0 0 0-.342-.102c-.136.016-.28.097-.432.245-.143.14-.226.276-.247.409a.37.37 0 0 0 .102.328.32.32 0 0 0 .27.105c.102-.01.225-.07.367-.182l.249-.2c.288-.226.566-.354.832-.385a.79.79 0 0 1 .701.255.89.89 0 0 1 .257.512 1.15 1.15 0 0 1-.092.602 1.866 1.866 0 0 1-.424.588zm1.073-2.658l-.32-.521 1.982-1.22.32.52-1.982 1.221zm4.701-.398a1.9 1.9 0 0 1-.756.096 1.686 1.686 0 0 1-.635-.194 1.604 1.604 0 0 1-.48-.401 1.727 1.727 0 0 1-.297-.554l-.037-.115a1.727 1.727 0 0 1-.079-.623 1.634 1.634 0 0 1 .575-1.14 1.86 1.86 0 0 1 .661-.356c.263-.084.51-.114.74-.091a1.634 1.634 0 0 1 1.128.597c.137.167.238.35.303.553l.036.114c.064.202.09.41.079.623-.013.21-.066.412-.16.606a1.685 1.685 0 0 1-.405.526 1.901 1.901 0 0 1-.673.359zm-.186-.583c.21-.067.374-.17.494-.309a.957.957 0 0 0 .215-.49 1.245 1.245 0 0 0-.051-.576 1.258 1.258 0 0 0-.293-.505.958.958 0 0 0-.464-.268 1.012 1.012 0 0 0-.577.027 1.01 1.01 0 0 0-.486.312.958.958 0 0 0-.223.487c-.029.185-.01.38.053.581.064.198.159.365.286.501a.999.999 0 0 0 .465.274c.178.044.372.033.581-.034zm1.862.236l-.343-3.33c-.038-.363.032-.64.21-.83.18-.196.46-.314.838-.353l.406-.041.057.555-.483.05a.422.422 0 0 0-.3.145.435.435 0 0 0-.074.321l.352 3.414-.663.069zm-.697-2.607l-.053-.519 2.04-.21.054.519-2.04.21zm3.006 1.186l.055-.61 2.318.213-.056.61-2.318-.213zm4.582 2.441l.293-.92-.108-.035.331-1.04c.061-.191.058-.352-.01-.483-.067-.13-.198-.227-.393-.289a12.738 12.738 0 0 0-.744-.212 7.1 7.1 0 0 0-.332-.087l.184-.577c.087.02.18.043.28.07a8.607 8.607 0 0 1 .636.178c.313.1.56.222.74.368.18.145.292.322.335.529.048.204.026.45-.066.74l-.614 1.927-.532-.17zm-1.026-.24a1.482 1.482 0 0 1-.552-.301.943.943 0 0 1-.28-.467 1.087 1.087 0 0 1 .036-.587.97.97 0 0 1 .33-.5c.152-.11.337-.171.555-.182a2.1 2.1 0 0 1 .732.114l.772.246-.14.44-.79-.251c-.201-.065-.372-.064-.51 0a.505.505 0 0 0-.28.327.505.505 0 0 0 .04.428c.077.126.217.22.419.285a.959.959 0 0 0 .357.045.622.622 0 0 0 .334-.14c.105-.079.192-.211.259-.395l.1.277c-.088.211-.2.377-.335.498a.907.907 0 0 1-.462.224 1.252 1.252 0 0 1-.585-.06zm2.014.813l1.655-2.778.48.286-.71 1.19-.056-.033a2.28 2.28 0 0 1 .523-.632c.188-.144.386-.219.595-.225.21-.01.427.052.65.185l.026.016c.344.204.536.465.575.782.04.317-.065.683-.312 1.099l-.946 1.588-.603-.36.995-1.67a.76.76 0 0 0 .111-.562c-.038-.186-.154-.336-.346-.45a.735.735 0 0 0-.585-.097c-.192.048-.348.174-.469.377l-.98 1.644-.602-.36zm2.908 1.86l2.016-2.528.549.438-2.016 2.529-.549-.438zm1.309-2.401l.336-.422.92.733-.337.422-.92-.733zm1.166-.337c-.113-.09-.174-.186-.183-.29a.424.424 0 0 1 .104-.294.416.416 0 0 1 .26-.162c.105-.017.215.019.327.108.116.093.176.191.179.296a.402.402 0 0 1-.095.293.41.41 0 0 1-.268.162c-.1.017-.208-.02-.324-.113zm-1.188 3.602l2.621-1.893.327.452-1.128.815-.039-.053c.26-.188.502-.314.727-.378.227-.06.436-.058.626.007.193.068.362.203.507.404l.017.024c.148.204.223.407.225.608a1.01 1.01 0 0 1-.191.597c-.13.197-.324.389-.583.576l-.112-.156c.259-.187.502-.311.73-.372.228-.06.438-.057.63.012.192.068.361.202.506.403l.018.025c.147.204.223.408.228.612.004.204-.058.405-.188.602a2.273 2.273 0 0 1-.582.576l-1.494 1.079-.41-.57 1.575-1.137c.192-.139.306-.295.342-.47.04-.17-.002-.34-.124-.51a.665.665 0 0 0-.472-.295c-.185-.024-.377.035-.575.178l-1.551 1.121-.415-.574 1.576-1.138c.192-.138.307-.293.346-.464.039-.172-.002-.342-.124-.51a.684.684 0 0 0-.476-.3c-.185-.025-.377.035-.575.178l-1.551 1.12-.411-.569zm3.398 6.406l.956-.14-.017-.114 1.08-.16c.198-.03.34-.103.428-.221.088-.118.117-.278.087-.48a12.634 12.634 0 0 0-.137-.762 7.059 7.059 0 0 0-.068-.336l.6-.089c.02.086.04.18.06.283a8.33 8.33 0 0 1 .12.649c.048.325.046.6-.005.826a.907.907 0 0 1-.328.533c-.162.134-.393.223-.694.267l-2 .297-.082-.552zm-.237-1.026a1.482 1.482 0 0 1 .028-.628.943.943 0 0 1 .296-.457c.144-.118.325-.194.543-.226a.971.971 0 0 1 .594.076c.166.088.302.228.407.419a2.1 2.1 0 0 1 .22.707l.12.801-.458.068-.121-.82c-.031-.209-.106-.361-.226-.457a.505.505 0 0 0-.416-.108.505.505 0 0 0-.367.224c-.079.125-.102.292-.071.502a.96.96 0 0 0 .117.34.623.623 0 0 0 .272.24c.118.059.274.078.47.057l-.206.212a1.356 1.356 0 0 1-.594-.081.907.907 0 0 1-.405-.316 1.253 1.253 0 0 1-.203-.553zm.204 2.378l4.379.065-.01.708-4.38-.065.01-.708zm3.845-.37l.54.009-.017 1.134-.54-.008.017-1.134zm-3.053 2.054l.611.032-.121 2.325-.611-.032.121-2.325zM18.62 32.88l.003.611-2.328.014-.003-.612 2.328-.014zm11.494-10.234a1.91 1.91 0 0 1 .333-.686 1.623 1.623 0 0 1 1.108-.609c.213-.02.421-.002.626.054l.115.032c.205.056.393.148.566.274a1.634 1.634 0 0 1 .641 1.104c.032.233.01.483-.063.749a1.825 1.825 0 0 1-.328.669 1.635 1.635 0 0 1-1.117.62 1.65 1.65 0 0 1-.627-.05l-.116-.032a1.725 1.725 0 0 1-.565-.274 1.604 1.604 0 0 1-.42-.464 1.684 1.684 0 0 1-.22-.627 1.902 1.902 0 0 1 .067-.76zm.59.163a1.056 1.056 0 0 0-.011.582.957.957 0 0 0 .293.448c.14.126.31.216.51.272.205.056.4.066.584.03a.957.957 0 0 0 .477-.242 1.01 1.01 0 0 0 .293-.498c.057-.208.059-.4.004-.578a.956.956 0 0 0-.286-.452 1.257 1.257 0 0 0-.516-.273 1.295 1.295 0 0 0-.576-.034.999.999 0 0 0-.483.24 1.06 1.06 0 0 0-.289.505zm-1.276 1.907l2.876 1.479-.255.496-1.2-.617.01-.022c.413.212.674.461.784.747.113.287.078.61-.105.965l-.052.101-.55-.282.099-.192c.139-.27.173-.516.102-.737-.069-.216-.237-.392-.504-.53l-1.526-.784.321-.624zm-1.308 1.662l2.559 1.977-.43.556-2.559-1.977.43-.556zm2.421 1.272l.427.33-.718.93-.428-.33.72-.93zm.354 1.16c.088-.113.185-.175.289-.186.101-.007.2.026.295.1.092.07.147.156.165.256.02.106-.015.216-.103.33-.09.117-.188.178-.293.183a.402.402 0 0 1-.294-.09.41.41 0 0 1-.166-.266c-.019-.1.017-.209.107-.326zm-5.192-1.194a6.002 6.002 0 0 1 .727-.535l.386.452a7.213 7.213 0 0 0-.378.26 4.742 4.742 0 0 0-.362.278c-.213.182-.36.354-.441.518a.7.7 0 0 0-.065.498c.036.164.131.337.287.52l.406.474.14.45a1.72 1.72 0 0 1-.361-.727c-.05-.236-.035-.46.044-.669.076-.207.208-.39.396-.552.17-.145.353-.246.547-.301.195-.056.392-.07.59-.04.2.03.39.096.572.198.185.106.35.243.496.414l.074.086c.148.174.258.358.331.554.07.198.1.396.09.594a1.42 1.42 0 0 1-.147.576 1.622 1.622 0 0 1-.401.5 1.352 1.352 0 0 1-.643.32 1.18 1.18 0 0 1-.688-.066 1.807 1.807 0 0 1-.664-.49l.107-.115.905 1.058-.424.362-1.852-2.166c-.255-.298-.412-.58-.47-.845-.065-.266-.03-.53.104-.792.131-.26.362-.53.694-.814zm1.052 1.555c-.133.114-.23.247-.29.398a.877.877 0 0 0-.046.482c.029.17.11.332.242.487l.16.187c.13.152.274.25.432.293.158.05.315.055.472.016a1.03 1.03 0 0 0 .425-.222.946.946 0 0 0 .317-.95 1.246 1.246 0 0 0-.275-.506 1.248 1.248 0 0 0-.47-.357.934.934 0 0 0-.502-.06c-.167.032-.322.11-.465.232zm-2.521.963l1.555 2.836-.615.337-1.555-2.835.615-.338zm1.711 2.134l.26.474-1.031.565-.26-.473 1.031-.566zm-.14 1.206c.127-.07.24-.088.34-.056a.425.425 0 0 1 .23.209.416.416 0 0 1 .05.301c-.025.105-.1.192-.227.262-.13.07-.244.088-.342.05a.402.402 0 0 1-.233-.2.41.41 0 0 1-.047-.31c.023-.1.1-.185.23-.256zm-3.165-2.712l.943 3.094-.534.163-.404-1.326.063-.02c.094.307.132.577.116.812-.02.236-.098.434-.234.592a1.163 1.163 0 0 1-.575.357l-.028.009c-.383.116-.705.083-.966-.101-.26-.184-.462-.507-.603-.97l-.539-1.768.672-.205.567 1.86a.757.757 0 0 0 .34.46c.164.097.353.112.567.047a.735.735 0 0 0 .465-.367c.093-.175.105-.375.037-.601l-.559-1.83.672-.206zM18 17.183c-1.951 0-3.633 1.043-4.497 2.79-.684 1.383-.632 2.817.125 3.489.403.357.869.538 1.384.538.741 0 1.418-.371 2.015-.7.358-.196.763-.418.974-.418.215 0 .63.221.996.416.603.323 1.287.688 2.021.688.51 0 .966-.177 1.356-.525.775-.693.833-2.15.14-3.543-.851-1.712-2.538-2.735-4.513-2.735zm3.7 5.724c-.212.19-.43.279-.682.279-.468 0-1.031-.301-1.528-.567-.518-.276-1.007-.537-1.49-.537-.483 0-.965.265-1.476.545-.49.269-1.044.574-1.512.574-.26 0-.486-.094-.713-.295-.421-.374-.513-1.456.063-2.62.267-.54 1.32-2.302 3.639-2.302 2.29 0 3.318 1.572 3.654 2.248.586 1.177.483 2.284.046 2.675zm-5.649-6.369c.093 0 .185-.009.276-.024 1.022-.18 1.612-1.303 1.343-2.558-.244-1.133-1.106-1.955-2.05-1.955-.093 0-.185.008-.276.023-1.022.18-1.612 1.303-1.343 2.558.243 1.133 1.106 1.956 2.05 1.956zm-.52-3.73a.518.518 0 0 1 .088-.007c.41 0 .96.497 1.133 1.3.185.864-.174 1.552-.612 1.629a.528.528 0 0 1-.089.008c-.41 0-.96-.498-1.132-1.3-.186-.865.173-1.553.612-1.63zm-1.75 3.27c-.467-.581-1.167-.942-1.828-.942a1.55 1.55 0 0 0-.856.242c-.76.496-.8 1.58-.089 2.464.467.581 1.167.942 1.828.942.318 0 .614-.083.857-.241.76-.497.798-1.58.088-2.465zm-.654 1.828a.523.523 0 0 1-.29.078c-.354 0-.77-.234-1.06-.596-.45-.56-.421-1.174-.114-1.374a.522.522 0 0 1 .29-.078c.353 0 .769.234 1.06.596.45.56.42 1.174.114 1.374zm6.547-1.392c.09.016.183.024.275.024.944 0 1.806-.823 2.05-1.956.27-1.256-.32-2.379-1.343-2.558a1.602 1.602 0 0 0-.275-.023c-.945 0-1.807.822-2.05 1.955-.27 1.255.32 2.379 1.343 2.558zm-.426-2.413c.173-.803.722-1.3 1.133-1.3.03 0 .06.002.088.007.438.077.798.765.612 1.63-.172.802-.722 1.3-1.132 1.3a.527.527 0 0 1-.089-.008c-.438-.077-.797-.765-.612-1.629zm5.655 1.276a1.556 1.556 0 0 0-.856-.241c-.66 0-1.361.36-1.828.942-.71.885-.672 1.968.089 2.465.242.158.538.241.856.241.66 0 1.361-.36 1.828-.942.71-.885.671-1.968-.089-2.465zm-.68 2.011c-.29.362-.706.596-1.06.596a.522.522 0 0 1-.29-.078c-.307-.2-.335-.814.115-1.374.29-.363.706-.596 1.059-.596.113 0 .211.026.29.078.308.2.336.814-.113 1.375z" fill="#484A4D"/></svg>