<svg viewBox="0 0 36 36" fill="none" xmlns="http://www.w3.org/2000/svg"><path fill-rule="evenodd" clip-rule="evenodd" d="M33.1 23.99a.5.5 0 0 1 .247.662 16 16 0 0 1-28.997.228.5.5 0 1 1 .903-.43 15 15 0 0 0 27.184-.214.5.5 0 0 1 .663-.247z" fill="#484A4D"/><path d="M6.032 19.844c.03.269.01.52-.062.754a1.813 1.813 0 0 1-.344.624 1.89 1.89 0 0 1-.568.446 2.13 2.13 0 0 1-.743.219l-.132.015c-.27.031-.524.018-.766-.039a1.938 1.938 0 0 1-.661-.297 1.662 1.662 0 0 1-.475-.516 1.76 1.76 0 0 1-.238-.72c-.033-.287 0-.552.1-.793a1.34 1.34 0 0 1 .499-.621c.234-.173.544-.288.932-.347l-.35.322-2.539.292-.093-.814 5.077-.583.074.646-1.627.187-.021-.18c.405-.033.746.012 1.023.136.277.118.491.288.644.51a1.7 1.7 0 0 1 .27.759zm-.72-.073a1.147 1.147 0 0 0-.204-.547 1.047 1.047 0 0 0-.45-.364 1.231 1.231 0 0 0-.652-.087l-.299.034a1.108 1.108 0 0 0-.586.23c-.155.126-.266.28-.335.46a1.24 1.24 0 0 0-.067.58 1.1 1.1 0 0 0 .734.937c.206.075.44.097.699.067a1.52 1.52 0 0 0 .671-.225c.183-.124.318-.28.405-.469a1.18 1.18 0 0 0 .084-.616zm.298-3.629l-3.769-.161.035-.818 3.77.16-.035.82zm-3.163.418l-.63-.026.06-1.371.629.027-.059 1.37zm-1.119-.867c-.007.168-.057.292-.149.372a.495.495 0 0 1-.348.104.485.485 0 0 1-.33-.133c-.09-.088-.131-.216-.124-.384.007-.172.06-.296.156-.372a.47.47 0 0 1 .341-.111.48.48 0 0 1 .337.14c.086.084.125.211.117.384zm5.385-3.42l-1.075-.338-.04.127-1.215-.382c-.223-.07-.41-.065-.562.014-.152.08-.264.233-.336.46a14.874 14.874 0 0 0-.244.87c-.04.144-.073.273-.1.387l-.674-.212c.022-.1.05-.21.081-.327a10.112 10.112 0 0 1 .204-.743c.115-.365.257-.653.426-.864.169-.211.374-.342.615-.394.238-.057.527-.032.865.074l2.25.707-.195.621zm-.274 1.198a1.714 1.714 0 0 1-.35.646 1.1 1.1 0 0 1-.543.328c-.212.051-.44.038-.685-.039-.258-.08-.453-.208-.584-.382a1.175 1.175 0 0 1-.215-.647 2.45 2.45 0 0 1 .13-.854l.283-.902.514.162-.29.921c-.074.236-.073.435.004.596.072.16.2.268.382.325a.59.59 0 0 0 .5-.048c.145-.091.255-.255.33-.49a1.12 1.12 0 0 0 .05-.418.727.727 0 0 0-.164-.389c-.093-.122-.248-.222-.463-.3l.323-.118c.247.102.441.232.582.389.139.15.227.33.264.537.035.202.012.43-.068.683zm1.081-2.448L4.336 8.999l.35-.55 1.329.845L6 9.318c-.457-.29-.734-.608-.83-.951-.101-.346-.027-.716.224-1.11l.071-.112.609.387-.136.212c-.19.3-.256.581-.197.845.057.258.234.48.53.669l1.689 1.074-.44.691zm2.644-1.027l-.495-.524.452-.428c.105-.1.183-.198.231-.295a.491.491 0 0 0 .059-.306 1.022 1.022 0 0 0-.119-.36L8.38 4.46l.575-.543 1.981 3.829c.126.241.195.468.21.68.016.208-.024.41-.122.605a2.095 2.095 0 0 1-.452.581l-.407.385zm-.228-1.933L9.48 7.58l.59-.558.457.484-.59.557zm-.147.14L6.324 6.402l.605-.573 3.424 1.84-.564.534zm1.147-2.709l-.34-.628 2.39-1.291.34.628-2.39 1.291zm4.183 1.446l-1.124-5.049.636-.141.354 1.592-.125.02c-.063-.392-.052-.729.034-1.011.085-.282.23-.51.435-.685.205-.175.446-.293.724-.355a1.72 1.72 0 0 1 1.877.795c.132.21.228.446.287.71l.029.13c.058.26.071.515.041.765a1.856 1.856 0 0 1-.221.68 1.713 1.713 0 0 1-1.146.843c-.27.06-.533.06-.79-.003a1.408 1.408 0 0 1-.696-.419c-.206-.217-.363-.524-.47-.92l.413.438.541 2.433-.8.178zm1.476-2.357c.223-.05.407-.146.553-.288.144-.147.24-.326.289-.538a1.54 1.54 0 0 0-.006-.701 1.499 1.499 0 0 0-.29-.631 1.055 1.055 0 0 0-.49-.358 1.06 1.06 0 0 0-.623-.033c-.2.045-.377.132-.53.261-.153.13-.262.293-.329.49a1.171 1.171 0 0 0-.02.65l.065.293c.052.232.149.421.291.567.146.14.315.233.508.281.192.048.386.05.582.007zm2.445.505l.16-3.77.651.029-.067 1.573-.028-.001c.023-.54.16-.94.408-1.195.25-.26.608-.38 1.074-.36l.133.006-.031.72-.252-.01c-.354-.016-.631.068-.83.25-.195.18-.3.443-.315.793l-.085 2-.819-.035zm3.888 1.106a2.217 2.217 0 0 1-.786-.416 1.966 1.966 0 0 1-.476-.611 1.871 1.871 0 0 1-.189-.706 1.985 1.985 0 0 1 .09-.727l.041-.134c.075-.236.189-.452.344-.648a1.906 1.906 0 0 1 1.314-.702 2.18 2.18 0 0 1 .87.105c.306.096.562.233.766.41a1.907 1.907 0 0 1 .675 1.327 1.91 1.91 0 0 1-.082.73l-.042.134a2.013 2.013 0 0 1-.343.648 1.87 1.87 0 0 1-.56.47 1.965 1.965 0 0 1-.739.23 2.217 2.217 0 0 1-.883-.11zm.214-.68c.245.076.471.089.678.036a1.11 1.11 0 0 0 .535-.323 1.45 1.45 0 0 0 .337-.584c.075-.236.095-.462.06-.678a1.118 1.118 0 0 0-.262-.567 1.18 1.18 0 0 0-.569-.362 1.18 1.18 0 0 0-.673-.028 1.118 1.118 0 0 0-.54.314 1.468 1.468 0 0 0-.34.59 1.512 1.512 0 0 0-.063.67c.035.217.121.408.26.574.14.161.332.28.577.357zm3.465 2.43a1.83 1.83 0 0 1-.532-.538 1.812 1.812 0 0 1-.25-.668 1.891 1.891 0 0 1 .033-.722 2.13 2.13 0 0 1 .318-.706l.075-.11c.152-.224.328-.409.528-.555a1.95 1.95 0 0 1 .657-.308 1.738 1.738 0 0 1 1.401.265c.24.163.42.36.538.593.125.23.174.492.145.783-.021.29-.136.601-.345.933l-.015-.475 1.433-2.116.678.46-2.867 4.23-.538-.365.918-1.356.151.102c-.24.328-.496.557-.77.687a1.45 1.45 0 0 1-.807.155 1.7 1.7 0 0 1-.751-.289zm.524-.499c.174.118.357.185.548.202.195.02.385-.015.57-.104a1.23 1.23 0 0 0 .49-.437l.169-.25c.133-.196.203-.394.208-.594a1.068 1.068 0 0 0-.131-.554 1.223 1.223 0 0 0-.395-.428 1.1 1.1 0 0 0-1.19-.054c-.19.108-.36.27-.506.486-.15.22-.239.439-.267.656-.025.22.005.424.092.612.09.185.226.34.412.465zm2.054 3.207c-.249-.366-.322-.728-.22-1.085.105-.36.39-.697.853-1.011l1.807-1.227.46.678-1.9 1.29c-.216.146-.347.323-.393.529-.042.204.006.408.145.612a.834.834 0 0 0 .543.376c.227.044.456-.013.688-.17l1.853-1.259.46.678-3.122 2.119-.365-.539 1.332-.904.047.07c-.313.212-.604.348-.874.407-.264.06-.505.046-.723-.042-.215-.085-.406-.25-.571-.493l-.02-.029zm1.9 3.448a2.077 2.077 0 0 1-.176-.844 1.73 1.73 0 0 1 .186-.721c.117-.216.267-.404.448-.565a2.31 2.31 0 0 1 .61-.374l.116-.049c.228-.094.463-.149.705-.163a1.9 1.9 0 0 1 .719.088c.233.075.444.2.632.374.195.177.353.412.475.705.123.297.177.586.162.865a1.52 1.52 0 0 1-.242.767 1.475 1.475 0 0 1-.612.535l-.303-.73a.84.84 0 0 0 .38-.47c.074-.202.056-.432-.051-.69a1.02 1.02 0 0 0-.386-.492 1.017 1.017 0 0 0-.563-.153c-.208 0-.428.048-.66.145a1.838 1.838 0 0 0-.565.356 1.02 1.02 0 0 0-.29.507 1.07 1.07 0 0 0 .081.633c.073.177.166.315.278.415a.933.933 0 0 0 .381.206.8.8 0 0 0 .425-.018l.306.737a1.453 1.453 0 0 1-.83.064 1.639 1.639 0 0 1-.72-.383 2.069 2.069 0 0 1-.506-.745zm-.05 3.738a2.178 2.178 0 0 1 .047-.8.929.929 0 0 1 .383-.53c.194-.127.465-.208.813-.243l3.504-.35.077.773-3.573.357c-.196.02-.341.086-.438.198-.091.117-.128.271-.109.462l.063.626-.71.071-.057-.564zm2.985-2.373l.606-.06.262 2.618-.606.06-.262-2.618zm-2.35 5.34c.007-.509.12-.904.339-1.186.218-.276.517-.42.895-.428l-.01.756c-.14.007-.27.078-.389.211-.118.134-.18.355-.184.663-.003.261.045.467.146.618.1.15.227.227.381.23.14.001.25-.053.332-.164.085-.106.144-.29.175-.55l.04-.371c.048-.387.166-.693.356-.92.19-.22.444-.33.76-.325.253.004.464.07.635.198.171.128.302.303.392.524.09.225.133.482.13.771-.007.448-.112.808-.317 1.081-.2.273-.49.41-.874.415l.01-.749a.488.488 0 0 0 .368-.198c.1-.125.15-.31.154-.558.004-.233-.04-.413-.132-.54a.432.432 0 0 0-.355-.188.373.373 0 0 0-.31.136c-.076.092-.127.243-.153.453l-.04.37c-.052.425-.176.759-.37 1.003-.191.25-.454.372-.79.367a1.039 1.039 0 0 1-.634-.211 1.334 1.334 0 0 1-.42-.573 2.176 2.176 0 0 1-.135-.835z" fill="#484A4D"/><path fill-rule="evenodd" clip-rule="evenodd" d="M13.295 11c-.822 0-1.5.677-1.5 1.5 0 .662.441 1.223 1.041 1.42l-1.285 1.543-.353.53-.008.014a2.891 2.891 0 0 0-.395 1.46V23.5c0 .822.678 1.5 1.5 1.5h5c.823 0 1.5-.678 1.5-1.5v-6.034a2.91 2.91 0 0 0-.41-1.484l-1.43-2.144c.495-.247.84-.753.84-1.338 0-.823-.677-1.5-1.5-1.5h-3zm0 1h3c.282 0 .5.218.5.5 0 .281-.218.5-.5.5h-3a.493.493 0 0 1-.5-.5c0-.282.219-.5.5-.5zm.416 2.027l-1.658 2.488a1.892 1.892 0 0 0-.258.951V23.5c0 .281.219.5.5.5h5c.282 0 .5-.219.5-.5v-6.034c0-.335-.09-.666-.26-.955l-1.656-2.484h-2.168zM19.934 16h7.133l-.961 7.686A1.5 1.5 0 0 1 24.617 25h-2.234a1.5 1.5 0 0 1-1.488-1.314L19.934 16zm1.133 1l.82 6.562a.5.5 0 0 0 .496.438h2.234a.5.5 0 0 0 .496-.438l.82-6.562h-4.866z" fill="#484A4D"/></svg>