<svg viewBox="0 0 36 36" fill="none" xmlns="http://www.w3.org/2000/svg"><path fill-rule="evenodd" clip-rule="evenodd" d="M30.307 8.565a.5.5 0 0 1 .698.115 16 16 0 1 1-26.134.175.5.5 0 1 1 .82.571 15 15 0 1 0 24.501-.164.5.5 0 0 1 .115-.697z" fill="#484A4D"/><path d="M8.795 7.412L7.727 3.848l.896-.478 2.476 2.813-.593.316-2.472-2.79.277-.149 1.04 3.555-.556.297zm-.284.151l-.313-.586.685-.366.313.587-.685.365zm-.235.125L5.574 4.853l.704-.375 2.659 2.858-.661.352zm2.396-1.278l-.313-.586.686-.366.313.587-.686.365zm.278-.148l-.997-3.744.661-.352.96 3.764-.624.332zm2.698-.866L12.356.452l.792-.207.763 2.919-.162.042a2.907 2.907 0 0 1-.107-.963c.026-.286.116-.522.27-.707.158-.191.383-.325.677-.401l.034-.01c.429-.111.79-.051 1.082.181.296.231.516.618.657 1.16l.544 2.078-.793.208-.573-2.195c-.069-.262-.2-.447-.392-.556a.801.801 0 0 0-.642-.078.834.834 0 0 0-.556.42c-.113.213-.133.46-.06.74l.55 2.106-.792.207zm5.782-.479a2.021 2.021 0 0 1-.839-.23 1.688 1.688 0 0 1-.56-.483 2.004 2.004 0 0 1-.304-.646 2.33 2.33 0 0 1-.06-.72l.01-.133c.018-.247.072-.482.163-.704.096-.227.228-.426.395-.596.167-.175.371-.308.611-.398A1.92 1.92 0 0 1 19.683.9c.404.03.735.143.992.34.258.196.443.441.557.735.115.29.16.597.136.922l-.024.329-3.337-.245.04-.551 2.786.204-.244.263a1.624 1.624 0 0 0-.07-.658.913.913 0 0 0-.319-.452 1.026 1.026 0 0 0-.568-.196 1.052 1.052 0 0 0-.62.123.999.999 0 0 0-.396.435 1.84 1.84 0 0 0-.17.682c-.018.251.005.48.07.686.064.201.176.366.335.495.16.124.37.195.63.214.261.02.48-.02.655-.12.176-.104.288-.232.337-.383l.76.056c-.07.252-.19.468-.363.647-.167.18-.373.312-.618.397a2.032 2.032 0 0 1-.821.094zm5.287.99l.292-1.089-.128-.034.33-1.23c.06-.226.048-.413-.038-.562-.086-.148-.244-.253-.474-.315a14.922 14.922 0 0 0-.88-.207 8.333 8.333 0 0 0-.39-.083l.183-.683c.102.018.212.04.33.067a10.079 10.079 0 0 1 .751.172c.37.1.664.23.882.39.218.159.357.358.419.597.067.236.055.525-.037.867l-.611 2.279-.629-.17zm-1.209-.223a1.729 1.729 0 0 1-.66-.322 1.1 1.1 0 0 1-.35-.529c-.06-.21-.057-.438.01-.686.07-.261.189-.461.356-.6.172-.137.385-.218.638-.242.253-.024.539.007.859.093l.913.245-.14.52-.933-.25c-.239-.064-.437-.054-.595.029a.589.589 0 0 0-.309.395.59.59 0 0 0 .07.497c.097.142.265.246.504.31.14.037.28.048.419.032.14-.02.268-.08.381-.18.119-.099.212-.257.28-.476l.132.318c-.091.251-.212.45-.363.599-.145.144-.32.24-.526.286-.2.043-.429.03-.686-.039zm4.341 1.288a2.179 2.179 0 0 1-.628-.497.928.928 0 0 1-.215-.618c.007-.232.096-.5.267-.806l1.724-3.07.677.38-1.758 3.132c-.096.17-.125.328-.088.472.043.142.148.26.315.353l.55.309-.35.623-.494-.278zm-.232-3.807l.299-.53 2.295 1.288-.298.53-2.296-1.288zm-4.587 10.3h-.903l-1.587-1.471a3.776 3.776 0 0 0-5.09-.014l-1.62 1.485h-.86a.41.41 0 0 0-.41.41v1.75c0 .226.184.41.41.41h.654l-.83 6.661A2.05 2.05 0 0 0 14.827 25h6.344a2.05 2.05 0 0 0 2.035-2.304l-.83-6.662h.652a.41.41 0 0 0 .41-.41v-1.749a.41.41 0 0 0-.41-.41zm-7.027-.88a2.952 2.952 0 0 1 3.98.01l.938.87h-5.877l.96-.88zm6.39 10.213a1.23 1.23 0 0 1-1.22 1.382H18.41V21.8c.424.115.917.062 1.342-.182.753-.432.81-1.572.813-1.7a.41.41 0 0 0-.214-.373c-.079-.043-.596-.312-1.157-.323.077-.205.119-.424.118-.646 0-.868-.961-1.483-1.07-1.55a.41.41 0 0 0-.43 0c-.11.067-1.07.684-1.07 1.553.001.224.045.443.121.644-.584-.006-1.135.282-1.216.326a.41.41 0 0 0-.214.374c.005.128.063 1.268.817 1.698.418.24.91.297 1.34.18v2.38h-2.762a1.23 1.23 0 0 1-1.22-1.382l.842-6.764h7.1l.843 6.764zM18.88 20.1c.218-.125.598-.03.834.057-.05.281-.165.63-.372.75-.394.225-.849.112-.918-.01-.068-.117.055-.567.456-.797zm-.591-.925c-.153.197-.272.194-.262.194-.12 0-.465-.31-.465-.792 0-.238.245-.512.464-.695.219.183.465.456.465.694a.992.992 0 0 1-.202.599zm-.714 1.723c-.07.122-.524.236-.92.01-.206-.118-.321-.467-.372-.748.268-.099.627-.176.834-.058.41.234.52.688.458.796zm5.043-5.684H13.38v-.929h9.24v.93z" fill="#484A4D"/></svg>