<svg viewBox="0 0 96 96" fill="none" xmlns="http://www.w3.org/2000/svg"><path d="M9 20.25l12-9.75h54l12 9.75V82.5H9V20.25z" fill="#CDF7CA"/><path d="M54 37.5H39v-18l3-9h9l3 9v18z" fill="#fff"/><path d="M22.998 9a7.55 7.55 0 0 0-4.5 1.5l-7.998 6a7.523 7.523 0 0 0-3 6v57c0 2.478 2.021 4.5 4.5 4.5h72a4.51 4.51 0 0 0 4.5-4.5v-57c0-2.35-1.12-4.594-3-6l-7.998-6a7.55 7.55 0 0 0-4.5-1.5H22.998zm0 3h16.934c-.012.023-.024.053-.035.076l-2.004 6.018h-24.51l6.914-5.192A4.51 4.51 0 0 1 22.998 12zm21.158 0h4.688a1.5 1.5 0 0 1 1.424 1.02l1.693 5.074.31.955c.153.463.229.949.229 1.43V36h-12V20.479c0-.481.076-.967.228-1.43l.311-.955 1.693-5.075A1.5 1.5 0 0 1 44.156 12zm8.912 0h19.934a4.51 4.51 0 0 1 2.701.902l7.998 5.995A4.526 4.526 0 0 1 85.5 22.5v57c0 .826-.674 1.5-1.5 1.5H12c-.826 0-1.5-.674-1.5-1.5v-57c0-.486.105-.955.258-1.406H37.5V36c0 1.652 1.348 3 3 3h12c1.652 0 3-1.348 3-3V21.094H66c.826 0 1.5-.68 1.5-1.5 0-.844-.674-1.5-1.5-1.5H55.107l-2.004-6.018c-.011-.023-.023-.053-.035-.076zM72 18.088c-.832 0-1.5.668-1.5 1.5a1.5 1.5 0 0 0 1.5 1.5h6a1.5 1.5 0 0 0 1.5-1.5c0-.832-.668-1.5-1.5-1.5h-6zM18 45a1.5 1.5 0 0 0-1.5 1.5v6c0 3.621 2.584 6.65 6 7.348V66H21a1.5 1.5 0 1 0 0 3h6a1.5 1.5 0 1 0 0-3h-1.5v-6.152c3.416-.698 6-3.727 6-7.348v-6A1.5 1.5 0 0 0 30 45H18zm30 0c-5.79 0-10.5 4.71-10.5 10.5A1.5 1.5 0 0 0 39 57h7.5v7.5c0 .826-.674 1.5-1.5 1.5s-1.5-.674-1.5-1.5a1.5 1.5 0 1 0-3 0c0 2.478 2.022 4.5 4.5 4.5s4.5-2.022 4.5-4.5V57H57a1.5 1.5 0 0 0 1.5-1.5C58.5 49.71 53.79 45 48 45zm-28.5 3h9v4.5c0 2.478-2.021 4.5-4.5 4.5a4.509 4.509 0 0 1-4.5-4.5V48zM48 48c3.621 0 6.65 2.584 7.348 6H40.652c.698-3.416 3.727-6 7.348-6zM15 72.088c-.832 0-1.5.668-1.5 1.5v3a1.5 1.5 0 1 0 3 0v-3c0-.832-.668-1.5-1.5-1.5zm7.5 0c-.832 0-1.5.668-1.5 1.5v3a1.5 1.5 0 1 0 3 0v-3c0-.832-.668-1.5-1.5-1.5zm7.5 0c-.832 0-1.5.668-1.5 1.5v3a1.5 1.5 0 1 0 3 0v-3c0-.832-.668-1.5-1.5-1.5zm7.5 0c-.832 0-1.5.668-1.5 1.5v3a1.5 1.5 0 1 0 3 0v-3c0-.832-.668-1.5-1.5-1.5zm7.5 0c-.832 0-1.5.668-1.5 1.5v3a1.5 1.5 0 1 0 3 0v-3c0-.832-.668-1.5-1.5-1.5zm7.5 0c-.832 0-1.5.668-1.5 1.5v3a1.5 1.5 0 1 0 3 0v-3c0-.832-.668-1.5-1.5-1.5zm7.5 0c-.832 0-1.5.668-1.5 1.5v3a1.5 1.5 0 1 0 3 0v-3c0-.832-.668-1.5-1.5-1.5zm7.5 0c-.832 0-1.5.668-1.5 1.5v3a1.5 1.5 0 1 0 3 0v-3c0-.832-.668-1.5-1.5-1.5zm7.5 0c-.832 0-1.5.668-1.5 1.5v3a1.5 1.5 0 1 0 3 0v-3c0-.832-.668-1.5-1.5-1.5zm7.5 0c-.832 0-1.5.668-1.5 1.5v3a1.5 1.5 0 1 0 3 0v-3c0-.832-.668-1.5-1.5-1.5z" fill="#34A34F"/></svg>