<svg viewBox="0 0 96 96" fill="none" xmlns="http://www.w3.org/2000/svg"><path fill-rule="evenodd" clip-rule="evenodd" d="M94.5 13.5h-93v66h93v-66zm-24 9h-60v48h60v-12c-7.185-6.387-7.185-17.613 0-24v-12z" fill="#CDF7CA"/><path d="M4.5 12A4.505 4.505 0 0 0 0 16.5v60C0 78.981 2.019 81 4.5 81H9v1.5c0 2.481 2.019 4.5 4.5 4.5h3c2.481 0 4.5-2.019 4.5-4.5V81h54v1.5c0 2.481 2.019 4.5 4.5 4.5h3c2.481 0 4.5-2.019 4.5-4.5V81h4.5c2.481 0 4.5-2.019 4.5-4.5v-60c0-2.481-2.019-4.5-4.5-4.5h-87zm0 3h87c.826 0 1.5.674 1.5 1.5V24a1.5 1.5 0 0 0-1.5 1.5v3A1.5 1.5 0 0 0 93 30v27h-4.696a5.986 5.986 0 0 0-5.804-4.5 5.986 5.986 0 0 0-5.804 4.5H70.5c-.148 0-.704-.15-.873-.243C67.869 55.789 66 51.865 66 46.5c0-5.365 1.869-9.29 3.627-10.257C71.112 35.427 72 34.008 72 32.45V24c0-1.654-1.346-3-3-3H12c-1.655 0-3 1.346-3 3v33H3V16.5c0-.826.674-1.5 1.5-1.5zm7.5 9h57v8.45c0 .662-.625 1.059-.817 1.165C65.083 35.32 63 40.498 63 46.5s2.082 11.182 5.183 12.888c.192.105.817.5.817 1.163V69H12V24zm66 0a1.5 1.5 0 0 0-1.5 1.5v3a1.5 1.5 0 0 0 3 0v-3A1.5 1.5 0 0 0 78 24zm7.5 0a1.5 1.5 0 0 0-1.5 1.5v3a1.5 1.5 0 0 0 3 0v-3a1.5 1.5 0 0 0-1.5-1.5zm-66 9a1.5 1.5 0 0 0 0 3c2.646 0 3.89.622 5.33 1.342 1.555.777 3.319 1.658 6.673 1.658s5.117-.881 6.67-1.658C39.616 36.622 40.86 36 43.507 36c2.644 0 3.886.622 5.326 1.342C50.386 38.119 52.148 39 55.5 39a1.5 1.5 0 0 0 0-3c-2.645 0-3.888-.622-5.326-1.342C48.62 33.881 46.86 33 43.506 33s-5.12.881-6.674 1.658c-1.44.72-2.682 1.342-5.33 1.342-2.647 0-3.891-.622-5.331-1.342C24.617 33.881 22.854 33 19.5 33zm63 4.5c-3.309 0-6 2.691-6 6s2.691 6 6 6 6-2.691 6-6-2.691-6-6-6zm0 3c1.654 0 3 1.346 3 3s-1.346 3-3 3-3-1.346-3-3 1.346-3 3-3zm-63 3a1.5 1.5 0 0 0 0 3c2.646 0 3.89.622 5.33 1.342 1.555.777 3.319 1.658 6.673 1.658s5.117-.881 6.67-1.658c1.442-.72 2.687-1.342 5.333-1.342 2.644 0 3.886.622 5.326 1.342 1.554.777 3.316 1.658 6.668 1.658a1.5 1.5 0 0 0 0-3c-2.645 0-3.888-.622-5.326-1.342-1.554-.777-3.314-1.658-6.668-1.658s-5.12.881-6.674 1.658c-1.44.72-2.682 1.342-5.33 1.342-2.647 0-3.891-.622-5.331-1.342-1.554-.777-3.317-1.658-6.671-1.658zm0 10.5a1.5 1.5 0 0 0 0 3c2.646 0 3.89.622 5.33 1.342 1.555.777 3.319 1.658 6.673 1.658s5.117-.881 6.67-1.658C39.616 57.622 40.86 57 43.507 57c2.644 0 3.886.622 5.326 1.342C50.386 59.119 52.148 60 55.5 60a1.5 1.5 0 0 0 0-3c-2.645 0-3.888-.622-5.326-1.342C48.62 54.881 46.86 54 43.506 54s-5.12.881-6.674 1.658c-1.44.72-2.682 1.342-5.33 1.342-2.647 0-3.891-.622-5.331-1.342C24.617 54.881 22.854 54 19.5 54zm63 1.5c1.11 0 2.07.6 2.596 1.5a2.992 2.992 0 0 1 0 3 2.995 2.995 0 0 1-5.192 0 2.992 2.992 0 0 1 0-3c.525-.9 1.486-1.5 2.596-1.5zM3 60h6v9c0 1.654 1.345 3 3 3h57c1.654 0 3-1.346 3-3v-8.45c0-.188-.054-.367-.08-.55h4.776a5.986 5.986 0 0 0 5.804 4.5 5.986 5.986 0 0 0 5.804-4.5H93v16.5c0 .826-.674 1.5-1.5 1.5h-87c-.826 0-1.5-.674-1.5-1.5V60zm76.5 9a1.5 1.5 0 0 0 0 3h6a1.5 1.5 0 0 0 0-3h-6zM12 81h6v1.5c0 .826-.674 1.5-1.5 1.5h-3c-.826 0-1.5-.674-1.5-1.5V81zm66 0h6v1.5c0 .826-.674 1.5-1.5 1.5h-3c-.826 0-1.5-.674-1.5-1.5V81z" fill="#34A34F"/></svg>