<svg viewBox="0 0 96 96" fill="none" xmlns="http://www.w3.org/2000/svg"><path d="M2.25 54.75v-13.5H94.5v13.5h-3L84 91.5H11.25L4.5 54.75H2.25z" fill="#CDF7CA"/><path d="M61.5 3A4.509 4.509 0 0 0 57 7.5c0 1.723.984 3.2 2.408 3.96l-3.586 7.759c-2.408.603-4.705 1.763-6.556 3.334a8.633 8.633 0 0 0-.498-1.014c-3.088-5.338-11.121-6.187-11.461-6.217a1.518 1.518 0 0 0-1.518.873c-.105.235-2.027 4.565-1.582 8.977L27 32.379 23.121 28.5a3.01 3.01 0 0 0-4.242 0L8.379 39H4.5A4.509 4.509 0 0 0 0 43.5v9a4.502 4.502 0 0 0 3.2 4.307l5.402 32.431A4.485 4.485 0 0 0 13.043 93h69.914a4.49 4.49 0 0 0 4.441-3.762l5.403-32.431A4.502 4.502 0 0 0 96 52.5v-9a4.51 4.51 0 0 0-4.5-4.5h-3.2l-.322-2.262a49.628 49.628 0 0 0-4.054-13.746l-5.332-11.531C80.016 10.699 81 9.223 81 7.5 81 5.021 78.978 3 76.5 3h-15zm0 3h15c.826 0 1.5.674 1.5 1.5S77.326 9 76.5 9h-15c-.826 0-1.5-.674-1.5-1.5S60.674 6 61.5 6zm.96 6h13.08l5.653 12.258a46.392 46.392 0 0 1 3.815 12.908L85.272 39h-6.803c-1.166-6.111-3.797-11.578-7.307-15.088-4.242-4.242-8.63-5.185-11.818-5.15L62.46 12zm-24.339 6.48c2.033.393 6.305 1.553 8.045 4.56 1.74 3.017.604 7.294-.07 9.251-2.04-.393-6.31-1.553-8.051-4.564-1.735-3.012-.604-7.29.076-9.247zm21.95 3.293c3.24.159 6.31 1.606 8.97 4.266 2.941 2.941 5.262 7.723 6.363 12.961H37.307c.433-.645.925-1.242 1.453-1.764 1.36-1.365 3.03-2.156 4.95-2.425 1.741.486 3.065.632 3.206.644a1.49 1.49 0 0 0 1.506-.873c.105-.229 1.91-4.307 1.617-8.566.164-.194.322-.387.498-.563 2.086-2.086 5.127-3.457 8.139-3.668.468-.03.937-.035 1.394-.012zm-24.973 6.75c.111.24.217.475.351.71.973 1.687 2.444 2.923 4.008 3.832a11.536 11.536 0 0 0-2.824 2.044c-1.096 1.102-2.04 2.438-2.783 3.891h-9.23l10.477-10.477zM21 30.621l3.879 3.879-4.5 4.5H12.62L21 30.621zM4.5 42h87c.826 0 1.5.674 1.5 1.5v9c0 .826-.674 1.5-1.5 1.5-.732 0-1.36.533-1.477 1.254L84.44 88.746A1.492 1.492 0 0 1 82.963 90h-69.92a1.494 1.494 0 0 1-1.482-1.254L6.27 57H73.5c.832 0 1.5-.668 1.5-1.5s-.668-1.5-1.5-1.5h-69c-.826 0-1.5-.674-1.5-1.5v-9c0-.826.674-1.5 1.5-1.5zm75 12c-.832 0-1.5.668-1.5 1.5s.668 1.5 1.5 1.5h6c.832 0 1.5-.668 1.5-1.5s-.668-1.5-1.5-1.5h-6zm-66 6c-.832 0-1.5.668-1.5 1.5v3c0 .832.668 1.5 1.5 1.5s1.5-.668 1.5-1.5v-3c0-.832-.668-1.5-1.5-1.5zm7.5 0c-.832 0-1.5.668-1.5 1.5v3c0 .832.668 1.5 1.5 1.5s1.5-.668 1.5-1.5v-3c0-.832-.668-1.5-1.5-1.5zm7.5 0c-.832 0-1.5.668-1.5 1.5v3c0 .832.668 1.5 1.5 1.5s1.5-.668 1.5-1.5v-3c0-.832-.668-1.5-1.5-1.5zm7.5 0c-.832 0-1.5.668-1.5 1.5v3c0 .832.668 1.5 1.5 1.5s1.5-.668 1.5-1.5v-3c0-.832-.668-1.5-1.5-1.5zm7.5 0c-.832 0-1.5.668-1.5 1.5v3c0 .832.668 1.5 1.5 1.5s1.5-.668 1.5-1.5v-3c0-.832-.668-1.5-1.5-1.5zm9 0c-.832 0-1.5.668-1.5 1.5v3c0 .832.668 1.5 1.5 1.5s1.5-.668 1.5-1.5v-3c0-.832-.668-1.5-1.5-1.5zm7.5 0c-.832 0-1.5.668-1.5 1.5v3c0 .832.668 1.5 1.5 1.5s1.5-.668 1.5-1.5v-3c0-.832-.668-1.5-1.5-1.5zm7.5 0c-.832 0-1.5.668-1.5 1.5v3c0 .832.668 1.5 1.5 1.5s1.5-.668 1.5-1.5v-3c0-.832-.668-1.5-1.5-1.5zm7.5 0c-.832 0-1.5.668-1.5 1.5v3c0 .832.668 1.5 1.5 1.5s1.5-.668 1.5-1.5v-3c0-.832-.668-1.5-1.5-1.5zm7.5 0c-.832 0-1.5.668-1.5 1.5v3c0 .832.668 1.5 1.5 1.5s1.5-.668 1.5-1.5v-3c0-.832-.668-1.5-1.5-1.5zm-66 24c-.832 0-1.5.668-1.5 1.5s.668 1.5 1.5 1.5h51c.832 0 1.5-.668 1.5-1.5s-.668-1.5-1.5-1.5h-51zm57 0c-.832 0-1.5.668-1.5 1.5s.668 1.5 1.5 1.5h6c.832 0 1.5-.668 1.5-1.5s-.668-1.5-1.5-1.5h-6z" fill="#34A34F"/></svg>