<svg viewBox="0 0 96 96" fill="none" xmlns="http://www.w3.org/2000/svg"><path fill-rule="evenodd" clip-rule="evenodd" d="M70 19.5H50V26h-4v-6.5H26V26h-4v-6.5H10.5v66h75v-66H74V26h-4v-6.5zm-49 24h54v27H21v-27z" fill="#CDF7CA"/><path d="M24 7.5a4.502 4.502 0 0 0-4.5 4.5v4.5H12A4.502 4.502 0 0 0 7.5 21v63c0 2.484 2.016 4.5 4.5 4.5h72c2.484 0 4.5-2.016 4.5-4.5V21c0-2.484-2.016-4.5-4.5-4.5h-7.5V12c0-2.484-2.016-4.5-4.5-4.5a4.502 4.502 0 0 0-4.5 4.5v4.5h-15V12c0-2.484-2.016-4.5-4.5-4.5a4.502 4.502 0 0 0-4.5 4.5v4.5h-15V12c0-2.484-2.016-4.5-4.5-4.5zm0 3c.826 0 1.5.674 1.5 1.5v12c0 .826-.674 1.5-1.5 1.5s-1.5-.674-1.5-1.5V12c0-.826.674-1.5 1.5-1.5zm24 0c.827 0 1.5.674 1.5 1.5v12c0 .826-.673 1.5-1.5 1.5s-1.5-.674-1.5-1.5V12c0-.826.673-1.5 1.5-1.5zm24 0c.826 0 1.5.674 1.5 1.5v12c0 .826-.674 1.5-1.5 1.5s-1.5-.674-1.5-1.5V12c0-.826.674-1.5 1.5-1.5zm-60 9h7.5V24c0 2.484 2.016 4.5 4.5 4.5s4.5-2.016 4.5-4.5v-4.5h15V24c0 2.484 2.016 4.5 4.5 4.5s4.5-2.016 4.5-4.5v-4.5h15V24c0 2.484 2.016 4.5 4.5 4.5s4.5-2.016 4.5-4.5v-4.5H84c.826 0 1.5.674 1.5 1.5v10.5c-.826 0-1.5.673-1.5 1.5v3c0 .827.674 1.5 1.5 1.5V84c0 .826-.674 1.5-1.5 1.5H12c-.826 0-1.5-.674-1.5-1.5V37.5c.826 0 1.5-.673 1.5-1.5v-3c0-.827-.674-1.5-1.5-1.5V21c0-.826.674-1.5 1.5-1.5zm6 12c-.826 0-1.5.673-1.5 1.5v3c0 .827.674 1.5 1.5 1.5s1.5-.673 1.5-1.5v-3c0-.827-.674-1.5-1.5-1.5zm7.5 0c-.826 0-1.5.673-1.5 1.5v3c0 .827.674 1.5 1.5 1.5S27 36.827 27 36v-3c0-.827-.674-1.5-1.5-1.5zm7.5 0c-.827 0-1.5.673-1.5 1.5v3c0 .827.673 1.5 1.5 1.5s1.5-.673 1.5-1.5v-3c0-.827-.673-1.5-1.5-1.5zm7.5 0c-.827 0-1.5.673-1.5 1.5v3c0 .827.673 1.5 1.5 1.5S42 36.827 42 36v-3c0-.827-.673-1.5-1.5-1.5zm7.5 0c-.827 0-1.5.673-1.5 1.5v3c0 .827.673 1.5 1.5 1.5s1.5-.673 1.5-1.5v-3c0-.827-.673-1.5-1.5-1.5zm7.5 0c-.827 0-1.5.673-1.5 1.5v3c0 .827.673 1.5 1.5 1.5S57 36.827 57 36v-3c0-.827-.673-1.5-1.5-1.5zm7.5 0c-.827 0-1.5.673-1.5 1.5v3c0 .827.673 1.5 1.5 1.5s1.5-.673 1.5-1.5v-3c0-.827-.673-1.5-1.5-1.5zm7.5 0c-.826 0-1.5.673-1.5 1.5v3c0 .827.674 1.5 1.5 1.5S72 36.827 72 36v-3c0-.827-.674-1.5-1.5-1.5zm7.5 0c-.826 0-1.5.673-1.5 1.5v3c0 .827.674 1.5 1.5 1.5s1.5-.673 1.5-1.5v-3c0-.827-.674-1.5-1.5-1.5zM21 42a1.5 1.5 0 0 0-1.5 1.5v27A1.5 1.5 0 0 0 21 72h54a1.5 1.5 0 0 0 1.5-1.5v-27A1.5 1.5 0 0 0 75 42H21zm1.5 3H33v10.5H22.5V45zM36 45h10.5v10.5H36V45zm13.5 0H60v10.5H49.5V45zM63 45h10.5v10.5H63V45zM22.5 58.5H33V69H22.5V58.5zm13.5 0h10.5V69H36V58.5zm13.5 0H60V69H49.5V58.5zm13.5 0h10.5V69H63V58.5zm-48 18c-.826 0-1.5.674-1.5 1.5s.674 1.5 1.5 1.5h66c.826 0 1.5-.674 1.5-1.5s-.674-1.5-1.5-1.5H15z" fill="#34A34F"/></svg>