<svg viewBox="0 0 96 96" fill="none" xmlns="http://www.w3.org/2000/svg"><path fill-rule="evenodd" clip-rule="evenodd" d="M31.5 16.5H21v66h43.5L75 72V16.5H64.5v-6L61.962 9H84v81H12V9h22.038L31.5 10.5v6z" fill="#CDF7CA"/><path d="M48 .182c-3.094 0-6.188.96-8.824 2.877L35.139 6H13.5A4.509 4.509 0 0 0 9 10.5v78c0 2.478 2.021 4.5 4.5 4.5h69a4.51 4.51 0 0 0 4.5-4.5v-78C87 8.021 84.978 6 82.5 6H60.861l-4.043-2.941A14.987 14.987 0 0 0 48 .182zm0 3.006c2.473 0 4.945.767 7.055 2.296l6.093 4.43A4.521 4.521 0 0 1 63 13.56v2.94c0 .826-.674 1.5-1.5 1.5h-27c-.826 0-1.5-.674-1.5-1.5v-2.941a4.52 4.52 0 0 1 1.852-3.645l6.093-4.43A12.004 12.004 0 0 1 48 3.188zM48 6a2.998 2.998 0 0 0-2.935 2.396A2.924 2.924 0 0 0 45 9c0 .205.023.41.065.604A2.998 2.998 0 0 0 48 12a2.998 2.998 0 0 0 2.935-2.396 2.873 2.873 0 0 0 0-1.208A2.998 2.998 0 0 0 48 6zM13.5 9h18.059A7.522 7.522 0 0 0 30 13.559V15h-9c-1.652 0-3 1.348-3 3v63c0 1.652 1.348 3 3 3h42.258a4.473 4.473 0 0 0 3.181-1.318l10.243-10.243A4.473 4.473 0 0 0 78 69.258V18c0-1.652-1.348-3-3-3h-9v-1.441A7.522 7.522 0 0 0 64.441 9H82.5c.826 0 1.5.674 1.5 1.5v78c0 .826-.674 1.5-1.5 1.5h-69c-.826 0-1.5-.674-1.5-1.5v-78c0-.826.674-1.5 1.5-1.5zm7.5 9h9.275c.622 1.74 2.274 3 4.225 3h27c1.951 0 3.603-1.26 4.225-3H75v51h-9c-1.652 0-3 1.348-3 3v9H21V18zm4.5 6c-.826 0-1.5.674-1.5 1.5v3c0 .826.674 1.5 1.5 1.5s1.5-.674 1.5-1.5v-3c0-.826-.674-1.5-1.5-1.5zm7.5 0c-.826 0-1.5.674-1.5 1.5v3c0 .826.674 1.5 1.5 1.5s1.5-.674 1.5-1.5v-3c0-.826-.674-1.5-1.5-1.5zm7.5 0c-.826 0-1.5.674-1.5 1.5v3c0 .826.674 1.5 1.5 1.5s1.5-.674 1.5-1.5v-3c0-.826-.674-1.5-1.5-1.5zm7.5 0c-.826 0-1.5.674-1.5 1.5v3c0 .826.674 1.5 1.5 1.5s1.5-.674 1.5-1.5v-3c0-.826-.674-1.5-1.5-1.5zm7.5 0c-.826 0-1.5.674-1.5 1.5v3c0 .826.674 1.5 1.5 1.5s1.5-.674 1.5-1.5v-3c0-.826-.674-1.5-1.5-1.5zm7.5 0c-.826 0-1.5.674-1.5 1.5v3c0 .826.674 1.5 1.5 1.5s1.5-.674 1.5-1.5v-3c0-.826-.674-1.5-1.5-1.5zm7.5 0c-.826 0-1.5.674-1.5 1.5v3c0 .826.674 1.5 1.5 1.5s1.5-.674 1.5-1.5v-3c0-.826-.674-1.5-1.5-1.5zM30 39c-1.652 0-3 1.348-3 3v3c0 1.652 1.348 3 3 3h3c1.652 0 3-1.348 3-3v-3c0-1.652-1.348-3-3-3h-3zm10.5 0c-.826 0-1.5.674-1.5 1.5s.674 1.5 1.5 1.5h15c.826 0 1.5-.674 1.5-1.5s-.674-1.5-1.5-1.5h-15zm21 0c-.826 0-1.5.674-1.5 1.5s.674 1.5 1.5 1.5h6c.826 0 1.5-.674 1.5-1.5s-.674-1.5-1.5-1.5h-6zm-32.063 2.438h4.125v4.124h-4.124v-4.124zM40.5 45c-.826 0-1.5.674-1.5 1.5s.674 1.5 1.5 1.5h18c.826 0 1.5-.674 1.5-1.5s-.674-1.5-1.5-1.5h-18zm-6 9a1.5 1.5 0 0 0-1.06.44L30 57.879l-.44-.44a1.5 1.5 0 1 0-2.12 2.121l1.5 1.5c.292.293.673.44 1.06.44a1.49 1.49 0 0 0 1.06-.44l4.5-4.5A1.5 1.5 0 0 0 34.5 54zm6 0c-.826 0-1.5.674-1.5 1.5s.674 1.5 1.5 1.5h24c.826 0 1.5-.674 1.5-1.5s-.674-1.5-1.5-1.5h-24zm0 6c-.826 0-1.5.674-1.5 1.5s.674 1.5 1.5 1.5h18c.826 0 1.5-.674 1.5-1.5s-.674-1.5-1.5-1.5h-18zM66 72h6.879L66 78.879V72z" fill="#34A34F"/></svg>