<svg viewBox="0 0 64 64" xmlns="http://www.w3.org/2000/svg"><path d="M16 11c-2.75 0-5 2.25-5 5v32c0 2.75 2.25 5 5 5h32c2.75 0 5-2.25 5-5V16c0-2.75-2.25-5-5-5H16zm0 2h32c1.669 0 3 1.332 3 3v32c0 1.669-1.331 3-3 3H16c-1.668 0-3-1.331-3-3V16c0-1.668 1.332-3 3-3zm2 2v13h28V15H18zm2 2h24v9H20v-9zm5 1a1 1 0 0 0-1 1v5a1 1 0 0 0 1 1h3a1 1 0 0 0 1-1v-5a1 1 0 0 0-1-1h-3zm9 0a1 1 0 0 0-1 1v5a1 1 0 0 0 1 1h3a1 1 0 0 0 1-1v-5a1 1 0 0 0-1-1h-3zm6 0v7h2v-7h-2zm-14 2h1v3h-1v-3zm9 0h1v3h-1v-3zm-5 3v2h2v-2h-2zm-10.758 8.773a1.001 1.001 0 0 0-.914 1.455c.893 1.8 1.97 3.313 3.166 4.573a5.876 5.876 0 0 0-.049.78c-.033 1.784.528 3.537 1.623 5.03.962 1.308 2.347 2.355 4.116 3.114a1.997 1.997 0 0 0 2.04-.277v-.003c.398.392.672.65.786.756.337.317.794.53 1.256.56.242.017.496.024.763.024 2.451 0 5.072-.712 7.188-1.955 2.868-1.686 4.237-3.343 5.426-6.57.779-2.114.54-4.274.51-4.514a2 2 0 0 0-3.663-.846c-.246.378-.532.464-1.928.569-1.061.08-2.383.18-3.726.846-.786.389-1.676.832-2.652.832-.218 0-.44-.024-.66-.067-.287-.056-.956-.282-1.174-.398a7.147 7.147 0 0 1-.436-.245l-.066-.039a2.007 2.007 0 0 0-1.16-.273c-.432.031-.97.075-1.498.121a2.002 2.002 0 0 0-2.31-1.209c-1.396.325-2.52.934-3.446 1.834a17.468 17.468 0 0 1-2.315-3.531 1 1 0 0 0-.877-.567zm23.926 3.22s.23 1.854-.404 3.573c-1.057 2.87-2.139 4.112-4.563 5.537-2.1 1.234-4.434 1.682-6.172 1.682-.219 0-.429-.007-.627-.021-.115-.11-.504-.47-1.084-1.053-.659-.664-1.413-1.48-1.713-1.928a.514.514 0 0 0-.609-.191.516.516 0 0 0-.318.556 48.9 48.9 0 0 0 .295 1.739c-1.28-.55-2.471-1.346-3.29-2.46a6.288 6.288 0 0 1-1.17-2.843c5.247 3.923 11.968 3.75 16.516.195a1 1 0 1 0-1.23-1.574c-4.085 3.193-10.291 3.333-14.98-.895.778-.757 1.667-1.127 2.513-1.324-.282.326-.508.635-.508.635a.515.515 0 0 0 .414.813c.017 0 .036 0 .053-.002 0 0 2.27-.222 3.54-.313.098.058.256.158.583.328.411.218 1.275.508 1.729.596.362.071.708.102 1.04.102 1.429 0 2.598-.572 3.542-1.04 2.409-1.192 5.033.052 6.443-2.113z"/></svg>