<svg viewBox="0 0 24 24" xmlns="http://www.w3.org/2000/svg"><path fill-rule="evenodd" clip-rule="evenodd" d="M4.63 8.25L9 3.152l4.37 5.098h-1.12a1 1 0 0 0-1 1v1.25a.75.75 0 0 0 1.5 0v-.75h1.706a1 1 0 0 0 .76-1.65L9.759 1.732a1 1 0 0 0-1.518 0L2.784 8.1a1 1 0 0 0 .76 1.651H5.25V19a.75.75 0 0 0 1.5 0V9.25a1 1 0 0 0-1-1H4.63zm14.74 7.5L15 20.848l-4.37-5.098h1.12a1 1 0 0 0 1-1V13.5a.75.75 0 0 0-1.5 0v.75H9.543a1 1 0 0 0-.759 1.65l5.457 6.367a1 1 0 0 0 1.518 0l5.457-6.366a1 1 0 0 0-.76-1.651H18.75V5a.75.75 0 0 0-1.5 0v9.75a1 1 0 0 0 1 1h1.12z"/></svg>