<svg viewBox="0 0 48 48" xmlns="http://www.w3.org/2000/svg"><g clip-path="url(#svg-milk)"><path d="M19.5 6c-.82 0-1.5.68-1.5 1.5v2.25c0 .732.542 1.354 1.242 1.477-.073.125-.158.237-.234.375-.527.949-1.046 2.185-1.524 3.515-.952 2.66-1.734 5.558-1.734 7.242V39a3.761 3.761 0 0 0 3.75 3.75h9A3.761 3.761 0 0 0 32.25 39V22.36c0-1.691-.794-4.583-1.758-7.243-.48-1.33-.996-2.59-1.523-3.539-.07-.126-.14-.234-.211-.351A1.511 1.511 0 0 0 30 9.75V7.5c0-.82-.68-1.5-1.5-1.5h-9zm0 1.5h9v2.25h-9V7.5zm1.57 3.75h5.813c.02.012.082.05.164.14.164.182.378.522.61.938.462.832.966 2.001 1.429 3.281.926 2.56 1.664 5.593 1.664 6.75V39a2.24 2.24 0 0 1-2.25 2.25h-9A2.24 2.24 0 0 1 17.25 39V22.36c0-1.164.724-4.19 1.64-6.75.46-1.28.97-2.453 1.43-3.282.229-.416.446-.756.61-.937a.953.953 0 0 1 .14-.141z"/></g><defs><clipPath id="svg-milk"><path fill="#fff" transform="translate(5.25 5.25)" d="M0 0h37.5v37.5H0z"/></clipPath></defs></svg>