<svg viewBox="0 0 48 48" xmlns="http://www.w3.org/2000/svg"><g clip-path="url(#svg-gi)"><path fill-rule="evenodd" clip-rule="evenodd" d="M21 6a.75.75 0 0 1 .61-.75h4.265c.413 0 .75.337.75.75 0 1.983.012 3.7.164 4.992.082.694.22 1.225.375 1.64 1.53-1.44 3.6-1.827 5.836-1.827 2.505 0 5.414 1.26 7.383 4.054 1.969 2.795 2.932 7.096 1.664 13.055h.023c-2.015 9.688-9.647 14.695-17.39 14.695-4.773 0-7.254-1.992-9.375-3.96-.824-.789-1.363-1.134-1.782-1.29-.418-.155-.782-.164-1.382-.164-.106 0-.217.047-.399.258-.182.211-.378.569-.539.961-.234.575-.379 1.165-.484 1.596-.038.155-.071.29-.102.396a.75.75 0 0 1-.586.54c-1.635.292-2.853-.112-3.61-.633-.755-.522-1.1-1.196-1.1-1.196a.741.741 0 0 1-.024-.586s1.157-3.41 2.086-5.015c1.43-2.464 3.123-3.282 4.758-3.282 1.685 0 2.684.345 3.616.665l.11.038c.964.332 1.943.633 4.078.633 1.266 0 2.092-.5 2.766-1.336.674-.835 1.14-2.015 1.43-3.28.29-1.267.404-2.582.445-3.634.033-.858.028-1.505.025-1.877l-.002-.209c0-.51.024-.987.047-1.453-1.166-.747-2.042-2.15-2.648-4.242C21.358 13.292 21 10.204 21 6zm4.148.75h-2.601c.047 3.683.346 6.504.89 8.39.935 3.235 2.707 3.61 2.707 3.61v.882a31.69 31.69 0 0 0-.034 1.719 38.31 38.31 0 0 1-.024 2.016c-.044 1.113-.173 2.517-.492 3.914-.32 1.398-.818 2.807-1.711 3.914a4.958 4.958 0 0 1-3.938 1.875c-2.288 0-3.565-.357-4.57-.703a57.295 57.295 0 0 1-.246-.085c-.88-.306-1.57-.548-2.988-.548-1.216 0-2.2.346-3.47 2.532-.65 1.127-1.603 3.797-1.797 4.341l-.007.018a.875.875 0 0 1 .035.057c.055.095.117.201.387.388.401.279 1.072.484 2.063.399l.052-.23c.078-.356.175-.796.416-1.387.197-.48.44-.973.797-1.383.358-.41.88-.774 1.524-.774.6 0 1.233 0 1.921.258.689.258 1.372.732 2.274 1.594 2.08 1.93 3.967 3.562 8.344 3.562 7.107 0 14.03-4.462 15.914-13.523 1.207-5.666.258-9.463-1.43-11.86-1.687-2.396-4.169-3.421-6.164-3.421-2.162 0-3.814.369-4.969 1.57a5.824 5.824 0 0 0-1.034 1.588c-.815-1.426-1.488-2.634-1.684-4.307-.144-1.219-.159-2.768-.165-4.406z"/></g><defs><clipPath id="svg-gi"><path fill="#fff" transform="translate(5.25 5.25)" d="M0 0h37.5v37.5H0z"/></clipPath></defs></svg>