<svg viewBox="0 0 16 16" xmlns="http://www.w3.org/2000/svg"><path fill-rule="evenodd" clip-rule="evenodd" d="M8.077 2.17A.5.5 0 0 1 8.454 2h.103a.5.5 0 0 1 .468.676l-.867 2.31A.75.75 0 0 0 8.861 6H13.5a.5.5 0 0 1 .5.5v.795a3.5 3.5 0 0 1-.21 1.196l-1.52 4.18a.5.5 0 0 1-.47.329H5V5.688L8.077 2.17zM4 5h.273l3.052-3.488A1.5 1.5 0 0 1 8.454 1h.103a1.5 1.5 0 0 1 1.404 2.027L9.221 5H13.5A1.5 1.5 0 0 1 15 6.5v.795a4.5 4.5 0 0 1-.27 1.538l-1.52 4.18A1.5 1.5 0 0 1 11.8 14H2.5A1.5 1.5 0 0 1 1 12.5v-6A1.5 1.5 0 0 1 2.5 5H4zm0 1v7H2.5a.5.5 0 0 1-.5-.5v-6a.5.5 0 0 1 .5-.5H4z"/></svg>