<svg viewBox="0 0 16 16" xmlns="http://www.w3.org/2000/svg"><path d="M10.224 5.888a.25.25 0 0 1-.112.336l-1 .5c-.7.35-1.524.35-2.224 0a1.986 1.986 0 0 0-1.776 0l-1 .5a.25.25 0 1 1-.224-.448l1-.5c.7-.35 1.524-.35 2.224 0 .559.28 1.217.28 1.776 0l1-.5a.25.25 0 0 1 .336.112zm-.112 3.336a.25.25 0 0 0-.224-.448l-1 .5c-.559.28-1.217.28-1.776 0-.7-.35-1.524-.35-2.224 0l-1 .5a.25.25 0 1 0 .224.448l1-.5a1.982 1.982 0 0 1 1.776 0c.7.35 1.524.35 2.224 0l1-.5z" fill="#252728"/><path fill-rule="evenodd" clip-rule="evenodd" d="M3 4a1 1 0 0 0-1 1v6a1 1 0 0 0 1 1h8a1 1 0 0 0 1-1V5a1 1 0 0 0-1-1H3zm8 .5H3a.5.5 0 0 0-.5.5v6a.5.5 0 0 0 .5.5h8a.5.5 0 0 0 .5-.5V5a.5.5 0 0 0-.5-.5z" fill="#252728"/><path d="M13.5 6a.5.5 0 1 0 0-1 .5.5 0 0 0 0 1zm.5 1.5a.5.5 0 1 1-1 0 .5.5 0 0 1 1 0zm-.5 3.5a.5.5 0 1 0 0-1 .5.5 0 0 0 0 1z" fill="#252728"/><path fill-rule="evenodd" clip-rule="evenodd" d="M2 2a2 2 0 0 0-2 2v8a2 2 0 0 0 2 2 .5.5 0 0 0 .5.5h1A.5.5 0 0 0 4 14h8a.5.5 0 0 0 .5.5h1a.5.5 0 0 0 .5-.5 2 2 0 0 0 2-2V4a2 2 0 0 0-2-2H2zm12 1H2a1 1 0 0 0-1 1v8a1 1 0 0 0 1 1h12a1 1 0 0 0 1-1V4a1 1 0 0 0-1-1z"/></svg>