<svg viewBox="0 0 36 36" xmlns="http://www.w3.org/2000/svg"><path fill-rule="evenodd" clip-rule="evenodd" d="M13.5 17.25a3.75 3.75 0 1 0 0-7.5 3.75 3.75 0 0 0 0 7.5zM15 13.5a1.5 1.5 0 1 1-3 0 1.5 1.5 0 0 1 3 0zm11.25 9a3.75 3.75 0 1 1-7.5 0 3.75 3.75 0 0 1 7.5 0zM22.5 24a1.5 1.5 0 1 0 0-3 1.5 1.5 0 0 0 0 3z"/><path d="M22.665 13.404a1.125 1.125 0 1 0-1.83-1.308l-7.5 10.5a1.125 1.125 0 0 0 1.83 1.308l7.5-10.5z"/><path fill-rule="evenodd" clip-rule="evenodd" d="M33 18c0 8.284-6.716 15-15 15-8.284 0-15-6.716-15-15C3 9.716 9.716 3 18 3c8.284 0 15 6.716 15 15zm-2.25 0c0 7.042-5.708 12.75-12.75 12.75S5.25 25.042 5.25 18 10.958 5.25 18 5.25 30.75 10.958 30.75 18z"/></svg>