<svg viewBox="0 0 48 48" xmlns="http://www.w3.org/2000/svg"><g clip-path="url(#svg-eggs)"><path d="M9.75 9.75A3.754 3.754 0 0 0 6 13.5v10.584c.3-.747.682-1.476 1.137-2.146.117-.173.24-.331.363-.491V13.5c0-1.24 1.01-2.25 2.25-2.25h6v1.5c0 .414.335.75.75.75h3a.75.75 0 0 0 .75-.75v-1.5h7.5v1.5c0 .414.335.75.75.75h3a.75.75 0 0 0 .75-.75v-1.5h6c1.24 0 2.25 1.01 2.25 2.25v7.947c.122.16.246.318.363.49.455.672.836 1.4 1.137 2.146V13.5a3.754 3.754 0 0 0-3.75-3.75H9.75zM12 20.25c-1.408 0-2.64 1.079-3.621 2.528-.978 1.446-1.629 3.228-1.629 4.87 0 .31.079.566.116.852H6.75c-.82 0-1.5.68-1.5 1.5v2.25c0 .82.68 1.5 1.5 1.5h.21l.987 2.96a2.255 2.255 0 0 0 2.134 1.54h3.838c.966 0 1.83-.623 2.134-1.54l.988-2.96h1.918l.988 2.96a2.255 2.255 0 0 0 2.134 1.54h3.838c.966 0 1.83-.623 2.134-1.54l.988-2.96h1.918l.988 2.96a2.255 2.255 0 0 0 2.134 1.54h3.838c.966 0 1.83-.623 2.134-1.54l.988-2.96h.209c.82 0 1.5-.68 1.5-1.5V30c0-.82-.68-1.5-1.5-1.5h-.11c.035-.286.11-.541.11-.852 0-1.599-.646-3.417-1.629-4.87-.981-1.45-2.213-2.528-3.621-2.528s-2.64 1.079-3.621 2.528c-.978 1.446-1.629 3.228-1.629 4.87 0 .31.079.566.116.852H29.14c.035-.286.11-.541.11-.852 0-1.599-.646-3.417-1.629-4.87-.981-1.45-2.213-2.528-3.621-2.528s-2.64 1.079-3.621 2.528c-.979 1.446-1.629 3.228-1.629 4.87 0 .31.079.566.116.852H17.14c.035-.286.11-.541.11-.852 0-1.599-.646-3.417-1.629-4.87-.981-1.45-2.213-2.528-3.621-2.528zm0 1.5c.493 0 1.56.66 2.379 1.87.817 1.206 1.371 2.864 1.371 4.027 0 .328-.063.579-.107.853H8.364c-.047-.275-.114-.528-.114-.852 0-1.223.55-2.815 1.371-4.029.819-1.21 1.886-1.869 2.379-1.869zm12 0c.493 0 1.56.66 2.379 1.87.817 1.206 1.371 2.864 1.371 4.027 0 .328-.063.579-.107.853h-7.279c-.047-.275-.114-.527-.114-.852 0-1.223.55-2.815 1.371-4.029.819-1.21 1.886-1.869 2.379-1.869zm12 0c.493 0 1.56.66 2.379 1.87.817 1.206 1.371 2.864 1.371 4.027 0 .328-.063.579-.107.853h-7.279c-.047-.275-.114-.527-.114-.852 0-1.223.55-2.815 1.371-4.029.819-1.21 1.886-1.869 2.379-1.869zM6.75 30h34.5v2.25H6.75V30zm1.79 3.75h6.92l-.83 2.487a.745.745 0 0 1-.711.513H10.08a.745.745 0 0 1-.712-.513L8.54 33.75zm12 0h6.92l-.83 2.487a.745.745 0 0 1-.711.513H22.08a.745.745 0 0 1-.712-.513l-.829-2.487zm12 0h6.92l-.83 2.487a.745.745 0 0 1-.711.513H34.08a.745.745 0 0 1-.712-.513l-.829-2.487z"/></g><defs><clipPath id="svg-eggs"><path fill="#fff" transform="translate(5.25 5.25)" d="M0 0h37.5v37.5H0z"/></clipPath></defs></svg>