<svg viewBox="0 0 64 64" xmlns="http://www.w3.org/2000/svg"><path d="M32.484 6.986A1 1 0 0 0 31.5 8v1.03a1 1 0 0 0-.252-.03c-5.282 0-9.753 1.605-12.885 4.676-3.131 3.07-4.863 7.56-4.863 13.094 0 3.044.777 6.084.883 9.177.106 3.093-.386 6.207-2.89 9.608a.999.999 0 0 0 .25 1.423s1.125.742 3.349 1.551c2.164.788 5.476 1.666 9.984 2.162 1.965 2.346 4.166 3.875 6.424 4.229V56a1 1 0 1 0 2 0v-1.115c1.154-.256 2.145-.935 2.861-1.838 2.545-1.224 4.617-3.414 6.121-5.678 1.403-2.11 2.255-4.179 2.54-5.846.754-.362 3.015-1.595 3.437-5.168a4.533 4.533 0 0 0-.705-3.029c-.292-.445-.578-.61-.877-.865.702-2.23 1.623-5.675 1.623-9.461 0-1.74-.36-4.117-1.537-6.188-1.103-1.94-3.094-3.536-5.918-3.736-1.16-1.772-3.557-3.676-7.545-4.017V8a1.001 1.001 0 0 0-1.016-1.014zm-.984 3.985v17.48c-.1.035-.193.077-.297.11-1.802.558-4.63.947-7.098 2.15C21.637 31.914 19.5 34.19 19.5 38c0 4.643 2.012 8.284 3.578 10.426-3.23-.491-5.644-1.174-7.303-1.778-1.452-.528-1.672-.717-2.052-.935 2.181-3.423 2.762-6.773 2.658-9.834-.115-3.368-.881-6.424-.881-9.11 0-5.12 1.561-9.015 4.264-11.665C22.466 12.453 26.368 11 31.248 11a1 1 0 0 0 .252-.03zm2 .103c3.622.355 5.441 2.157 6.121 3.405A1 1 0 0 0 40.5 15c2.443 0 3.794 1.167 4.723 2.8.928 1.634 1.277 3.757 1.277 5.2 0 3.707-1.002 7.347-1.682 9.428a1 1 0 0 0 .424 1.16c.172.107.56.41.84.836.28.425.479.95.39 1.699-.381 3.223-2.63 3.86-2.63 3.86a1 1 0 0 0-.67.841c-.116 1.105-.967 3.348-2.356 5.438-1.389 2.09-3.308 4.073-5.414 5.053a1 1 0 0 0-.408.351 2.99 2.99 0 0 1-1.494 1.143v-23.03c3.455-1.694 5.162-4.628 5.924-6.414C40.32 24.371 41.5 26.22 41.5 29a1 1 0 1 0 2 0c0-4.97-3.175-7.6-3.727-8.023a.998.998 0 0 0-1.232-.252 1 1 0 0 0-.54.744c-.046.19-.995 3.846-4.501 6.033V11.074zm-2 19.477v22.326c-1.618-.346-3.4-1.516-5.102-3.621a1.005 1.005 0 0 0-.127-.149 1.005 1.005 0 0 0-.093-.097C25.965 48.808 21.5 44.486 21.5 38c0-3.124 1.421-4.487 3.482-5.492 1.969-.96 4.483-1.362 6.518-1.957zM27 35a1.5 1.5 0 1 0 .001 3.001A1.5 1.5 0 0 0 27 35zm11 0a1.5 1.5 0 1 0 .001 3.001A1.5 1.5 0 0 0 38 35z"/></svg>