<svg viewBox="0 0 24 24" xmlns="http://www.w3.org/2000/svg"><path d="M12 3a1 1 0 1 0 0 2h.158c-.343.787-.7 1.77-.933 2.947A4.452 4.452 0 0 0 8.5 7c-2.302 0-4.195 1.762-4.45 4H3a1 1 0 0 0-1 1v2c0 .13.025.259.074.379l2.455 6a1 1 0 0 0 .926.621h13.092a1 1 0 0 0 .926-.621l2.455-6A1.02 1.02 0 0 0 22 14v-2a1 1 0 0 0-1-1h-1v-1c0-1.975-.624-3.773-1.158-5H19a1 1 0 1 0 0-2h-7zm2.387 2h2.226C16.948 5.642 18 7.755 18 10v1h-5v-1c0-2.245 1.052-4.358 1.387-5zM8.5 9a2.48 2.48 0 0 1 2.45 2h-4.9A2.48 2.48 0 0 1 8.5 9z"/></svg>