<svg viewBox="0 0 16 16" xmlns="http://www.w3.org/2000/svg"><path fill-rule="evenodd" clip-rule="evenodd" d="M12.414 9.971l-.178 1.961a21.246 21.246 0 0 0-8.471 0l-.179-1.96a3 3 0 0 1 .54-5.97 4 4 0 0 1 7.748 0 3 3 0 0 1 .54 5.97zM8 6c-.29 0-.52.262-.499.57l.211 3.645c.011.16.137.285.288.285a.296.296 0 0 0 .288-.285l.21-3.645C8.52 6.262 8.29 6 8 6zM5.26 7.178c-.073-.3.107-.597.393-.648.285-.05.557.168.59.475l.338 3.134a.296.296 0 0 1-.234.33.296.296 0 0 1-.332-.23l-.754-3.06zm5.087-.648c-.285-.05-.557.168-.59.475L9.42 10.14a.296.296 0 0 0 .234.33.296.296 0 0 0 .332-.23l.755-3.06c.073-.3-.107-.598-.393-.649z"/><path d="M3.856 12.935a20.243 20.243 0 0 1 8.288 0l-.063.7A1.5 1.5 0 0 1 10.587 15H5.413a1.5 1.5 0 0 1-1.494-1.364l-.063-.701z"/></svg>