<svg viewBox="0 0 24 24" xmlns="http://www.w3.org/2000/svg"><path d="M20.946 8.305a6.53 6.53 0 0 0-.419-2.216 4.61 4.61 0 0 0-2.633-2.633 6.606 6.606 0 0 0-2.186-.42c-.962-.043-1.267-.055-3.709-.055s-2.755 0-3.71.055a6.606 6.606 0 0 0-2.185.42 4.607 4.607 0 0 0-2.633 2.633 6.554 6.554 0 0 0-.419 2.185c-.043.963-.056 1.268-.056 3.71s0 2.754.056 3.71c.015.748.156 1.486.42 2.187a4.61 4.61 0 0 0 2.633 2.632 6.584 6.584 0 0 0 2.185.45c.963.043 1.268.056 3.71.056s2.755 0 3.71-.056a6.59 6.59 0 0 0 2.186-.419 4.615 4.615 0 0 0 2.633-2.633c.263-.7.404-1.438.42-2.187.042-.962.055-1.267.055-3.71-.002-2.442-.002-2.752-.058-3.709zm-8.953 8.297a4.622 4.622 0 0 1-4.623-4.623 4.623 4.623 0 1 1 4.623 4.623zM16.8 8.263a1.077 1.077 0 0 1-1.078-1.078 1.077 1.077 0 1 1 2.155 0c0 .596-.482 1.078-1.077 1.078z"/><path d="M11.995 14.982a3.003 3.003 0 1 0 0-6.006 3.003 3.003 0 0 0 0 6.006z"/></svg>