<svg viewBox="0 0 48 48" xmlns="http://www.w3.org/2000/svg"><path d="M24 8.25c-4.853 0-8.129 2.031-10.09 4.683-1.961 2.652-2.66 5.862-2.66 8.366v2.625c0 .007 0 .014.002.02-.439.517-.752 1.25-.752 2.157 0 1.701 1.194 3.064 2.752 3.455 1.013 2.552 2.277 5.011 3.966 6.89 1.765 1.962 4.031 3.304 6.782 3.304 2.75 0 5.018-1.342 6.784-3.315 1.688-1.887 2.951-4.365 3.964-6.95C36.29 29.106 37.5 27.8 37.5 26.1c0-.909-.314-1.644-.754-2.161a.76.76 0 0 0 .004-.09V21.3c0-3.541-.915-6.806-3.007-9.2C31.65 9.702 28.399 8.25 24 8.25zm0 1.5c4.076 0 6.824 1.286 8.613 3.334 1.79 2.048 2.637 4.932 2.637 8.215v2.552a.751.751 0 0 0 .073.332.75.75 0 0 0 .223.646c.232.233.454.627.454 1.272 0 1.125-.8 1.914-1.877 2.027a.75.75 0 0 0-.622.479c-.995 2.613-2.262 5.07-3.835 6.828-1.573 1.757-3.393 2.815-5.666 2.815-2.273 0-4.093-1.058-5.666-2.807-1.573-1.749-2.842-4.186-3.836-6.761a.75.75 0 0 0-.62-.476A2.092 2.092 0 0 1 12 26.1c0-.646.221-1.039.454-1.272a.751.751 0 0 0 .226-.577.751.751 0 0 0 .07-.328v-2.625c0-2.218.652-5.157 2.366-7.474S19.555 9.75 24 9.75zm-4.478 3a.75.75 0 0 0-.772.75c0 3.247-.784 4.753-1.664 5.811-.88 1.058-2.054 1.66-2.63 3.051a.75.75 0 1 0 1.386.575c.324-.783 1.327-1.38 2.397-2.667.8-.96 1.388-2.557 1.705-4.64.735.936 1.578 1.651 2.543 1.963 1.527.493 3.136.403 4.582.398 1.446-.004 2.693.085 3.535.624.841.54 1.488 1.554 1.648 3.935a.75.75 0 1 0 1.496-.1c-.177-2.643-1.029-4.262-2.336-5.099-1.307-.837-2.859-.864-4.348-.86-1.488.005-2.95.05-4.116-.326-1.166-.377-2.09-1.081-2.742-2.915a.75.75 0 0 0-.684-.5zm.353 12a1.125 1.125 0 1 0 0 2.25 1.125 1.125 0 0 0 0-2.25zm8.25 0a1.125 1.125 0 1 0 0 2.25 1.125 1.125 0 0 0 0-2.25z" viewBox="0 0 48 48"/></svg>