<svg viewBox="0 0 64 64" xmlns="http://www.w3.org/2000/svg"><path d="M20.5 9c-3.026 0-5.5 2.474-5.5 5.5s2.474 5.5 5.5 5.5 5.5-2.474 5.5-5.5S23.526 9 20.5 9zm0 2c1.945 0 3.5 1.555 3.5 3.5S22.445 18 20.5 18a3.485 3.485 0 0 1-3.5-3.5c0-1.945 1.555-3.5 3.5-3.5zm14.068 0c-1.76 0-2.814 1.165-3.275 1.625a1.009 1.009 0 0 0-.078.09L24.689 21h-8.605C13.314 21 11 23.18 11 26v12.418a1 1 0 0 0 .041.297 2.512 2.512 0 0 0 1.002 1.683c.58.418 1.266.602 1.957.602.339 0 .675-.046 1-.14v10.847C15 53.629 16.7 55 18.5 55c.967 0 1.82-.417 2.45-1.063A3.642 3.642 0 0 0 23.5 55c1.8 0 3.5-1.37 3.5-3.293V28.144L35.328 17H37c1.645 0 3-1.355 3-3s-1.355-3-3-3h-2.432zm0 2H37c.565 0 1 .435 1 1s-.435 1-1 1h-2.172a1 1 0 0 0-.8.402l-8.684 11.621-.006.004a1 1 0 0 0-.31.522A1 1 0 0 0 25 28v23.707c0 .646-.758 1.293-1.5 1.293-.734 0-1.48-.633-1.496-1.272.002-.05.001-.1-.004-.15V40a.999.999 0 1 0-2 0v11.61c-.142.806-.774 1.39-1.5 1.39-.742 0-1.5-.647-1.5-1.293V29a.999.999 0 1 0-2 0v9.418c0 .173-.039.235-.209.357-.17.123-.484.225-.791.225-.307 0-.62-.102-.791-.225-.17-.122-.209-.184-.209-.357V26c0-1.764 1.317-3 3.084-3h8.998a1 1 0 0 0 .373-.068l.008-.002.01-.004a1 1 0 0 0 .521-.35l6.74-8.56c.559-.562.89-1.016 1.834-1.016zm9.44 3.016c-2.745 0-4.992 2.247-4.992 4.992S41.263 26 44.008 26 49 23.753 49 21.008s-2.247-4.992-4.992-4.992zm0 2A2.977 2.977 0 0 1 47 21.008 2.977 2.977 0 0 1 44.008 24a2.977 2.977 0 0 1-2.992-2.992 2.977 2.977 0 0 1 2.992-2.992zM39.795 27c-2.655 0-4.889 2.069-4.889 4.756V42c0 1.38 1.04 2.372 2.319 2.715a1 1 0 0 0 .681.285 1 1 0 0 0 .686-.285c.14-.038.275-.086.408-.139V52c0 1.38 1.039 2.371 2.316 2.715A1 1 0 0 0 42 55a1 1 0 0 0 .684-.285c.489-.132.942-.36 1.316-.666.374.307.827.534 1.316.666A1 1 0 0 0 46 55a1 1 0 0 0 .684-.285C47.96 54.37 49 53.379 49 52v-7.393c.104.039.208.079.316.108A1 1 0 0 0 50 45a1 1 0 0 0 .684-.285C51.96 44.37 53 43.379 53 42V31.756C53 29.069 50.768 27 48.113 27h-8.318zm0 2h8.318C49.778 29 51 30.139 51 31.756V42c0 .565-.435 1-1 1s-1-.435-1-1v-9a.999.999 0 1 0-2 0v19c0 .565-.435 1-1 1a.98.98 0 0 1-.994-.965.969.969 0 0 0 .01-.142V43c0-.062-.005-.124-.016-.185V42a1 1 0 1 0-2 0v10c0 .565-.435 1-1 1s-1-.435-1-1V33a.999.999 0 1 0-2 0v8.563a1 1 0 0 0-.094.437c0 .565-.435 1-1 1s-1-.435-1-1V31.756c0-1.617 1.224-2.756 2.889-2.756z"/></svg>