<svg viewBox="0 0 64 64" xmlns="http://www.w3.org/2000/svg"><path d="M32.219 9c-5.047 0-9.035 1.5-11.719 4.25-2.683 2.75-4 6.676-4 11.344 0 1.933.86 5.672 1.563 7.875-.293.25-.59.41-.875.843a4.48 4.48 0 0 0-.688 3c.422 3.575 2.664 4.852 3.406 5.22.286 1.671 1.149 3.734 2.563 5.843 1.515 2.262 3.61 4.434 6.156 5.656.047.024.078.07.125.094C29.668 54.223 30.965 55 32.5 55c1.535 0 2.832-.777 3.75-1.875.047-.023.078-.07.125-.094 2.54-1.226 4.59-3.394 6.094-5.656 1.398-2.105 2.246-4.18 2.531-5.844.734-.347 3.043-1.59 3.469-5.187a4.55 4.55 0 0 0-.719-3.032c-.289-.437-.582-.59-.875-.843.703-2.23 1.625-5.684 1.625-9.469 0-1.738-.355-4.117-1.531-6.188-1.106-1.945-3.106-3.554-5.938-3.75C39.746 11.114 36.97 9 32.22 9zm0 2c4.496 0 6.648 2.082 7.406 3.469.172.324.508.527.875.531 2.441 0 3.79 1.18 4.719 2.813.93 1.632 1.281 3.746 1.281 5.187 0 3.707-1.008 7.355-1.687 9.438-.137.44.043.917.437 1.156.172.105.566.418.844.843.277.426.465.938.375 1.688-.383 3.223-2.625 3.844-2.625 3.844a1.003 1.003 0 0 0-.688.843c-.117 1.106-.953 3.348-2.343 5.438-1.391 2.09-3.301 4.082-5.407 5.063a.991.991 0 0 0-.406.343A3.006 3.006 0 0 1 32.5 53a3.01 3.01 0 0 1-2.5-1.344.992.992 0 0 0-.406-.343c-2.113-.981-4.035-2.973-5.438-5.063-1.402-2.09-2.261-4.336-2.375-5.438a.995.995 0 0 0-.656-.812s-2.246-.676-2.625-3.906c-.09-.754.102-1.274.375-1.688a2.92 2.92 0 0 1 .813-.812.998.998 0 0 0 .437-1.188c-.605-1.746-1.625-6.531-1.625-7.812 0-4.293 1.188-7.664 3.438-9.969C24.188 12.32 27.563 11 32.218 11zm7.594 7.625a.88.88 0 0 0-.094.031.474.474 0 0 0-.063.032 1.085 1.085 0 0 0-.218.093.48.48 0 0 0-.063.032v.03a.468.468 0 0 0-.156.125.455.455 0 0 0-.031.063 1.18 1.18 0 0 0-.125.188v.031a.467.467 0 0 0-.032.063c-.082.156-.476.851-1.53 1.718C36.32 22 34.444 23 31.5 23c-1.876 0-4.228.016-6.25.75-1.013.367-1.958.934-2.657 1.813-.7.878-1.094 2.046-1.094 3.437-.004.36.184.695.496.879.313.18.696.18 1.008 0 .313-.184.5-.52.496-.879 0-1.027.25-1.676.656-2.188.407-.511 1.008-.906 1.782-1.187C27.485 25.066 29.656 25 31.5 25c3.406 0 5.8-1.188 7.281-2.406a8.951 8.951 0 0 0 1.188-1.188c.969 1.559 2.531 4.5 2.531 7.594-.004.36.184.695.496.879.313.18.695.18 1.008 0 .313-.184.5-.52.496-.879 0-4.969-3.008-9.04-3.531-9.719v-.031c-.024-.031-.082-.145-.094-.156a.474.474 0 0 0-.062-.063L40.78 19a.48.48 0 0 0-.03-.063h-.032a.958.958 0 0 0-.281-.218 9.222 9.222 0 0 0-.032-.032.486.486 0 0 0-.062-.03h-.031a.467.467 0 0 0-.063-.032h-.436zM27 34a1.5 1.5 0 1 0 0 3 1.5 1.5 0 0 0 0-3zm11 0a1.5 1.5 0 1 0 0 3 1.5 1.5 0 0 0 0-3z"/></svg>