<svg viewBox="0 0 16 16" xmlns="http://www.w3.org/2000/svg"><path d="M3.84.64c-.35 0-.64.29-.64.64h-.96a.965.965 0 0 0-.96.96v11.2c0 .526.433.96.96.96h.64v.32c0 .35.29.64.64.64h.96c.35 0 .64-.29.64-.64v-.32h5.76v.32c0 .35.29.64.64.64h.96c.35 0 .64-.29.64-.64v-.32h.64c.527 0 .96-.434.96-.96V4.854a.32.32 0 0 0 0-.105V2.24a.965.965 0 0 0-.96-.96h-.96c0-.35-.29-.64-.64-.64h-1.92c-.35 0-.64.29-.64.64H6.72c0-.35-.29-.64-.64-.64H3.84zm-1.6 1.28h1.226a.32.32 0 0 0 .105 0h2.775a.32.32 0 0 0 .105 0h3.415a.32.32 0 0 0 .105 0h2.455a.32.32 0 0 0 .105 0h1.229c.18 0 .32.14.32.32v2.24H1.92V2.24c0-.18.14-.32.32-.32zm.96.64a.64.64 0 1 0 0 1.28.64.64 0 0 0 0-1.28zm1.92 0a.64.64 0 1 0 0 1.28.64.64 0 0 0 0-1.28zm1.92 0a.64.64 0 1 0 0 1.28.64.64 0 0 0 0-1.28zm1.92 0a.64.64 0 1 0 0 1.28.64.64 0 0 0 0-1.28zm3.84 0a.64.64 0 1 0 0 1.28.64.64 0 0 0 0-1.28zM1.92 5.12h12.16v8.32c0 .18-.14.32-.32.32h-.906a.32.32 0 0 0-.105 0h-1.5a.32.32 0 0 0-.1 0H4.854a.32.32 0 0 0-.105 0h-1.5a.32.32 0 0 0-.1 0H2.24c-.18 0-.32-.14-.32-.32V5.12zm.96.96v6.72h10.24V6.08H2.88zm.64.64h8.96v5.44H3.52V6.72zm0 7.68h.96v.32h-.96v-.32zm8 0h.96v.32h-.96v-.32z"/></svg>