<svg viewBox="0 0 48 48" xmlns="http://www.w3.org/2000/svg"><path d="M10.5 9a3.761 3.761 0 0 0-3.75 3.75v22.5A3.761 3.761 0 0 0 10.5 39h27a3.761 3.761 0 0 0 3.75-3.75v-22.5A3.761 3.761 0 0 0 37.5 9h-27zm0 1.5h27a2.24 2.24 0 0 1 2.25 2.25v22.5a2.24 2.24 0 0 1-2.25 2.25h-27a2.24 2.24 0 0 1-2.25-2.25v-22.5a2.24 2.24 0 0 1 2.25-2.25zm2.883 8.25v10.5h1.594v-7.453h.117l5.39 7.453h1.477v-10.5h-1.594v7.453h-.117l-5.39-7.453h-1.477zm15.68 0l-3.797 10.5h1.687l.961-2.79h4.008l.96 2.79h1.735l-3.797-10.5h-1.758zm.796 1.898h.118l1.523 4.454h-3.164l1.523-4.454z"/></svg>