<svg viewBox="0 0 64 64" xmlns="http://www.w3.org/2000/svg"><path d="M40.18 8.809l-7.213 18.205H18.873c-.386-2.514-1.769-4.59-3.906-5.698.008-.106.033-.208.033-.316 0-2.197-1.803-4-4-4s-4 1.803-4 4 1.803 4 4 4a4.01 4.01 0 0 0 3.309-1.762c1.703 1.002 2.697 2.787 2.697 5.225a.993.993 0 0 0 .027.256c.242 6.195 3.59 11.29 8.557 14.303C22.479 43.235 20 45.837 20 49c0 3.302 2.698 6 6 6s6-2.698 6-6a5.971 5.971 0 0 0-1.373-3.813 21.83 21.83 0 0 0 5.873.8c2.575 0 5.037-.446 7.297-1.257A5.98 5.98 0 0 0 42 49c0 3.302 2.698 6 6 6s6-2.698 6-6-2.698-6-6-6a6.03 6.03 0 0 0-.605.031c5.167-3.126 8.591-8.504 8.591-15.031v-.156a.996.996 0 0 0 .008-.153c0-.06-.007-.119-.008-.18v-.497h-.021c-.306-8.874-6.53-15.714-14.928-17.975l-.857-.23zm1.15 2.502c7.2 2.271 12.357 8.052 12.648 15.703h-18.87L41.33 11.31zM11 19c1.116 0 2 .884 2 2s-.884 2-2 2-2-.884-2-2 .884-2 2-2zm8.09 9.986h34.82c-.537 8.83-7.998 15.028-17.41 15.028-9.413 0-16.873-6.197-17.41-15.028zM26 45c2.221 0 4 1.779 4 4s-1.779 4-4 4-4-1.779-4-4 1.779-4 4-4zm22 0c2.221 0 4 1.779 4 4s-1.779 4-4 4-4-1.779-4-4 1.779-4 4-4z"/></svg>