<svg viewBox="0 0 48 48" xmlns="http://www.w3.org/2000/svg"><g clip-path="url(#svg-teeth)"><path d="M9.264 12.07a.75.75 0 0 0-.466.161c-1.497 1.143-2.34 2.597-2.676 4.139-.337 1.542-.195 3.158.16 4.747a.75.75 0 1 0 1.464-.326c-.325-1.46-.43-2.864-.16-4.102.27-1.238.887-2.323 2.122-3.265a.75.75 0 0 0-.444-1.354zm29.374.047a.75.75 0 0 0-.454 1.367c1.264.903 1.915 1.968 2.224 3.198.309 1.229.248 2.636-.031 4.104a.749.749 0 0 0 1.162.768.75.75 0 0 0 .312-.488c.303-1.6.396-3.22.011-4.75-.384-1.531-1.272-2.959-2.805-4.054a.75.75 0 0 0-.419-.145zM10.752 17.25a.75.75 0 0 0-.756.612c-.154.826-.246 1.68-.246 2.56C9.75 28.194 16.144 34.5 24 34.5s14.25-6.307 14.25-14.077c0-.881-.092-1.735-.246-2.56a.749.749 0 0 0-.902-.595c-8.792 1.968-17.518 1.973-26.202.001a.752.752 0 0 0-.148-.019zm25.849 1.622c.067.513.149 1.024.149 1.55 0 .5-.038.99-.095 1.473-.964.215-1.928.406-2.893.571l.048-3.076a63.01 63.01 0 0 0 2.79-.518zm-25.202.001c.97.206 1.94.389 2.911.546l-.048 3.041a61.7 61.7 0 0 1-2.918-.568 12.521 12.521 0 0 1-.094-1.47c0-.526.082-1.036.15-1.549zm20.908.73l-.048 3.102a57.49 57.49 0 0 1-3.006.355l.048-3.116a61.304 61.304 0 0 0 3.006-.341zm-16.501.021c1.002.138 2.006.25 3.01.336v3.098a59.085 59.085 0 0 1-3.057-.362l.047-3.072zm11.994.45l-.049 3.103a58.7 58.7 0 0 1-2.935.116v-3.1a60.657 60.657 0 0 0 2.984-.119zm-7.484.015c1 .06 2 .096 3 .107v3.098c-1-.013-2-.053-3-.119V20.09zm-8.669 3.404c8.26 1.732 16.503 1.746 24.705.003a12.423 12.423 0 0 1-2.05 4.321l-.01-.038c-6.841 1.971-13.683 1.956-20.587-.001l-.01.037a12.424 12.424 0 0 1-2.048-4.322zm3.844 6.283c1.086.245 2.172.43 3.259.581v1.51a12.851 12.851 0 0 1-3.26-2.091zm17.01.009a12.83 12.83 0 0 1-3.251 2.084v-1.503a38.676 38.676 0 0 0 3.25-.581zm-12.251.757c1 .1 2 .16 3 .18v2.243a12.787 12.787 0 0 1-3-.53v-1.893zm7.5.006v1.887c-.956.291-1.96.47-3 .53v-2.241c1-.02 2-.077 3-.176z"/></g><defs><clipPath id="svg-teeth"><path fill="#fff" transform="translate(5.25 5.25)" d="M0 0h37.5v37.5H0z"/></clipPath></defs></svg>