<svg viewBox="0 0 24 24" xmlns="http://www.w3.org/2000/svg"><path fill-rule="evenodd" clip-rule="evenodd" d="M12.996 3.091a1 1 0 1 0-1.992 0 5.435 5.435 0 0 0-4.42 4.892l-.496 5.956a1.895 1.895 0 0 1-1.04 1.537A1.895 1.895 0 0 0 4 17.171V19h5a3 3 0 0 0 6 0h5v-1.829c0-.718-.405-1.374-1.047-1.695a1.895 1.895 0 0 1-1.041-1.537l-.497-5.956a5.435 5.435 0 0 0-4.42-4.892zm3.42 10.972l-.496-5.956a3.934 3.934 0 0 0-7.84 0l-.497 5.956a3.395 3.395 0 0 1-1.865 2.755.395.395 0 0 0-.218.353v.329h13v-.329a.395.395 0 0 0-.218-.353 3.395 3.395 0 0 1-1.865-2.755zm-5.477 5.998A1.5 1.5 0 0 1 10.5 19h3a1.5 1.5 0 0 1-2.56 1.06z"/></svg>