<svg viewBox="0 0 64 64" xmlns="http://www.w3.org/2000/svg"><path d="M31.25 9c-5.281 0-9.742 1.617-12.875 4.688-3.133 3.07-4.875 7.562-4.875 13.093 0 3.043.77 6.063.875 9.157.106 3.093-.371 6.222-2.875 9.624a.999.999 0 0 0 .25 1.407s1.121.754 3.344 1.562c2.156.785 5.457 1.66 9.937 2.157h.032C27.32 53.383 29.89 55 32.5 55c2.617 0 5.207-1.633 7.469-4.344 4.504-.5 7.87-1.347 10.094-2.125C52.348 47.731 53.53 47 53.53 47a.994.994 0 0 0 .453-.68 1.009 1.009 0 0 0-.203-.789c-2.55-3.277-3.074-6.093-3.03-8.968.042-2.876.75-5.81.75-9 0-3.22-.65-6.72-2.438-9.532-1.73-2.715-4.665-4.68-8.72-4.812C39.138 11.992 36 9 31.25 9zm0 2c4.07 0 6.984 2.828 7.969 3.844a1 1 0 0 0 .719.312c3.671 0 5.941 1.586 7.437 3.938 1.496 2.351 2.125 5.531 2.125 8.468 0 2.88-.7 5.797-.75 8.97-.043 2.863.598 5.952 2.781 9.187-.414.222-.64.386-2.125.906-1.793.629-4.406 1.344-7.875 1.844 1.543-2.524 3.97-7.352 3.97-13.188 0-7.656-4.392-12.082-5.595-13.156a1.238 1.238 0 0 0-.062-.063.997.997 0 0 0-.656-.437h-.032a1.05 1.05 0 0 0-.312 0h-.063a1.082 1.082 0 0 0-.218.094 1.262 1.262 0 0 0-.157.093.956.956 0 0 0-.125.094.468.468 0 0 0-.03.063.467.467 0 0 0-.063.031v.031l-.032.032a.467.467 0 0 0-.03.062l-.032.031v.063l-.031.031v.063l-.032.03s-1.183 4.473-6.812 6.22c-1.8.558-4.656.953-7.125 2.156C21.625 31.922 19.5 34.19 19.5 38c0 4.625 2.004 8.258 3.563 10.406-3.203-.488-5.633-1.148-7.282-1.75-1.449-.527-1.683-.718-2.062-.937 2.183-3.426 2.762-6.782 2.656-9.844-.113-3.367-.875-6.41-.875-9.094 0-5.12 1.547-9.035 4.25-11.687C22.453 12.44 26.371 11 31.25 11zm8.094 13.313c1.472 1.554 4.156 5.164 4.156 10.968 0 7.559-4.52 13.492-4.719 13.75a1.516 1.516 0 0 0-.062.094c-.024.031-.043.063-.063.094C36.582 51.809 34.38 53 32.5 53c-1.832 0-4-1.156-6.031-3.625a.95.95 0 0 0-.094-.125c-.015-.02-.015-.043-.031-.063a.467.467 0 0 0-.063-.062l-.03-.031s-.083-.114-.095-.125c-.03-.024-.062-.043-.093-.063C25.559 48.414 21.5 44.242 21.5 38c0-3.125 1.406-4.496 3.469-5.5 2.062-1.004 4.734-1.387 6.812-2.031 4.461-1.383 6.625-4.38 7.563-6.157zM27 35a1.5 1.5 0 1 0 0 3 1.5 1.5 0 0 0 0-3zm11 0a1.5 1.5 0 1 0 0 3 1.5 1.5 0 0 0 0-3z"/></svg>