<svg viewBox="0 0 24 24" xmlns="http://www.w3.org/2000/svg"><path d="M20.483 3.517c-4.688-4.689-12.277-4.69-16.966 0-4.689 4.688-4.69 12.277 0 16.966 4.688 4.689 12.277 4.69 16.966 0 4.689-4.688 4.69-12.277 0-16.966zM12 22.027C6.471 22.026 1.974 17.528 1.974 12 1.974 6.471 6.47 1.974 12 1.974S22.026 6.47 22.026 12 17.53 22.026 12 22.026z"/><path d="M15.608 11.222l-4.505-3.504a.986.986 0 0 0-1.59.778v7.008c0 .824.95 1.275 1.59.778l4.505-3.504a.986.986 0 0 0 0-1.556zm-4.124 2.267V10.51L13.398 12l-1.914 1.489z"/></svg>