<svg viewBox="0 0 24 24" xmlns="http://www.w3.org/2000/svg"><path fill-rule="evenodd" clip-rule="evenodd" d="M16.5 16a2.5 2.5 0 0 0-2.5-2.5h-4a2.5 2.5 0 0 0 0 5h4a2.5 2.5 0 0 0 2.5-2.5zM9 16a1 1 0 0 1 1-1h4a1 1 0 1 1 0 2h-4a1 1 0 0 1-1-1z"/><path fill-rule="evenodd" clip-rule="evenodd" d="M12 3c0 .725.386 1.36.963 1.71l-.682.796A5.5 5.5 0 0 0 3.023 10H2a1 1 0 0 0-1 1v3a1 1 0 0 0 1 1h.133a1 1 0 0 1 .99.859l.632 4.424A2 2 0 0 0 5.735 22h12.53a2 2 0 0 0 1.98-1.717l.632-4.424a1 1 0 0 1 .99-.859H22a1 1 0 0 0 1-1v-3a1 1 0 0 0-1-1h-1V7.74a2 2 0 0 0-.482-1.302l-1.48-1.728A1.999 1.999 0 0 0 18 1h-4a2 2 0 0 0-2 2zm6-.5h-4a.5.5 0 0 0 0 1h4a.5.5 0 0 0 0-1zM4.531 10H11V7.74a2 2 0 0 1 .317-1.08A4 4 0 0 0 4.53 10zm10.01-4.825A.5.5 0 0 1 14.92 5h2.16a.5.5 0 0 1 .38.175l1.92 2.24a.5.5 0 0 1 .12.325V10h-7V7.74a.5.5 0 0 1 .12-.326l1.92-2.24zM2.5 11.5h19v2.027a2.5 2.5 0 0 0-2.108 2.12l-.632 4.424a.5.5 0 0 1-.495.429H5.735a.5.5 0 0 1-.495-.43l-.632-4.424a2.5 2.5 0 0 0-2.108-2.12V11.5z"/></svg>