<svg viewBox="0 0 48 48" xmlns="http://www.w3.org/2000/svg"><g clip-path="url(#beans)"><path d="M33.25 1.164a.766.766 0 0 0-.61.492c-.867 2.39-1.44 3.041-2.296 3.563-.856.521-2.224.92-4.29 2.367-1.971 1.383-3.075 3.243-3.796 4.734-.36.747-.63 1.392-.844 1.829a4.156 4.156 0 0 1-.258.468c-4.23.864-6.688 3.03-8.11 5.016-.717 1.005-1.189 1.951-1.523 2.648-.167.349-.301.65-.398.82-.038.068-.073.077-.094.094C6.091 23.872 2.327 27.294 1 33.72a.76.76 0 0 0 .187.68c.551.582 1.424 1.078 2.555 1.523a15.33 15.33 0 0 0 4.031.96c2.942.297 6.402-.266 9.188-2.671 2.593-.088 5.531-1.389 8.039-3.305 2.508-1.916 4.576-4.447 5.25-7.195 6.753-4.556 8.906-14.86 3.727-22.219a.765.765 0 0 0-.727-.328zm.14 2.414c3.733 6.627 1.597 15.34-4.218 19.055a.766.766 0 0 0-.328.492c-.478 2.3-2.39 4.737-4.782 6.563-2.39 1.825-5.264 3.023-7.382 3.023a.771.771 0 0 0-.516.188c-2.432 2.232-5.522 2.736-8.25 2.46a13.79 13.79 0 0 1-3.61-.867 5.997 5.997 0 0 1-1.64-.937c1.342-5.763 4.45-8.45 8.86-8.93a.834.834 0 0 0 .187-.047c.483-.181.577-.466.726-.726.15-.261.305-.548.47-.891.327-.686.746-1.55 1.382-2.438 1.271-1.775 3.337-3.682 7.29-4.453.395-.076.629-.322.796-.539a4.03 4.03 0 0 0 .422-.703c.255-.518.507-1.157.844-1.851.673-1.392 1.643-2.986 3.304-4.149 1.91-1.339 3.065-1.629 4.196-2.32.855-.522 1.558-1.497 2.25-2.93zM30.72 9.11a3.392 3.392 0 0 0-.422.024 4.474 4.474 0 0 0-1.64.539c-1.03.562-1.96 1.447-2.532 2.508-.54 1.002-.85 2.065-.797 3.07.053 1.005.554 2.004 1.524 2.531.97.525 2.162.545 3.257.211 1.096-.334 2.142-1.04 2.742-2.156v-.024c.569-1.06.8-2.3.704-3.468-.097-1.17-.545-2.335-1.594-2.906a2.749 2.749 0 0 0-1.242-.329zm-.305 1.524c.32-.038.604 0 .82.117.437.237.75.853.82 1.711.071.858-.125 1.878-.538 2.648-.384.712-1.084 1.22-1.852 1.454-.768.234-1.57.164-2.086-.118-.518-.28-.718-.647-.75-1.265-.032-.618.19-1.45.633-2.274.413-.767 1.145-1.511 1.898-1.922a2.937 2.937 0 0 1 1.055-.351zM22 18.602c-.683-.01-1.377.158-2.04.421-1.32.528-2.568 1.474-3.398 2.672v.024c-.79 1.145-1.297 2.376-1.359 3.586-.061 1.21.413 2.408 1.5 3.164 1.084.753 2.5.97 3.867.726 1.369-.243 2.722-.952 3.586-2.203.83-1.198 1.283-2.695 1.313-4.125.029-1.43-.387-2.87-1.547-3.68-.58-.404-1.24-.577-1.922-.585zm-.047 1.5c.437.003.826.12 1.125.328.598.416.911 1.3.89 2.414-.02 1.113-.395 2.382-1.03 3.304-.601.868-1.594 1.39-2.625 1.57-1.032.182-2.072-.002-2.743-.468-.674-.469-.908-1.055-.867-1.875.041-.82.428-1.837 1.102-2.813.638-.922 1.69-1.746 2.718-2.156.516-.205.994-.307 1.43-.304zm-10.969 6.351c-1.154.067-2.335.434-3.257 1.078h-.024c-.876.616-1.614 1.433-2.039 2.367-.425.935-.507 2.08.164 2.977.753 1.005 2.089 1.245 3.422 1.242 1.333-.003 2.713-.293 3.703-.984h.024c1.895-1.33 2.208-3.87 1.054-5.531-.677-.976-1.892-1.216-3.047-1.149zm.094 1.477c.867-.05 1.488.193 1.711.515h.024c.65.938.503 2.599-.704 3.446-.562.392-1.77.723-2.859.726-1.09.003-2.007-.372-2.203-.633-.29-.386-.305-.835-.024-1.453.282-.618.87-1.283 1.547-1.758.633-.442 1.64-.793 2.508-.843z"/></g><defs><clipPath id="beans"><path fill="#fff" transform="translate(.25 .25)" d="M0 0h37.5v37.5H0z"/></clipPath></defs></svg>