<svg viewBox="0 0 48 48" xmlns="http://www.w3.org/2000/svg"><path d="M24.108 11.25c-4.53 0-8.687 1.824-11.899 4.83a.751.751 0 1 0 1.026 1.094c2.962-2.772 6.744-4.424 10.873-4.424 4.109 0 7.873 1.635 10.828 4.383a.75.75 0 1 0 1.021-1.099c-3.204-2.98-7.341-4.784-11.849-4.784zm15.26 9.703a.75.75 0 0 0-.7.516c-3.009 5.585-8.415 9.281-14.58 9.281-6.152 0-11.547-3.681-14.56-9.246a.75.75 0 0 0-1.46.246v.037c0 .123.03.245.088.354a20.423 20.423 0 0 0 3.804 5.052l-4.258 4.544a.75.75 0 0 0 1.096 1.026l4.283-4.572a18.166 18.166 0 0 0 4.035 2.536l-2.79 5.693a.752.752 0 0 0 .917 1.04.75.75 0 0 0 .43-.38l2.84-5.795c1.505.53 3.093.852 4.738.934l-.001.031v6a.75.75 0 1 0 1.5 0v-6l-.002-.025c1.7-.067 3.339-.394 4.892-.937l2.68 5.777a.75.75 0 1 0 1.36-.63l-2.647-5.708a18.037 18.037 0 0 0 3.804-2.33l4.383 4.383a.75.75 0 1 0 1.06-1.06l-4.306-4.307a20.36 20.36 0 0 0 4.066-5.31.75.75 0 0 0 .09-.353v-.037a.75.75 0 0 0-.763-.76z"/></svg>