<svg viewBox="0 0 32 32" xmlns="http://www.w3.org/2000/svg"><path d="M14.597 10.612a3.667 3.667 0 0 1 3.44 6.437c-.354.236-.628.451-.812.669-.171.202-.225.358-.225.506v1.11a1 1 0 1 1-2 0v-1.11c0-.749.316-1.347.698-1.799.371-.438.837-.778 1.228-1.04A1.667 1.667 0 1 0 14.333 14a1 1 0 0 1-2 0 3.667 3.667 0 0 1 2.264-3.388zM14.867 22a1.133 1.133 0 1 1 2.266 0 1.133 1.133 0 0 1-2.266 0z"/><path fill-rule="evenodd" clip-rule="evenodd" d="M29.333 16c0 7.364-5.97 13.333-13.333 13.333-7.364 0-13.333-5.97-13.333-13.333C2.667 8.636 8.637 2.667 16 2.667c7.364 0 13.333 5.97 13.333 13.333zm-2 0c0 6.26-5.074 11.333-11.333 11.333C9.74 27.333 4.667 22.26 4.667 16S9.74 4.667 16 4.667 27.333 9.741 27.333 16z"/></svg>