<svg viewBox="0 0 48 48" xmlns="http://www.w3.org/2000/svg"><path d="M34.246 10.939a4.014 4.014 0 0 0-.554.026c-.812.094-1.758.408-2.824 1-1.544.858-3.334 2.308-5.25 4.555l-1.55-1.55a10.114 10.114 0 0 0-7.175-2.965 10.11 10.11 0 0 0-7.172 2.965c-3.955 3.955-3.955 10.392 0 14.347l2.215 2.212c2.232 2.232 5.256 3.193 8.177 2.903.313.753.712 1.336 1.435 1.541l.027.006.029.006c.77.155 1.433-.12 1.942-.36.317-.15.393-.217.548-.317.472.167 2.473.853 5.247.882 3.117.035 7-.902 9.53-4.661 1.855-2.754 2.362-5.323 2.38-7.524.05-5.85-4.249-9.36-5.204-10.075.036-.214.062-.322.091-.67.026-.294.041-.595.018-.891a1.782 1.782 0 0 0-.088-.463 1.033 1.033 0 0 0-.44-.527c-.383-.29-.852-.425-1.382-.44zm-.062 1.5c.276.009.413.076.478.111.005.15.002.358-.018.58a12.74 12.74 0 0 1-.132.985l-.085.477.399.276s4.971 3.45 4.925 9.126c-.018 1.989-.437 4.192-2.122 6.697-2.206 3.272-5.452 4.031-8.273 3.999-2.821-.03-5.086-.89-5.086-.89l-.378-.144-.328.234s-.278.197-.656.375c-.367.173-.788.26-.97.237.044.006-.32-.254-.571-.96a5.696 5.696 0 0 1-.138-.47c-.023-.093-.047-.187-.067-.286a8.266 8.266 0 0 1-.085-.452 5.916 5.916 0 0 1-.044-.348c-.012-.094-.02-.196-.033-.296-.081-.967-.044-2.136.194-3.46a17.925 17.925 0 0 1 .41-1.74c.02-.068.038-.132.056-.2.046-.149.102-.304.152-.46.064-.187.129-.377.2-.574.008-.023.017-.05.029-.073.055-.152.114-.305.175-.457.106-.26.22-.524.34-.79.067-.156.135-.308.211-.464.15-.313.317-.63.49-.949.081-.15.157-.299.245-.448.18-.314.375-.63.578-.947.175-.28.342-.56.539-.843.287-.42.574-.809.858-1.187.258-.343.519-.674.773-.993l.387-.475c1.872-2.217 3.58-3.588 4.957-4.353.932-.516 1.714-.759 2.27-.82a2.15 2.15 0 0 1 .32-.018zm-17.29 1.058c2.208 0 4.42.843 6.11 2.534l1.662 1.66a41.6 41.6 0 0 0-1.284 1.741 6.62 6.62 0 0 1-.096.152c-.34.003-.616.062-.809.07-.287.015-.372.03-.63-.228-.161-.164-.173-.225-.187-.322-.015-.097 0-.258.035-.507.073-.504.076-1.45-.671-2.2-.621-.618-1.36-.832-1.925-.809-.565.027-.958.162-1.099.162.044 0-.354-.206-.902-.478-.272-.138-.62-.272-1.043-.252-.422.018-.864.229-1.21.574-.56.56-.67 1.374-.5 1.98.17.607.503 1.096.793 1.553.29.46.533.882.604 1.158.07.272.09.322-.147.56-.237.237-.281.216-.55.143-.273-.073-.695-.317-1.149-.61-.457-.293-.95-.63-1.562-.8-.609-.17-1.426-.046-1.989.516-.357.358-.577.806-.6 1.24-.027.433.114.794.257 1.072.144.281.302.5.399.662.067.117.088.196.094.205-.006.135-.135.504-.164 1.055-.03.565.19 1.306.823 1.94.747.746 1.696.743 2.197.673.252-.035.413-.053.51-.038.094.015.158.026.32.19.327.328.257.422.201.903-.026.24-.073.548-.02.923.053.372.24.793.577 1.13.527.53 1.201.71 1.749.739.55.032 1.025-.038 1.313-.038.29 0 .51.12.84.319.167.102.375.243.63.343.03.55.1 1.049.19 1.511-2.393.156-4.833-.62-6.664-2.455l-2.215-2.215a8.633 8.633 0 0 1 0-12.222 8.617 8.617 0 0 1 6.111-2.534zm15.339 2.25a.72.72 0 0 0-.337.093c-1.503.806-4.644 3.238-6.334 7.108a.757.757 0 0 0 .073.761.75.75 0 0 0 1.304-.158c1.497-3.442 4.544-5.789 5.666-6.392a.746.746 0 0 0 .378-.856.744.744 0 0 0-.75-.556zm-16.107.77c.04-.003.143.015.304.097.325.16.744.636 1.57.636.551 0 .906-.15 1.164-.162.257-.011.421-.005.796.372.416.41.317.463.252.926-.035.232-.093.545-.035.935.056.387.258.814.613 1.166.474.475 1.054.618 1.523.639-.54.922-.987 1.828-1.357 2.7l-.105.256c-.173.424-.334.843-.469 1.253-.029.094-.052.18-.082.27a16.62 16.62 0 0 0-.237.814 17.87 17.87 0 0 0-.167.674 16.621 16.621 0 0 0-.401 2.646c-.346-.211-.826-.49-1.495-.49-.465 0-.881.062-1.221.045-.343-.021-.56-.082-.78-.302-.128-.13-.137-.176-.152-.284-.014-.109 0-.29.03-.545.055-.507.07-1.427-.633-2.133a2.16 2.16 0 0 0-1.17-.613c-.386-.055-.7.006-.934.039-.463.064-.513.164-.926-.25-.398-.398-.398-.559-.383-.805.011-.243.17-.589.17-1.151 0-.428-.173-.712-.311-.947-.138-.234-.272-.428-.355-.586a.664.664 0 0 1-.096-.296c.003-.046 0-.1.167-.266.225-.226.26-.205.53-.132.27.076.691.325 1.151.618.457.293.953.633 1.57.797.616.164 1.433.032 1.999-.533.565-.566.697-1.38.536-1.998-.158-.621-.492-1.12-.785-1.58-.293-.462-.542-.887-.618-1.16-.077-.269-.1-.295.117-.512.146-.147.181-.135.22-.138zM35.227 18a.748.748 0 0 0-.73.659.754.754 0 0 0 .554.817c.018.012.03.018.065.047.108.085.27.234.43.41.326.349.671.826.794 1.116a.76.76 0 0 0 .607.472.742.742 0 0 0 .7-.305.756.756 0 0 0 .07-.764c-.252-.577-.665-1.105-1.072-1.541a5.425 5.425 0 0 0-.595-.56 2.224 2.224 0 0 0-.296-.208c-.108-.061-.208-.152-.527-.143zm-2.985 2.24a.75.75 0 0 0-.522 1.289s.627.622.533 1.653a.75.75 0 1 0 1.495.135c.155-1.717-.967-2.848-.967-2.848a.756.756 0 0 0-.54-.228zm3.756 3a.753.753 0 0 0-.665.4.744.744 0 0 0 .04.77s.49.735.191 1.725a.749.749 0 0 0 .498.938.753.753 0 0 0 .938-.501c.498-1.652-.373-2.983-.373-2.983a.747.747 0 0 0-.63-.348zm-5.634 1.838a.741.741 0 0 0-.545.266.757.757 0 0 0-.167.586s.117.876-.589 1.632a.755.755 0 0 0-.185.738.751.751 0 0 0 1.28.284c1.175-1.26.982-2.841.982-2.841a.748.748 0 0 0-.776-.665zm2.85 3.134a.754.754 0 0 0-.741.902.882.882 0 0 1-.014.144 4.103 4.103 0 0 1-.15.598c-.143.454-.41.943-.571 1.096a.75.75 0 1 0 1.025 1.095c.528-.495.788-1.148.976-1.737a5.28 5.28 0 0 0 .199-.814c.02-.12.035-.232.038-.349.003-.114.03-.208-.064-.448a.755.755 0 0 0-.698-.487z"/></svg>