<svg viewBox="0 0 16 16" xmlns="http://www.w3.org/2000/svg"><path fill-rule="evenodd" clip-rule="evenodd" d="M7.923 13.83a.5.5 0 0 1-.377.17h-.103a.5.5 0 0 1-.468-.676l.867-2.31A.75.75 0 0 0 7.138 10H2.5a.5.5 0 0 1-.5-.5v-.795a3.5 3.5 0 0 1 .21-1.196l1.52-4.18A.5.5 0 0 1 4.2 3h9.3a.5.5 0 0 1 .5.5v6a.5.5 0 0 1-.5.5H12V3h-1v7.312L7.923 13.83zM11.727 11l-3.052 3.488A1.5 1.5 0 0 1 7.546 15h-.103a1.5 1.5 0 0 1-1.404-2.027L6.779 11H2.5A1.5 1.5 0 0 1 1 9.5v-.795a4.5 4.5 0 0 1 .27-1.538l1.52-4.18A1.5 1.5 0 0 1 4.2 2h9.3A1.5 1.5 0 0 1 15 3.5v6a1.5 1.5 0 0 1-1.5 1.5h-1.773z"/></svg>