<svg viewBox="0 0 48 48" xmlns="http://www.w3.org/2000/svg"><g clip-path="url(#svg-peanuts)"><path d="M24.492 6a5.353 5.353 0 0 0-.656.023 4.583 4.583 0 0 0-2.25.844c-1.28.914-2.112 2.332-2.906 3.844-1.585 3.02-2.971 6.354-6.235 7.43-2.906.955-4.632 2.704-5.531 4.523-.9 1.82-1.01 3.671-.89 4.945.117 1.272.823 3.923 3.234 5.72 1.257.934 3.1 1.28 5.18 1.194 1.631 2.315 3.79 4.366 6.351 5.438 5.962 2.499 11.077 2.517 14.813 1.125 3.735-1.392 6.11-4.24 6.375-7.36.164-1.924-.29-3.371-1.22-4.382-.928-1.011-2.211-1.556-3.585-1.946-2.502-.712-5.405-1.01-7.617-2.203 2.215-3.91 2.956-7.611 2.648-10.71-.393-3.967-2.534-6.988-5.484-8.04-.791-.28-1.544-.427-2.227-.445zm-.023 1.5c.492.018 1.06.135 1.734.375 2.294.817 4.128 3.243 4.477 6.75.28 2.848-.428 6.393-2.72 10.242a.79.79 0 0 0-.187.281c-.008.015-.014.033-.023.047v.024a28.61 28.61 0 0 1-1.64 2.367c-1.887 2.458-5.198 4.157-8.415 4.922-3.216.764-6.325.495-7.523-.399-.19-.14-.349-.31-.516-.468 7.172-3.147 14.821-8.376 16.875-19.524a.768.768 0 0 0-.843-.914.768.768 0 0 0-.657.633C23.048 22.603 15.738 27.38 8.648 30.422c-.747-1.175-1.048-2.382-1.101-2.953-.097-1.043.015-2.634.75-4.125s2.06-2.91 4.617-3.75c4.014-1.322 5.59-5.233 7.125-8.157.768-1.461 1.538-2.686 2.438-3.328.448-.322.928-.533 1.523-.586.15-.014.305-.029.469-.023zm4.289 19.008c2.598 1.45 5.68 1.71 7.992 2.367 1.26.357 2.262.823 2.883 1.5.62.677.958 1.6.82 3.234-.205 2.43-2.065 4.817-5.367 6.047-3.296 1.23-8.022 1.269-13.688-1.101-.005-.003-.017.003-.023 0-1.951-.824-3.747-2.382-5.18-4.22a20.3 20.3 0 0 0 1.852-.327 19.95 19.95 0 0 0 4.781-1.805c3.7 2.036 8.174 3.226 13.617 2.813a.77.77 0 0 0 .644-1.207.772.772 0 0 0-.737-.317c-4.773.364-8.675-.577-11.977-2.226 1.128-.774 2.136-1.68 2.953-2.743a29.79 29.79 0 0 0 1.43-2.015z"/></g><defs><clipPath id="svg-peanuts"><path fill="#fff" transform="translate(5.25 5.25)" d="M0 0h37.5v37.5H0z"/></clipPath></defs></svg>