<svg viewBox="0 0 48 48" xmlns="http://www.w3.org/2000/svg"><g clip-path="url(#svg-mouth)"><path d="M20.25 17.25c-2.133 0-4.767.981-7.406 2.016-2.593 1.016-5.168 2.109-6.89 2.484-.007.003-.018-.003-.024 0h-.07a.728.728 0 0 0-.282.14.354.354 0 0 0-.047.024.398.398 0 0 0-.07.07.341.341 0 0 0-.047.024v.023a.356.356 0 0 0-.047.047v.024a.63.63 0 0 0-.07.14l-.024.024v.047a.755.755 0 0 0-.023.117v.21l.023.023v.047a.344.344 0 0 0 .024.047.349.349 0 0 0 .023.047v.023l.024.024a.349.349 0 0 0 .023.046v.024l.024.023c.008.01.014.015.023.024a.349.349 0 0 0 .024.047.354.354 0 0 0 .046.023v.023a.34.34 0 0 0 .047.024l.024.023a.341.341 0 0 0 .047.024l.023.023h.023l.024.024a.34.34 0 0 0 .047.023c1.547.624 3.867 3.027 6.82 5.32C15.492 30.817 19.22 33 24 33c4.781 0 8.531-2.18 11.484-4.477 2.953-2.296 5.26-4.699 6.797-5.32a.912.912 0 0 0 .094-.047.643.643 0 0 0 .07-.023.749.749 0 0 0 .378-.923.748.748 0 0 0-.87-.483c-1.708-.37-4.245-1.433-6.797-2.438-2.642-1.04-5.279-2.039-7.406-2.039-.999 0-1.972.422-2.766.82-.556.279-.758.42-.984.563-.226-.144-.428-.284-.984-.563-.794-.398-1.767-.82-2.766-.82zm0 1.5c.498 0 1.403.328 2.11.68a11.26 11.26 0 0 1 1.218.703.751.751 0 0 0 .844 0s.513-.352 1.219-.703c.706-.352 1.611-.68 2.109-.68 1.62 0 4.254.894 6.867 1.922 1.697.668 3.314 1.298 4.828 1.805-3.184.87-9.249 2.273-15.445 2.273-6.226 0-12.32-1.403-15.492-2.273 1.53-.516 3.167-1.158 4.875-1.829 2.61-1.022 5.23-1.898 6.867-1.898zM9.96 24.375c3.481.858 8.676 1.875 14.04 1.875 5.388 0 10.605-1.014 14.086-1.875-1.081.938-2.244 1.969-3.54 2.977C31.715 29.555 28.33 31.5 24 31.5c-4.33 0-7.714-1.948-10.547-4.148-1.286-1-2.42-2.042-3.492-2.977z"/></g><defs><clipPath id="svg-mouth"><path fill="#fff" transform="translate(5.25 5.25)" d="M0 0h37.5v37.5H0z"/></clipPath></defs></svg>