<svg viewBox="0 0 24 24" xmlns="http://www.w3.org/2000/svg"><path fill-rule="evenodd" clip-rule="evenodd" d="M4.767 6.247c-.11-.899.176-1.915.584-2.621a3.25 3.25 0 0 1 4.44-1.19c.531.307.994.929 1.35 1.496.195.307.38.637.552.963.172-.326.358-.656.552-.963.357-.567.82-1.19 1.35-1.496a3.25 3.25 0 0 1 4.44 1.19c.409.706.694 1.722.585 2.621-.027.22-.08.449-.17.669h1.3c.966 0 1.75.783 1.75 1.75v2a1.75 1.75 0 0 1-1.75 1.75h-.25v8.25a1.75 1.75 0 0 1-1.75 1.75h-12A1.75 1.75 0 0 1 4 20.666v-8.25h-.25A1.75 1.75 0 0 1 2 10.666v-2c0-.967.784-1.75 1.75-1.75h1.186a2.607 2.607 0 0 1-.17-.669zm1.666.274c.06.06.184.145.483.145 1.04 0 2.545.027 3.66.05.093.002.16-.04.197-.096a.171.171 0 0 0 .012-.18c-.26-.555-.58-1.18-.912-1.708-.356-.565-.651-.893-.832-.997a1.75 1.75 0 0 0-2.39.64c-.283.49-.457 1.181-.395 1.69.03.245.105.383.177.456zM11 8.416H3.75a.25.25 0 0 0-.25.25v2c0 .138.112.25.25.25H11v-2.5zm0 4H5.5v8.25c0 .138.112.25.25.25H11v-8.5zm1.5 0H18v8.25a.25.25 0 0 1-.25.25H12.5v-8.5zm0-1.5v-2.5h7.25a.25.25 0 0 1 .25.25v2a.25.25 0 0 1-.25.25H12.5zm3.97-4.25c.3 0 .424-.085.484-.145.072-.073.147-.21.177-.455.062-.51-.112-1.201-.395-1.69a1.75 1.75 0 0 0-2.39-.641c-.181.104-.476.432-.832.997A16.322 16.322 0 0 0 12.6 6.44a.171.171 0 0 0 .012.18.226.226 0 0 0 .199.096 202.97 202.97 0 0 1 3.659-.05z"/></svg>