<svg viewBox="0 0 16 16" xmlns="http://www.w3.org/2000/svg"><path d="M13.089 5.331c.008.117.008.233.008.349 0 3.55-2.702 7.64-7.64 7.64a7.588 7.588 0 0 1-4.124-1.205c.216.024.424.033.649.033a5.38 5.38 0 0 0 3.334-1.147 2.69 2.69 0 0 1-2.511-1.862c.166.024.332.041.507.041.24 0 .483-.033.707-.091a2.685 2.685 0 0 1-2.153-2.636V6.42c.358.2.773.324 1.213.34a2.681 2.681 0 0 1-1.197-2.235c0-.499.133-.956.365-1.355a7.638 7.638 0 0 0 5.538 2.81 3.051 3.051 0 0 1-.067-.615 2.684 2.684 0 0 1 2.685-2.686c.774 0 1.472.324 1.962.848a5.305 5.305 0 0 0 1.704-.648 2.68 2.68 0 0 1-1.18 1.48 5.381 5.381 0 0 0 1.546-.416 5.763 5.763 0 0 1-1.346 1.388z"/></svg>