<svg viewBox="0 0 16 16" xmlns="http://www.w3.org/2000/svg"><path d="M7.993 1.333a6.66 6.66 0 0 0-2.426 12.864c-.06-.526-.111-1.337.022-1.912l.782-3.31s-.2-.4-.2-.99c0-.925.537-1.616 1.206-1.616.568 0 .842.426.842.938 0 .572-.364 1.426-.551 2.218-.157.662.333 1.203.986 1.203 1.183 0 2.094-1.248 2.094-3.05 0-1.595-1.146-2.71-2.782-2.71-1.895 0-3.008 1.422-3.008 2.89 0 .573.22 1.187.496 1.52a.2.2 0 0 1 .046.191c-.05.21-.163.663-.185.756-.03.122-.096.148-.223.089-.831-.387-1.351-1.603-1.351-2.58 0-2.101 1.526-4.03 4.4-4.03 2.31 0 4.106 1.645 4.106 3.846 0 2.296-1.447 4.142-3.456 4.142-.675 0-1.31-.35-1.526-.764l-.416 1.583c-.15.578-.556 1.304-.827 1.746A6.66 6.66 0 1 0 7.993 1.333z"/></svg>