<svg viewBox="0 0 48 48" xmlns="http://www.w3.org/2000/svg"><g clip-path="url(#svg-skin)"><path d="M30.75 5.25C24.451 13.5 21 32.85 21 34.5c0 1.65 1.35 3 3 3s3-1.35 3-3c0-3-3-11.625 3.75-29.25zm-5.765 17.32c-.375 4.65.055 7.954.28 10.055.077.826.235 1.424.235 1.875 0 .826-.674 1.5-1.5 1.5s-1.5-.674-1.5-1.5c0-.9.908-6.006 2.485-11.93zM5.858 27a.75.75 0 0 0-.609.75V42c0 .413.337.75.75.75h36c.413 0 .75-.337.75-.75V27.75A.751.751 0 0 0 42 27H30.375c-1.787 0-3.287 1.588-3 3.398v.024c.111.85.223 1.766.305 2.531.085.77.14 1.447.14 1.547a3.757 3.757 0 0 1-3.75 3.75 3.757 3.757 0 0 1-3.75-3.75c0-.144.097-.741.235-1.43.137-.682.307-1.497.492-2.273.003-.009-.003-.015 0-.024.48-1.892-1.01-3.773-2.977-3.773H5.86zm.891 1.5h11.32c1.026 0 1.773.95 1.524 1.898v.024a72.385 72.385 0 0 0-.516 2.344c-.143.717-.258 1.277-.258 1.734 0 2.883 2.368 5.25 5.25 5.25 2.883 0 5.25-2.367 5.25-5.25 0-.349-.055-.926-.14-1.71-.085-.786-.19-1.712-.305-2.58v-.023c-.146-.878.595-1.687 1.5-1.687H41.25v12.75H6.75V28.5z"/></g><defs><clipPath id="svg-skin"><path fill="#fff" transform="translate(5.25 5.25)" d="M0 0h37.5v37.5H0z"/></clipPath></defs></svg>