<svg viewBox="0 0 48 48" xmlns="http://www.w3.org/2000/svg"><path d="M19.488 8.99a.751.751 0 0 0-.107.01h-4.886a3.756 3.756 0 0 0-3.706 3.186L9.334 21.75H9A2.262 2.262 0 0 0 6.75 24 2.262 2.262 0 0 0 9 26.25h.333l1.454 9.564A3.759 3.759 0 0 0 14.495 39h4.879a.75.75 0 0 0 .245 0h4.255a.75.75 0 0 0 .245 0h4.255a.75.75 0 0 0 .245 0h4.886a3.757 3.757 0 0 0 3.706-3.186l1.455-9.564H39A2.262 2.262 0 0 0 41.25 24 2.262 2.262 0 0 0 39 21.75h-.333l-1.456-9.564A3.756 3.756 0 0 0 33.505 9h-4.879a.75.75 0 0 0-.245 0h-4.255a.75.75 0 0 0-.245 0h-4.255a.75.75 0 0 0-.138-.01zm-4.993 1.51h4.255v6.75a.751.751 0 1 0 1.5 0V10.5h3v6.75a.751.751 0 1 0 1.5 0V10.5h3v6.75a.751.751 0 1 0 1.5 0V10.5h4.255a2.24 2.24 0 0 1 2.224 1.912l1.42 9.338H10.85l1.421-9.338a2.24 2.24 0 0 1 2.224-1.912zM9 23.25h.785a.75.75 0 0 0 .381 0H39c.424 0 .75.326.75.75s-.326.75-.75.75H10.135a.747.747 0 0 0-.318 0H9a.738.738 0 0 1-.75-.75c0-.424.326-.75.75-.75zm1.85 3h26.298l-1.419 9.338a2.241 2.241 0 0 1-2.224 1.912H29.25v-6.75a.751.751 0 1 0-1.5 0v6.75h-3v-6.75a.751.751 0 1 0-1.5 0v6.75h-3v-6.75a.751.751 0 1 0-1.5 0v6.75h-4.255a2.24 2.24 0 0 1-2.224-1.912l-1.42-9.338z"/></svg>