<svg viewBox="0 0 48 48" xmlns="http://www.w3.org/2000/svg"><path d="M19.875 26.25c.6 0 1.125.525 1.125 1.125s-.525 1.125-1.125 1.125-1.125-.525-1.125-1.125.525-1.125 1.125-1.125zm8.25 0c.6 0 1.125.525 1.125 1.125s-.525 1.125-1.125 1.125S27 27.975 27 27.375s.525-1.125 1.125-1.125zm10.95 1.95a4.31 4.31 0 0 0 1.425-3.225 4.398 4.398 0 0 0-1.575-3.375c.75-1.125.975-2.55.6-3.9-.375-1.275-1.275-2.175-2.4-2.55-.675-3.6-3.9-6.15-7.8-6.15H28.8c-1.8-1.425-4.125-2.25-6.675-2.25-3.675 0-9.9 2.1-10.8 7.575 0 .15-.15.375-.225.525-.15.15-.3.3-.525.375-1.2.525-2.1 1.725-2.325 3.225-.15 1.05.225 2.175.975 3.075-1.05.825-1.725 2.1-1.725 3.45 0 1.2.525 2.325 1.425 3.15C8.1 28.875 7.5 30 7.5 31.2c0 2.25 1.725 4.05 3.975 4.125A4.148 4.148 0 0 0 15.6 39c1.05 0 2.025-.375 2.775-1.05l.075.075c1.725 2.025 3.6 3.225 5.55 3.225 1.95 0 3.9-1.2 5.625-3.225a4.07 4.07 0 0 0 2.7 1.05c2.1 0 3.9-1.575 4.125-3.675a4.133 4.133 0 0 0 3.975-4.125 4.19 4.19 0 0 0-1.35-3.075zM28.65 36.825c0 .075 0 .075 0 0-1.575 2.025-3.225 2.925-4.65 2.925-.45 0-.9-.075-1.275-.225-.525-.15-.975-.45-1.35-.75-.525-.375-.975-.75-1.425-1.2C18 35.475 16.275 33 15.9 30.15c-.075-.6-.15-1.125-.15-1.65 0-2.325 1.05-3.375 2.625-4.125s3.525-1.05 5.1-1.5c3.375-1.05 4.95-3.3 5.7-4.65 1.125 1.2 3.15 3.9 3.15 8.25-.075 5.625-3.45 10.125-3.675 10.35 0 0 .075 0 0 0zm7.65-3c-.375 0-.75-.15-1.05.15-.3.225-.3.525-.3.9 0 1.425-1.2 2.625-2.625 2.625-.675 0-1.35-.3-1.8-.75.15-.225.3-.375.225-.375 1.125-1.875 3-5.55 3-9.9 0-5.775-3.3-9.075-4.2-9.9-.225-.225-.375-.375-.675-.375-.3 0-.6.15-.675.375-.225.45-.375.9-.6 1.35-.225.45-.525.825-.9 1.2-.675.75-1.5 1.35-2.4 1.725-.375.225-.825.375-1.275.525h-.075c-1.35.45-3.525.75-5.325 1.65-1.8.9-3.375 2.625-3.375 5.475 0 3.45 1.5 6.15 2.7 7.8 0 0 .225.225.375.45-.45.45-1.125.75-1.8.75-1.425 0-2.625-1.2-2.625-2.625 0-.3 0-.6-.225-.825-.3-.3-.675-.225-1.05-.225C10.2 33.825 9 32.625 9 31.2c0-.9.6-1.95 1.425-2.25.225 0 .45-.15.6-.45.15-.375 0-.825-.375-.975C9.6 27.075 9 26.1 9 24.975c0-1.125.675-2.175 1.8-2.625.375-.15.6-.6.45-.975a.904.904 0 0 0-.375-.375c-.75-.675-1.2-1.65-1.05-2.4.15-.9.675-1.725 1.425-2.025.375-.15.75-.45 1.05-.75.3-.375.525-.825.6-1.275.75-4.575 6.075-6.3 9.3-6.3 2.25 0 4.35.75 5.85 1.95 0 0 .075 0 .075.075.075.15.3.225.525.225h.675c3.3 0 6 2.25 6.45 5.325 0 .375.3.6.6.675.825.15 1.5.75 1.8 1.65.375 1.05.075 2.175-.75 3a.852.852 0 0 0-.225.6c0 .225.15.45.375.6.75.45 1.5 1.425 1.5 2.625 0 1.05-.6 2.1-1.65 2.55-.375.15-.525.6-.375.975.075.225.3.375.525.375.825.45 1.35 1.35 1.35 2.325 0 1.425-1.2 2.625-2.625 2.625z"/></svg>