<svg viewBox="0 0 24 24" xmlns="http://www.w3.org/2000/svg"><path fill-rule="evenodd" clip-rule="evenodd" d="M8.75 4.5c0-.69.56-1.25 1.25-1.25h4c.69 0 1.25.56 1.25 1.25V6h-6.5V4.5zM7.25 6V4.5A2.75 2.75 0 0 1 10 1.75h4a2.75 2.75 0 0 1 2.75 2.75V6h3.5a.75.75 0 0 1 0 1.5h-1.344l-.789 12.625A2 2 0 0 1 16.121 22H7.88a2 2 0 0 1-1.996-1.875L5.093 7.5H3.75a.75.75 0 0 1 0-1.5h3.5zm-.653 1.5h10.806l-.783 12.531a.5.5 0 0 1-.499.469H7.88a.5.5 0 0 1-.5-.469L6.598 7.5zm9.652 2.547a.75.75 0 1 0-1.497-.094l-.5 8a.75.75 0 1 0 1.496.094l.5-8zM8.453 9.25a.75.75 0 0 1 .796.702l.5 8a.75.75 0 1 1-1.498.094l-.5-8a.75.75 0 0 1 .702-.796zm4.297.75a.75.75 0 0 0-1.5 0v8a.75.75 0 0 0 1.5 0v-8z"/></svg>