<svg viewBox="0 0 48 48" xmlns="http://www.w3.org/2000/svg"><path d="M20.25 6.75c-1.495 0-2.57.933-3.331 1.563-1.198.074-3.026.577-4.859 1.764-1.975 1.279-3.81 3.4-3.81 6.423 0 2.02.503 3.274.693 3.712-.143.218-.339.462-.645 1.279-.403 1.078-.798 2.67-.798 4.759a.75.75 0 1 0 1.5 0c0-1.9.355-3.308.702-4.233.346-.925.649-1.319.649-1.319a.75.75 0 0 0 .07-.783s-.67-1.332-.67-3.415c0-2.427 1.412-4.057 3.124-5.165 1.71-1.108 3.79-1.585 4.375-1.585a.75.75 0 0 0 .475-.17c.788-.645 1.66-1.33 2.525-1.33a.75.75 0 1 0 0-1.5zm7.5 0a.75.75 0 1 0 0 1.5c.865 0 1.738.685 2.526 1.33a.75.75 0 0 0 .474.17c.585 0 2.664.477 4.376 1.585 1.71 1.108 3.124 2.738 3.124 5.165 0 2.083-.67 3.415-.67 3.415a.75.75 0 0 0 .07.783s.302.394.648 1.319c.347.925.702 2.333.702 4.233a.75.75 0 1 0 1.5 0c0-2.088-.395-3.681-.798-4.76-.306-.816-.502-1.06-.645-1.278.19-.438.693-1.692.693-3.712 0-3.023-1.835-5.144-3.81-6.423-1.833-1.187-3.661-1.69-4.859-1.764-.76-.63-1.836-1.563-3.33-1.563zM14.218 20.262A.75.75 0 0 0 13.5 21c0 .304-.053 1.787-.347 3.303-.295 1.516-.9 3.058-1.61 3.602a.75.75 0 1 0 .914 1.19c.765-.587 1.224-1.456 1.569-2.395.093.428.15.982.271 1.31.45 1.215.703 2.054.703 4.24v4.5c0 .721.337 1.336.75 1.853.413.517.926.959 1.427 1.333 1.002.75 1.99 1.236 1.99 1.236a.75.75 0 1 0 .666-1.344s-.887-.441-1.76-1.093c-.436-.326-.86-.704-1.151-1.068-.29-.364-.422-.69-.422-.917v-4.5c0-2.313-.325-3.489-.797-4.76C15.323 26.455 15 23.95 15 21a.75.75 0 0 0-.782-.738zm19.5 0A.75.75 0 0 0 33 21c0 2.951-.322 5.458-.703 6.49-.471 1.271-.797 2.447-.797 4.76v4.5c0 .227-.132.553-.422.917s-.715.742-1.151 1.068c-.873.652-1.76 1.093-1.76 1.093a.748.748 0 0 0-.34 1.005.749.749 0 0 0 1.006.34s.988-.488 1.99-1.237c.502-.374 1.014-.816 1.427-1.333.413-.517.75-1.132.75-1.853v-4.5c0-2.186.252-3.025.703-4.24.121-.328.178-.882.271-1.31.346.939.804 1.808 1.569 2.395a.75.75 0 1 0 .914-1.19c-.71-.544-1.315-2.086-1.61-3.602A20.46 20.46 0 0 1 34.5 21a.75.75 0 0 0-.782-.738zM19.484 22.49a2.26 2.26 0 0 0-2.234 2.25v1.51c0 .657.294 1.247.75 1.66V30c0 .75.29 1.43.75 1.959V34.5c0 1.648 1.352 3 3 3h1.502c.271 0 .526-.08.748-.21.223.13.477.21.749.21h1.501c1.648 0 3-1.352 3-3v-2.541c.46-.528.75-1.209.75-1.959v-2.218c.453-.37.75-.894.75-1.532v-1.51a2.26 2.26 0 0 0-2.234-2.25c-.608-.004-1.956 0-3.025.004-.58.002-1.092.26-1.49.627-.4-.368-.912-.625-1.492-.627-1.07-.004-2.416-.008-3.025-.004zm.01 1.5c.588-.004 1.942 0 3.01.004a.737.737 0 0 1 .746.75V27h-.75a.751.751 0 1 0 0 1.5h.75v7.449a.732.732 0 0 0-.001.051H21.75a1.49 1.49 0 0 1-1.5-1.5v-1.608c.241.063.49.108.75.108a.75.75 0 1 0 0-1.5 1.49 1.49 0 0 1-1.5-1.5v-1.5a.75.75 0 1 0 0-1.5.738.738 0 0 1-.75-.75v-1.51c0-.422.324-.748.744-.75zm9.012 0c.42.003.744.328.744.75v1.51c0 .424-.326.75-.75.75a.75.75 0 0 0 0 1.5V30c0 .837-.662 1.5-1.5 1.5a.751.751 0 1 0 0 1.5c.26 0 .509-.045.75-.108V34.5c0 .837-.662 1.5-1.5 1.5h-1.498l-.002-.038V28.5h.75a.75.75 0 1 0 0-1.5h-.75v-2.256c0-.423.323-.748.746-.75a437.88 437.88 0 0 1 3.01-.004zM21 24.725a.75.75 0 1 0 0 1.5.75.75 0 0 0 0-1.5zm6 0a.75.75 0 1 0 0 1.5.75.75 0 0 0 0-1.5zm-5.25 4.525a.75.75 0 1 0 0 1.5.75.75 0 0 0 0-1.5zm4.5 0a.75.75 0 1 0 0 1.5.75.75 0 0 0 0-1.5zm-4.5 4.5a.75.75 0 1 0 0 1.5.75.75 0 0 0 0-1.5zm4.5 0a.75.75 0 1 0 0 1.5.75.75 0 0 0 0-1.5z"/></svg>