<svg viewBox="0 0 48 48" xmlns="http://www.w3.org/2000/svg"><path d="M24 6.75C14.482 6.75 6.75 14.482 6.75 24c0 9.519 7.732 17.25 17.25 17.25 9.519 0 17.25-7.731 17.25-17.25 0-9.478-7.669-17.173-17.131-17.238A.75.75 0 0 0 24 6.75zm0 1.5c8.708 0 15.75 7.042 15.75 15.75S32.708 39.75 24 39.75 8.25 32.708 8.25 24 15.292 8.25 24 8.25zm-6.75 10.5c-2.505 0-4.264 1.704-4.264 1.704a.751.751 0 0 0 1.028 1.092s1.427-1.296 3.236-1.296c1.81 0 3.236 1.296 3.236 1.296a.75.75 0 0 0 1.028-1.092s-1.76-1.704-4.264-1.704zm13.5 0c-2.505 0-4.264 1.704-4.264 1.704a.751.751 0 0 0 1.028 1.092s1.427-1.296 3.236-1.296c1.808 0 3.234 1.296 3.234 1.296a.75.75 0 1 0 1.029-1.092s-1.759-1.704-4.263-1.704zm.769 8.247a.75.75 0 0 0-.2.025s-2.902.728-7.319.728-7.318-.728-7.318-.728a.75.75 0 1 0-.364 1.456s.916.222 2.454.428c.048.706.201 2.302.67 3.927.315 1.088.767 2.202 1.485 3.097.718.895 1.771 1.57 3.073 1.57s2.355-.675 3.073-1.57 1.17-2.009 1.484-3.097c.47-1.625.623-3.22.671-3.927 1.538-.206 2.454-.428 2.454-.428a.75.75 0 0 0-.163-1.48zm-11.218 2.079c1.074.099 2.306.174 3.699.174 1.393 0 2.625-.075 3.699-.174-.045.64-.156 1.864-.583 3.341-.282.974-.69 1.923-1.213 2.575C25.38 35.644 24.814 36 24 36c-.814 0-1.38-.356-1.903-1.008-.522-.651-.931-1.6-1.213-2.575a15.885 15.885 0 0 1-.583-3.341zM24 29.25h-.75V33a.75.75 0 1 0 1.5 0v-3.75H24z"/></svg>