<svg viewBox="0 0 25 24" xmlns="http://www.w3.org/2000/svg"><path fill-rule="evenodd" clip-rule="evenodd" d="M6.658 18.892l-.507 1.047c-.16.329-.333.657-.512.975.965-.222 1.93-.496 2.658-.812l.503-.218.525.157c.99.296 2.058.459 3.175.459 5.46 0 9.5-3.78 9.5-8 0-4.22-4.04-8-9.5-8S3 8.28 3 12.5c0 2.16 1.023 4.161 2.77 5.64l.888.752zM4.56 22.669C3.382 22.89 2.5 23 2.5 23s.537-.716 1.156-1.693c.386-.609.804-1.32 1.145-2.022C2.764 17.561 1.5 15.158 1.5 12.5c0-5.247 4.925-9.5 11-9.5s11 4.253 11 9.5-4.925 9.5-11 9.5c-1.263 0-2.476-.184-3.606-.522-1.246.542-2.984.939-4.334 1.191z"/></svg>