<svg viewBox="0 0 16 16" xmlns="http://www.w3.org/2000/svg"><path fill-rule="evenodd" clip-rule="evenodd" d="M6.94 8.232a1.5 1.5 0 0 0 2.12 0l4.623-4.622a1.99 1.99 0 0 0-1.016-.277H3.333c-.37 0-.718.101-1.016.277L6.94 8.232zM1.61 4.317a1.99 1.99 0 0 0-.277 1.016v5.334c0 .37.101.718.277 1.016L5.293 8 1.61 4.317zm.707 8.073a1.99 1.99 0 0 0 1.016.277h9.334c.37 0 .718-.101 1.016-.277L10 8.707l-.232.232a2.5 2.5 0 0 1-3.536 0L6 8.707 2.317 12.39zm12.073-.707a1.99 1.99 0 0 0 .277-1.016V5.333c0-.37-.101-.718-.277-1.016L10.707 8l3.683 3.683z"/></svg>