<svg viewBox="0 0 24 24" xmlns="http://www.w3.org/2000/svg"><path d="M12 2C6.486 2 2 6.486 2 12s4.486 10 10 10a9.986 9.986 0 0 0 3-.46v-3.226A6.956 6.956 0 0 1 12 19c-3.859 0-7-3.14-7-7s3.141-7 7-7c.196 0 .39.014.582.03.22-.636.482-1.275.828-1.876a8.91 8.91 0 0 1 .611-.925A9.968 9.968 0 0 0 12 2zm6 0c-.75 0-1.38.372-1.855.822-.476.45-.845 1.002-1.153 1.594C14.376 5.599 14 6.901 14 8c0 1.85 1.284 3.406 3 3.855V22h2V11.855c1.716-.45 3-2.005 3-3.855 0-1.099-.376-2.4-.992-3.584-.308-.592-.677-1.144-1.152-1.594C19.38 2.372 18.75 2 18 2zm-6 5c-2.757 0-5 2.243-5 5s2.243 5 5 5c1.13 0 2.162-.39 3-1.025v-2.793A5.987 5.987 0 0 1 12 8c0-.303.031-.642.08-.992-.027 0-.052-.008-.08-.008z"/></svg>