<svg width="16" height="16" xmlns="http://www.w3.org/2000/svg"><path d="M13.43 5.513l1.042-1.042-.943-.942-1.138 1.138A4.631 4.631 0 0 0 10 4a4.672 4.672 0 0 0-4.667 4.667A4.672 4.672 0 0 0 10 13.334a4.672 4.672 0 0 0 4.667-4.667 4.644 4.644 0 0 0-1.237-3.154zM10 12a3.337 3.337 0 0 1-3.333-3.333A3.337 3.337 0 0 1 10 5.333a3.337 3.337 0 0 1 3.333 3.334A3.337 3.337 0 0 1 10 12z"/><path d="M9.333 6.667h1.334v2.666H9.333V6.667zM8.667 2h2.666v1.333H8.667V2zM2 5.333h2.667v1.334H2V5.333zm0 5.334h2.667V12H2v-1.333zM1.333 8h2.66v1.333h-2.66V8z"/></svg>