<svg viewBox="0 0 48 48" xmlns="http://www.w3.org/2000/svg"><g clip-path="url(#svg-shellfish)"><path d="M26.508 6.61c-.24.002-.48.04-.703.093-.446.108-.85.325-1.196.586-.263.2-.46.448-.656.703a3.784 3.784 0 0 0-3.61-1.195c-.017.003-.029-.003-.046 0a21.562 21.562 0 0 0-5.531 1.547c-1.767.756-2.61 1.969-2.766 3.094-.996-.109-2.153.216-3.07 1.265v.024c-1.008 1.233-1.86 2.633-2.438 4.195-.407 1.098-.51 2.156-.328 3.07.073.363.234.697.399 1.008-.206.111-.434.19-.586.375-.504.606-.689 1.427-.727 2.484v.047c0 2.426.478 4.184 1.336 5.508.858 1.324 2.065 2.147 3.351 2.766 2.265 1.09 4.779 1.696 6.868 3.187-.2.19-.396.384-.563.61a8.329 8.329 0 0 0-1.031 1.921c-.12.308-.208.613-.211.961-.003.349.132.783.422 1.055.58.545 1.348.586 2.484.586 1.486 0 2.341.006 2.953-.07.214-.027.41-.12.61-.211.717.636 1.529 1.148 2.648 1.148.803 0 1.5-.252 2.063-.656.301-.217.506-.527.75-.797.134.088.24.223.398.281.627.229 1.45.305 2.766.305 1.136 0 1.904-.041 2.484-.586.29-.272.425-.706.422-1.055-.003-.348-.09-.653-.21-.96-.273-.712-.73-1.416-1.243-1.993-.161-.181-.343-.32-.516-.468 2.385-1.685 5.007-2.254 7.29-3.376 1.242-.609 2.387-1.438 3.187-2.742.8-1.303 1.242-3.032 1.242-5.414 0-.448-.105-1.183-.445-1.945-.17-.38-.399-.788-.797-1.078.187-.299.34-.61.422-.985.181-.823.035-1.743-.399-2.976-.612-1.735-1.482-3.032-2.531-4.36v-.023c-.765-.96-2.071-1.31-3.258-1.031-.1-1.266-.934-2.523-2.344-3.14-1.702-.748-4.154-1.176-6.164-1.665a2.98 2.98 0 0 0-.726-.094zm-.024 1.5c.12-.004.246.014.375.046 2.077.504 4.565.985 5.953 1.594 1.43.627 1.817 1.825 1.313 2.695a.631.631 0 0 0-.094.235l-6.21 14.578a.751.751 0 1 0 1.359.61l6.187-14.532c.724-.662 1.943-.513 2.461.14 1.01 1.275 1.758 2.406 2.297 3.938.39 1.104.445 1.737.352 2.156-.094.42-.346.75-.844 1.266a.358.358 0 0 0-.047.047l-8.719 8.672a.76.76 0 0 0 0 1.078.76.76 0 0 0 1.078 0l8.555-8.531c.03.005.076-.03.117 0 .08.058.223.231.328.468.211.472.305 1.225.305 1.336 0 2.2-.39 3.613-1.008 4.617-.618 1.005-1.48 1.641-2.578 2.18-2.197 1.081-5.335 1.676-8.203 4.008-.062.05-.082.114-.14.164-.015.012-.033.012-.048.023a.87.87 0 0 0-.164.164.71.71 0 0 0-.093.118c-1.143 1.072-1.928 2.215-2.578 3.093-.012.015-.036.033-.047.047a.857.857 0 0 0-.047.07c-.355.47-.7.865-1.032 1.102-.351.252-.688.375-1.195.375-1.057 0-1.576-.457-2.344-1.383-.767-.925-1.637-2.267-3.117-3.609-2.592-2.35-5.765-2.924-8.062-4.031-1.149-.554-2.074-1.222-2.742-2.25-.665-1.026-1.1-2.452-1.102-4.664v-.024c.035-.867.22-1.386.375-1.57.12-.144.31-.129.54-.117l8.835 8.015a.75.75 0 1 0 1.008-1.101l-8.953-8.156a.712.712 0 0 0-.094-.094l-.024-.024a.366.366 0 0 0-.046-.023c-.024-.018-.047-.032-.07-.047l-.024-.023c-.258-.13-.54-.463-.656-1.055-.118-.592-.065-1.403.257-2.273.513-1.386 1.263-2.628 2.18-3.75.862-.988 1.7-.885 2.18-.633l6.75 14.625a.751.751 0 0 0 1.342.19.751.751 0 0 0 .017-.8l-6.844-14.883-.023-.07c-.167-.46-.097-1.556 1.852-2.39a20.155 20.155 0 0 1 5.203-1.454h.047c1.409-.295 2.44.604 2.648 1.383V26.72a.754.754 0 0 0 .372.659.757.757 0 0 0 .756 0 .754.754 0 0 0 .372-.66V9.61c.097-.401.37-.838.75-1.125.299-.225.624-.369.984-.375zm-8.507 28.265c.902.897 1.59 1.767 2.226 2.578-.469.03-1.06.047-2.297.047-.97 0-1.362-.19-1.383-.188.01-.07.02-.184.094-.374.205-.54.51-1.152.82-1.57.232-.317.487-.446.54-.493zm11.906.023c.152.109.346.276.539.493.392.442.776 1.063.96 1.547.074.19.086.304.095.374-.02-.002-.413.188-1.383.188-1.196 0-1.867-.129-2.18-.234.571-.797 1.198-1.612 1.969-2.368z"/></g><defs><clipPath id="svg-shellfish"><path fill="#fff" transform="translate(5.25 5.25)" d="M0 0h37.5v37.5H0z"/></clipPath></defs></svg>