<svg viewBox="0 0 48 48" xmlns="http://www.w3.org/2000/svg"><path d="M24 6.75c-1.348 0-2.596.182-3.656.422A4.955 4.955 0 0 0 16.5 12v5.977C12.97 20.7 12 25.433 12 30v11.25h1.5V30c0-3.89.727-7.655 3-10.055v11.883l.258.235S19.515 34.5 24 34.5c4.485 0 7.242-2.438 7.242-2.438l.258-.234V19.734c2.268 2.265 3 5.942 3 10.266v11.25H36V30c0-5.036-.964-9.65-4.5-12.21V12c0-2.3-1.597-4.318-3.844-4.828A16.631 16.631 0 0 0 24 6.75zm0 1.5c1.21 0 2.352.176 3.328.398A3.424 3.424 0 0 1 30 12v19.102c-.331.275-2.358 1.898-6 1.898s-5.669-1.623-6-1.898V12a3.424 3.424 0 0 1 2.672-3.352A15.058 15.058 0 0 1 24 8.25zM27 12v17.438c-.565.243-3.164 1.306-6.445-.118l-.61 1.36c4.286 1.857 8.133 0 8.133 0l.422-.211V12H27z"/></svg>