<svg viewBox="0 0 24 24" xmlns="http://www.w3.org/2000/svg"><path fill-rule="evenodd" clip-rule="evenodd" d="M15 3.508a2.411 2.411 0 0 0-3.509 0c-.988 1.026-.988 2.701 0 3.727l4.329 4.497a.25.25 0 0 0 .36 0l4.329-4.497c.988-1.026.988-2.701 0-3.727a2.411 2.411 0 0 0-3.51 0L16 4.546l-1-1.038zm1-1.123a3.91 3.91 0 0 0-5.59.082c-1.547 1.607-1.547 4.201 0 5.809l4.33 4.496a1.75 1.75 0 0 0 2.52 0l4.33-4.496c1.547-1.608 1.547-4.202 0-5.809A3.91 3.91 0 0 0 16 2.385z"/><path fill-rule="evenodd" clip-rule="evenodd" d="M2.25 5A2.75 2.75 0 0 1 5 2.25h3a.75.75 0 0 1 0 1.5H5c-.69 0-1.25.56-1.25 1.25v14c0 .69.56 1.25 1.25 1.25h14c.69 0 1.25-.56 1.25-1.25v-7.111a.75.75 0 0 1 1.5 0V19A2.75 2.75 0 0 1 19 21.75H5A2.75 2.75 0 0 1 2.25 19V5z"/></svg>