<svg viewBox="0 0 24 24" xmlns="http://www.w3.org/2000/svg"><path fill-rule="evenodd" clip-rule="evenodd" d="M12.5 5.5H0V4h14v4h4.969a3 3 0 0 1 2.785 1.886l.674 1.684A8 8 0 0 1 23 14.54V18h-2.05a2.5 2.5 0 0 1-4.9 0h-8.1a2.5 2.5 0 0 1-4.9 0H1v-5h1.5v3.5h.708a2.5 2.5 0 0 1 4.584 0H12.5v-11zm9 11h-.708a2.5 2.5 0 0 0-4.584 0H14v-7h4.969a1.5 1.5 0 0 1 1.393.943l.673 1.684a6.5 6.5 0 0 1 .465 2.414V16.5zm-15 1a1 1 0 1 1-2 0 1 1 0 0 1 2 0zm12 1a1 1 0 1 0 0-2 1 1 0 0 0 0 2z"/><path d="M1 7h10v1.5H1V7zm10 3H3v1.5h8V10zm-6 3h6v1.5H5V13z"/></svg>