<svg viewBox="0 0 48 48" xmlns="http://www.w3.org/2000/svg"><path d="M41.25 6s-.92-.006-2.016.188c-1.095.193-2.42.544-3.351 1.476a4.577 4.577 0 0 0-.258.281c-.34-.68-.727-1.125-.727-1.125a.748.748 0 0 0-.703-.257c-.87.134-1.672.676-2.39 1.406-.662.674-1.213 1.54-1.477 2.508-.419-.343-.797-.563-.797-.563a.742.742 0 0 0-.492-.094.785.785 0 0 0-.258.07c-.756.414-1.345 1.17-1.804 2.087a6.038 6.038 0 0 0-.586 1.804c-.238-.17-.422-.304-.422-.304a.755.755 0 0 0-.516-.094.77.77 0 0 0-.234.094c-.756.413-1.368 1.168-1.828 2.085a6.084 6.084 0 0 0-.563 1.758 6.147 6.147 0 0 0-.422-.28.755.755 0 0 0-.515-.095.771.771 0 0 0-.235.094c-.756.41-1.368 1.169-1.828 2.086a5.843 5.843 0 0 0-.562 1.805c-.238-.17-.422-.305-.422-.305a.761.761 0 0 0-.516-.117.77.77 0 0 0-.234.094c-.756.413-1.368 1.168-1.828 2.085a6.063 6.063 0 0 0-.586 1.782 62.774 62.774 0 0 0-.399-.282.744.744 0 0 0-.445-.117.74.74 0 0 0-.305.094c-.756.413-1.368 1.169-1.828 2.086-.46.917-.756 2.001-.61 3.094.168 1.245.69 2.17 1.313 2.765.264.25.542.449.82.586l-7.265 7.266a.76.76 0 0 0 0 1.078.76.76 0 0 0 1.078 0l7.266-7.266c.137.279.337.557.586.82.594.625 1.52 1.146 2.765 1.313 1.093.147 2.177-.15 3.094-.61.917-.46 1.673-1.071 2.086-1.827a.754.754 0 0 0-.023-.75s-.12-.173-.282-.399a6.06 6.06 0 0 0 1.782-.586c.917-.46 1.672-1.072 2.085-1.828a.754.754 0 0 0-.023-.75s-.135-.184-.305-.422a6.041 6.041 0 0 0 1.805-.586c.917-.46 1.673-1.048 2.086-1.804a.746.746 0 0 0 0-.75s-.114-.19-.281-.422a6.084 6.084 0 0 0 1.758-.563c.916-.46 1.672-1.072 2.085-1.828a.746.746 0 0 0 0-.75s-.149-.184-.328-.422a6.131 6.131 0 0 0 1.828-.586c.917-.46 1.673-1.048 2.086-1.804a.753.753 0 0 0-.023-.75s-.22-.378-.563-.797c.967-.264 1.834-.815 2.508-1.477.73-.717 1.272-1.52 1.407-2.39a.75.75 0 0 0-.258-.68s-.443-.401-1.125-.75c.093-.082.187-.164.28-.258.933-.931 1.284-2.256 1.477-3.351C42.007 7.67 42 6.75 42 6.75a.751.751 0 0 0-.75-.75zm-.82 1.57c-.02.32-.006.41-.094.914-.17.958-.536 2.063-1.055 2.579-.753.752-1.532.96-2.18.984a2.895 2.895 0 0 1-.82-.094.786.786 0 0 1-.187-.07.531.531 0 0 1-.07-.164c-.056-.2-.08-.478-.07-.797.02-.639.216-1.436.983-2.203.52-.519 1.62-.885 2.579-1.055.507-.088.594-.073.914-.094zm-6.375.727c.252.401.536.929.562 1.43v.07a4.59 4.59 0 0 0-.164 1.078c-.009.32.026.607.07.867a.985.985 0 0 0-.046.07c-.261.762-.601 1.275-.938 1.57-.316.276-.63.364-1.008.352-.02-.014-.023-.026-.047-.046a2.717 2.717 0 0 1-.445-.586 2.835 2.835 0 0 1-.328-2.086c.15-.689.618-1.43 1.172-1.993.419-.427.817-.58 1.172-.726zm-4.805 3.258c.076.058.076.044.164.117.346.29.688.697.773.937a.74.74 0 0 0 .141.258c.103.375.232.72.399 1.008.029.053.061.09.093.14a.839.839 0 0 0 .047.188c.15.358.068 1.113-.258 1.781-.313.642-.811 1.084-1.101 1.172-.076 0-.443-.061-.797-.398-.366-.349-.741-.932-.867-1.875-.091-.683.114-1.52.468-2.227.276-.548.633-.84.938-1.101zm8.906 1.828c.03-.009.065.009.094 0h.023c.498.026 1.029.31 1.43.562-.146.355-.299.753-.726 1.172-.563.554-1.304 1.023-1.993 1.172a2.835 2.835 0 0 1-2.086-.328 2.717 2.717 0 0 1-.586-.445c-.02-.024-.032-.027-.046-.047a1.357 1.357 0 0 1 .351-1.008c.073-.085.156-.176.258-.258.305-.249.741-.483 1.313-.68a.893.893 0 0 0 .093-.046 4 4 0 0 0 .867.07 4.45 4.45 0 0 0 1.008-.164zm-12.468 1.734c.076.059.076.044.164.117.345.29.688.721.773.961a.79.79 0 0 0 .117.188c.123.293.26.56.422.797.003.006-.003.017 0 .023a.839.839 0 0 0 .047.188c.226.62.129 1.465-.188 2.156-.307.68-.832 1.122-1.125 1.195-.1-.009-.433-.1-.773-.422a2.586 2.586 0 0 1-.61-.937.794.794 0 0 0-.046-.14 3.94 3.94 0 0 1-.188-.798c-.09-.682.114-1.52.469-2.226.275-.548.633-.841.938-1.102zm7.453 1.945c.114-.011.228-.005.328 0 .132.01.24.033.328.07a.834.834 0 0 0 .187.048c.05.032.088.064.141.093.296.17.645.32 1.031.422a.75.75 0 0 0 .235.117c.24.085.647.428.937.774.073.088.059.088.117.164-.258.305-.553.662-1.101.938-.706.354-1.541.56-2.227.468-.943-.126-1.526-.5-1.875-.867-.337-.354-.398-.72-.398-.797.088-.29.53-.788 1.172-1.101a3.318 3.318 0 0 1 1.125-.328zM22.125 18.68c.076.058.076.044.164.117.346.29.688.72.773.96a.64.64 0 0 0 .07.141c.136.34.285.65.47.915.003.005-.003.017 0 .023a.933.933 0 0 0 .046.07v.047c.226.621.13 1.465-.187 2.156-.302.665-.806 1.084-1.102 1.172-.088-.006-.45-.067-.797-.398-.366-.349-.717-.932-.843-1.875-.091-.683.114-1.52.468-2.227.276-.548.636-.843.938-1.101zm7.43 1.992c.375-.035.744.006 1.054.117a.839.839 0 0 0 .188.047c.237.164.5.299.797.422.064.05.134.09.21.117.24.085.648.428.938.773.082.1.076.103.14.188-.26.302-.559.642-1.1.914-.707.355-1.542.56-2.227.469a3.94 3.94 0 0 1-.797-.188.79.79 0 0 0-.14-.047 2.625 2.625 0 0 1-.938-.609c-.323-.34-.413-.674-.422-.773.073-.293.515-.818 1.195-1.125a3.47 3.47 0 0 1 1.102-.305zm-11.016 1.57c.085.065.088.059.188.14.345.29.688.698.773.938.02.076.053.147.094.211.134.337.284.654.468.914a.658.658 0 0 0 .024.07c.226.622.129 1.489-.188 2.18-.307.68-.832 1.099-1.125 1.172-.1-.009-.433-.076-.773-.398-.366-.349-.718-.955-.844-1.899-.09-.682.091-1.497.446-2.203.275-.545.635-.864.937-1.125zm7.453 1.992c.375-.035.744.006 1.055.118h.047a.893.893 0 0 0 .093.046c.273.19.586.355.938.493.006.003.018-.003.023 0a.36.36 0 0 0 .047.023c.018.006.03.018.047.023.24.085.671.428.961.774.073.088.059.088.117.164-.258.305-.553.662-1.101.938-.706.354-1.541.56-2.227.468-.943-.126-1.526-.477-1.875-.843-.337-.355-.398-.745-.398-.82.088-.297.507-.777 1.172-1.079a3.47 3.47 0 0 1 1.101-.305zm-11.015 1.594c.079.059.076.044.164.117.345.29.711.698.796.938a.76.76 0 0 0 .094.21c.132.32.27.616.446.868a.794.794 0 0 0 .046.14c.226.622.13 1.463-.187 2.157-.308.68-.832 1.099-1.125 1.172-.1-.01-.434-.076-.774-.399-.366-.348-.717-.931-.843-1.875-.091-.682.09-1.52.445-2.226.27-.54.636-.841.938-1.102zm7.453 1.969c.375-.035.744.006 1.054.117.044.02.094.035.141.047.26.179.56.34.89.469a.861.861 0 0 0 .165.07c.24.085.647.428.937.773.082.1.076.103.14.188-.26.302-.58.662-1.124.938-.706.354-1.541.536-2.227.445a3.939 3.939 0 0 1-.797-.188.795.795 0 0 0-.14-.047A2.624 2.624 0 0 1 20.53 30c-.322-.34-.39-.674-.398-.773.073-.293.492-.818 1.172-1.125.345-.159.75-.27 1.125-.305zm-3.586 3.586c.375-.035.744-.018 1.054.094.044.02.094.035.141.046.255.18.566.311.89.446.033.011.062.035.094.047a.36.36 0 0 0 .047.023c.018.006.03.018.047.023.24.086.648.452.938.797.073.088.058.085.117.164-.26.302-.563.668-1.102.938-.706.354-1.54.536-2.226.445-.944-.126-1.527-.477-1.875-.843-.323-.34-.39-.674-.399-.774.074-.293.492-.817 1.172-1.125a3.432 3.432 0 0 1 1.102-.281z"/></svg>