<svg viewBox="0 0 64 64" xmlns="http://www.w3.org/2000/svg"><path d="M20 10c-6.065.002-10.999 4.957-11 11.043v.002c.002.892.002 21.213 0 21.908v.002a11.049 11.049 0 0 0 3.22 7.807A10.965 10.965 0 0 0 20 54c3.754 0 7.075-1.89 9.06-4.77C31.8 52.158 35.684 54 40 54c8.272 0 15-6.728 15-15s-6.728-15-15-15c-3.379 0-6.49 1.136-9 3.027 0-2.122-.002-5.295 0-5.982v-.002c-.001-6.086-4.936-11.04-11-11.043zm0 2c4.98.002 8.998 4.032 9 9.041-.002.913-.002 6.831 0 7.795a15.247 15.247 0 0 0-1.693 2.209A.999.999 0 0 0 27 31H11v-9.959c.002-5.01 4.02-9.04 9-9.041zm20 14c7.191 0 13 5.808 13 13 0 7.191-5.809 13-13 13s-13-5.809-13-13c0-7.192 5.809-13 13-13zm7.05 4.92a1 1 0 0 0-.687.303l-14.14 14.14a1 1 0 1 0 1.414 1.414l14.14-14.14a1 1 0 0 0-.726-1.717zM11 33h15.277A14.803 14.803 0 0 0 25 39c0 1.42.212 2.79.582 4.094a1 1 0 0 0 .662 1.875 14.98 14.98 0 0 0 1.477 2.62 9.108 9.108 0 0 1-1.192 1.561 1 1 0 0 0-1.447 1.247A8.876 8.876 0 0 1 20 52a8.918 8.918 0 0 1-5.09-1.59 1 1 0 0 0-1.447-1.252A9.02 9.02 0 0 1 11 42.957V42a1 1 0 0 0 0-2v-4a1 1 0 0 0 0-2v-1zm6 1a1 1 0 1 0 0 2 1 1 0 0 0 0-2zm6 0a1 1 0 1 0 0 2 1 1 0 0 0 0-2zm-9 3a1 1 0 1 0 0 2 1 1 0 0 0 0-2zm6 0a1 1 0 1 0 0 2 1 1 0 0 0 0-2zm-3 3a1 1 0 1 0 0 2 1 1 0 0 0 0-2zm6 0a1 1 0 1 0 0 2 1 1 0 0 0 0-2zm-9 3a1 1 0 1 0 0 2 1 1 0 0 0 0-2zm6 0a1 1 0 1 0 0 2 1 1 0 0 0 0-2zm-3 3a1 1 0 1 0 0 2 1 1 0 0 0 0-2zm6 0a1 1 0 1 0 0 2 1 1 0 0 0 0-2zm-3 3a1 1 0 1 0 0 2 1 1 0 0 0 0-2z"/></svg>