<svg viewBox="0 0 48 48" xmlns="http://www.w3.org/2000/svg"><g clip-path="url(#svg-nervous-system)"><path d="M21 5.25c-4.509 0-7.166 2.458-8.015 4.617-2.327.434-4.424 1.992-5.485 4.43-1.09 2.502-1.043 5.868.68 9.656-.976 1.272-1.541 2.91-1.266 4.57.27 1.641 1.406 3.17 3.375 4.079-.797 1.84-.539 3.635.469 4.898 1.046 1.313 2.748 2.033 4.523 2.156.525 1.374 1.498 2.285 2.555 2.672 1.195.437 2.411.422 3.164.422a3.732 3.732 0 0 0 3-1.5 3.769 3.769 0 0 0 3 1.5c.838.006 2.054-.205 3.235-.844 1.04-.562 1.965-1.567 2.484-2.953 1.682-.059 3.346-.41 4.453-1.476a3.5 3.5 0 0 0 1.055-2.344c.044-.75-.173-1.6-.54-2.508 1.993-.902 3.176-2.426 3.47-4.078.295-1.658-.302-3.32-1.336-4.594 1.722-3.788 1.769-7.154.68-9.656-1.061-2.438-3.159-3.996-5.485-4.43C34.166 7.708 31.509 5.25 27 5.25c-1.113 0-2.162.287-2.836 1.148-.061.08-.111.173-.164.258-.053-.085-.102-.178-.164-.258-.674-.86-1.723-1.148-2.836-1.148zm0 1.5c.902 0 1.339.15 1.664.563.325.413.586 1.31.586 2.93V39c0 1.368-.908 2.25-2.25 2.25-.747 0-1.781-.012-2.648-.328-.867-.316-1.562-.85-1.875-2.11l-.14-.562h-.587c-1.52 0-3.017-.683-3.82-1.688-.803-1.004-1.043-2.276-.047-3.937l.492-.797-.89-.281C9.45 30.87 8.613 29.63 8.39 28.289c-.217-1.318.252-2.774 1.101-3.727a.35.35 0 0 0 .047-.046l.024-.024S11.385 22.5 13.5 22.5c2.672 0 3.985 1.29 3.985 1.29a.749.749 0 0 0 1.306-.332.754.754 0 0 0-.275-.747S16.685 21 13.5 21c-1.872 0-3.39.976-4.265 1.71-1.31-3.207-1.196-5.867-.352-7.804.926-2.13 2.728-3.419 4.688-3.656l.515-.07.117-.47c.405-1.41 2.59-3.96 6.797-3.96zm6 0c4.207 0 6.393 2.549 6.797 3.96l.117.47.516.07c1.96.237 3.762 1.526 4.687 3.656.83 1.905.958 4.503-.28 7.64a.754.754 0 0 0-.423.54s-.152.697-.984 1.5-2.335 1.664-5.18 1.664a.754.754 0 0 0-.659.372.757.757 0 0 0 0 .756c.138.234.39.375.66.372 3.154 0 5.1-1.014 6.21-2.086a5.15 5.15 0 0 0 .492-.539c.621.902.92 2.054.727 3.14-.237 1.337-1.128 2.602-3.164 3.282l-.82.258.375.773c.521 1.046.69 1.863.656 2.461-.035.598-.243 1.008-.61 1.36-.717.69-2.182 1.086-3.773 1.101-.961-.343-1.708-.835-2.227-1.5-.542-.697-.867-1.626-.867-3a.749.749 0 0 0-.914-.75.751.751 0 0 0-.586.75c0 1.626.425 2.947 1.195 3.938.619.793 1.439 1.335 2.368 1.734-.387.911-1.052 1.515-1.805 1.922-.911.492-1.957.659-2.508.656-1.348-.009-2.25-.882-2.25-2.25V10.242c0-1.62.26-2.516.586-2.93.325-.413.762-.562 1.664-.562zm-7.57 5.977a.857.857 0 0 0-.094.023.751.751 0 0 0-.586.75c0 .126-.129.738-.633 1.242S16.726 15.75 15 15.75a.754.754 0 0 0-.659.372.757.757 0 0 0 0 .756c.138.234.39.375.66.372 2.024 0 3.389-.621 4.194-1.43.806-.808 1.055-1.696 1.055-2.32a.75.75 0 0 0-.82-.773zm10.5 1.5a.857.857 0 0 0-.094.023.751.751 0 0 0-.586.75c0 .999.445 2.273 1.524 3.352 1.078 1.078 2.81 1.898 5.226 1.898a.754.754 0 0 0 .66-.372.757.757 0 0 0 0-.756.754.754 0 0 0-.66-.372c-2.083 0-3.351-.68-4.148-1.477-.797-.796-1.102-1.772-1.102-2.273a.75.75 0 0 0-.82-.773zM13.313 27.75a.752.752 0 0 0-.727.773c.012.413.36.739.774.727 2.015.334 2.882 1.41 3.375 2.555.492 1.145.515 2.32.515 2.695a.754.754 0 0 0 .372.66.757.757 0 0 0 .756 0 .755.755 0 0 0 .372-.66c0-.372 0-1.825-.633-3.305-.633-1.48-2.007-3.029-4.5-3.445a.787.787 0 0 0-.234 0h-.07z"/></g><defs><clipPath id="svg-nervous-system"><path fill="#fff" transform="translate(5.25 5.25)" d="M0 0h37.5v37.5H0z"/></clipPath></defs></svg>