<svg width="16" height="16" viewBox="0 0 16 16" fill="none" xmlns="http://www.w3.org/2000/svg">
<path fill-rule="evenodd" clip-rule="evenodd" d="M6 0.5H10V1.5H6V0.5ZM11.7133 3.28675L12.5 2.5L13.5 3.5L12.7133 4.28675C13.5191 5.30821 14 6.59795 14 8C14 11.3137 11.3137 14 8 14C4.68629 14 2 11.3137 2 8C2 4.68629 4.68629 2 8 2C9.40205 2 10.6918 2.4809 11.7133 3.28675ZM8 9C8.55228 9 9 8.55228 9 8C9 7.62986 8.7989 7.30669 8.5 7.13378V4H7.5V7.13378C7.2011 7.30669 7 7.62986 7 8C7 8.55228 7.44772 9 8 9ZM13 8C13 10.7614 10.7614 13 8 13C5.23858 13 3 10.7614 3 8C3 5.23858 5.23858 3 8 3C10.7614 3 13 5.23858 13 8Z" fill="#252728"/>
</svg>
