<svg viewBox="0 0 16 16" xmlns="http://www.w3.org/2000/svg"><path d="M2.881 1.28c-.88 0-1.6.72-1.6 1.6v10.24c0 .88.72 1.6 1.6 1.6h10.24c.88 0 1.6-.72 1.6-1.6V2.88c0-.88-.72-1.6-1.6-1.6H2.881zm0 .64h10.24c.534 0 .96.426.96.96v10.24c0 .534-.426.96-.96.96H2.881a.955.955 0 0 1-.96-.96V2.88c0-.534.426-.96.96-.96zm2.4.64c-.56 0-1.02.221-1.32.557-.298.336-.44.772-.44 1.203 0 .43.142.866.44 1.202.3.336.76.558 1.32.558s1.021-.222 1.32-.558c.298-.336.44-.771.44-1.202 0-.431-.142-.867-.44-1.203-.299-.336-.76-.557-1.32-.557zm5.28 0a2.245 2.245 0 0 0-2.24 2.24 2.245 2.245 0 0 0 2.24 2.24 2.245 2.245 0 0 0 2.24-2.24 2.245 2.245 0 0 0-2.24-2.24zm-5.28.64c.4 0 .66.138.84.342.182.204.28.489.28.778 0 .289-.098.573-.28.777-.18.204-.44.343-.84.343-.4 0-.659-.139-.84-.343a1.178 1.178 0 0 1-.28-.777c0-.29.098-.574.28-.778.181-.204.44-.342.84-.342zm5.28 0c.888 0 1.6.712 1.6 1.6 0 .887-.712 1.6-1.6 1.6-.887 0-1.6-.713-1.6-1.6 0-.888.713-1.6 1.6-1.6zm-5.12 4.16a2.245 2.245 0 0 0-2.24 2.24 2.245 2.245 0 0 0 2.24 2.24 2.245 2.245 0 0 0 2.24-2.24 2.245 2.245 0 0 0-2.24-2.24zm0 .64c.888 0 1.6.712 1.6 1.6 0 .887-.712 1.6-1.6 1.6-.887 0-1.6-.713-1.6-1.6 0-.888.713-1.6 1.6-1.6zm5.28.32c-.56 0-1.02.221-1.32.557-.298.336-.44.772-.44 1.203 0 .43.142.866.44 1.202.3.336.76.558 1.32.558s1.021-.222 1.32-.558c.298-.336.44-.771.44-1.202 0-.431-.142-.867-.44-1.203-.299-.336-.76-.557-1.32-.557zm0 .64c.4 0 .66.138.84.342.182.204.28.489.28.778 0 .289-.098.573-.28.777-.18.204-.44.343-.84.343-.4 0-.659-.139-.84-.343a1.178 1.178 0 0 1-.28-.777c0-.29.098-.574.28-.778.181-.204.44-.342.84-.342zm-5.44 3.52a.48.48 0 1 0 0 .96.48.48 0 0 0 0-.96zm1.6 0a.48.48 0 1 0 0 .96.48.48 0 0 0 0-.96zm2.24 0a.48.48 0 1 0 0 .96.48.48 0 0 0 0-.96zm1.6 0a.48.48 0 1 0 0 .96.48.48 0 0 0 0-.96z"/></svg>