<svg viewBox="0 0 48 48" xmlns="http://www.w3.org/2000/svg"><path d="M27 9.75a.802.802 0 0 0-.188.023l-9.029 2.309a.745.745 0 0 0-.565.718c0 .343.225.641.553.732.056.015.695.364 1.04.988.34.612.53 1.494.036 2.838-.507.29-1 .586-1.456.885-1.814 1.18-2.921 2.145-3.548 2.713-.627-1.099-2.593-4.23-6.495-4.23-.264 0-.648.038-.95.48a1.154 1.154 0 0 0-.172.782c.035.258.131.487.278.727.656 1.104 1.834 3.343 1.834 5.136 0 1.784-1.236 4.555-1.94 5.528-.249.34-.398.823-.187 1.274.208.452.7.654 1.107.654 2.857 0 4.714-1.383 5.763-2.74.454-.586.72-1.14.935-1.623 1.397 1.26 4.798 3.979 9.231 5.028.384.747.264 1.561.076 2.346-.1.422-.228.788-.24 1.242-.006.23.024.54.26.815.238.278.604.375.886.375h2.762a.759.759 0 0 0 .39-.108c-.073.043.302-.141.688-.349a8.53 8.53 0 0 0 1.371-.905c.885-.724 1.793-1.837 2.057-3.372 4.776-.838 7.793-2.977 9.668-5.745.258-.384.56-.818.668-1.41.105-.591-.032-1.265-.43-1.977-.534-.961-1.682-2.98-3.959-4.732-1.213-.931-2.765-1.78-4.693-2.376-.313-1.236-1.617-5.214-5.604-6.011A.856.856 0 0 0 27 9.75zm-.047 1.535c2.411.545 3.569 2.713 4.075 4.058a21.438 21.438 0 0 0-4.242-.416c-2.177 0-4.295.644-6.19 1.523.117-1.063-.094-1.971-.472-2.657-.15-.27-.337-.428-.507-.633l7.336-1.875zm-.167 5.142c4.676 0 7.714 1.356 9.744 2.918 2.03 1.558 3.038 3.325 3.56 4.265h.003c.287.519.302.768.263.982-.04.214-.184.466-.433.838-2.16 3.19-5.845 5.47-13.137 5.47-6.797 0-12.524-5.763-12.524-5.763a.75.75 0 0 0-1.266.349s-.258 1.072-1.101 2.162c-.771.998-1.998 1.93-4.014 2.094.905-1.409 1.957-3.723 1.957-5.891 0-2.174-1.081-4.19-1.805-5.432 3.053.521 5.025 3.984 5.025 3.984a.746.746 0 0 0 1.192.197s1.58-1.547 3.961-3.1c2.382-1.556 5.546-3.073 8.575-3.073zm6.964 5.323a1.501 1.501 0 1 0 .002 3.002 1.501 1.501 0 0 0-.002-3.002zm-3.838 10.485c-.267.862-.82 1.497-1.42 1.99a7.11 7.11 0 0 1-1.132.747c-.24.129-.38.196-.545.278h-2.159c.035-.173.056-.293.126-.586.15-.63.308-1.491.135-2.39.61.076 1.23.125 1.87.125 1.112 0 2.147-.061 3.125-.164z"/></svg>