<svg viewBox="0 0 40 40" xmlns="http://www.w3.org/2000/svg"><path fill-rule="evenodd" clip-rule="evenodd" d="M20 36.5c9.113 0 16.5-7.387 16.5-16.5S29.113 3.5 20 3.5 3.5 10.887 3.5 20 10.887 36.5 20 36.5zm0 1.5c9.941 0 18-8.059 18-18S29.941 2 20 2 2 10.059 2 20s8.059 18 18 18zm-4-10v-3h1a1 1 0 0 0 1-1v-3a1 1 0 0 0-1-1h-1v-3h8v3h-1a1 1 0 0 0-1 1v3a1 1 0 0 0 1 1h1v3h-8zm1-1v-1a2 2 0 0 0 2-2v-3a2 2 0 0 0-2-2v-1h6v1a2 2 0 0 0-2 2v3a2 2 0 0 0 2 2v1h-6zm4.5-13.5a1.5 1.5 0 1 1-3 0 1.5 1.5 0 0 1 3 0zm1 0a2.5 2.5 0 1 1-5 0 2.5 2.5 0 0 1 5 0z"/></svg>