<svg viewBox="0 0 33 32" xmlns="http://www.w3.org/2000/svg"><g clip-path="url(#icon-skipped-clip)"><path d="M6.7 6.5A2.507 2.507 0 0 0 4.2 9v13c0 1.375 1.125 2.5 2.5 2.5h20c1.375 0 2.5-1.125 2.5-2.5V9c0-1.375-1.125-2.5-2.5-2.5h-20zm0 1h20c.834 0 1.5.666 1.5 1.5v13c0 .834-.666 1.5-1.5 1.5h-20c-.834 0-1.5-.666-1.5-1.5V9c0-.834.666-1.5 1.5-1.5z"/><path d="M8.358 17.581c-.282 0-.522-.045-.72-.135a1.05 1.05 0 0 1-.445-.378 1.009 1.009 0 0 1-.153-.549h.53a.553.553 0 0 0 .325.5c.114.057.268.085.463.085.177 0 .323-.025.437-.076a.558.558 0 0 0 .256-.203.486.486 0 0 0 .086-.279.36.36 0 0 0-.162-.306c-.108-.08-.27-.13-.486-.148l-.329-.032c-.303-.024-.544-.117-.724-.279a.838.838 0 0 1-.27-.648.96.96 0 0 1 .144-.53.993.993 0 0 1 .414-.352c.177-.087.382-.13.616-.13.24 0 .449.043.626.13a.941.941 0 0 1 .41.36.988.988 0 0 1 .148.55h-.531a.535.535 0 0 0-.072-.27.513.513 0 0 0-.212-.212.747.747 0 0 0-.369-.081.761.761 0 0 0-.36.076.54.54 0 0 0-.211.198.503.503 0 0 0-.072.261c0 .111.042.21.126.297.084.084.213.134.387.149l.324.027c.23.018.43.067.598.148a.955.955 0 0 1 .396.315.789.789 0 0 1 .144.477.908.908 0 0 1-.166.54 1.06 1.06 0 0 1-.46.365c-.194.087-.424.13-.688.13zm4.075-.081l-1.269-1.534h-.472l1.476-1.75h.616l-1.336 1.579-.032-.315 1.679 2.02h-.662zm-2.101 0v-3.285h.54V17.5h-.54zm3.173 0v-3.285h.54V17.5h-.54zm1.882-1.075v-.473h.684a.7.7 0 0 0 .356-.08.579.579 0 0 0 .22-.23.716.716 0 0 0 .077-.333.7.7 0 0 0-.077-.333.543.543 0 0 0-.22-.23.7.7 0 0 0-.356-.08h-.684v-.473h.621c.273 0 .503.045.689.135a.934.934 0 0 1 .427.373c.1.16.149.35.149.572v.072c0 .219-.05.41-.149.571a.96.96 0 0 1-.427.378 1.62 1.62 0 0 1-.689.13h-.62zm-.45 1.075v-3.307h.54V17.5h-.54zm3.373-1.075v-.473h.684a.7.7 0 0 0 .355-.08.579.579 0 0 0 .22-.23.716.716 0 0 0 .077-.333.7.7 0 0 0-.076-.333.543.543 0 0 0-.22-.23.7.7 0 0 0-.356-.08h-.684v-.473h.62c.274 0 .503.045.69.135a.934.934 0 0 1 .427.373c.099.16.148.35.148.572v.072c0 .219-.05.41-.148.571a.96.96 0 0 1-.428.378 1.62 1.62 0 0 1-.688.13h-.621zm-.45 1.075v-3.307h.54V17.5h-.54zm2.922 0v-3.285h.536V17.5h-.536zm.446 0v-.468h1.539v.468h-1.54zm0-1.435v-.468h1.413v.468h-1.413zm0-1.382v-.468h1.498v.468h-1.498zm2.694 2.835v-.5h.751c.183 0 .347-.028.49-.085a1.032 1.032 0 0 0 .6-.617 1.31 1.31 0 0 0 .08-.463c0-.177-.027-.336-.08-.477a.98.98 0 0 0-.6-.598 1.324 1.324 0 0 0-.49-.086h-.751v-.5h.706c.297 0 .555.046.774.136a1.503 1.503 0 0 1 .882.882c.072.192.108.39.108.594v.099c0 .192-.036.385-.108.58a1.55 1.55 0 0 1-.882.896 1.97 1.97 0 0 1-.774.14h-.706zm-.45 0v-3.325h.54v3.325h-.54z"/></g><defs><clipPath id="icon-skipped-clip"><path fill="#fff" transform="translate(4.2 3.5)" d="M0 0h25v25H0z"/></clipPath></defs></svg>