<svg viewBox="0 0 48 48" xmlns="http://www.w3.org/2000/svg"><g clip-path="url(#svg-skeletar-system)"><path d="M23.93 5.227a.88.88 0 0 0-.094.023.751.751 0 0 0-.586.75v1.5h-7.57a.752.752 0 0 0-.715.785c.02.413.372.735.785.715h7.5v3.75H12.61a.755.755 0 0 0-.68.82.755.755 0 0 0 .82.68h10.5V18h-7.64a.755.755 0 0 0-.68.82.755.755 0 0 0 .82.68h7.5v3.75h-5.39a.755.755 0 0 0-.68.82.755.755 0 0 0 .82.68h5.25v6.586c-1.207-.085-2.247-.363-3.094-.633-.51-.161-.946-.313-1.336-.445-.39-.132-.715-.258-1.125-.258-2.352 0-4.195 1.93-4.195 4.266 0 1.292.806 2.285 1.687 3.023.882.738 1.902 1.313 2.602 1.805.668.465 1.623 1.347 2.672 2.133 1.049.785 2.22 1.523 3.539 1.523 1.365 0 2.68-.806 3.843-1.617 1.164-.812 2.13-1.697 2.415-1.946.463-.4 1.497-1.028 2.414-1.804.917-.777 1.828-1.776 1.828-3.117 0-2.353-1.902-4.266-4.195-4.266-.41 0-.736.126-1.125.258-.39.132-.827.284-1.337.445-.846.27-1.886.548-3.093.633V24.75H30a.755.755 0 0 0 .659-.372.757.757 0 0 0 0-.756.754.754 0 0 0-.66-.372h-5.25V19.5h7.5a.755.755 0 0 0 .66-.372.757.757 0 0 0 0-.756.754.754 0 0 0-.66-.372h-7.5v-3.75h10.5a.755.755 0 0 0 .66-.372.757.757 0 0 0 0-.756.754.754 0 0 0-.66-.372h-10.5V9h7.5a.755.755 0 0 0 .66-.372.757.757 0 0 0 0-.756.755.755 0 0 0-.66-.372h-7.5V6a.75.75 0 0 0-.82-.773zM17.695 31.5c.003 0 .278.044.633.164.354.12.809.293 1.36.469 1.098.351 2.56.726 4.312.726 1.752 0 3.214-.375 4.312-.726.551-.176 1.005-.349 1.36-.469.354-.12.63-.164.633-.164C31.76 31.5 33 32.719 33 34.266c0 .609-.498 1.3-1.29 1.968-.79.668-1.775 1.254-2.437 1.828-.316.279-1.204 1.085-2.273 1.829-1.07.744-2.338 1.359-3 1.359-.706 0-1.667-.504-2.625-1.219-.958-.715-1.887-1.596-2.719-2.18-.8-.559-1.778-1.098-2.508-1.71-.73-.613-1.148-1.22-1.148-1.875 0-1.565 1.148-2.766 2.695-2.766zm.75 1.57c-.6 0-1.13.226-1.43.75-.524.827-.225 1.954.75 2.555.375.226.75.375 1.125.375.601 0 1.131-.226 1.43-.75.524-.826.226-1.954-.75-2.555-.375-.225-.75-.375-1.125-.375zm11.11 0c-.375 0-.75.077-1.125.375-.9.6-1.275 1.729-.75 2.555.298.524.905.75 1.43.75.374 0 .75-.076 1.124-.375.9-.6 1.275-1.728.75-2.555a1.71 1.71 0 0 0-1.43-.75zm-11.11 1.5c.076 0 .226.07.375.07.226.15.305.393.305.47 0 0-.085.07-.235.07-.076 0-.225-.07-.375-.07-.225-.15-.205-.305-.28-.305v-.164s.06-.07.21-.07zm11.11 0c.076 0 .134-.006.21.07v.165c0 .076-.055.228-.28.304-.077.076-.226.07-.376.07-.076 0-.158.006-.234-.07-.076-.076.006-.319.305-.468.149 0 .298-.07.375-.07z"/></g><defs><clipPath id="svg-skeletar-system"><path fill="#fff" transform="translate(5.25 5.25)" d="M0 0h37.5v37.5H0z"/></clipPath></defs></svg>